<?xml version="1.0" encoding="utf-8"?>
<!-- Generator: Adobe Illustrator 18.1.1, SVG Export Plug-In . SVG Version: 6.00 Build 0)  -->
<!DOCTYPE svg PUBLIC "-//W3C//DTD SVG 1.1//EN" "http://www.w3.org/Graphics/SVG/1.1/DTD/svg11.dtd">
<svg version="1.1" id="Layer_1" xmlns="http://www.w3.org/2000/svg" xmlns:xlink="http://www.w3.org/1999/xlink" x="0px" y="0px"
	 viewBox="0 -17.9 295 295" enable-background="new 0 -17.9 295 295" xml:space="preserve">
<g>
	<path fill="#FFFFFF" d="M254.8,141V5.4c0-4.9-4-9-8.9-9H44.1c-4.9,0-8.9,4-8.9,9V141L254.8,141L254.8,141z"/>
	<polygon fill="#D6317B" points="48.9,10.3 241.1,10.3 241.1,128.1 48.9,128.1 	"/>
	<g>
		<g>
			<defs>
				<rect id="SVGID_1_" x="0" y="-3.9" width="295" height="203.6"/>
			</defs>
			<clipPath id="SVGID_2_">
				<use xlink:href="#SVGID_1_"  overflow="visible"/>
			</clipPath>
			<polygon clip-path="url(#SVGID_2_)" fill="#FFFFFF" points="288.2,144.5 1.8,144.5 1.8,153.8 35.3,156.5 254.8,156.5 
				288.2,153.8 			"/>
		</g>
		<g>
			<defs>
				<rect id="SVGID_3_" x="0" y="-3.9" width="295" height="203.6"/>
			</defs>
			<clipPath id="SVGID_4_">
				<use xlink:href="#SVGID_3_"  overflow="visible"/>
			</clipPath>
			<path clip-path="url(#SVGID_4_)" fill="#FFFFFF" d="M135.1,178.8c-2.6,0-4.8-2.2-4.8-4.9V69.2c0-2.7,2.1-4.9,4.8-4.9h156.8
				c1.3,0,2.5,0.5,3.4,1.5c0.9,0.9,1.4,2.1,1.4,3.4v104.7c0,1.3-0.5,2.5-1.4,3.4c-0.9,1-2.1,1.5-3.4,1.5H135.1L135.1,178.8z"/>
		</g>
		<g>
			<defs>
				<rect id="SVGID_5_" x="0" y="-3.9" width="295" height="203.6"/>
			</defs>
			<clipPath id="SVGID_6_">
				<use xlink:href="#SVGID_5_"  overflow="visible"/>
			</clipPath>
			<path clip-path="url(#SVGID_6_)" fill="none" stroke="#D6317B" stroke-width="4.3213" stroke-miterlimit="10" d="M135.1,178.8
				c-2.6,0-4.8-2.2-4.8-4.9V69.2c0-2.7,2.1-4.9,4.8-4.9h156.8c1.3,0,2.5,0.5,3.4,1.5c0.9,0.9,1.4,2.1,1.4,3.4v104.7
				c0,1.3-0.5,2.5-1.4,3.4c-0.9,1-2.1,1.5-3.4,1.5H135.1L135.1,178.8z"/>
		</g>
	</g>
	<polygon fill="#D6317B" points="148.9,171.3 148.9,71.9 281.4,71.9 281.4,171.3 	"/>
	<path fill="#D6317B" d="M141,117.6c2.2,0,4,1.8,4,4s-1.8,4-4,4c-2.2,0-4-1.8-4-4C137,119.4,138.8,117.6,141,117.6"/>
	<path fill="#FFFFFF" d="M226.8,201c-2.5,0-4.6-2-4.6-4.5v-80c0-2.5,2-4.5,4.6-4.5h42.8c2.5,0,4.6,2,4.6,4.5v80c0,2.5-2,4.5-4.6,4.5
		H226.8L226.8,201z"/>
	<path fill="none" stroke="#D6317B" stroke-width="4.3213" stroke-miterlimit="10" d="M226.8,201c-2.5,0-4.6-2-4.6-4.5v-80
		c0-2.5,2-4.5,4.6-4.5h42.8c2.5,0,4.6,2,4.6,4.5v80c0,2.5-2,4.5-4.6,4.5H226.8L226.8,201z"/>
	<polygon fill="#D6317B" points="268.8,184 227.6,184 227.6,125.9 268.8,125.9 	"/>
	<path fill="#D6317B" d="M245.8,191.1c0-1.3,1.1-2.4,2.4-2.4c1.3,0,2.4,1.1,2.4,2.4c0,1.3-1.1,2.4-2.4,2.4
		C246.9,193.5,245.8,192.4,245.8,191.1"/>
</g>
</svg>
