<?xml version="1.0" encoding="utf-8"?>
<!-- Generator: Adobe Illustrator 18.1.1, SVG Export Plug-In . SVG Version: 6.00 Build 0)  -->
<!DOCTYPE svg PUBLIC "-//W3C//DTD SVG 1.1//EN" "http://www.w3.org/Graphics/SVG/1.1/DTD/svg11.dtd">
<svg version="1.1" id="Layer_1" xmlns="http://www.w3.org/2000/svg" xmlns:xlink="http://www.w3.org/1999/xlink" x="0px" y="0px"
	 viewBox="0 0 1676.7 1172.1" enable-background="new 0 0 1676.7 1172.1" xml:space="preserve">
<g>
	<path fill="#FFFFFF" d="M1448.2,823.2V53c0-28.1-22.8-51.1-50.7-51.1H250.7c-27.9,0-50.7,23-50.7,51.1v770.3H1448.2L1448.2,823.2z"
		/>
	<polygon fill="#D42675" points="278,80.5 1370.2,80.5 1370.2,750.2 278,750.2 278,80.5 	"/>
	<g>
		<defs>
			<polygon id="SVGID_1_" points="0,0 1676.7,0 1676.7,1157.1 0,1157.1 0,0 			"/>
		</defs>
		<clipPath id="SVGID_2_">
			<use xlink:href="#SVGID_1_"  overflow="visible"/>
		</clipPath>
		<polygon clip-path="url(#SVGID_2_)" fill="#FFFFFF" points="1638.3,843.3 10,843.3 10,896 200.4,911.4 1448,911.4 1638.3,896 
			1638.3,843.3 		"/>
		<path clip-path="url(#SVGID_2_)" fill="#FFFFFF" d="M767.6,1038.5c-15,0-27.2-12.5-27.2-27.9v-595c0-15.4,12.2-27.9,27.2-27.9
			h891.3c7.4,0,14.3,3,19.4,8.4c5,5.3,7.7,12.2,7.7,19.5v595c0,7.3-2.7,14.3-7.7,19.5c-5.2,5.4-12.1,8.4-19.4,8.4H767.6
			L767.6,1038.5z"/>
		<path clip-path="url(#SVGID_2_)" fill="none" stroke="#D42772" stroke-width="15" stroke-miterlimit="10" d="M767.6,1038.5
			c-15,0-27.2-12.5-27.2-27.9v-595c0-15.4,12.2-27.9,27.2-27.9h891.3c7.4,0,14.3,3,19.4,8.4c5,5.3,7.7,12.2,7.7,19.5v595
			c0,7.3-2.7,14.3-7.7,19.5c-5.2,5.4-12.1,8.4-19.4,8.4H767.6L767.6,1038.5z"/>
	</g>
	<polygon fill="#D42675" points="846.4,995.6 846.4,430.5 1599.4,430.5 1599.4,995.6 846.4,995.6 	"/>
	<path fill="#D42675" d="M801.4,690.3c12.6,0,22.8,10.2,22.8,22.8c0,12.6-10.2,22.7-22.8,22.7c-12.6,0-22.8-10.2-22.8-22.7
		C778.7,700.5,788.8,690.3,801.4,690.3"/>
	<path fill="#FFFFFF" d="M1289,1164.6c-14.3,0-25.9-11.5-25.9-25.7V684c0-14.2,11.6-25.7,25.9-25.7h243.5
		c14.3,0,25.9,11.5,25.9,25.7v454.9c0,14.2-11.6,25.7-25.9,25.7H1289L1289,1164.6z"/>
	<path fill="none" stroke="#D42772" stroke-width="15" stroke-miterlimit="10" d="M1289,1164.6c-14.3,0-25.9-11.5-25.9-25.7V684
		c0-14.2,11.6-25.7,25.9-25.7h243.5c14.3,0,25.9,11.5,25.9,25.7v454.9c0,14.2-11.6,25.7-25.9,25.7H1289L1289,1164.6z"/>
	<polygon fill="#D42675" points="1527.6,1067.9 1293.9,1067.9 1293.9,737.5 1527.6,737.5 1527.6,1067.9 	"/>
	<path fill="#D42675" d="M1397.1,1108.3c0-7.6,6.1-13.7,13.7-13.7c7.6,0,13.7,6.1,13.7,13.7s-6.1,13.7-13.7,13.7
		C1403.2,1121.9,1397.1,1115.8,1397.1,1108.3"/>
</g>
</svg>
