<?xml version="1.0" encoding="utf-8"?>
<!-- Generator: Adobe Illustrator 18.1.1, SVG Export Plug-In . SVG Version: 6.00 Build 0)  -->
<!DOCTYPE svg PUBLIC "-//W3C//DTD SVG 1.1//EN" "http://www.w3.org/Graphics/SVG/1.1/DTD/svg11.dtd">
<svg version="1.1" id="Layer_1" xmlns="http://www.w3.org/2000/svg" xmlns:xlink="http://www.w3.org/1999/xlink" x="0px" y="0px"
	 viewBox="0 0 1184.9 874.9" enable-background="new 0 0 1184.9 874.9" xml:space="preserve">
<g>
	<path fill="#FFFFFF" d="M932.5,357.4c186.9,0,252.3,91.3,252.3,91.3v321.2H680.1V448.7C680.1,448.7,745.5,357.4,932.5,357.4
		L932.5,357.4z"/>
	<path fill="#FFFFFF" d="M932.5,0c78.8,0,142.9,64.2,142.9,143c0,78.9-64.1,143-142.9,143c-78.8,0-142.9-64.1-142.9-143
		C789.6,64.2,853.7,0,932.5,0L932.5,0z"/>
	<path fill="#FFFFFF" d="M252.3,357.4C65.4,357.4,0,448.7,0,448.7v321.2h504.8V448.7C504.8,448.7,439.4,357.4,252.3,357.4
		L252.3,357.4z"/>
	<path fill="#FFFFFF" d="M252.4,0c-78.8,0-142.9,64.2-142.9,143c0,78.9,64.1,143,142.9,143c78.8,0,142.9-64.1,142.9-143
		C395.3,64.2,331.2,0,252.4,0L252.4,0z"/>
	<path fill="#FFFFFF" d="M314.8,849.7V495l4.7-6.6c3-4.1,75.3-101.8,272.8-101.8c197.7,0,270,97.6,273,101.8l4.7,6.6v354.6H314.8
		L314.8,849.7z"/>
	<path fill="#3FBBCB" d="M592.4,411.9c187,0,252.5,91.2,252.5,91.2v321.3H340V503.1C340,503.1,405.5,411.9,592.4,411.9 M592.4,361.4
		c-86.4,0-160.9,17.6-221.4,52.3c-46.8,26.9-68.2,54.7-72,60l-9.5,13.2v16.2v321.3v50.5H340h504.8h50.5v-50.5V503.1v-16.2l-9.5-13.2
		c-3.8-5.3-25.1-33.1-72-60C753.4,379,678.9,361.4,592.4,361.4L592.4,361.4L592.4,361.4z"/>
	<path fill="#FFFFFF" d="M592.5,54.5c-78.8,0-142.9,64.2-142.9,143c0,78.8,64.1,142.9,142.9,142.9c78.8,0,142.9-64.1,142.9-142.9
		C735.3,118.7,671.2,54.5,592.5,54.5L592.5,54.5z"/>
</g>
</svg>
