<?xml version="1.0" encoding="utf-8"?>
<!-- Generator: Adobe Illustrator 18.1.1, SVG Export Plug-In . SVG Version: 6.00 Build 0)  -->
<!DOCTYPE svg PUBLIC "-//W3C//DTD SVG 1.1//EN" "http://www.w3.org/Graphics/SVG/1.1/DTD/svg11.dtd">
<svg version="1.1" id="Layer_1" xmlns="http://www.w3.org/2000/svg" xmlns:xlink="http://www.w3.org/1999/xlink" x="0px" y="0px"
	 viewBox="0 0 1487.2 1066.7" enable-background="new 0 0 1487.2 1066.7" xml:space="preserve">
<g>
	<polygon fill="#FFFFFF" points="715,776.5 775,901.2 629.2,901.2 586.4,901.2 440.7,901.2 500.7,776.5 715,776.5 	"/>
	<polygon fill="none" stroke="#61B45B" stroke-width="10" stroke-miterlimit="10" points="715,776.5 775,901.2 629.2,901.2 
		586.4,901.2 440.7,901.2 500.7,776.5 715,776.5 	"/>
	<path fill="#FFFFFF" d="M1205.6,758c0,27.1-21.9,49.3-48.6,49.3H58.6C31.9,807.3,10,785.1,10,758V59.3C10,32.2,31.9,10,58.6,10
		h1098.5c26.7,0,48.6,22.2,48.6,49.3L1205.6,758c0,27.1-21.9,49.3-48.6,49.3H58.6C31.9,807.3,10,785.1,10,758"/>
	<path fill="none" stroke="#61B45B" stroke-width="20" stroke-miterlimit="10" d="M1205.6,758c0,27.1-21.9,49.3-48.6,49.3H58.6
		C31.9,807.3,10,785.1,10,758V59.3C10,32.2,31.9,10,58.6,10h1098.5c26.7,0,48.6,22.2,48.6,49.3L1205.6,758
		c0,27.1-21.9,49.3-48.6,49.3H58.6C31.9,807.3,10,785.1,10,758"/>
	<polygon fill="#61B45B" points="91.9,725 1123.7,725 1123.7,92.3 91.9,92.3 91.9,725 	"/>
	<polygon fill="#FFFFFF" points="154.8,892.9 13.2,985.2 1202.4,986.2 1061,893.1 154.8,892.9 	"/>
	<polygon fill="none" stroke="#61B45B" stroke-width="20" stroke-linejoin="round" stroke-miterlimit="10" points="154.8,892.9 
		13.2,985.2 1202.4,986.2 1061,893.1 154.8,892.9 	"/>
	<path fill="#FFFFFF" d="M1482.2,991.6c0,38.5-201.6,38.5-201.6,0s45.1-69.8,100.8-69.8C1437,921.8,1482.2,953.1,1482.2,991.6
		L1482.2,991.6z"/>
	<path fill="none" stroke="#61B45B" stroke-width="10" stroke-linejoin="round" stroke-miterlimit="10" d="M1482.2,991.6
		c0,38.5-201.6,38.5-201.6,0s45.1-69.8,100.8-69.8C1437,921.8,1482.2,953.1,1482.2,991.6L1482.2,991.6z"/>
	<polygon fill="#FFFFFF" points="1202.1,1061.7 13.5,1061.7 13.5,989.3 1202.1,989.3 1202.1,1061.7 	"/>
	<polygon fill="none" stroke="#61B45B" stroke-width="10" stroke-linejoin="round" stroke-miterlimit="10" points="1202.1,1061.7 
		13.5,1061.7 13.5,989.3 1202.1,989.3 1202.1,1061.7 	"/>
</g>
</svg>
