<?xml version="1.0" encoding="utf-8"?>
<!-- Generator: Adobe Illustrator 18.1.1, SVG Export Plug-In . SVG Version: 6.00 Build 0)  -->
<!DOCTYPE svg PUBLIC "-//W3C//DTD SVG 1.1//EN" "http://www.w3.org/Graphics/SVG/1.1/DTD/svg11.dtd">
<svg version="1.1" id="Layer_1" xmlns="http://www.w3.org/2000/svg" xmlns:xlink="http://www.w3.org/1999/xlink" x="0px" y="0px"
	 viewBox="0 0 1112.9 1037.5" enable-background="new 0 0 1112.9 1037.5" xml:space="preserve">
<g>
	<polygon fill="#FFFFFF" points="285.4,0 0,285.4 0,1037.5 795,1037.5 795,665.2 709.4,750.9 709.4,951.9 85.6,951.9 85.6,346 
		346,346 346,85.6 709.4,85.6 709.4,466.7 709.4,518.7 795,518.7 795,381.1 795,329.7 795,0 285.4,0 	"/>
	<polygon fill="#FFFFFF" points="448.4,678.6 396.2,837.1 554.7,784.8 448.4,678.6 	"/>
	<polygon fill="#FFFFFF" points="1090.2,233.9 999.4,143 976.7,120.3 896.8,200.3 478.8,618.2 615,754.4 1090.2,279.3 1112.9,256.6 
		1090.2,233.9 	"/>
</g>
</svg>
