<?xml version="1.0" encoding="utf-8"?>
<!-- Generator: Adobe Illustrator 18.1.1, SVG Export Plug-In . SVG Version: 6.00 Build 0)  -->
<!DOCTYPE svg PUBLIC "-//W3C//DTD SVG 1.1//EN" "http://www.w3.org/Graphics/SVG/1.1/DTD/svg11.dtd">
<svg version="1.1" id="Layer_1" xmlns="http://www.w3.org/2000/svg" xmlns:xlink="http://www.w3.org/1999/xlink" x="0px" y="0px"
	 viewBox="100.1 -10 295 295" enable-background="new 100.1 -10 295 295" xml:space="preserve">
<g>
	<polygon fill="#FFFFFF" points="175.7,0 100.1,75.7 100.1,275 310.8,275 310.8,176.3 288.1,199 288.1,252.3 122.8,252.3 
		122.8,91.7 191.8,91.7 191.8,22.7 288.1,22.7 288.1,123.7 288.1,137.5 310.8,137.5 310.8,101 310.8,87.4 310.8,0 	"/>
	<polygon fill="#FFFFFF" points="219,179.9 205.1,221.9 247.1,208 	"/>
	<polygon fill="#FFFFFF" points="389.1,62 365,37.9 359,31.9 337.8,53.1 227,163.9 263.1,200 389.1,74 395.1,68 	"/>
</g>
</svg>
