<?xml version="1.0" encoding="utf-8"?>
<!-- Generator: Adobe Illustrator 18.1.1, SVG Export Plug-In . SVG Version: 6.00 Build 0)  -->
<!DOCTYPE svg PUBLIC "-//W3C//DTD SVG 1.1//EN" "http://www.w3.org/Graphics/SVG/1.1/DTD/svg11.dtd">
<svg version="1.1" id="Layer_1" xmlns="http://www.w3.org/2000/svg" xmlns:xlink="http://www.w3.org/1999/xlink" x="0px" y="0px"
	 viewBox="100.1 -10 295 295" enable-background="new 100.1 -10 295 295" xml:space="preserve">
<g>
	<polygon fill="#FFFFFF" points="220.4,-9 160.2,51.2 160.2,210 328,210 328,131.4 309.9,149.5 309.9,191.9 178.2,191.9 178.2,64 
		233.2,64 233.2,9.1 309.9,9.1 309.9,89.5 309.9,100.5 328,100.5 328,71.4 328,60.6 328,-9 	"/>
	<polygon fill="#FFFFFF" points="254.8,134.2 243.8,167.7 277.3,156.7 	"/>
	<polygon fill="#FFFFFF" points="390.3,40.4 371.1,21.2 366.3,16.4 349.5,33.3 261.2,121.5 290,150.2 390.3,50 395.1,45.2 	"/>
</g>
</svg>
