<?xml version="1.0" encoding="utf-8"?>
<!-- Generator: Adobe Illustrator 18.1.1, SVG Export Plug-In . SVG Version: 6.00 Build 0)  -->
<!DOCTYPE svg PUBLIC "-//W3C//DTD SVG 1.1//EN" "http://www.w3.org/Graphics/SVG/1.1/DTD/svg11.dtd">
<svg version="1.1" id="Layer_1" xmlns="http://www.w3.org/2000/svg" xmlns:xlink="http://www.w3.org/1999/xlink" x="0px" y="0px"
	 viewBox="0 0 899.5 899.5" enable-background="new 0 0 899.5 899.5" xml:space="preserve">
<g>
	<path fill="#FFFFFF" d="M823.6,449.8c0,206.2-167.7,373.9-373.9,373.9c-206.2,0-373.9-167.7-373.9-373.9
		c0-206.2,167.7-373.9,373.9-373.9C655.9,75.8,823.6,243.6,823.6,449.8 M899.5,449.8C899.5,201.8,697.7,0,449.8,0
		C201.8,0,0,201.8,0,449.8c0,248,201.8,449.7,449.8,449.7C697.7,899.5,899.5,697.8,899.5,449.8"/>
	<path fill="#FFFFFF" d="M449.8,615c73,0,139.1-40.4,172.5-105.4l82.2,42.3c-49.4,95.9-147,155.6-254.7,155.6
		C342,707.5,244.4,647.9,195,552l82.2-42.4C310.7,574.6,376.8,615,449.8,615"/>
	<path fill="#FFFFFF" d="M332.5,402c-40.6,0-73.5-32.9-73.5-73.5c0-40.6,32.9-73.5,73.5-73.5c40.6,0,73.5,32.9,73.5,73.5
		C406,369.1,373.2,402,332.5,402"/>
	<path fill="#FFFFFF" d="M566.9,402c-40.6,0-73.5-32.9-73.5-73.5c0-40.6,32.9-73.5,73.5-73.5c40.6,0,73.5,32.9,73.5,73.5
		C640.4,369.1,607.6,402,566.9,402"/>
</g>
</svg>
