<?xml version="1.0" encoding="utf-8"?>
<!-- Generator: Adobe Illustrator 18.1.1, SVG Export Plug-In . SVG Version: 6.00 Build 0)  -->
<!DOCTYPE svg PUBLIC "-//W3C//DTD SVG 1.1//EN" "http://www.w3.org/Graphics/SVG/1.1/DTD/svg11.dtd">
<svg version="1.1" id="Layer_1" xmlns="http://www.w3.org/2000/svg" xmlns:xlink="http://www.w3.org/1999/xlink" x="0px" y="0px"
	 viewBox="128 0 295 295" enable-background="new 128 0 295 295" xml:space="preserve">
<g>
	<path fill="#FFFFFF" d="M398.1,147.5c0,67.6-55,122.6-122.6,122.6s-122.6-55-122.6-122.6s55-122.6,122.6-122.6
		C343.1,24.9,398.1,79.9,398.1,147.5 M423,147.5C423,66.2,356.8,0,275.5,0C194.2,0,128,66.2,128,147.5S194.2,295,275.5,295
		C356.8,295,423,228.9,423,147.5"/>
	<path fill="#FFFFFF" d="M275.5,201.7c23.9,0,45.6-13.2,56.6-34.6l27,13.9c-16.2,31.5-48.2,51-83.5,51c-35.4,0-67.4-19.5-83.6-51
		l27-13.9C229.9,188.4,251.6,201.7,275.5,201.7"/>
	<path fill="#FFFFFF" d="M237,131.8c-13.3,0-24.1-10.8-24.1-24.1s10.8-24.1,24.1-24.1s24.1,10.8,24.1,24.1S250.4,131.8,237,131.8"/>
	<path fill="#FFFFFF" d="M313.9,131.8c-13.3,0-24.1-10.8-24.1-24.1s10.8-24.1,24.1-24.1c13.3,0,24.1,10.8,24.1,24.1
		S327.3,131.8,313.9,131.8"/>
</g>
</svg>
