<?xml version="1.0" encoding="utf-8"?>
<!-- Generator: Adobe Illustrator 18.1.1, SVG Export Plug-In . SVG Version: 6.00 Build 0)  -->
<!DOCTYPE svg PUBLIC "-//W3C//DTD SVG 1.1//EN" "http://www.w3.org/Graphics/SVG/1.1/DTD/svg11.dtd">
<svg version="1.1" id="Layer_1" xmlns="http://www.w3.org/2000/svg" xmlns:xlink="http://www.w3.org/1999/xlink" x="0px" y="0px"
	 viewBox="128 0 295 295" enable-background="new 128 0 295 295" xml:space="preserve">
<g>
	<path fill="#FFFFFF" d="M366.9,128c0,50.4-41,91.4-91.4,91.4S184,178.4,184,128s41-91.4,91.4-91.4C325.9,36.5,366.9,77.6,366.9,128
		 M385.5,128c0-60.7-49.4-110-110-110c-60.7,0-110,49.4-110,110s49.4,110,110,110C336.1,238,385.5,188.7,385.5,128"/>
	<path fill="#FFFFFF" d="M275.5,168.4c17.9,0,34-9.9,42.2-25.8l20.1,10.3c-12.1,23.5-36,38.1-62.3,38.1c-26.4,0-50.2-14.6-62.3-38
		l20.1-10.4C241.5,158.5,257.7,168.4,275.5,168.4"/>
	<path fill="#FFFFFF" d="M246.8,116.3c-9.9,0-18-8-18-18s8-18,18-18c9.9,0,18,8,18,18S256.8,116.3,246.8,116.3"/>
	<path fill="#FFFFFF" d="M304.2,116.3c-9.9,0-18-8-18-18s8-18,18-18s18,8,18,18S314.1,116.3,304.2,116.3"/>
</g>
</svg>
