<?xml version="1.0" encoding="utf-8"?>
<!-- Generator: Adobe Illustrator 18.1.1, SVG Export Plug-In . SVG Version: 6.00 Build 0)  -->
<!DOCTYPE svg PUBLIC "-//W3C//DTD SVG 1.1//EN" "http://www.w3.org/Graphics/SVG/1.1/DTD/svg11.dtd">
<svg version="1.1" id="Layer_1" xmlns="http://www.w3.org/2000/svg" xmlns:xlink="http://www.w3.org/1999/xlink" x="0px" y="0px"
	 viewBox="0 -32.6 295 295" enable-background="new 0 -32.6 295 295" xml:space="preserve">
<g>
	<path fill="#FFFFFF" d="M232.2,78.9c46.5,0,62.8,22.7,62.8,22.7v80H169.3v-80C169.3,101.7,185.6,78.9,232.2,78.9L232.2,78.9z"/>
	<path fill="#FFFFFF" d="M232.2-10c19.6,0,35.6,16,35.6,35.6c0,19.6-16,35.6-35.6,35.6s-35.6-16-35.6-35.6
		C196.6,5.9,212.6-10,232.2-10L232.2-10z"/>
	<path fill="#FFFFFF" d="M62.8,78.9C16.3,78.9,0,101.7,0,101.7v80h125.7v-80C125.7,101.7,109.4,78.9,62.8,78.9L62.8,78.9z"/>
	<path fill="#FFFFFF" d="M62.8-10c-19.6,0-35.6,16-35.6,35.6c0,19.6,16,35.6,35.6,35.6s35.6-16,35.6-35.6C98.4,5.9,82.5-10,62.8-10
		L62.8-10z"/>
	<path fill="#FFFFFF" d="M78.4,201.5v-88.3l1.2-1.6c0.7-1,18.7-25.3,67.9-25.3c49.2,0,67.2,24.3,68,25.3l1.2,1.6v88.3L78.4,201.5
		L78.4,201.5z"/>
	<path fill="#ED1C1A" d="M147.5,92.5c46.6,0,62.9,22.7,62.9,22.7v80H84.7v-80C84.7,115.2,101,92.5,147.5,92.5 M147.5,79.9
		c-21.5,0-40.1,4.4-55.1,13c-11.7,6.7-17,13.6-17.9,14.9l-2.4,3.3v4v80v12.6h12.6h125.7h12.6v-12.6v-80v-4l-2.4-3.3
		c-0.9-1.3-6.2-8.2-17.9-14.9C187.6,84.3,169,79.9,147.5,79.9L147.5,79.9L147.5,79.9z"/>
	<path fill="#FFFFFF" d="M147.5,3.5c-19.6,0-35.6,16-35.6,35.6s16,35.6,35.6,35.6s35.6-16,35.6-35.6C183.1,19.5,167.1,3.5,147.5,3.5
		L147.5,3.5z"/>
</g>
</svg>
