<?xml version="1.0" encoding="utf-8"?>
<!-- Generator: Adobe Illustrator 18.1.1, SVG Export Plug-In . SVG Version: 6.00 Build 0)  -->
<!DOCTYPE svg PUBLIC "-//W3C//DTD SVG 1.1//EN" "http://www.w3.org/Graphics/SVG/1.1/DTD/svg11.dtd">
<svg version="1.1" id="Layer_1" xmlns="http://www.w3.org/2000/svg" xmlns:xlink="http://www.w3.org/1999/xlink" x="0px" y="0px"
	 viewBox="0 -32.1 295 295" enable-background="new 0 -32.1 295 295" xml:space="preserve">
<g>
	<path fill="#FFFFFF" d="M147.5-23.2L0,54.4L147.5,132l85.4-43.2c0,0,0,39.1,0,58.7c0,31,31,31,31,31V163c0,0-15.5-0.9-15.5-15.5
		c0-23.3,0-67.4,0-67.4L295,54.4L147.5-23.2L147.5-23.2z"/>
	<path fill="#FFFFFF" d="M69.1,112.1v31c0,7.7,5,18,15.5,23.3l62.9,27.7l56.4-28.3c10.5-5.2,24-15.6,23.3-23.3v-31l-79.7,39
		L69.1,112.1L69.1,112.1z"/>
</g>
</svg>
