<?xml version="1.0" encoding="utf-8"?>
<!-- Generator: Adobe Illustrator 18.1.1, SVG Export Plug-In . SVG Version: 6.00 Build 0)  -->
<!DOCTYPE svg PUBLIC "-//W3C//DTD SVG 1.1//EN" "http://www.w3.org/Graphics/SVG/1.1/DTD/svg11.dtd">
<svg version="1.1" id="Layer_1" xmlns="http://www.w3.org/2000/svg" xmlns:xlink="http://www.w3.org/1999/xlink" x="0px" y="0px"
	 viewBox="0 0 1309.3 964.7" enable-background="new 0 0 1309.3 964.7" xml:space="preserve">
<g>
	<path fill="#FFFFFF" d="M654.7,0L0,344.5l654.7,344.6l379-191.7c0,0,0,173.7,0,260.5c0,137.8,137.8,137.8,137.8,137.8v-68.9
		c0,0-68.9-3.9-68.9-68.9c0-103.4,0-299.3,0-299.3l206.7-114.1L654.7,0L654.7,0z"/>
	<path fill="#FFFFFF" d="M306.7,600.7v137.8c0,34.2,22.4,80.1,68.9,103.4l279.1,122.8l250.5-125.7c46.5-23.3,106.6-69.3,103.4-103.4
		V597.9l-353.9,173L306.7,600.7L306.7,600.7z"/>
</g>
</svg>
