<?xml version="1.0" encoding="utf-8"?>
<!-- Generator: Adobe Illustrator 18.1.1, SVG Export Plug-In . SVG Version: 6.00 Build 0)  -->
<!DOCTYPE svg PUBLIC "-//W3C//DTD SVG 1.1//EN" "http://www.w3.org/Graphics/SVG/1.1/DTD/svg11.dtd">
<svg version="1.1" id="Layer_1" xmlns="http://www.w3.org/2000/svg" xmlns:xlink="http://www.w3.org/1999/xlink" x="0px" y="0px"
	 viewBox="0 0 844.6 1034.2" enable-background="new 0 0 844.6 1034.2" xml:space="preserve">
<g>
	<polygon fill="#FFFFFF" points="140.6,814.5 0,814.5 0,0 624.9,0 624.9,140.6 554.7,140.6 554.7,70.3 70.3,70.3 70.3,744.2 
		140.6,744.2 140.6,814.5 	"/>
	<polygon fill="#FFFFFF" points="250.4,924.3 109.8,924.3 109.8,109.8 734.8,109.8 734.8,250.4 664.5,250.4 664.5,180.1 
		180.1,180.1 180.1,854.1 250.4,854.1 250.4,924.3 	"/>
	<path fill="#FFFFFF" d="M844.6,1034.2h-625V443.8l224.1-224.1h400.8V1034.2L844.6,1034.2z M289.9,963.9h484.4V289.9H472.9l-183,183
		V963.9L289.9,963.9z"/>
	<polygon fill="#FFFFFF" points="493.5,493.5 254.8,493.5 254.8,423.2 423.2,423.2 423.2,254.8 493.5,254.8 493.5,493.5 	"/>
	<polygon fill="#FFFFFF" points="446.9,301.2 446.9,447 298.2,447 446.9,301.2 	"/>
	<polygon fill="#FFFFFF" points="730.3,682.7 334,682.7 334,638.8 730.3,638.8 730.3,682.7 	"/>
	<polygon fill="#FFFFFF" points="730.3,779.4 334,779.4 334,735.4 730.3,735.4 730.3,779.4 	"/>
	<polygon fill="#FFFFFF" points="730.3,876 334,876 334,832.1 730.3,832.1 730.3,876 	"/>
</g>
</svg>
