<?xml version="1.0" encoding="utf-8"?>
<!-- Generator: Adobe Illustrator 18.1.1, SVG Export Plug-In . SVG Version: 6.00 Build 0)  -->
<!DOCTYPE svg PUBLIC "-//W3C//DTD SVG 1.1//EN" "http://www.w3.org/Graphics/SVG/1.1/DTD/svg11.dtd">
<svg version="1.1" id="Layer_1" xmlns="http://www.w3.org/2000/svg" xmlns:xlink="http://www.w3.org/1999/xlink" x="0px" y="0px"
	 viewBox="171.4 0 295 295" enable-background="new 171.4 0 295 295" xml:space="preserve">
<g>
	<polygon fill="#FFFFFF" points="253.8,188.2 221.3,188.2 221.3,0 365.7,0 365.7,32.5 349.4,32.5 349.4,16.2 237.5,16.2 
		237.5,171.9 253.8,171.9 	"/>
	<polygon fill="#FFFFFF" points="279.1,213.5 246.7,213.5 246.7,25.4 391.1,25.4 391.1,57.9 374.8,57.9 374.8,41.6 262.9,41.6 
		262.9,197.3 279.1,197.3 	"/>
	<path fill="#FFFFFF" d="M416.4,238.9H272V102.5l51.8-51.8h92.6L416.4,238.9L416.4,238.9z M288.3,222.7h111.9V67h-69.6l-42.3,42.3
		V222.7L288.3,222.7z"/>
	<polygon fill="#FFFFFF" points="335.3,114 280.2,114 280.2,97.8 319.1,97.8 319.1,58.9 335.3,58.9 	"/>
	<polygon fill="#FFFFFF" points="324.5,69.6 324.5,103.3 290.2,103.3 	"/>
	<polygon fill="#FFFFFF" points="390,157.7 298.5,157.7 298.5,147.6 390,147.6 	"/>
	<polygon fill="#FFFFFF" points="390,180.1 298.5,180.1 298.5,169.9 390,169.9 	"/>
	<polygon fill="#FFFFFF" points="390,202.4 298.5,202.4 298.5,192.2 390,192.2 	"/>
</g>
</svg>
