<?xml version="1.0" encoding="utf-8"?>
<!-- Generator: Adobe Illustrator 18.1.1, SVG Export Plug-In . SVG Version: 6.00 Build 0)  -->
<!DOCTYPE svg PUBLIC "-//W3C//DTD SVG 1.1//EN" "http://www.w3.org/Graphics/SVG/1.1/DTD/svg11.dtd">
<svg version="1.1" id="Layer_1" xmlns="http://www.w3.org/2000/svg" xmlns:xlink="http://www.w3.org/1999/xlink" x="0px" y="0px"
	 viewBox="171.4 0 295 295" enable-background="new 171.4 0 295 295" xml:space="preserve">
<g>
	<polygon fill="#FFFFFF" points="238.5,232.3 198.4,232.3 198.4,0 376.6,0 376.6,40.1 356.6,40.1 356.6,20.1 218.5,20.1 
		218.5,212.3 238.5,212.3 	"/>
	<polygon fill="#FFFFFF" points="269.8,263.7 229.7,263.7 229.7,31.3 408,31.3 408,71.4 387.9,71.4 387.9,51.4 249.8,51.4 
		249.8,243.6 269.8,243.6 	"/>
	<path fill="#FFFFFF" d="M439.3,295H261V126.6L325,62.7h114.3L439.3,295L439.3,295z M281.1,274.9h138.2V82.7h-86l-52.2,52.2V274.9
		L281.1,274.9z"/>
	<polygon fill="#FFFFFF" points="339.2,140.8 271.1,140.8 271.1,120.7 319.1,120.7 319.1,72.7 339.2,72.7 	"/>
	<polygon fill="#FFFFFF" points="325.9,85.9 325.9,127.5 283.5,127.5 	"/>
	<polygon fill="#FFFFFF" points="406.7,194.7 293.7,194.7 293.7,182.2 406.7,182.2 	"/>
	<polygon fill="#FFFFFF" points="406.7,222.3 293.7,222.3 293.7,209.8 406.7,209.8 	"/>
	<polygon fill="#FFFFFF" points="406.7,249.9 293.7,249.9 293.7,237.4 406.7,237.4 	"/>
</g>
</svg>
