<?xml version="1.0" encoding="utf-8"?>
<!-- Generator: Adobe Illustrator 18.1.1, SVG Export Plug-In . SVG Version: 6.00 Build 0)  -->
<!DOCTYPE svg PUBLIC "-//W3C//DTD SVG 1.1//EN" "http://www.w3.org/Graphics/SVG/1.1/DTD/svg11.dtd">
<svg version="1.1" id="Layer_1" xmlns="http://www.w3.org/2000/svg" xmlns:xlink="http://www.w3.org/1999/xlink" x="0px" y="0px"
	 viewBox="0 0 812 1037.5" enable-background="new 0 0 812 1037.5" xml:space="preserve">
<path fill="#FFFFFF" d="M406,0c154.2,0,295.7,20.4,406,54.2v63.5v301.7v277c0,74.8-60.3,144.2-201.7,231.9
	c-84,52.1-167.7,91.9-171.2,93.5l-33.1,15.6l-33.1-15.6c-9.4-4.5-90.8-43.6-171.2-93.5C60.3,840.6,0,771.3,0,696.4v-277V117.7V54.2
	C110.3,20.4,251.8,0,406,0 M591.5,279.3L330.1,557.9L223.8,444.5l-78.1,83.3l184.5,196.7l339.5-362L591.5,279.3L591.5,279.3z"/>
</svg>
