<?xml version="1.0" encoding="utf-8"?>
<!-- Generator: Adobe Illustrator 18.1.1, SVG Export Plug-In . SVG Version: 6.00 Build 0)  -->
<!DOCTYPE svg PUBLIC "-//W3C//DTD SVG 1.1//EN" "http://www.w3.org/Graphics/SVG/1.1/DTD/svg11.dtd">
<svg version="1.1" id="Layer_1" xmlns="http://www.w3.org/2000/svg" xmlns:xlink="http://www.w3.org/1999/xlink" x="0px" y="0px"
	 viewBox="179.4 0 295 295" enable-background="new 179.4 0 295 295" xml:space="preserve">
<path fill="#FFFFFF" d="M326.9,0c43.8,0,84.1,5.8,115.5,15.4v18.1v85.8V198c0,21.3-17.1,41-57.4,65.9
	c-23.9,14.8-47.7,26.1-48.7,26.6l-9.4,4.4l-9.4-4.4c-2.7-1.3-25.8-12.4-48.7-26.6c-40.2-24.9-57.4-44.6-57.4-65.9v-78.8V33.5V15.4
	C242.8,5.8,283.1,0,326.9,0 M379.7,79.4l-74.3,79.2l-30.2-32.2l-22.2,23.7l52.5,55.9l96.5-102.9L379.7,79.4L379.7,79.4z"/>
</svg>
