<?xml version="1.0" encoding="utf-8"?>
<!-- Generator: Adobe Illustrator 18.1.1, SVG Export Plug-In . SVG Version: 6.00 Build 0)  -->
<!DOCTYPE svg PUBLIC "-//W3C//DTD SVG 1.1//EN" "http://www.w3.org/Graphics/SVG/1.1/DTD/svg11.dtd">
<svg version="1.1" id="Layer_1" xmlns="http://www.w3.org/2000/svg" xmlns:xlink="http://www.w3.org/1999/xlink" x="0px" y="0px"
	 viewBox="179.4 0 295 295" enable-background="new 179.4 0 295 295" xml:space="preserve">
<path fill="#FFFFFF" d="M336.9,26.5c36,0,69,4.8,94.7,12.6V54v70.4V189c0,17.4-14.1,33.6-47.1,54.1c-19.6,12.2-39.1,21.4-39.9,21.8
	l-7.7,3.6l-7.7-3.6c-2.2-1-21.2-10.2-39.9-21.8c-33-20.5-47.1-36.6-47.1-54.1v-64.6V54V39.1C267.9,31.3,300.9,26.5,336.9,26.5
	 M380.2,91.7l-61,65l-24.8-26.5l-18.2,19.4l43,45.9l79.2-84.4L380.2,91.7L380.2,91.7z"/>
</svg>
