<?xml version="1.0" encoding="utf-8"?>
<!-- Generator: Adobe Illustrator 18.1.1, SVG Export Plug-In . SVG Version: 6.00 Build 0)  -->
<!DOCTYPE svg PUBLIC "-//W3C//DTD SVG 1.1//EN" "http://www.w3.org/Graphics/SVG/1.1/DTD/svg11.dtd">
<svg version="1.1" id="Layer_1" xmlns="http://www.w3.org/2000/svg" xmlns:xlink="http://www.w3.org/1999/xlink" x="0px" y="0px"
	 viewBox="0 0 227.9 145.6" enable-background="new 0 0 227.9 145.6" xml:space="preserve">
<polygon fill="#FFFFFF" points="6.4,72.3 6.4,85 21.9,85 21.9,72.3 25.8,72.3 25.8,101.8 21.9,101.8 21.9,88.3 6.4,88.3 6.4,101.8 
	2.5,101.8 2.5,72.3 6.4,72.3 "/>
<polygon fill="#FFFFFF" points="36.8,72.3 46,97.1 55.4,72.3 60.7,72.3 60.7,101.8 57,101.8 57,77.3 56.9,77.3 47.7,101.8 
	44.4,101.8 35.2,77.3 35.1,77.3 35.1,101.8 31.4,101.8 31.4,72.3 36.8,72.3 "/>
<path fill="#FFFFFF" d="M90.6,72.3c2.8,0,5,0.7,6.6,2.1c1.6,1.4,2.4,3.3,2.4,5.7c0,1.8-0.4,3.4-1.2,4.7c-0.8,1.3-2.1,2.3-3.9,2.8
	v0.1c0.9,0.2,1.6,0.4,2.1,0.8c0.5,0.4,1,0.8,1.3,1.4c0.3,0.5,0.6,1.1,0.7,1.8c0.1,0.7,0.3,1.3,0.4,2.1c0,0.7,0.1,1.4,0.1,2.2
	c0,0.7,0.1,1.5,0.2,2.2c0.1,0.7,0.3,1.4,0.5,2c0.2,0.7,0.5,1.2,0.9,1.7h-4.4c-0.3-0.3-0.5-0.7-0.6-1.2c-0.1-0.5-0.2-1.1-0.2-1.8
	c0-0.6-0.1-1.3-0.1-2.1c0-0.8-0.1-1.5-0.2-2.2c-0.1-0.7-0.2-1.4-0.4-2c-0.2-0.6-0.4-1.2-0.8-1.7s-0.8-0.9-1.4-1.2
	c-0.6-0.3-1.4-0.4-2.3-0.4h-9.6v12.6h-3.9V72.3H90.6L90.6,72.3z M91.4,85.7c0.8-0.1,1.5-0.4,2.2-0.8c0.6-0.4,1.1-0.9,1.5-1.6
	c0.4-0.7,0.5-1.6,0.5-2.6c0-1.5-0.4-2.7-1.2-3.6c-0.8-0.9-2.2-1.4-4-1.4h-9.8v10.3h8.2C89.7,85.9,90.6,85.8,91.4,85.7L91.4,85.7z"/>
<path fill="#FFFFFF" d="M118.5,100.4c-1.6,1.2-3.6,1.8-6,1.8c-1.7,0-3.2-0.3-4.4-0.8c-1.3-0.5-2.3-1.3-3.2-2.3
	c-0.9-1-1.5-2.2-1.9-3.6c-0.4-1.4-0.7-2.9-0.7-4.5c0-1.6,0.3-3.1,0.8-4.5c0.5-1.3,1.2-2.5,2.1-3.5c0.9-1,2-1.8,3.2-2.3
	c1.2-0.5,2.6-0.8,4-0.8c1.9,0,3.5,0.4,4.7,1.2c1.3,0.8,2.3,1.8,3,3c0.8,1.2,1.3,2.5,1.6,4c0.3,1.4,0.4,2.8,0.3,4.1h-16
	c0,0.9,0.1,1.8,0.3,2.7c0.2,0.8,0.6,1.6,1.2,2.2c0.6,0.6,1.3,1.2,2.1,1.6c0.9,0.4,1.9,0.6,3,0.6c1.5,0,2.7-0.3,3.7-1
	c0.9-0.7,1.6-1.7,1.9-3.1h3.5C121.2,97.4,120.1,99.2,118.5,100.4L118.5,100.4z M117.7,86.7c-0.3-0.7-0.7-1.4-1.3-1.9
	c-0.5-0.5-1.2-1-1.9-1.3c-0.7-0.3-1.5-0.5-2.4-0.5c-0.9,0-1.7,0.2-2.4,0.5c-0.7,0.3-1.4,0.8-1.9,1.3c-0.5,0.6-0.9,1.2-1.2,1.9
	c-0.3,0.7-0.5,1.5-0.5,2.3h12.3C118.2,88.3,118,87.5,117.7,86.7L117.7,86.7z"/>
<polygon fill="#FFFFFF" points="130.5,101.8 122.5,80.4 126.5,80.4 132.4,98.2 132.5,98.2 138.4,80.4 142,80.4 134.2,101.8 
	130.5,101.8 "/>
<path fill="#FFFFFF" d="M159.3,100.4c-1.6,1.2-3.6,1.8-6,1.8c-1.7,0-3.2-0.3-4.4-0.8c-1.2-0.5-2.3-1.3-3.2-2.3
	c-0.8-1-1.5-2.2-1.9-3.6s-0.7-2.9-0.7-4.5c0-1.6,0.3-3.1,0.7-4.5c0.5-1.3,1.2-2.5,2.1-3.5c0.9-1,2-1.8,3.2-2.3
	c1.2-0.5,2.6-0.8,4-0.8c1.9,0,3.5,0.4,4.7,1.2c1.3,0.8,2.3,1.8,3,3c0.8,1.2,1.3,2.5,1.6,4c0.3,1.4,0.4,2.8,0.4,4.1h-16
	c0,0.9,0.1,1.8,0.3,2.7c0.2,0.8,0.6,1.6,1.2,2.2c0.6,0.6,1.3,1.2,2.1,1.6c0.9,0.4,1.9,0.6,3,0.6c1.5,0,2.7-0.3,3.7-1
	c0.9-0.7,1.6-1.7,1.9-3.1h3.5C162,97.4,160.9,99.2,159.3,100.4L159.3,100.4z M158.5,86.7c-0.3-0.7-0.8-1.4-1.3-1.9
	c-0.5-0.5-1.2-1-1.9-1.3c-0.7-0.3-1.5-0.5-2.4-0.5c-0.9,0-1.7,0.2-2.5,0.5c-0.7,0.3-1.3,0.8-1.9,1.3c-0.5,0.6-0.9,1.2-1.2,1.9
	c-0.3,0.7-0.5,1.5-0.5,2.3H159C159,88.3,158.8,87.5,158.5,86.7L158.5,86.7z"/>
<path fill="#FFFFFF" d="M168.7,80.4v3.4h0.1c1.5-2.6,3.8-3.9,6.9-3.9c1.4,0,2.6,0.2,3.5,0.6c0.9,0.4,1.7,0.9,2.3,1.6
	c0.6,0.7,1,1.5,1.2,2.5c0.2,0.9,0.3,2,0.3,3.2v14h-3.5V87.3c0-1.3-0.4-2.4-1.2-3.1c-0.8-0.8-1.8-1.2-3.2-1.2c-1.1,0-2,0.2-2.8,0.5
	c-0.8,0.3-1.4,0.8-2,1.4c-0.5,0.6-0.9,1.3-1.2,2.1c-0.3,0.8-0.4,1.7-0.4,2.7v12.1h-3.5V80.4H168.7L168.7,80.4z"/>
<path fill="#FFFFFF" d="M201.7,101.8v-3.4h-0.1c-0.8,1.3-1.7,2.3-2.9,2.9c-1.2,0.6-2.5,0.9-4.1,0.9c-1.4,0-2.6-0.2-3.5-0.6
	c-0.9-0.4-1.7-0.9-2.3-1.6c-0.6-0.7-1-1.5-1.2-2.5c-0.2-1-0.4-2-0.4-3.2V80.4h3.5v14.5c0,1.3,0.4,2.4,1.1,3.1
	c0.8,0.8,1.8,1.1,3.2,1.1c1.1,0,2-0.2,2.8-0.5c0.8-0.3,1.4-0.8,2-1.4c0.5-0.6,0.9-1.3,1.2-2.1c0.3-0.8,0.4-1.7,0.4-2.7V80.4h3.5
	v21.4H201.7L201.7,101.8z"/>
<path fill="#FFFFFF" d="M224.4,100.4c-1.6,1.2-3.6,1.8-6,1.8c-1.7,0-3.2-0.3-4.4-0.8c-1.2-0.5-2.3-1.3-3.2-2.3
	c-0.8-1-1.5-2.2-1.9-3.6c-0.4-1.4-0.7-2.9-0.7-4.5c0-1.6,0.2-3.1,0.7-4.5c0.5-1.3,1.2-2.5,2.1-3.5c0.9-1,2-1.8,3.2-2.3
	c1.2-0.5,2.6-0.8,4-0.8c1.9,0,3.5,0.4,4.7,1.2c1.2,0.8,2.2,1.8,3,3c0.8,1.2,1.3,2.5,1.6,4c0.3,1.4,0.4,2.8,0.4,4.1h-16
	c0,0.9,0.1,1.8,0.3,2.7c0.2,0.8,0.6,1.6,1.2,2.2c0.5,0.6,1.2,1.2,2.1,1.6c0.9,0.4,1.9,0.6,3,0.6c1.5,0,2.7-0.3,3.6-1
	c1-0.7,1.6-1.7,1.9-3.1h3.5C227.1,97.4,226,99.2,224.4,100.4L224.4,100.4z M223.6,86.7c-0.3-0.7-0.8-1.4-1.3-1.9
	c-0.5-0.5-1.2-1-1.9-1.3c-0.7-0.3-1.5-0.5-2.4-0.5c-0.9,0-1.7,0.2-2.5,0.5c-0.7,0.3-1.4,0.8-1.9,1.3c-0.5,0.6-0.9,1.2-1.2,1.9
	c-0.3,0.7-0.5,1.5-0.5,2.3h12.3C224.1,88.3,223.9,87.5,223.6,86.7L223.6,86.7z"/>
<path fill="#FFFFFF" d="M14.6,144.4c-1.5,0.7-3.1,1-4.7,1c-2,0-3.6-0.3-4.8-0.9c-1.2-0.6-2.1-1.3-2.8-2.2c-0.7-0.9-1.1-1.7-1.3-2.6
	c-0.2-0.9-0.3-1.7-0.3-2.3c0-1.2,0.2-2.2,0.6-3.1c0.4-0.9,0.9-1.7,1.5-2.4c0.6-0.7,1.3-1.3,2.2-1.9c0.8-0.6,1.7-1.1,2.7-1.6
	c-0.4-0.6-0.8-1.1-1.2-1.7c-0.4-0.5-0.7-1-1.1-1.6c-0.3-0.5-0.6-1.1-0.8-1.7c-0.2-0.6-0.3-1.3-0.3-2c0-0.8,0.2-1.6,0.4-2.3
	c0.3-0.7,0.7-1.4,1.3-1.9c0.6-0.6,1.3-1,2.1-1.3c0.8-0.3,1.8-0.5,2.8-0.5c0.9,0,1.8,0.1,2.7,0.4c0.9,0.2,1.6,0.6,2.3,1.1
	c0.7,0.5,1.2,1.1,1.6,1.9c0.4,0.8,0.6,1.6,0.6,2.6c0,0.9-0.1,1.7-0.5,2.5c-0.3,0.8-0.7,1.4-1.2,2.1c-0.5,0.6-1.1,1.2-1.8,1.7
	c-0.7,0.5-1.4,1-2.1,1.4l5.3,6.5c0.6-1.5,0.9-3.1,0.9-4.6h3.4c-0.1,0.9-0.2,1.6-0.3,2.2c-0.1,0.6-0.2,1.2-0.4,1.7
	c-0.1,0.5-0.3,1-0.6,1.5c-0.2,0.5-0.5,1.1-0.8,1.8l5.7,6.7h-4.6l-3.1-3.7C17.3,142.7,16.1,143.7,14.6,144.4L14.6,144.4z M7.5,131.9
	c-0.6,0.4-1.2,0.9-1.6,1.4c-0.5,0.5-0.8,1.1-1.1,1.7c-0.3,0.7-0.4,1.4-0.4,2.3c0,0.8,0.1,1.4,0.5,2c0.3,0.6,0.7,1.1,1.3,1.6
	c0.5,0.4,1.1,0.8,1.8,1c0.7,0.2,1.4,0.4,2.1,0.4c1.4,0,2.6-0.3,3.6-1c1.1-0.6,1.9-1.5,2.7-2.6l-6.8-8.1
	C8.8,131.1,8.1,131.5,7.5,131.9L7.5,131.9z M11.9,125.9c0.5-0.3,0.9-0.7,1.3-1.1c0.4-0.4,0.7-0.9,1-1.4c0.2-0.5,0.4-1.1,0.4-1.7
	c0-0.8-0.3-1.6-0.9-2.2c-0.6-0.6-1.4-0.9-2.5-0.9c-0.8,0-1.6,0.3-2.3,0.8c-0.7,0.5-1.1,1.3-1.1,2.4c0,0.4,0.1,0.9,0.3,1.3
	c0.2,0.4,0.4,0.9,0.7,1.3c0.3,0.4,0.6,0.8,0.9,1.3c0.3,0.4,0.7,0.8,1,1.2C11,126.5,11.5,126.2,11.9,125.9L11.9,125.9z"/>
<path fill="#FFFFFF" d="M55.8,119.6c-1.5-1.1-3.3-1.6-5.4-1.6c-1.8,0-3.3,0.3-4.5,1c-1.3,0.7-2.3,1.5-3.1,2.7
	c-0.8,1.1-1.4,2.4-1.8,3.8c-0.4,1.4-0.6,2.9-0.6,4.5c0,1.7,0.2,3.3,0.6,4.8c0.4,1.5,1,2.8,1.8,3.9c0.8,1.1,1.9,2,3.1,2.7
	c1.3,0.7,2.8,1,4.5,1c1.3,0,2.4-0.2,3.4-0.6c1-0.4,1.9-1,2.6-1.8c0.7-0.8,1.3-1.7,1.7-2.7c0.4-1,0.7-2.2,0.7-3.4h3.9
	c-0.4,3.7-1.7,6.6-3.8,8.7c-2.2,2.1-5.1,3.1-8.9,3.1c-2.3,0-4.3-0.4-6-1.2c-1.7-0.8-3.1-1.9-4.2-3.2c-1.1-1.4-2-3-2.5-4.9
	c-0.6-1.9-0.8-3.9-0.8-6c0-2.1,0.3-4.2,0.9-6c0.6-1.9,1.5-3.5,2.7-4.9c1.2-1.4,2.6-2.5,4.4-3.3c1.8-0.8,3.8-1.2,6-1.2
	c1.5,0,3,0.2,4.4,0.6c1.4,0.4,2.6,1,3.7,1.8c1.1,0.8,2,1.8,2.7,3c0.7,1.2,1.2,2.6,1.4,4.2h-3.9C58.2,122.2,57.3,120.7,55.8,119.6
	L55.8,119.6z"/>
<path fill="#FFFFFF" d="M80.6,144.9v-3.4h-0.1c-0.8,1.3-1.7,2.3-2.9,2.9c-1.2,0.6-2.5,0.9-4.1,0.9c-1.4,0-2.6-0.2-3.5-0.6
	c-0.9-0.4-1.7-0.9-2.3-1.6c-0.6-0.7-1-1.5-1.2-2.5c-0.2-0.9-0.4-2-0.4-3.2v-14h3.5V138c0,1.3,0.4,2.4,1.2,3.1
	c0.8,0.8,1.8,1.1,3.2,1.1c1.1,0,2-0.2,2.8-0.5c0.8-0.3,1.4-0.8,2-1.4c0.5-0.6,0.9-1.3,1.2-2.1c0.3-0.8,0.4-1.7,0.4-2.7v-12.1h3.5
	v21.4H80.6L80.6,144.9z"/>
<path fill="#FFFFFF" d="M90.9,140.2c0.3,0.5,0.8,1,1.3,1.3c0.5,0.3,1.1,0.6,1.8,0.7c0.7,0.1,1.4,0.2,2.1,0.2c0.6,0,1.1,0,1.7-0.1
	c0.6-0.1,1.2-0.2,1.7-0.5c0.5-0.2,0.9-0.5,1.3-1c0.3-0.4,0.5-1,0.5-1.6c0-0.9-0.3-1.6-1-2.1c-0.7-0.5-1.6-0.8-2.6-1.1
	c-1-0.3-2.2-0.6-3.4-0.8c-1.2-0.2-2.3-0.6-3.4-1c-1-0.4-1.9-1-2.6-1.8c-0.7-0.8-1-1.9-1-3.2c0-1.1,0.2-2,0.7-2.8
	c0.5-0.8,1.1-1.4,1.9-1.9c0.8-0.5,1.6-0.8,2.6-1.1c0.9-0.2,1.9-0.4,2.8-0.4c1.2,0,2.3,0.1,3.4,0.3c1,0.2,1.9,0.6,2.7,1.1
	c0.8,0.5,1.4,1.2,1.9,2.1c0.5,0.9,0.8,2,0.8,3.2h-3.5c-0.1-0.7-0.2-1.3-0.5-1.7c-0.3-0.5-0.7-0.8-1.2-1.1c-0.5-0.3-1-0.5-1.6-0.6
	c-0.6-0.1-1.1-0.2-1.7-0.2c-0.5,0-1.1,0-1.6,0.1c-0.5,0.1-1,0.2-1.5,0.4c-0.4,0.2-0.8,0.5-1.1,0.8c-0.3,0.3-0.4,0.8-0.4,1.3
	c0,0.6,0.2,1.1,0.6,1.5c0.4,0.4,1,0.7,1.6,1c0.7,0.3,1.4,0.5,2.2,0.7c0.8,0.2,1.7,0.4,2.5,0.6c0.9,0.2,1.7,0.4,2.6,0.7
	c0.8,0.3,1.6,0.6,2.2,1.1c0.7,0.5,1.2,1,1.6,1.7c0.4,0.7,0.6,1.5,0.6,2.6c0,1.3-0.3,2.4-0.8,3.2c-0.5,0.9-1.2,1.5-2.1,2.1
	c-0.9,0.5-1.9,0.9-2.9,1.1c-1.1,0.2-2.2,0.3-3.2,0.3c-1.2,0-2.3-0.1-3.4-0.4c-1.1-0.2-2-0.7-2.8-1.2c-0.8-0.6-1.5-1.3-2-2.2
	c-0.5-0.9-0.8-2-0.8-3.4h3.5C90.3,139,90.5,139.6,90.9,140.2L90.9,140.2z"/>
<path fill="#FFFFFF" d="M116.9,123.6v3.1h-4.3v13.3c0,0.4,0,0.7,0.1,1c0.1,0.2,0.2,0.4,0.4,0.6c0.2,0.1,0.5,0.2,0.8,0.3
	c0.4,0,0.8,0.1,1.3,0.1h1.6v3.1h-2.7c-0.9,0-1.7-0.1-2.3-0.2c-0.7-0.1-1.2-0.4-1.6-0.7c-0.4-0.3-0.7-0.8-0.9-1.4
	c-0.2-0.6-0.3-1.4-0.3-2.4v-13.6h-3.6v-3.1h3.6v-6.4h3.5v6.4H116.9L116.9,123.6z"/>
<path fill="#FFFFFF" d="M119.3,129.9c0.4-1.4,1.1-2.5,2-3.5c0.9-1,2-1.8,3.3-2.4c1.3-0.6,2.8-0.9,4.5-0.9c1.7,0,3.2,0.3,4.5,0.9
	c1.3,0.6,2.4,1.4,3.2,2.4c0.9,1,1.5,2.2,2,3.5c0.4,1.4,0.7,2.8,0.7,4.4c0,1.6-0.2,3-0.7,4.4s-1.1,2.5-2,3.5c-0.9,1-2,1.8-3.2,2.4
	c-1.3,0.6-2.8,0.9-4.5,0.9c-1.7,0-3.2-0.3-4.5-0.9c-1.3-0.6-2.4-1.3-3.3-2.4c-0.9-1-1.5-2.2-2-3.5s-0.7-2.8-0.7-4.4
	C118.7,132.7,118.9,131.2,119.3,129.9L119.3,129.9z M122.9,137.7c0.3,1,0.8,1.8,1.4,2.5c0.6,0.7,1.3,1.2,2.1,1.5
	c0.8,0.4,1.7,0.5,2.6,0.5c0.9,0,1.8-0.2,2.6-0.5c0.8-0.4,1.5-0.9,2.1-1.5c0.6-0.7,1.1-1.5,1.4-2.5c0.3-1,0.5-2.2,0.5-3.5
	c0-1.3-0.2-2.4-0.5-3.4c-0.3-1-0.8-1.9-1.4-2.5c-0.6-0.7-1.3-1.2-2.1-1.6c-0.8-0.4-1.7-0.5-2.6-0.5c-0.9,0-1.8,0.2-2.6,0.5
	c-0.8,0.4-1.5,0.9-2.1,1.6c-0.6,0.7-1.1,1.5-1.4,2.5c-0.3,1-0.5,2.2-0.5,3.4C122.4,135.6,122.5,136.7,122.9,137.7L122.9,137.7z"/>
<path fill="#FFFFFF" d="M145.8,123.6v3.1h0.1c1.6-2.4,3.9-3.6,6.9-3.6c1.3,0,2.5,0.3,3.6,0.8c1.1,0.5,1.8,1.5,2.3,2.8
	c0.7-1.2,1.7-2.1,2.8-2.7c1.2-0.6,2.5-0.9,3.9-0.9c1.1,0,2,0.1,2.9,0.4c0.9,0.2,1.6,0.6,2.2,1.1c0.6,0.5,1.1,1.1,1.5,1.9
	c0.3,0.8,0.5,1.7,0.5,2.8v15.7H169v-14c0-0.7-0.1-1.3-0.2-1.9c-0.1-0.6-0.3-1.1-0.6-1.5c-0.3-0.4-0.7-0.8-1.3-1
	c-0.5-0.2-1.2-0.4-2.1-0.4c-1.7,0-3.1,0.5-4.1,1.5c-1,1-1.5,2.3-1.5,4v13.3h-3.5v-14c0-0.7-0.1-1.3-0.2-1.9
	c-0.1-0.6-0.3-1.1-0.6-1.5c-0.3-0.4-0.7-0.8-1.2-1c-0.5-0.2-1.2-0.3-2-0.3c-1,0-1.9,0.2-2.6,0.6c-0.7,0.4-1.3,0.9-1.8,1.5
	c-0.4,0.6-0.8,1.2-1,1.8c-0.2,0.6-0.3,1.1-0.3,1.5v13.3h-3.5v-21.4H145.8L145.8,123.6z"/>
<path fill="#FFFFFF" d="M179.4,140.2c0.3,0.5,0.8,1,1.3,1.3c0.5,0.3,1.1,0.6,1.8,0.7c0.7,0.1,1.4,0.2,2.1,0.2c0.5,0,1.1,0,1.7-0.1
	c0.6-0.1,1.2-0.2,1.7-0.5c0.5-0.2,0.9-0.5,1.3-1c0.3-0.4,0.5-1,0.5-1.6c0-0.9-0.3-1.6-1-2.1c-0.7-0.5-1.6-0.8-2.6-1.1
	c-1-0.3-2.2-0.6-3.4-0.8c-1.2-0.2-2.3-0.6-3.4-1c-1-0.4-1.9-1-2.6-1.8c-0.7-0.8-1-1.9-1-3.2c0-1.1,0.2-2,0.7-2.8
	c0.5-0.8,1.1-1.4,1.9-1.9c0.8-0.5,1.6-0.8,2.6-1.1c1-0.2,1.9-0.4,2.8-0.4c1.2,0,2.3,0.1,3.4,0.3c1,0.2,1.9,0.6,2.7,1.1
	c0.8,0.5,1.4,1.2,1.9,2.1c0.5,0.9,0.8,2,0.8,3.2H189c-0.1-0.7-0.2-1.3-0.5-1.7c-0.3-0.5-0.7-0.8-1.2-1.1c-0.5-0.3-1-0.5-1.5-0.6
	c-0.6-0.1-1.1-0.2-1.7-0.2c-0.5,0-1.1,0-1.6,0.1c-0.5,0.1-1,0.2-1.5,0.4c-0.4,0.2-0.8,0.5-1.1,0.8c-0.3,0.3-0.4,0.8-0.4,1.3
	c0,0.6,0.2,1.1,0.6,1.5c0.4,0.4,1,0.7,1.6,1c0.7,0.3,1.4,0.5,2.2,0.7c0.8,0.2,1.6,0.4,2.5,0.6c0.9,0.2,1.7,0.4,2.6,0.7
	c0.8,0.3,1.6,0.6,2.2,1.1c0.6,0.5,1.2,1,1.6,1.7c0.4,0.7,0.6,1.5,0.6,2.6c0,1.3-0.3,2.4-0.8,3.2c-0.5,0.9-1.2,1.5-2.1,2.1
	c-0.9,0.5-1.8,0.9-2.9,1.1c-1.1,0.2-2.2,0.3-3.2,0.3c-1.2,0-2.3-0.1-3.4-0.4c-1.1-0.2-2-0.7-2.9-1.2c-0.8-0.6-1.5-1.3-2-2.2
	c-0.5-0.9-0.8-2-0.8-3.4h3.5C178.9,139,179.1,139.6,179.4,140.2L179.4,140.2z"/>
<path fill="#FFFFFF" d="M29.1,54.8c14.1,0,25.7-11.5,25.7-25.7c0-14.2-11.5-25.7-25.7-25.7C14.9,3.4,3.4,14.9,3.4,29.1
	C3.4,43.2,14.9,54.8,29.1,54.8 M29.1,0c16,0,29.1,13,29.1,29.1c0,16-13,29.1-29.1,29.1C13,58.2,0,45.1,0,29.1C0,13,13,0,29.1,0"/>
<path fill="#FFFFFF" d="M31.2,17.4c0,1.3-1,2.3-2.3,2.3s-2.3-1-2.3-2.3s1-2.3,2.3-2.3S31.2,16.2,31.2,17.4"/>
<path fill="#FFFFFF" d="M34.4,40.5c0,0.4,0.2,0.6,0.6,0.7l3.4,0.2c0.3,0,0.6-0.2,0.7-0.6l0-0.5c0-0.3-0.2-0.6-0.6-0.7l-3.4-0.2
	c-0.3,0-0.6,0.2-0.7,0.6L34.4,40.5L34.4,40.5z M23.3,40c0-0.3-0.3-0.6-0.7-0.6l-3.4,0.2c-0.4,0-0.6,0.3-0.6,0.7l0,0.5
	c0,0.4,0.3,0.6,0.7,0.6l3.4-0.2c0.4,0,0.6-0.3,0.6-0.7L23.3,40L23.3,40z M29,38.8c-0.1-0.1-0.3-0.1-0.3,0L27.5,40
	c-0.1,0.1-0.1,0.2,0,0.3l1.2,1.2c0.1,0.1,0.2,0.1,0.3,0l1.2-1.2c0.1-0.1,0.1-0.2,0-0.3L29,38.8L29,38.8z M45.8,33.2
	c-0.1,0.4-0.8,5.8-0.8,5.8l-0.1,0.5c0,0,0,0.3-0.3,0.4c-0.2,0.1-1.2,0.8-1.2,0.8s-0.1,0.1-0.1,0.2c0,0.1,0.1,0.2,0.1,0.2l1,1.3
	c0.1,0.1,0.2,0.2,0.2,0.4c0,0.2-0.1,0.3-0.2,0.4l-30.8,0c-0.1-0.1-0.2-0.2-0.2-0.4c0-0.1,0-0.1,0-0.2c0,0,0-0.1,0.1-0.2l0.9-1.3
	c0,0,0.1-0.2-0.1-0.4c-0.2-0.1-1.2-0.8-1.2-0.8s-0.2-0.1-0.2-0.3c0-0.1-0.1-0.6-0.1-0.6c-0.1-0.5-0.8-5.5-0.8-5.8
	c0-0.3,0-0.5,0.1-0.6c0.1-0.2,0.3-0.2,0.5-0.3c0.1,0,2.1-0.3,2.4-0.3c0.1,0,0.2,0.1,0.2,0.2c0,0.1-0.1,0.2-0.1,0.2l0,0
	c-1.1,0.5-1.7,1.5-1.8,2.8c1.7-0.3,2.1-1.2,2.2-2.4c0-0.1,0.1-0.1,0.2-0.2c0.1,0,0.2,0.1,0.2,0.1v0l0.6,5.2v0c0,0.1-0.1,0.2-0.2,0.2
	c-0.1,0-0.2,0-0.2-0.1c-0.5-1.1-1.5-1.8-2.7-1.8c0.3,1.2,1.2,2.2,2.4,2.5l0,0c0.9-0.1,1.8-0.2,2.7-0.3c0.9-0.3,1.5-0.7,1.7-1.8
	c0-0.1,0-0.3-0.1-0.4c-0.2-0.6-0.6-1-1.1-0.8c-0.5,0.2-0.5,0.7-0.3,1.3c0.1,0.2,0.2,0.4,0.4,0.6c-0.5,0-1-0.2-1.3-0.7
	c-0.6-0.9-0.5-2.2,0.4-2.7c0.6-0.4,1.5,0.1,2.1,0.9c-0.2-1.3-1-2.4-1-3.4c-0.1-1.4,0.4-2.9,1.2-3.3c0.8,0.3,1.5,1.7,1.6,3.1
	c0,1-0.6,2.3-0.7,3.5c0.5-0.9,1.3-1.5,2-1.2c1,0.4,1.2,1.7,0.8,2.6c-0.3,0.5-0.7,0.8-1.2,0.9c0.1-0.2,0.2-0.4,0.3-0.6
	c0.1-0.6,0-1.1-0.5-1.3c-0.5-0.1-0.9,0.3-1,0.9c0,0.2-0.1,0.4,0,0.6l0,0c0.4,0.9,1.1,1.2,2,1.5c0.9,0,1.8-0.1,2.7-0.1l0,0l0.1,0
	c1.3-0.2,1.9-1,2-2.5c-1.1,0.2-2,0.8-2.4,1.8c0,0.1-0.1,0.1-0.2,0.1c-0.2,0-0.2-0.1-0.2-0.2v-4.8l0,0c0-0.1,0.1-0.2,0.2-0.2
	c0.1,0,0.2,0.1,0.2,0.1v0v0c0.2,0.9,0.7,1.7,2.4,1.9c-0.1-1.7-0.9-2.2-2-2.5c0,0-0.1,0-0.1-0.1c0,0-0.1-0.1-0.1-0.2c0,0,0,0,0,0
	c0-0.1,0-0.1,0.1-0.2c0,0,0.1-0.1,0.1,0h5.2c0,0,0.1,0,0.1,0.1c0,0,0.1,0.1,0.1,0.1v0c0,0.1,0,0.1,0,0.1c0,0-0.1,0.1-0.1,0.1
	c-1.1,0.3-1.8,1.3-2,2.4c1.7-0.2,2.1-1,2.4-1.8c0-0.1,0.1-0.2,0.2-0.2c0.1,0,0.2,0.1,0.2,0.2l0,0v4.8v0c0,0.1-0.1,0.2-0.3,0.2
	c-0.1,0-0.2-0.1-0.2-0.2c-0.4-1-1.2-1.6-2.3-1.8c0.2,1.3,1,2.3,2,2.5l0.1,0v0c0.9,0,1.8,0,2.7,0.1c0.9-0.1,1.6-0.5,2-1.6v0
	c0-0.1,0-0.3,0-0.4c-0.1-0.6-0.5-1-1-0.9c-0.5,0.1-0.6,0.7-0.5,1.3c0.1,0.2,0.2,0.5,0.3,0.6c-0.5-0.1-0.9-0.3-1.2-0.9
	c-0.5-0.9-0.2-2.2,0.7-2.6c0.6-0.3,1.4,0.2,2,1.1c0-1.3-0.7-2.5-0.6-3.5c0-1.4,0.8-2.8,1.6-3.2c0.8,0.4,1.3,1.9,1.2,3.3
	c-0.1,1-0.9,2.2-1.1,3.4c0.6-0.8,1.5-1.3,2.1-0.9c0.9,0.5,1,1.8,0.4,2.7c-0.4,0.5-0.8,0.7-1.3,0.7c0.2-0.1,0.3-0.4,0.4-0.6
	c0.2-0.6,0.2-1.1-0.3-1.3c-0.5-0.2-0.9,0.2-1.1,0.8c-0.1,0.2-0.1,0.4-0.1,0.6v0c0.3,0.9,0.9,1.3,1.7,1.7c0.9,0.1,1.9,0.1,2.8,0.2
	c1.1-0.4,2-1.3,2.3-2.4c-1.2,0-2.2,0.7-2.7,1.8c0,0.1-0.1,0.1-0.2,0.1c-0.1,0-0.2-0.1-0.2-0.2l0,0l0.7-5.2v0c0-0.1,0.1-0.1,0.2-0.1
	c0.1,0,0.2,0.1,0.2,0.2c0.1,1.2,0.5,2.1,2.2,2.4c0-1.2-0.7-2.2-1.7-2.8l0,0c-0.1,0-0.2-0.1-0.1-0.2c0-0.1,0.1-0.2,0.2-0.2
	c0.2,0,2.3,0.3,2.3,0.3c0.2,0,0.4,0.1,0.5,0.3C45.8,32.8,45.8,33,45.8,33.2"/>
<path fill="#FFFFFF" d="M26.5,14.7L26.5,14.7L26.5,14.7L26.5,14.7z M26.4,8.7c0,0-0.1,0.1-0.1,0.1c0,0.1,0,0.1,0.1,0.1
	c0,0,0.1,0.1,0.1,0.1c0.6,0.1,1,0.3,1.3,0.6c0.3,0.4,0.5,0.9,0.6,1.5c-1.5-0.1-1.9-0.9-2.2-1.7c0-0.1-0.1-0.2-0.2-0.2
	c-0.1,0-0.2,0.1-0.2,0.2v0v4.3c0,0.1,0.1,0.2,0.2,0.2c0.2,0,0.2-0.1,0.2-0.1l0,0c0.4-0.9,1.1-1.5,2.1-1.6c-0.1,0.7-0.2,1.2-0.6,1.6
	c-0.3,0.3-0.7,0.5-1.3,0.6h0c0,0-0.1,0-0.1,0.1c0,0-0.1,0.1-0.1,0.2c0,0.1,0,0.1,0.1,0.1c0,0,0.1,0,0.1,0h4.7c0,0,0.1,0,0.1-0.1
	c0,0,0-0.1,0-0.1v0v0c0,0,0-0.1,0-0.1c0,0-0.1-0.1-0.1-0.1c-0.6-0.2-1.1-0.6-1.5-1.2c-0.2-0.3-0.3-0.7-0.3-1.1
	c1,0.2,1.7,0.8,2.1,1.6v0c0,0.1,0.1,0.1,0.2,0.1c0.2,0,0.2-0.1,0.2-0.2v0V9.6v0c0-0.1-0.1-0.2-0.2-0.2c-0.1,0-0.2,0.1-0.2,0.2
	c-0.2,0.8-0.6,1.5-2.1,1.7c0.1-0.3,0.2-0.7,0.3-1c0.3-0.6,0.8-1,1.5-1.2c0,0,0.1,0,0.1-0.1c0,0,0-0.1,0-0.1v0c0-0.1,0-0.1,0-0.1
	c-0.1-0.1-0.1-0.1-0.1-0.1h-4.7C26.5,8.6,26.5,8.7,26.4,8.7"/>
<path fill="#FFFFFF" d="M28,22.9c0,0.5,0.4,0.9,0.9,0.9c0.5,0,0.9-0.4,0.9-0.9c0-0.5-0.4-0.9-0.9-0.9C28.4,22,28,22.4,28,22.9"/>
<path fill="#FFFFFF" d="M28,20.7c0,0.5,0.4,0.9,0.9,0.9c0.5,0,0.9-0.4,0.9-0.9c0-0.5-0.4-0.9-0.9-0.9C28.4,19.8,28,20.2,28,20.7"/>
<path fill="#FFFFFF" d="M27.9,25.1c0,0.5,0.4,0.9,0.9,0.9c0.5,0,0.9-0.4,0.9-0.9c0-0.5-0.4-0.9-0.9-0.9
	C28.4,24.1,27.9,24.6,27.9,25.1"/>
<path fill="#FFFFFF" d="M27.9,27.4c0,0.5,0.4,1,1,1c0.5,0,1-0.4,1-1c0-0.5-0.4-1-1-1C28.3,26.5,27.9,26.9,27.9,27.4"/>
<path fill="#FFFFFF" d="M27.9,29.9c0,0.6,0.5,1,1,1c0.6,0,1-0.5,1-1c0-0.6-0.5-1-1-1C28.3,28.9,27.9,29.3,27.9,29.9"/>
<path fill="#FFFFFF" d="M26.8,21.6c-0.1,0-0.2-0.1-0.3-0.1h0c0.2-0.2,0.4-0.5,0.4-0.8c0-0.6-0.5-1-1-1c-0.6,0-1,0.5-1,1
	c0,0.1,0,0.2,0.1,0.3l0,0c-0.3-0.1-0.5-0.1-0.7-0.2c0.2-0.2,0.3-0.5,0.3-0.8c0-0.6-0.5-1-1-1c-0.6,0-1,0.5-1,1c0,0.1,0,0.2,0,0.3
	l0,0c-0.2-0.1-0.5-0.1-0.7-0.2c0.2-0.2,0.3-0.4,0.3-0.7c0-0.6-0.5-1-1-1c-0.6,0-1,0.5-1,1c0,0.2,0.1,0.4,0.2,0.5h0
	c-0.2,0-0.5,0-0.7,0c0.1-0.1,0.1-0.3,0.1-0.4c0-0.6-0.5-1-1-1c-0.6,0-1,0.5-1,1c0,0.3,0.1,0.6,0.3,0.8l0,0c-0.2,0.1-0.5,0.1-0.7,0.2
	h0c0-0.1,0-0.1,0-0.1c0-0.6-0.5-1-1-1c-0.6,0-1,0.5-1,1c0,0.4,0.2,0.8,0.6,0.9c-0.2,0.1-0.4,0.3-0.6,0.4v0c-0.1-0.5-0.5-0.8-1-0.8
	c-0.6,0-1,0.5-1,1c0,0.5,0.4,1,0.9,1c-0.1,0.2-0.3,0.4-0.4,0.6c-0.2-0.3-0.5-0.5-0.9-0.5c-0.6,0-1,0.5-1,1c0,0.6,0.5,1,1,1
	c0.1,0,0.1,0,0.2,0l0,0c-0.1,0.2-0.1,0.4-0.1,0.7c-0.2-0.1-0.4-0.2-0.6-0.2c-0.6,0-1,0.5-1,1c0,0.6,0.5,1,1,1c0.2,0,0.4-0.1,0.6-0.2
	v0c0,0.2,0,0.3,0.1,0.5c0,0,0,0.1,0,0.3v0c-0.1-0.1-0.3-0.1-0.4-0.1c-0.6,0-1,0.5-1,1c0,0.6,0.5,1,1,1c0.3,0,0.5-0.1,0.7-0.3
	c0.1,0.5,0.2,1,0.2,1.6l1.2-0.1c-0.3-2-0.5-3.5-0.5-3.5l0,0c0-0.3-0.1-0.6-0.1-0.9c0-3.1,2.8-5.7,6.1-5.7c0.7,0,1.4,0.1,2,0.3
	c0,0,2,0.5,3.6,1c0.4,0.1,0.4,0.6,0.4,0.6l0.1,7.5l1.2,0v-8.1C27.5,22.7,27.6,21.8,26.8,21.6"/>
<path fill="#FFFFFF" d="M45.4,28.3c-0.2,0-0.3,0-0.4,0.1v0c0-0.2,0-0.3,0-0.3c0-0.2,0-0.3,0.1-0.5v0c0.2,0.1,0.3,0.2,0.6,0.2
	c0.6,0,1-0.5,1-1c0-0.6-0.5-1-1-1c-0.2,0-0.4,0.1-0.6,0.2l0,0c0-0.2-0.1-0.5-0.1-0.7l0,0c0.1,0,0.1,0,0.2,0c0.6,0,1-0.5,1-1
	c0-0.6-0.5-1-1-1c-0.4,0-0.7,0.2-0.9,0.5c-0.1-0.2-0.2-0.4-0.4-0.6c0.5-0.1,0.9-0.5,0.9-1c0-0.6-0.5-1-1-1c-0.5,0-0.9,0.4-1,0.8v0
	c-0.2-0.2-0.4-0.3-0.5-0.4c0.3-0.2,0.6-0.5,0.6-0.9c0-0.6-0.5-1-1-1c-0.6,0-1,0.5-1,1c0,0.1,0,0.1,0,0.1l0,0
	c-0.2-0.1-0.4-0.2-0.7-0.2l0,0c0.2-0.2,0.3-0.5,0.3-0.8c0-0.6-0.5-1-1-1c-0.6,0-1,0.5-1,1c0,0.2,0,0.3,0.1,0.4c-0.2,0-0.5,0-0.7,0h0
	c0.1-0.2,0.2-0.3,0.2-0.5c0-0.6-0.5-1-1-1s-1,0.5-1,1c0,0.3,0.1,0.5,0.3,0.7c-0.2,0.1-0.5,0.1-0.7,0.2l0,0c0-0.1,0-0.2,0-0.3
	c0-0.6-0.5-1-1-1c-0.6,0-1,0.5-1,1c0,0.3,0.1,0.6,0.3,0.8c-0.2,0.1-0.5,0.1-0.7,0.2v0c0-0.1,0.1-0.2,0.1-0.3c0-0.6-0.5-1-1-1
	c-0.6,0-1,0.5-1,1c0,0.3,0.1,0.6,0.4,0.8l0,0c-0.1,0-0.2,0-0.3,0.1c-0.8,0.2-0.7,1.1-0.7,1.1v8.1l1.3,0l0.1-7.5c0,0-0.1-0.5,0.4-0.6
	c1.7-0.5,3.6-1,3.6-1c0.6-0.2,1.3-0.3,2-0.3c3.4,0,6.1,2.6,6.1,5.7c0,0.3,0,0.6-0.1,0.9l0,0c0,0-0.2,1.5-0.5,3.5l1.2,0.1
	c0.1-0.6,0.2-1.1,0.2-1.6l0,0c0.2,0.2,0.4,0.3,0.7,0.3c0.6,0,1-0.5,1-1C46.4,28.7,46,28.3,45.4,28.3"/>
</svg>
