<?xml version="1.0" encoding="utf-8"?>
<!-- Generator: Adobe Illustrator 18.1.1, SVG Export Plug-In . SVG Version: 6.00 Build 0)  -->
<!DOCTYPE svg PUBLIC "-//W3C//DTD SVG 1.1//EN" "http://www.w3.org/Graphics/SVG/1.1/DTD/svg11.dtd">
<svg version="1.1" id="Layer_1" xmlns="http://www.w3.org/2000/svg" xmlns:xlink="http://www.w3.org/1999/xlink" x="0px" y="0px"
	 viewBox="0 0 316.9 190" enable-background="new 0 0 316.9 190" xml:space="preserve">
<path fill="#FFFFFF" d="M13.1,73.5c4.5,0,8,1.1,10.5,3.5c2.4,2.3,3.7,5.8,3.7,10.6c0,2.5-0.3,4.7-0.8,6.6c-0.5,1.9-1.4,3.5-2.6,4.8
	c-1.2,1.3-2.6,2.3-4.4,3c-1.8,0.7-3.9,1-6.4,1H3V73.5H13.1L13.1,73.5z M13.4,99.7c0.4,0,1,0,1.7-0.1c0.7-0.1,1.4-0.2,2.1-0.5
	c0.7-0.3,1.5-0.6,2.2-1.1c0.7-0.5,1.4-1.2,2-2c0.6-0.8,1-1.9,1.4-3.2c0.4-1.3,0.6-2.8,0.6-4.6c0-1.8-0.2-3.3-0.5-4.7
	c-0.3-1.4-0.9-2.6-1.7-3.6c-0.8-1-1.8-1.7-3-2.2c-1.2-0.5-2.8-0.8-4.6-0.8H6.9v22.9H13.4L13.4,99.7z"/>
<path fill="#FFFFFF" d="M45.6,101.6c-1.6,1.2-3.6,1.8-6,1.8c-1.7,0-3.2-0.3-4.4-0.8c-1.2-0.5-2.3-1.3-3.2-2.3
	c-0.8-1-1.5-2.2-1.9-3.5c-0.4-1.4-0.7-2.9-0.7-4.5c0-1.6,0.2-3.1,0.7-4.5c0.5-1.3,1.2-2.5,2.1-3.5c0.9-1,1.9-1.8,3.2-2.3
	c1.2-0.6,2.6-0.8,4-0.8c1.9,0,3.5,0.4,4.7,1.2c1.3,0.8,2.3,1.8,3,3c0.8,1.2,1.3,2.5,1.6,4c0.3,1.4,0.4,2.8,0.3,4.1H33
	c0,0.9,0.1,1.8,0.3,2.7c0.2,0.8,0.6,1.6,1.2,2.2c0.6,0.6,1.3,1.2,2.1,1.6c0.8,0.4,1.9,0.6,3,0.6c1.5,0,2.7-0.3,3.7-1
	c0.9-0.7,1.6-1.7,1.9-3.1h3.5C48.2,98.6,47.2,100.4,45.6,101.6L45.6,101.6z M44.7,87.9c-0.3-0.7-0.7-1.4-1.3-1.9
	c-0.5-0.5-1.2-1-1.9-1.3c-0.7-0.3-1.5-0.5-2.4-0.5c-0.9,0-1.7,0.2-2.5,0.5c-0.7,0.3-1.4,0.8-1.9,1.3c-0.5,0.5-0.9,1.2-1.2,1.9
	c-0.3,0.7-0.5,1.5-0.5,2.3h12.3C45.2,89.5,45,88.7,44.7,87.9L44.7,87.9z"/>
<path fill="#FFFFFF" d="M55.3,81.7v2.9h0.1c0.6-1.2,1.5-2,2.7-2.6c1.2-0.5,2.6-0.8,4.1-0.8c1.7,0,3.1,0.3,4.3,0.9
	c1.2,0.6,2.2,1.4,3.1,2.4c0.8,1,1.4,2.2,1.8,3.6c0.4,1.3,0.6,2.8,0.6,4.3c0,1.5-0.2,3-0.6,4.3c-0.4,1.3-1,2.5-1.8,3.5
	c-0.8,1-1.8,1.8-3.1,2.4c-1.2,0.6-2.6,0.9-4.3,0.9c-0.5,0-1.1-0.1-1.8-0.2c-0.7-0.1-1.3-0.3-1.9-0.5c-0.6-0.2-1.2-0.6-1.8-1
	c-0.6-0.4-1-1-1.4-1.6h-0.1v11h-3.5V81.7H55.3L55.3,81.7z M67.9,89.2c-0.3-0.9-0.7-1.8-1.2-2.5c-0.5-0.7-1.2-1.3-2.1-1.8
	c-0.8-0.4-1.8-0.7-3-0.7c-1.2,0-2.2,0.2-3,0.7c-0.8,0.5-1.5,1.1-2,1.8c-0.5,0.8-0.9,1.6-1.1,2.6c-0.2,1-0.3,1.9-0.3,2.9
	c0,1,0.1,2.1,0.4,3c0.3,1,0.6,1.8,1.2,2.6c0.5,0.7,1.2,1.3,2.1,1.8c0.9,0.5,1.9,0.7,3.1,0.7c1.2,0,2.2-0.2,3-0.7
	c0.8-0.5,1.5-1.1,2-1.9c0.5-0.8,0.9-1.7,1.1-2.6c0.2-1,0.3-2,0.3-3.1C68.3,91.2,68.2,90.2,67.9,89.2L67.9,89.2z"/>
<path fill="#FFFFFF" d="M91.5,103.5c-0.9,0-1.6-0.3-2.2-0.8c-0.5-0.5-0.8-1.3-0.8-2.5c-1,1.2-2.1,2-3.4,2.5
	c-1.3,0.5-2.7,0.8-4.1,0.8c-1,0-1.9-0.1-2.7-0.3c-0.9-0.2-1.6-0.5-2.2-1c-0.7-0.5-1.2-1.1-1.5-1.9c-0.4-0.8-0.5-1.7-0.5-2.8
	c0-1.2,0.2-2.2,0.6-3c0.4-0.8,0.9-1.4,1.6-1.9c0.7-0.5,1.4-0.9,2.3-1.1c0.9-0.2,1.8-0.5,2.7-0.6c1-0.2,1.9-0.3,2.8-0.4
	c0.9-0.1,1.6-0.2,2.3-0.4c0.7-0.2,1.2-0.4,1.6-0.8c0.4-0.3,0.6-0.8,0.6-1.5c0-0.8-0.1-1.4-0.4-1.9c-0.3-0.5-0.7-0.8-1.1-1.1
	c-0.4-0.2-1-0.4-1.5-0.5c-0.6-0.1-1.1-0.1-1.7-0.1c-1.5,0-2.7,0.3-3.7,0.9c-1,0.6-1.5,1.6-1.6,3.2h-3.5c0.1-1.3,0.3-2.4,0.8-3.3
	c0.5-0.9,1.1-1.7,2-2.2c0.8-0.6,1.8-1,2.8-1.2c1.1-0.3,2.2-0.4,3.4-0.4c1,0,1.9,0.1,2.9,0.2c0.9,0.1,1.8,0.4,2.6,0.8
	c0.8,0.4,1.4,1,1.9,1.8c0.5,0.8,0.7,1.8,0.7,3v11c0,0.8,0,1.4,0.1,1.8c0.1,0.4,0.4,0.6,1,0.6c0.3,0,0.7-0.1,1.1-0.2v2.7
	C93.4,103.3,92.6,103.5,91.5,103.5L91.5,103.5z M86.6,92.7c-0.7,0.1-1.5,0.3-2.2,0.4c-0.8,0.1-1.6,0.2-2.4,0.3
	c-0.8,0.1-1.5,0.3-2.1,0.6c-0.6,0.3-1.2,0.7-1.6,1.2s-0.6,1.2-0.6,2.1c0,0.6,0.1,1.1,0.4,1.5c0.2,0.4,0.5,0.7,0.9,1
	c0.4,0.3,0.8,0.4,1.3,0.5s1,0.2,1.5,0.2c1.2,0,2.1-0.1,3-0.5c0.8-0.3,1.5-0.7,2-1.2c0.5-0.5,0.9-1,1.2-1.6c0.2-0.6,0.4-1.1,0.4-1.6
	V92C87.9,92.3,87.3,92.6,86.6,92.7L86.6,92.7z"/>
<path fill="#FFFFFF" d="M99.5,81.7v4.5h0.1c0.9-1.7,1.9-3,3.1-3.8c1.2-0.8,2.8-1.2,4.7-1.2v3.7c-1.4,0-2.6,0.2-3.6,0.6
	c-1,0.4-1.8,1-2.4,1.7c-0.6,0.7-1,1.6-1.3,2.7c-0.3,1.1-0.4,2.3-0.4,3.7v9.5h-3.5V81.7H99.5L99.5,81.7z"/>
<path fill="#FFFFFF" d="M119.8,81.7v3.1h-4.3V98c0,0.4,0,0.7,0.1,1c0.1,0.2,0.2,0.4,0.4,0.6c0.2,0.1,0.5,0.2,0.8,0.3
	c0.3,0,0.8,0.1,1.3,0.1h1.6v3.1h-2.7c-0.9,0-1.7-0.1-2.3-0.2c-0.6-0.1-1.2-0.4-1.6-0.7c-0.4-0.3-0.7-0.8-0.9-1.4
	c-0.2-0.6-0.3-1.4-0.3-2.4V84.8h-3.6v-3.1h3.6v-6.4h3.5v6.4H119.8L119.8,81.7z"/>
<path fill="#FFFFFF" d="M126,81.7v3.1h0.1c1.6-2.4,3.9-3.6,6.9-3.6c1.3,0,2.5,0.3,3.6,0.8c1.1,0.5,1.8,1.5,2.3,2.8
	c0.7-1.2,1.7-2,2.8-2.7c1.2-0.6,2.5-1,3.9-1c1.1,0,2.1,0.1,2.9,0.4c0.9,0.2,1.6,0.6,2.2,1.1c0.6,0.5,1.1,1.1,1.5,1.9
	c0.3,0.8,0.5,1.7,0.5,2.8V103h-3.5V89c0-0.7-0.1-1.3-0.2-1.9c-0.1-0.6-0.3-1.1-0.6-1.5c-0.3-0.4-0.7-0.8-1.3-1
	c-0.5-0.3-1.2-0.4-2.1-0.4c-1.7,0-3.1,0.5-4.1,1.5c-1,1-1.5,2.3-1.5,4V103h-3.5V89c0-0.7-0.1-1.3-0.2-1.9c-0.1-0.6-0.3-1.1-0.6-1.5
	c-0.3-0.4-0.7-0.8-1.2-1c-0.5-0.2-1.2-0.4-2-0.4c-1,0-1.9,0.2-2.6,0.6c-0.7,0.4-1.3,0.9-1.8,1.5c-0.4,0.6-0.8,1.2-1,1.8
	c-0.2,0.6-0.3,1.1-0.3,1.5V103h-3.5V81.7H126L126,81.7z"/>
<path fill="#FFFFFF" d="M172,101.6c-1.6,1.2-3.6,1.8-6,1.8c-1.7,0-3.2-0.3-4.4-0.8c-1.3-0.5-2.3-1.3-3.2-2.3c-0.9-1-1.5-2.2-1.9-3.5
	c-0.4-1.4-0.7-2.9-0.7-4.5c0-1.6,0.2-3.1,0.8-4.5c0.5-1.3,1.2-2.5,2.1-3.5c0.9-1,2-1.8,3.2-2.3c1.2-0.6,2.6-0.8,4-0.8
	c1.9,0,3.5,0.4,4.7,1.2c1.2,0.8,2.3,1.8,3,3c0.8,1.2,1.3,2.5,1.6,4c0.3,1.4,0.4,2.8,0.3,4.1h-16c0,0.9,0.1,1.8,0.3,2.7
	c0.2,0.8,0.6,1.6,1.2,2.2c0.6,0.6,1.2,1.2,2.1,1.6c0.8,0.4,1.8,0.6,3,0.6c1.5,0,2.7-0.3,3.7-1c1-0.7,1.6-1.7,1.9-3.1h3.5
	C174.7,98.6,173.6,100.4,172,101.6L172,101.6z M171.2,87.9c-0.3-0.7-0.7-1.4-1.3-1.9c-0.5-0.5-1.2-1-1.9-1.3
	c-0.7-0.3-1.5-0.5-2.4-0.5c-0.9,0-1.7,0.2-2.5,0.5c-0.7,0.3-1.4,0.8-1.9,1.3c-0.5,0.5-0.9,1.2-1.2,1.9c-0.3,0.7-0.5,1.5-0.5,2.3
	h12.3C171.7,89.5,171.5,88.7,171.2,87.9L171.2,87.9z"/>
<path fill="#FFFFFF" d="M181.4,81.7V85h0.1c1.5-2.6,3.8-3.9,6.9-3.9c1.4,0,2.6,0.2,3.5,0.6c0.9,0.4,1.7,0.9,2.3,1.6
	c0.6,0.7,1,1.5,1.2,2.4c0.2,1,0.4,2,0.4,3.2V103h-3.5V88.6c0-1.3-0.4-2.4-1.1-3.1c-0.8-0.8-1.8-1.2-3.2-1.2c-1.1,0-2,0.2-2.8,0.5
	c-0.8,0.3-1.4,0.8-2,1.4c-0.5,0.6-0.9,1.3-1.2,2.1c-0.3,0.8-0.4,1.7-0.4,2.7V103h-3.5V81.7H181.4L181.4,81.7z"/>
<path fill="#FFFFFF" d="M208.4,81.7v3.1h-4.2V98c0,0.4,0,0.7,0.1,1c0.1,0.2,0.2,0.4,0.4,0.6c0.2,0.1,0.5,0.2,0.8,0.3
	c0.3,0,0.8,0.1,1.3,0.1h1.6v3.1h-2.7c-0.9,0-1.7-0.1-2.3-0.2c-0.6-0.1-1.2-0.4-1.6-0.7c-0.4-0.3-0.7-0.8-0.9-1.4
	c-0.2-0.6-0.3-1.4-0.3-2.4V84.8H197v-3.1h3.6v-6.4h3.5v6.4H208.4L208.4,81.7z"/>
<path fill="#FFFFFF" d="M0.3,127.9v-3.1h3.6v-3.2c0-1.7,0.5-3.1,1.5-3.9c1-0.9,2.5-1.3,4.4-1.3c0.3,0,0.7,0,1.1,0.1
	c0.4,0.1,0.8,0.1,1.1,0.2v3.1c-0.3-0.1-0.6-0.2-1-0.2c-0.4,0-0.7-0.1-1-0.1c-0.9,0-1.5,0.2-2,0.5c-0.5,0.3-0.7,1-0.7,1.9v3h4.1v3.1
	H7.4v18.2H3.9v-18.2H0.3L0.3,127.9z"/>
<path fill="#FFFFFF" d="M13.2,131.1c0.4-1.4,1.1-2.6,2-3.6c0.9-1,2-1.8,3.3-2.4c1.3-0.6,2.8-0.9,4.5-0.9c1.7,0,3.2,0.3,4.5,0.9
	c1.3,0.6,2.4,1.4,3.2,2.4c0.9,1,1.5,2.2,2,3.6s0.7,2.8,0.7,4.4s-0.2,3-0.7,4.4c-0.4,1.3-1.1,2.5-2,3.5c-0.9,1-2,1.8-3.2,2.3
	c-1.3,0.6-2.8,0.8-4.5,0.8c-1.7,0-3.2-0.3-4.5-0.8c-1.3-0.6-2.4-1.3-3.3-2.3c-0.9-1-1.5-2.2-2-3.5c-0.4-1.3-0.7-2.8-0.7-4.4
	S12.7,132.5,13.2,131.1L13.2,131.1z M16.7,139c0.4,1,0.8,1.8,1.4,2.5c0.6,0.7,1.3,1.2,2.1,1.5c0.8,0.4,1.7,0.5,2.6,0.5
	c0.9,0,1.8-0.2,2.6-0.5c0.8-0.3,1.5-0.9,2.1-1.5c0.6-0.7,1.1-1.5,1.4-2.5c0.3-1,0.5-2.2,0.5-3.5c0-1.3-0.2-2.5-0.5-3.4
	c-0.3-1-0.8-1.8-1.4-2.5c-0.6-0.7-1.3-1.2-2.1-1.6c-0.8-0.4-1.7-0.5-2.6-0.5c-0.9,0-1.8,0.2-2.6,0.5c-0.8,0.4-1.5,0.9-2.1,1.6
	c-0.6,0.7-1.1,1.5-1.4,2.5c-0.3,1-0.5,2.2-0.5,3.4C16.2,136.8,16.4,137.9,16.7,139L16.7,139z"/>
<path fill="#FFFFFF" d="M39.5,124.8v4.5h0.1c0.9-1.7,1.9-3,3.1-3.8c1.2-0.8,2.8-1.2,4.7-1.2v3.7c-1.4,0-2.6,0.2-3.6,0.6
	c-1,0.4-1.8,0.9-2.4,1.7c-0.6,0.8-1,1.7-1.3,2.7c-0.3,1.1-0.4,2.3-0.4,3.6v9.5h-3.5v-21.4H39.5L39.5,124.8z"/>
<path fill="#FFFFFF" d="M70.8,116.7c0.6,0,1.3,0,2,0c0.7,0,1.4,0.1,2.2,0.1c0.7,0.1,1.4,0.2,2,0.3c0.6,0.1,1.1,0.3,1.6,0.6
	c1,0.6,1.8,1.4,2.5,2.4c0.7,1,1,2.3,1,3.8c0,1.6-0.4,2.9-1.1,4.1c-0.8,1.1-1.8,2-3.2,2.5v0.1c1.8,0.4,3.2,1.2,4.2,2.5
	c1,1.3,1.5,2.8,1.5,4.6c0,1.1-0.2,2.1-0.6,3.1c-0.4,1-0.9,1.9-1.7,2.7c-0.8,0.8-1.7,1.4-2.8,1.9c-1.1,0.5-2.4,0.7-3.9,0.7H60.1
	v-29.5H70.8L70.8,116.7z M71.9,129.3c2.2,0,3.8-0.4,4.8-1.2c1-0.8,1.5-2,1.5-3.5c0-1-0.2-1.9-0.5-2.5c-0.3-0.6-0.8-1.1-1.4-1.4
	c-0.6-0.3-1.2-0.5-2-0.6c-0.8-0.1-1.6-0.1-2.4-0.1H64v9.4H71.9L71.9,129.3z M73.9,142.9c1.7,0,3.1-0.5,4.1-1.4
	c1-0.9,1.5-2.2,1.5-3.9c0-1-0.2-1.8-0.5-2.4c-0.4-0.6-0.8-1.1-1.4-1.5c-0.6-0.4-1.3-0.6-2-0.8c-0.8-0.2-1.6-0.2-2.4-0.2h-9v10.2
	H73.9L73.9,142.9z"/>
<path fill="#FFFFFF" d="M101.2,146.1v-3.4h-0.1c-0.7,1.3-1.7,2.3-2.9,2.9c-1.2,0.6-2.5,0.9-4.1,0.9c-1.4,0-2.6-0.2-3.5-0.6
	c-0.9-0.4-1.7-0.9-2.3-1.6c-0.6-0.7-1-1.5-1.2-2.5c-0.2-1-0.4-2-0.4-3.2v-14h3.5v14.5c0,1.3,0.4,2.4,1.2,3.1
	c0.8,0.8,1.8,1.1,3.2,1.1c1.1,0,2-0.2,2.8-0.5c0.8-0.3,1.4-0.8,2-1.4c0.5-0.6,0.9-1.3,1.2-2.1c0.3-0.8,0.4-1.7,0.4-2.7v-12.1h3.5
	v21.4H101.2L101.2,146.1z"/>
<path fill="#FFFFFF" d="M111.4,141.4c0.3,0.5,0.8,1,1.3,1.3c0.5,0.3,1.1,0.5,1.8,0.7c0.7,0.1,1.4,0.2,2.1,0.2c0.5,0,1.1,0,1.7-0.1
	c0.6-0.1,1.2-0.2,1.7-0.5c0.5-0.2,0.9-0.5,1.3-1c0.3-0.4,0.5-1,0.5-1.6c0-0.9-0.3-1.6-1-2.1c-0.7-0.5-1.6-0.8-2.6-1.1
	c-1-0.3-2.2-0.5-3.4-0.8c-1.2-0.2-2.3-0.6-3.4-1c-1-0.4-1.9-1-2.6-1.8c-0.7-0.8-1-1.9-1-3.2c0-1.1,0.2-2,0.7-2.8
	c0.5-0.8,1.1-1.4,1.9-1.9c0.8-0.5,1.6-0.8,2.6-1.1c0.9-0.2,1.9-0.4,2.8-0.4c1.2,0,2.3,0.1,3.4,0.3c1,0.2,1.9,0.6,2.7,1.1
	c0.8,0.5,1.4,1.2,1.9,2.1c0.5,0.9,0.8,2,0.8,3.2H121c-0.1-0.7-0.2-1.3-0.5-1.7c-0.3-0.4-0.7-0.8-1.1-1.1c-0.5-0.3-1-0.5-1.6-0.6
	c-0.6-0.1-1.1-0.2-1.7-0.2c-0.5,0-1.1,0-1.6,0.1c-0.5,0.1-1,0.2-1.5,0.4c-0.4,0.2-0.8,0.5-1.1,0.8c-0.3,0.3-0.4,0.8-0.4,1.3
	c0,0.6,0.2,1.1,0.6,1.5c0.4,0.4,1,0.7,1.6,1c0.7,0.3,1.4,0.5,2.2,0.7c0.8,0.2,1.6,0.4,2.5,0.6c0.9,0.2,1.7,0.4,2.6,0.7
	c0.8,0.3,1.6,0.6,2.2,1.1c0.6,0.5,1.2,1,1.6,1.7c0.4,0.7,0.6,1.5,0.6,2.6c0,1.3-0.3,2.4-0.8,3.2c-0.5,0.9-1.2,1.5-2.1,2.1
	c-0.9,0.5-1.9,0.9-2.9,1.1c-1.1,0.2-2.2,0.3-3.2,0.3c-1.2,0-2.3-0.1-3.4-0.4c-1.1-0.3-2-0.7-2.9-1.2c-0.8-0.6-1.5-1.3-2-2.2
	c-0.5-0.9-0.8-2-0.8-3.4h3.5C110.9,140.2,111.1,140.8,111.4,141.4L111.4,141.4z"/>
<path fill="#FFFFFF" d="M128.6,121v-4.3h3.5v4.3H128.6L128.6,121z M132.1,124.8v21.4h-3.5v-21.4H132.1L132.1,124.8z"/>
<path fill="#FFFFFF" d="M139.8,124.8v3.4h0.1c1.5-2.6,3.8-3.9,6.9-3.9c1.4,0,2.6,0.2,3.5,0.6c0.9,0.4,1.7,0.9,2.3,1.6
	c0.6,0.7,1,1.5,1.2,2.5c0.2,0.9,0.3,2,0.3,3.2v14h-3.5v-14.4c0-1.3-0.4-2.4-1.1-3.1s-1.8-1.2-3.2-1.2c-1.1,0-2,0.2-2.8,0.5
	c-0.8,0.3-1.4,0.8-2,1.4c-0.5,0.6-0.9,1.3-1.2,2.1c-0.3,0.8-0.4,1.7-0.4,2.7v12.1h-3.5v-21.4H139.8L139.8,124.8z"/>
<path fill="#FFFFFF" d="M173.6,144.8c-1.6,1.2-3.6,1.8-6,1.8c-1.7,0-3.2-0.3-4.4-0.8c-1.3-0.5-2.3-1.3-3.2-2.3
	c-0.9-1-1.5-2.2-1.9-3.6c-0.4-1.4-0.7-2.9-0.7-4.5c0-1.6,0.2-3.1,0.8-4.5c0.5-1.3,1.2-2.5,2.1-3.5c0.9-1,2-1.8,3.2-2.3
	c1.2-0.5,2.6-0.8,4-0.8c1.9,0,3.5,0.4,4.7,1.2c1.2,0.8,2.3,1.8,3,3c0.8,1.2,1.3,2.5,1.6,4c0.3,1.4,0.4,2.8,0.4,4.1h-16
	c0,0.9,0.1,1.8,0.3,2.7c0.2,0.8,0.6,1.6,1.2,2.2c0.6,0.7,1.2,1.2,2.1,1.6c0.9,0.4,1.9,0.6,3,0.6c1.5,0,2.7-0.3,3.7-1
	c0.9-0.7,1.6-1.7,1.9-3.1h3.5C176.2,141.8,175.2,143.6,173.6,144.8L173.6,144.8z M172.7,131.1c-0.3-0.8-0.7-1.4-1.3-1.9
	c-0.5-0.5-1.2-1-1.9-1.3c-0.7-0.3-1.5-0.5-2.4-0.5c-0.9,0-1.7,0.2-2.5,0.5c-0.7,0.3-1.4,0.8-1.9,1.3c-0.5,0.5-0.9,1.2-1.2,1.9
	c-0.3,0.7-0.5,1.5-0.5,2.3h12.3C173.2,132.6,173,131.8,172.7,131.1L172.7,131.1z"/>
<path fill="#FFFFFF" d="M182.3,141.4c0.3,0.5,0.8,1,1.3,1.3c0.5,0.3,1.1,0.5,1.8,0.7c0.7,0.1,1.4,0.2,2.1,0.2c0.6,0,1.1,0,1.7-0.1
	c0.6-0.1,1.2-0.2,1.7-0.5c0.5-0.2,0.9-0.5,1.3-1c0.3-0.4,0.5-1,0.5-1.6c0-0.9-0.3-1.6-1-2.1c-0.7-0.5-1.5-0.8-2.6-1.1
	c-1-0.3-2.2-0.5-3.4-0.8c-1.2-0.2-2.3-0.6-3.4-1c-1-0.4-1.9-1-2.6-1.8c-0.7-0.8-1-1.9-1-3.2c0-1.1,0.2-2,0.7-2.8s1.1-1.4,1.9-1.9
	c0.8-0.5,1.6-0.8,2.6-1.1c1-0.2,1.9-0.4,2.8-0.4c1.2,0,2.3,0.1,3.3,0.3c1,0.2,1.9,0.6,2.7,1.1c0.8,0.5,1.4,1.2,1.9,2.1
	c0.5,0.9,0.7,2,0.8,3.2h-3.5c0-0.7-0.2-1.3-0.5-1.7c-0.3-0.4-0.7-0.8-1.2-1.1c-0.5-0.3-1-0.5-1.6-0.6c-0.6-0.1-1.1-0.2-1.7-0.2
	c-0.5,0-1.1,0-1.6,0.1c-0.5,0.1-1,0.2-1.5,0.4c-0.4,0.2-0.8,0.5-1.1,0.8c-0.3,0.3-0.4,0.8-0.4,1.3c0,0.6,0.2,1.1,0.6,1.5
	c0.4,0.4,1,0.7,1.6,1c0.7,0.3,1.4,0.5,2.2,0.7c0.8,0.2,1.7,0.4,2.5,0.6c0.9,0.2,1.7,0.4,2.6,0.7c0.8,0.3,1.6,0.6,2.2,1.1
	c0.6,0.5,1.2,1,1.6,1.7c0.4,0.7,0.6,1.5,0.6,2.6c0,1.3-0.3,2.4-0.8,3.2c-0.5,0.9-1.2,1.5-2.1,2.1c-0.9,0.5-1.8,0.9-2.9,1.1
	c-1.1,0.2-2.2,0.3-3.2,0.3c-1.2,0-2.3-0.1-3.4-0.4c-1.1-0.3-2-0.7-2.8-1.2c-0.8-0.6-1.5-1.3-2-2.2c-0.5-0.9-0.8-2-0.8-3.4h3.5
	C181.8,140.2,182,140.8,182.3,141.4L182.3,141.4z"/>
<path fill="#FFFFFF" d="M201.9,141.4c0.3,0.5,0.8,1,1.3,1.3c0.5,0.3,1.1,0.5,1.8,0.7c0.7,0.1,1.4,0.2,2.1,0.2c0.6,0,1.1,0,1.7-0.1
	c0.6-0.1,1.2-0.2,1.7-0.5c0.5-0.2,0.9-0.5,1.3-1c0.3-0.4,0.5-1,0.5-1.6c0-0.9-0.4-1.6-1-2.1c-0.7-0.5-1.5-0.8-2.6-1.1
	c-1-0.3-2.1-0.5-3.4-0.8c-1.2-0.2-2.3-0.6-3.4-1c-1-0.4-1.9-1-2.6-1.8c-0.7-0.8-1-1.9-1-3.2c0-1.1,0.2-2,0.7-2.8s1.1-1.4,1.9-1.9
	c0.8-0.5,1.6-0.8,2.6-1.1c0.9-0.2,1.9-0.4,2.8-0.4c1.2,0,2.3,0.1,3.3,0.3c1,0.2,1.9,0.6,2.7,1.1c0.8,0.5,1.4,1.2,1.9,2.1
	c0.5,0.9,0.7,2,0.8,3.2h-3.5c-0.1-0.7-0.2-1.3-0.5-1.7c-0.3-0.4-0.7-0.8-1.2-1.1c-0.5-0.3-1-0.5-1.6-0.6c-0.6-0.1-1.1-0.2-1.7-0.2
	c-0.5,0-1.1,0-1.6,0.1c-0.5,0.1-1,0.2-1.5,0.4c-0.4,0.2-0.8,0.5-1.1,0.8c-0.3,0.3-0.4,0.8-0.4,1.3c0,0.6,0.2,1.1,0.6,1.5
	c0.4,0.4,1,0.7,1.6,1c0.7,0.3,1.4,0.5,2.2,0.7c0.8,0.2,1.6,0.4,2.5,0.6c0.9,0.2,1.7,0.4,2.6,0.7c0.8,0.3,1.6,0.6,2.2,1.1
	c0.6,0.5,1.2,1,1.6,1.7c0.4,0.7,0.6,1.5,0.6,2.6c0,1.3-0.3,2.4-0.8,3.2c-0.5,0.9-1.2,1.5-2.1,2.1c-0.9,0.5-1.8,0.9-2.9,1.1
	c-1.1,0.2-2.2,0.3-3.2,0.3c-1.2,0-2.3-0.1-3.4-0.4c-1.1-0.3-2-0.7-2.9-1.2c-0.8-0.6-1.5-1.3-2-2.2c-0.5-0.9-0.8-2-0.8-3.4h3.5
	C201.4,140.2,201.6,140.8,201.9,141.4L201.9,141.4z"/>
<path fill="#FFFFFF" d="M224.3,141.6v4.2c0,1.6-0.4,2.9-1.1,4c-0.7,1.1-1.9,1.9-3.5,2.4v-2.1c0.5-0.2,0.9-0.4,1.2-0.7
	c0.3-0.3,0.6-0.7,0.8-1c0.2-0.4,0.3-0.8,0.4-1.1c0.1-0.4,0.1-0.8,0.1-1.1h-2.4v-4.6H224.3L224.3,141.6z"/>
<polygon fill="#FFFFFF" points="7.1,159.8 7.1,189.3 3.2,189.3 3.2,159.8 7.1,159.8 "/>
<path fill="#FFFFFF" d="M15.4,167.9v3.4h0.1c1.5-2.6,3.8-3.9,6.9-3.9c1.4,0,2.6,0.2,3.5,0.6c0.9,0.4,1.7,0.9,2.3,1.6
	c0.6,0.7,1,1.5,1.2,2.5c0.2,1,0.4,2,0.4,3.2v14h-3.5v-14.5c0-1.3-0.4-2.4-1.1-3.1c-0.8-0.8-1.8-1.2-3.2-1.2c-1.1,0-2,0.2-2.8,0.5
	c-0.8,0.3-1.4,0.8-2,1.4c-0.5,0.6-0.9,1.3-1.2,2.1c-0.3,0.8-0.4,1.7-0.4,2.7v12.1h-3.5v-21.3H15.4L15.4,167.9z"/>
<path fill="#FFFFFF" d="M37.3,167.9v3.4h0.1c1.5-2.6,3.8-3.9,6.9-3.9c1.4,0,2.6,0.2,3.5,0.6c0.9,0.4,1.7,0.9,2.3,1.6
	c0.6,0.7,1,1.5,1.2,2.5c0.2,1,0.4,2,0.4,3.2v14h-3.5v-14.5c0-1.3-0.4-2.4-1.2-3.1c-0.8-0.8-1.8-1.2-3.2-1.2c-1.1,0-2,0.2-2.8,0.5
	c-0.8,0.3-1.4,0.8-2,1.4c-0.5,0.6-0.9,1.3-1.2,2.1c-0.3,0.8-0.4,1.7-0.4,2.7v12.1h-3.5v-21.3H37.3L37.3,167.9z"/>
<path fill="#FFFFFF" d="M55.5,174.2c0.4-1.4,1.1-2.6,2-3.6c0.9-1,2-1.8,3.3-2.4c1.3-0.6,2.8-0.9,4.5-0.9c1.7,0,3.2,0.3,4.5,0.9
	c1.3,0.6,2.4,1.4,3.2,2.4c0.9,1,1.5,2.2,2,3.6c0.4,1.4,0.7,2.8,0.7,4.4c0,1.6-0.2,3-0.7,4.4c-0.5,1.4-1.1,2.5-2,3.5
	c-0.9,1-2,1.8-3.2,2.4c-1.3,0.6-2.8,0.9-4.5,0.9c-1.7,0-3.2-0.3-4.5-0.9c-1.3-0.6-2.4-1.3-3.3-2.4c-0.9-1-1.6-2.2-2-3.5
	c-0.4-1.3-0.7-2.8-0.7-4.4C54.8,177.1,55,175.6,55.5,174.2L55.5,174.2z M59.1,182.1c0.3,1,0.8,1.9,1.4,2.5c0.6,0.7,1.3,1.2,2.1,1.5
	c0.8,0.4,1.7,0.5,2.6,0.5c0.9,0,1.8-0.2,2.6-0.5c0.8-0.4,1.5-0.9,2.1-1.5c0.6-0.7,1.1-1.5,1.4-2.5c0.3-1,0.5-2.1,0.5-3.4
	c0-1.3-0.2-2.5-0.5-3.5c-0.3-1-0.8-1.9-1.4-2.5c-0.6-0.7-1.3-1.2-2.1-1.6c-0.8-0.4-1.7-0.5-2.6-0.5c-0.9,0-1.8,0.2-2.6,0.5
	c-0.8,0.4-1.5,0.9-2.1,1.6c-0.6,0.7-1.1,1.5-1.4,2.5c-0.3,1-0.5,2.2-0.5,3.5C58.5,179.9,58.7,181.1,59.1,182.1L59.1,182.1z"/>
<polygon fill="#FFFFFF" points="83.7,189.3 75.8,167.9 79.7,167.9 85.7,185.7 85.8,185.7 91.6,167.9 95.3,167.9 87.5,189.3 
	83.7,189.3 "/>
<path fill="#FFFFFF" d="M113.9,189.8c-0.9,0-1.6-0.3-2.2-0.8c-0.5-0.5-0.8-1.3-0.8-2.5c-1,1.2-2.1,2-3.4,2.5
	c-1.3,0.5-2.7,0.8-4.1,0.8c-1,0-1.9-0.1-2.7-0.3c-0.9-0.2-1.6-0.5-2.2-1c-0.6-0.5-1.2-1.1-1.5-1.9c-0.4-0.8-0.6-1.7-0.6-2.7
	c0-1.2,0.2-2.2,0.6-3c0.4-0.8,1-1.4,1.6-1.9c0.7-0.5,1.4-0.8,2.3-1.1c0.9-0.2,1.8-0.5,2.7-0.6c1-0.2,1.9-0.3,2.7-0.4
	c0.9-0.1,1.6-0.2,2.3-0.4c0.7-0.2,1.2-0.4,1.6-0.8c0.4-0.3,0.6-0.8,0.6-1.5c0-0.8-0.1-1.4-0.4-1.9c-0.3-0.5-0.7-0.8-1.1-1.1
	c-0.5-0.2-1-0.4-1.5-0.5c-0.6-0.1-1.1-0.1-1.7-0.1c-1.5,0-2.7,0.3-3.7,0.9c-1,0.6-1.5,1.6-1.6,3.2h-3.5c0-1.3,0.3-2.4,0.8-3.3
	c0.5-0.9,1.2-1.6,2-2.2c0.8-0.6,1.8-1,2.9-1.2c1.1-0.2,2.2-0.4,3.4-0.4c1,0,1.9,0.1,2.9,0.2c0.9,0.1,1.8,0.4,2.6,0.8
	c0.8,0.4,1.4,1,1.9,1.8c0.5,0.8,0.7,1.8,0.7,3v11c0,0.8,0,1.4,0.1,1.8c0.1,0.4,0.4,0.6,1,0.6c0.3,0,0.7-0.1,1.1-0.2v2.7
	C115.8,189.6,115,189.8,113.9,189.8L113.9,189.8z M109,179c-0.7,0.2-1.5,0.3-2.2,0.4c-0.8,0.1-1.6,0.2-2.4,0.3
	c-0.8,0.1-1.5,0.3-2.1,0.6c-0.6,0.3-1.1,0.7-1.5,1.2c-0.4,0.5-0.6,1.2-0.6,2.1c0,0.6,0.1,1.1,0.4,1.5c0.2,0.4,0.5,0.7,0.9,1
	c0.4,0.2,0.8,0.4,1.3,0.5c0.5,0.1,1,0.2,1.5,0.2c1.2,0,2.2-0.2,3-0.5c0.8-0.3,1.5-0.7,2-1.2c0.5-0.5,0.9-1,1.1-1.6
	c0.3-0.6,0.4-1.1,0.4-1.6v-3.6C110.3,178.6,109.7,178.8,109,179L109,179z"/>
<path fill="#FFFFFF" d="M127.8,167.9v3.1h-4.2v13.3c0,0.4,0,0.8,0.1,1c0.1,0.2,0.2,0.4,0.4,0.6c0.2,0.1,0.5,0.2,0.8,0.3
	c0.3,0,0.8,0.1,1.3,0.1h1.6v3.1h-2.7c-0.9,0-1.7-0.1-2.3-0.2c-0.6-0.1-1.2-0.4-1.6-0.7c-0.4-0.3-0.7-0.8-0.9-1.4
	c-0.2-0.6-0.3-1.4-0.3-2.4V171h-3.6v-3.1h3.6v-6.4h3.5v6.4H127.8L127.8,167.9z"/>
<path fill="#FFFFFF" d="M130.9,164.1v-4.3h3.5v4.3H130.9L130.9,164.1z M134.4,167.9v21.3h-3.5v-21.3H134.4L134.4,167.9z"/>
<path fill="#FFFFFF" d="M138.4,174.2c0.4-1.4,1.1-2.6,2-3.6c0.9-1,2-1.8,3.3-2.4c1.3-0.6,2.8-0.9,4.5-0.9c1.7,0,3.2,0.3,4.5,0.9
	c1.3,0.6,2.4,1.4,3.2,2.4c0.9,1,1.5,2.2,2,3.6c0.4,1.4,0.7,2.8,0.7,4.4c0,1.6-0.2,3-0.7,4.4c-0.4,1.4-1.1,2.5-2,3.5
	c-0.9,1-2,1.8-3.2,2.4c-1.3,0.6-2.8,0.9-4.5,0.9c-1.7,0-3.2-0.3-4.5-0.9c-1.3-0.6-2.4-1.3-3.3-2.4c-0.9-1-1.5-2.2-2-3.5
	c-0.5-1.3-0.7-2.8-0.7-4.4C137.7,177.1,137.9,175.6,138.4,174.2L138.4,174.2z M141.9,182.1c0.3,1,0.8,1.9,1.4,2.5
	c0.6,0.7,1.3,1.2,2.1,1.5c0.8,0.4,1.7,0.5,2.6,0.5c0.9,0,1.8-0.2,2.6-0.5c0.8-0.4,1.5-0.9,2.1-1.5c0.6-0.7,1.1-1.5,1.4-2.5
	c0.4-1,0.5-2.1,0.5-3.4c0-1.3-0.2-2.5-0.5-3.5c-0.3-1-0.8-1.9-1.4-2.5c-0.6-0.7-1.3-1.2-2.1-1.6c-0.8-0.4-1.7-0.5-2.6-0.5
	c-0.9,0-1.8,0.2-2.6,0.5c-0.8,0.4-1.5,0.9-2.1,1.6c-0.6,0.7-1.1,1.5-1.4,2.5c-0.4,1-0.5,2.2-0.5,3.5
	C141.4,179.9,141.6,181.1,141.9,182.1L141.9,182.1z"/>
<path fill="#FFFFFF" d="M164.9,167.9v3.4h0.1c1.5-2.6,3.8-3.9,6.9-3.9c1.4,0,2.6,0.2,3.5,0.6c0.9,0.4,1.7,0.9,2.3,1.6
	c0.6,0.7,1,1.5,1.2,2.5c0.2,1,0.4,2,0.4,3.2v14h-3.5v-14.5c0-1.3-0.4-2.4-1.1-3.1c-0.8-0.8-1.8-1.2-3.2-1.2c-1.1,0-2,0.2-2.8,0.5
	c-0.8,0.3-1.4,0.8-2,1.4c-0.5,0.6-0.9,1.3-1.2,2.1c-0.3,0.8-0.4,1.7-0.4,2.7v12.1h-3.5v-21.3H164.9L164.9,167.9z"/>
<path fill="#FFFFFF" d="M206.6,188.7c-1.5,0.7-3.1,1-4.7,1c-2,0-3.6-0.3-4.8-0.9c-1.2-0.6-2.2-1.3-2.8-2.2c-0.7-0.9-1.1-1.7-1.3-2.6
	c-0.2-0.9-0.3-1.7-0.3-2.3c0-1.1,0.2-2.2,0.6-3c0.4-0.9,0.9-1.7,1.5-2.4c0.6-0.7,1.4-1.3,2.2-1.9c0.8-0.6,1.7-1.1,2.7-1.6
	c-0.4-0.6-0.8-1.1-1.2-1.7c-0.4-0.5-0.7-1.1-1.1-1.6c-0.3-0.5-0.6-1.1-0.7-1.7c-0.2-0.6-0.3-1.3-0.3-2c0-0.8,0.1-1.6,0.4-2.3
	c0.3-0.7,0.7-1.4,1.3-1.9c0.6-0.6,1.3-1,2.1-1.3c0.8-0.3,1.8-0.5,2.8-0.5c0.9,0,1.8,0.1,2.7,0.4c0.9,0.3,1.6,0.6,2.3,1.1
	c0.7,0.5,1.2,1.1,1.6,1.9c0.4,0.8,0.6,1.6,0.6,2.6c0,0.9-0.1,1.7-0.5,2.5c-0.3,0.8-0.7,1.5-1.2,2.1c-0.5,0.6-1.1,1.2-1.8,1.7
	c-0.7,0.5-1.4,1-2.1,1.4l5.3,6.5c0.5-1.5,0.9-3.1,1-4.6h3.3c-0.1,0.9-0.2,1.6-0.3,2.2c-0.1,0.6-0.2,1.2-0.4,1.7
	c-0.2,0.5-0.3,1-0.6,1.6c-0.2,0.5-0.5,1.1-0.8,1.7l5.7,6.6h-4.6l-3.1-3.7C209.4,187,208.2,188,206.6,188.7L206.6,188.7z
	 M199.6,176.2c-0.6,0.4-1.2,0.9-1.6,1.4c-0.5,0.5-0.8,1.1-1.1,1.8c-0.3,0.7-0.4,1.4-0.4,2.3c0,0.8,0.2,1.4,0.5,2.1
	c0.3,0.6,0.7,1.1,1.3,1.6c0.5,0.4,1.1,0.8,1.8,1c0.7,0.2,1.4,0.4,2.1,0.4c1.3,0,2.6-0.3,3.6-1c1.1-0.6,1.9-1.5,2.7-2.6l-6.8-8.1
	C200.8,175.4,200.2,175.8,199.6,176.2L199.6,176.2z M204,170.2c0.5-0.3,0.9-0.7,1.3-1.1c0.4-0.4,0.7-0.9,0.9-1.4
	c0.3-0.5,0.4-1.1,0.4-1.7c0-0.8-0.3-1.6-0.9-2.2c-0.6-0.6-1.4-0.9-2.5-0.9c-0.8,0-1.6,0.3-2.3,0.8c-0.7,0.5-1.1,1.3-1.1,2.4
	c0,0.4,0.1,0.9,0.3,1.3c0.2,0.4,0.4,0.9,0.7,1.3c0.3,0.4,0.6,0.8,0.9,1.3c0.3,0.4,0.7,0.8,1,1.2C203.1,170.9,203.5,170.6,204,170.2
	L204,170.2z"/>
<path fill="#FFFFFF" d="M244.8,163.8c-1.3-1-3-1.4-5-1.4c-0.8,0-1.6,0.1-2.4,0.2c-0.8,0.2-1.5,0.4-2.1,0.8c-0.6,0.4-1.1,0.9-1.5,1.5
	c-0.4,0.6-0.6,1.5-0.6,2.4c0,0.9,0.3,1.7,0.8,2.2c0.5,0.6,1.2,1,2.1,1.4c0.9,0.4,1.9,0.7,3,0.9c1.1,0.2,2.3,0.5,3.4,0.8
	c1.2,0.3,2.3,0.6,3.5,1c1.1,0.4,2.1,0.9,3,1.5c0.9,0.6,1.6,1.4,2.1,2.4c0.5,1,0.8,2.2,0.8,3.6c0,1.6-0.3,2.9-1,4
	c-0.7,1.1-1.6,2-2.7,2.7c-1.1,0.7-2.3,1.2-3.7,1.5c-1.4,0.3-2.7,0.5-4.1,0.5c-1.7,0-3.2-0.2-4.7-0.6c-1.5-0.4-2.8-1-3.9-1.9
	c-1.1-0.8-2-1.9-2.6-3.2c-0.6-1.3-1-2.9-1-4.6h3.7c0,1.2,0.2,2.3,0.7,3.2c0.5,0.9,1.1,1.6,1.9,2.2c0.8,0.6,1.7,1,2.7,1.3
	c1.1,0.3,2.1,0.4,3.2,0.4c0.9,0,1.8-0.1,2.7-0.3c0.9-0.2,1.7-0.4,2.4-0.8c0.7-0.4,1.3-0.9,1.7-1.6c0.4-0.7,0.7-1.6,0.7-2.6
	c0-1-0.3-1.8-0.8-2.5c-0.5-0.6-1.2-1.1-2.1-1.6c-0.9-0.4-1.9-0.7-3-1c-1.1-0.3-2.3-0.5-3.4-0.8c-1.2-0.3-2.3-0.6-3.4-0.9
	c-1.1-0.3-2.1-0.8-3-1.4c-0.9-0.6-1.6-1.3-2.1-2.2c-0.5-0.9-0.8-2-0.8-3.4c0-1.5,0.3-2.8,0.9-3.9c0.6-1.1,1.4-2,2.4-2.7
	c1-0.7,2.1-1.2,3.4-1.6c1.3-0.4,2.6-0.5,3.9-0.5c1.5,0,2.9,0.2,4.2,0.5c1.3,0.4,2.4,0.9,3.4,1.7c1,0.8,1.8,1.7,2.3,2.9
	c0.6,1.2,0.9,2.6,0.9,4.2h-3.7C246.9,166.3,246.1,164.8,244.8,163.8L244.8,163.8z"/>
<polygon fill="#FFFFFF" points="258.9,159.8 258.9,177.3 268.7,167.9 273.4,167.9 264.9,175.7 274,189.3 269.6,189.3 262.2,178.1 
	258.9,181.2 258.9,189.3 255.4,189.3 255.4,159.8 258.9,159.8 "/>
<path fill="#FFFFFF" d="M275.8,164.1v-4.3h3.5v4.3H275.8L275.8,164.1z M279.3,167.9v21.3h-3.5v-21.3H279.3L279.3,167.9z"/>
<polygon fill="#FFFFFF" points="287.5,159.8 287.5,189.3 284,189.3 284,159.8 287.5,159.8 "/>
<polygon fill="#FFFFFF" points="295.7,159.8 295.7,189.3 292.2,189.3 292.2,159.8 295.7,159.8 "/>
<path fill="#FFFFFF" d="M302.8,184.5c0.3,0.5,0.8,1,1.3,1.3c0.5,0.3,1.1,0.6,1.8,0.7c0.7,0.1,1.4,0.2,2.1,0.2c0.6,0,1.1,0,1.7-0.1
	c0.6-0.1,1.2-0.2,1.7-0.5c0.5-0.2,0.9-0.5,1.3-1c0.3-0.4,0.5-1,0.5-1.6c0-0.9-0.3-1.6-1-2.1c-0.7-0.5-1.6-0.8-2.6-1.1
	c-1-0.3-2.1-0.6-3.4-0.8c-1.2-0.2-2.3-0.6-3.4-1c-1-0.4-1.9-1-2.6-1.8c-0.7-0.8-1-1.8-1-3.2c0-1.1,0.2-2,0.7-2.8
	c0.5-0.8,1.1-1.4,1.9-1.9c0.8-0.5,1.6-0.8,2.6-1.1c0.9-0.2,1.9-0.4,2.8-0.4c1.2,0,2.3,0.1,3.3,0.3c1,0.2,1.9,0.6,2.7,1.1
	c0.8,0.5,1.4,1.2,1.9,2.1c0.5,0.9,0.7,2,0.8,3.2h-3.5c0-0.7-0.2-1.3-0.5-1.7c-0.3-0.4-0.7-0.8-1.1-1.1c-0.5-0.3-1-0.5-1.6-0.6
	c-0.6-0.1-1.1-0.2-1.7-0.2c-0.5,0-1.1,0-1.6,0.1c-0.5,0.1-1,0.2-1.5,0.4c-0.4,0.2-0.8,0.5-1.1,0.8c-0.3,0.4-0.4,0.8-0.4,1.3
	c0,0.6,0.2,1.1,0.6,1.5c0.4,0.4,1,0.7,1.6,1c0.7,0.3,1.4,0.5,2.2,0.7c0.8,0.2,1.7,0.4,2.5,0.5c0.9,0.2,1.7,0.4,2.6,0.7
	c0.8,0.3,1.6,0.6,2.2,1.1c0.7,0.5,1.2,1,1.6,1.7c0.4,0.7,0.6,1.6,0.6,2.6c0,1.3-0.3,2.4-0.8,3.2c-0.5,0.8-1.2,1.5-2.1,2.1
	c-0.9,0.5-1.8,0.9-2.9,1.1c-1.1,0.2-2.2,0.3-3.2,0.3c-1.2,0-2.3-0.1-3.4-0.4c-1.1-0.2-2-0.6-2.8-1.2c-0.8-0.6-1.5-1.3-2-2.2
	c-0.5-0.9-0.8-2.1-0.8-3.4h3.5C302.3,183.3,302.5,184,302.8,184.5L302.8,184.5z"/>
<path fill="#FFFFFF" d="M33.2,22.4c-0.1-0.1,0.1-0.3,0.2-0.4c0.1-0.1,0.5-0.1,0.5-0.1s-0.1,0.2-0.1,0.4
	C33.8,22.5,33.4,22.5,33.2,22.4"/>
<path fill="#FFFFFF" d="M34.3,23.1c-0.1-0.1,0.1-0.3,0.2-0.4c0.1-0.1,0.5-0.1,0.5-0.1s-0.1,0.2-0.1,0.4
	C34.8,23.1,34.5,23.1,34.3,23.1"/>
<path fill="#FFFFFF" d="M34.4,22.3c-0.1-0.1,0.1-0.3,0.2-0.4c0.1-0.1,0.5-0.1,0.5-0.1S35,22,34.9,22.2
	C34.9,22.3,34.5,22.3,34.4,22.3"/>
<path fill="#FFFFFF" d="M33.3,23.2c-0.1-0.1,0.1-0.3,0.2-0.4c0.1-0.1,0.5-0.1,0.5-0.1s-0.1,0.2-0.1,0.4
	C33.8,23.3,33.4,23.3,33.3,23.2"/>
<path fill="#FFFFFF" d="M34.4,23.8c-0.1-0.1,0.1-0.3,0.2-0.3c0.1-0.1,0.4-0.1,0.4-0.1s-0.1,0.2-0.1,0.3
	C34.8,23.9,34.5,23.9,34.4,23.8"/>
<path fill="#FFFFFF" d="M33.3,24c-0.1-0.1,0.1-0.3,0.2-0.3c0.1,0,0.4-0.1,0.4-0.1s-0.1,0.2-0.1,0.3C33.7,24.1,33.4,24.1,33.3,24"/>
<path fill="#FFFFFF" d="M35.3,23.8c-0.1-0.1,0.1-0.3,0.2-0.3c0.1,0,0.4-0.1,0.4-0.1s-0.1,0.2-0.1,0.3C35.8,23.8,35.4,23.8,35.3,23.8
	"/>
<path fill="#FFFFFF" d="M34.4,24.6c-0.1-0.1,0.1-0.3,0.2-0.3c0.1-0.1,0.4-0.1,0.4-0.1s-0.1,0.2-0.1,0.3
	C34.9,24.6,34.5,24.6,34.4,24.6"/>
<path fill="#FFFFFF" d="M35.3,24.5c-0.1,0,0.1-0.3,0.2-0.3c0.1-0.1,0.4-0.1,0.4-0.1s-0.1,0.2-0.1,0.3C35.8,24.6,35.5,24.6,35.3,24.5
	"/>
<path fill="#FFFFFF" d="M35.4,23c-0.1,0,0.1-0.3,0.2-0.3c0.1-0.1,0.4-0.1,0.4-0.1s-0.1,0.2-0.1,0.3C35.8,23.1,35.5,23.1,35.4,23"/>
<path fill="#FFFFFF" d="M10.4,27.8c-0.3-0.3-0.4-0.8-0.3-1.1c0.2-0.6,0.1-1-0.1-1.3c-0.1-0.1-0.2-0.2-0.3-0.3
	c0.1,0.8,0.2,1.4-0.3,2.1c0.1-0.2-0.2-0.7-0.2-1.3c0-0.5,0.2-1,0-1.2c0.2,0.1,0.7,0.2,0.9,0.3c0.5,0.1,0.6,0.3,0.8,0.7
	c0.1,0.1,0.2,0.2,0.3,0.4c0.1-0.2,0.2-0.4,0.2-0.5c0.1-0.2,0-0.4,0-0.6c0.2,0,0.4,0.5,0.5,0.6c0.1,0.1,0.2,0.2,0.3,0.2
	c0.1-0.2,0.1-0.4,0.1-0.6c0-0.3,0.1-0.5,0-0.8c0.2,0,0.3,0.2,0.4,0.4c0.1,0.2,0.1,0.4,0.2,0.6c0.2-0.1,0.2-0.3,0.3-0.4
	c0.1-0.4,0.2-0.7,0.2-1.1c0.2,0.2,0.3,0.2,0.5,0.3c0.2,0.2,0.4,0.6,0.5,0.7c0.5,0.4,1.1,0.6,1.7,0.9c0.7,0.3,1.4,0.5,2.5,0.8
	c0.5,0.1,0.8,0.1,1.2,0c0.2-0.1,0.6-0.1,0.7-0.1c0.1,0,0.3,0.1,0.6,0.1c0.4,0.1,0.5,0.5,0.5,0.9c-0.4,0.3-0.8,0.3-1.4,0.4
	C19.8,28,19.4,28,19,28.4c-0.1,0.1-0.2,0.2-0.4,0.2c0-0.1,0-0.2,0-0.3c0,0-0.1-0.1-0.2-0.1c-0.2,0.2-0.2,0.4-0.4,0.4
	c0-0.1-0.2-0.2-0.3-0.2c-0.2,0-0.2,0.2-0.4,0.2c0.1-0.2-0.1-0.4-0.3-0.4c0,0-0.2,0.4-0.4,0.4c0.1-0.2-0.1-0.5-0.3-0.6
	c-0.1,0.2-0.2,0.5-0.4,0.6c0.1-0.2,0-0.8-0.3-0.8c0,0.3-0.1,0.5-0.3,0.7c0.1-0.8-0.6-1.1-1.3-1.3c-0.3-0.1-0.3-0.1-0.5-0.2
	c-0.1-0.1-0.3-0.1-0.5-0.1c0,0.2,0.1,0.6,0.3,0.8c-0.4-0.1-0.6-0.2-0.8-0.4c-0.1-0.2-0.1-0.3-0.3-0.6c-0.2,0.6,0.1,0.8,0.3,1.2
	c-1,0-1-1.1-1-1.2c-0.1,0.1-0.2,0.3-0.2,0.4c0,0.2,0,0.6,0.2,0.8c-0.1,0-0.5-0.2-0.5-0.4c-0.1-0.2-0.1-0.1-0.1-0.4
	c0-0.2,0-0.7-0.1-0.8c-0.1,0.1-0.2,0.3-0.2,0.6C10.6,27.4,10.3,27.5,10.4,27.8"/>
<path fill="#FFFFFF" d="M5.7,21.4c0,0.4,0.2,0.6,0.4,1c0.2,0.4,0.2,1.1,0,1.7c-0.1,0.2-0.2,0.4-0.4,0.6C5.4,23.6,5,22.4,5.7,21.4"/>
<path fill="#FFFFFF" d="M8.4,24c0,0.3,0.4,0.5,0.4,1c0,0.3,0,0.5-0.1,0.8c-0.1,0.3,0.1,0.5-0.1,0.9c-0.1,0.2-0.2,0.4-0.1,0.7
	c-0.1-0.2-0.6-0.9-0.4-1.6c0.1-0.5,0.1-0.8,0.1-1.4C8.3,24.2,8.3,24.1,8.4,24"/>
<path fill="#FFFFFF" d="M7.6,26.6c-0.4-0.3-0.6-1.1-0.5-1.5c0.3-0.8,0.2-0.8,0.2-1.6c0-0.1,0-0.5,0.1-0.7c0,0.7,0.5,0.9,0.5,1.5
	c0,0.3,0,0.7-0.1,1.1C7.5,26,7.6,26.4,7.6,26.6"/>
<path fill="#FFFFFF" d="M6.5,22.3c0.1,0.3,0.3,0.7,0.4,0.9c0.2,0.3,0.1,0.9-0.1,1.6c-0.1,0.3-0.4,0.6-0.4,0.9
	c-0.1-0.2,0,0.1-0.1-0.5c-0.2-0.7,0.2-1,0.2-1.5C6.6,23.3,6.5,22.7,6.5,22.3"/>
<path fill="#FFFFFF" d="M0,29.3c0,0,0.4-0.2,0.6-1.3c0.2-1,1.4-1.6,1.8-1.7c-0.3,0.4-0.6,0.8-0.9,1.4C1,28.5,0.3,29.1,0,29.3"/>
<path fill="#FFFFFF" d="M5.6,26.4c-0.3-0.7-0.4-1-1.1-1.4c-0.5-0.3-0.8-0.3-1.3-0.4c-0.9-0.1-1.3,0.1-1.6,0.2
	c-0.3,0.2-0.6,0.4-0.9,1c-0.2,0.5-0.2,0.9-0.2,1.3c0.1-0.5,0.3-1,0.7-1.3c0.3-0.3,0.7-0.6,0.9-0.6c0.5-0.2,0.9,0,0.9,0
	c-0.4,0.1-0.6,0.2-0.9,0.3c-0.5,0.3-0.9,0.9-1,1.4c0,0,0.4-0.8,1.2-1.1c0.6-0.3,1.1-0.3,1.6-0.2c-0.2,0.1-0.3,0.1-0.5,0.3
	c-0.3,0.2-0.6,0.7-0.9,1.2c-0.4,0.7-0.7,1.2-1,1.4c0.2-0.1,1.1-0.5,1.4-1.1C3,27,3.3,26.3,3.4,26.2c0.1-0.1,0.5-0.3,0.7-0.3
	c0.2,0.1,0.4,0.2,0.4,0.2c0.2,0.2,0.4,0.7,0.4,1.4c-0.1,1.2-0.6,2.2-1.7,4c-1,1.7-1.6,2.4-2,3.3c-0.6,1.3-0.5,3,0.9,3.4
	c0.6,0.2,1.6-0.2,1.6-0.2S4,38,4,38.6l0.2-2.2c0,0-0.2,1-1.1,1c-0.8,0.1-1.2-0.1-1.2-0.7c-0.1-0.6,0.3-1.6,0.6-2
	c0.3-0.5,2.1-3.5,2.2-3.7c0.1-0.2,0.8-1.4,0.9-2.2C5.7,27.8,5.8,27,5.6,26.4"/>
<path fill="#FFFFFF" d="M3.4,45c-0.2,0.9-0.2,1.3-0.1,1.7c0.1-0.1,0.2-0.2,0.3-0.2c-0.1,0.3-0.1,0.5-0.1,0.7
	c0.1-0.2,0.2-0.2,0.4-0.3c-0.1,0.3-0.1,0.5,0,0.8c0.1-0.3,0.2-0.6,0.4-0.4c0.1,0.1,0,0,0.1,0.1c0.1,0.1-0.1,0.5-0.2,0.6
	c0,0.1,0.1,0.3,0.4,0.3c-0.2,0.8-0.4,1.5-0.2,2.2c0.1,0.3,0.2,0.5,0.5,0.7c-0.1-0.6-0.1-1.1-0.1-1.5c0-0.3,0.2-0.6,0.3-0.9
	c0.1-0.2,0.3-0.1,0.3,0.1c0.1,0.3,0.1,0.9,0.1,1.2c0,1,0.2,1.5,1.1,2c0.4,0.2,0.7,0.1,0.9-0.1c0.1-0.1,0.4-0.4,0.2-0.6
	c-0.2-0.4-0.1-0.4,0.2-0.4c0.4,0,0.7-0.2,0.9-0.5c0.1-0.2,0.1-0.6-0.2-0.6c-0.8,0.1-0.8-0.3-0.9-0.6C7.6,48.9,7.7,48,8,47.9
	c0.2,0,0.2-0.2,0.2-0.5C6.3,47.5,4.4,46.6,3.4,45 M6.1,50.4C6,49.9,5.9,49.5,5.9,49c0-0.4,0.2-0.5,0.6-0.5c0.3,0,0.4,0.2,0.3,0.3
	c-0.3,0.7-0.2,1.3,0.1,1.9C6.6,51.2,6.2,50.8,6.1,50.4"/>
<path fill="#FFFFFF" d="M7.9,27.2c0,0.3,0.6,1.3,0.9,0.5c0.4-0.8,1.1,0.8,2.6,0.8s2.1-0.5,2.5-0.4c0.4,0.1,0.7,0.4,0.5,0.9
	c-0.4,1.1-1.1,1.7-2.7,3.2c-0.5,0.7-1,1.4-1,1.5c-0.1,0.3-0.1,0.5,0,0.5c0.1,0,0.2,0,0.4-0.2c0.3-0.4,0.3-0.9,0.8-1.1
	c0.3-0.2,1.7-0.7,1.7-0.7s0.7-0.2,1.1,0.2c0.4,0.4,0.6,1.7,0.6,2.3c-0.1,0.6-0.3,1.7-1.5,2.6c-1.2,0.9-0.7,1.6-0.4,1.9
	c0.3,0.3,1.9,0.2,1.9,0.2s0.7,0,1,0.6c0.2,0.3,0.2,0.7,0.2,0.7s-0.7,0.5-1.2,0.4c-0.9-0.1-1.3-0.5-2.1-0.5c-0.8,0-2.1,0-2.1,0
	s-0.7-0.1-0.5-0.7c0.3-1,0.7-2,0.6-2.6c-0.1-0.4-0.7-0.4-1-0.3c-0.2,0.1-0.5,0.2-0.8,0.1c-0.1-0.1-0.2-0.4-0.2-0.7
	c-0.1-0.5-0.1-1.2,0.1-1.9c0.1-0.4,0.1-0.3,0.2-0.5c0.1-0.2-0.2-0.5-0.5,0c-0.3,0.7-0.4,1.3-0.4,1.8c0,0.9,0.6,2.7,0.5,3.5
	c-0.1,0.8-0.3,1.4-0.9,2c-0.6,0.6-2.6,2.9-2.6,2.9S5,45.2,5.5,46.2c0.4,0.7,1.1,0.6,1.5,0.6c0.3,0,0.5-0.1,0.9,0.2
	c0.4,0.3,0.5,0.8,0.1,0.9c-1.9,0.3-2.7,0-3.7-0.6c-1-0.6-0.8-2.2-0.8-2.2s0-0.8,1.2-1.7c0.3-0.5,0.6-1.2,0.4-1.6
	c-0.2-0.4-0.6-1.2-0.6-1.2S3.9,38.9,4,38.1c0.1-0.7,0-1.8,0.6-3c0.6-1.2,1.8-2.6,2.2-3.8C7.2,30.2,7.8,28.8,7.9,27.2"/>
<path fill="#FFFFFF" d="M9.5,22c0,0.1,0,0.2-0.1,0.3c-0.3-0.1-0.5-0.4-0.6-0.6c-0.4,0.1-0.6-0.1-1-0.3c-0.2-0.2-0.5-0.6-0.6-0.9
	c-0.2,0-0.6-0.3-0.8-0.5c-0.4-0.4-0.3-0.8-0.7-1.3c-0.1,0.9-0.7,1.6-0.3,2.5c0.2-0.4,0.3-0.7,0.5-1c0,0.6,0,0.7,0.1,1.1
	c0,0.3,0.1,0.6,0.3,0.7c-0.1-0.3,0-0.5,0.1-0.7c0.1-0.3,0.2-0.4,0.4-0.5c0.1,0.2,0.1,0.3,0,0.5c0,0.2,0,0.3,0,0.6
	c0.1,0.4,0.2,0.6,0.3,0.9c0-0.3,0-0.6,0.1-0.8c0.1-0.2,0.1-0.3,0.3-0.4c0.2,0.4,0.2,0.7,0.2,1.1c0,0.4,0.3,0.5,0.4,0.8
	c0.2-0.4-0.1-1,0.4-1.3c-0.1,0.5-0.1,0.9,0.1,1.3C8.7,23.8,8.9,24,9,24.4c0.1-0.5-0.2-1,0.1-1.5c0.2,0.3,0.2,0.5,0.2,0.7
	c0.1,0.4,0.3,0.6,0.2,0.9c0.5-0.2,0.3-1.1,0.3-1.6c0-0.3,0.1-0.3,0.1-0.5C9.8,22.2,9.6,22.1,9.5,22"/>
<path fill="#FFFFFF" d="M11,20.3c0-0.1,0-0.3,0.1-0.4c0.1,0,0.3,0.2,0.3,0.4c0,0.3,0,0.6-0.1,0.8c0.5-0.3,0.5-0.8,0.4-1.2
	c-0.1-0.3-0.4-0.5-0.3-0.8c0.4-0.1,0.6,0.5,0.6,0.8c0.1-0.2,0.2-0.6,0.2-0.9c-0.1-0.2-0.4-0.4-0.2-0.7c0.1,0,0.2,0.1,0.3,0.3
	c0.1,0.1,0.2,0.3,0.2,0.4c0.1-0.3,0-0.6-0.1-0.8c-0.1-0.2-0.3-0.3-0.3-0.7c0.2-0.1,0.2,0.2,0.5,0.3c0-0.3,0-0.4-0.2-0.8
	c0.1-0.1,0.2,0,0.3,0.1c0-0.3-0.2-0.6-0.4-0.8c0.1-0.1,0.2,0,0.3,0.1c0-0.2-0.1-0.5-0.3-0.6c-0.2-0.1-0.3-0.1-0.4-0.2
	c-0.1-0.1-0.3-0.4-0.4-0.6c0.1,0,0.3,0,0.5-0.1c0.3-0.1,0.4-0.3,0.6-0.5c0.2-0.3,0.3-0.6,0-0.9c-0.2-0.2-0.5-0.3-0.8-0.2
	c-0.3,0.1-0.5,0.4-0.9,0.2c0,0.2-0.1,0.2-0.2,0.2c-0.1,0.1-0.4,0.1-0.6,0c-0.2,0-1.1,0-1.3,0.1c-0.5,0-2.2,0.7-2.2,0.3
	c-0.1,0.4-0.6-0.2-1.3,0.3c-0.3,0.3-0.4,0.7-0.3,1.1c0.2,0.4,0.6,0.6,1.2,0.5c0,0.2-0.1,0.3-0.2,0.5C6,16.5,5.8,16.7,5.7,17
	c-0.1,0.4-0.1,1.2,0.3,1.5c-0.1-0.4-0.1-0.6,0.1-0.9c0.1-0.2,0.3-0.4,0.4-0.4c-0.1,0.3-0.1,0.8-0.1,1.1c0,0.4,0,0.6,0.2,1
	c0-0.4,0.2-1,0.4-1c0.2,0.4-0.1,0.8-0.1,1.1C6.8,19.7,7,19.9,7.2,20c-0.1-0.2,0-0.4,0-0.5c0.1-0.2,0.2-0.7,0.5-0.6
	c-0.3,0.6-0.3,1-0.2,1.5c0.1,0.3,0.4,0.7,0.6,0.7C8.1,20.9,8,20.5,8,20.3c0-0.4,0.1-0.8,0.2-1c0.1,0.1,0.2,0.2,0.2,0.5
	c0,0.3-0.1,0.5,0,0.8c0.1,0.3,0.3,0.5,0.4,0.7c-0.1-0.7,0-1.4,0.3-1.6c0,0.5-0.1,0.9,0.1,1.3c0.2,0.3,0.3,0.7,0.3,1
	c0.1,0.1,0.3,0.2,0.4,0.3c0-0.1,0-0.1,0-0.2c0.1-0.4-0.3-0.9-0.2-1.2c0.2,0,0.4,0.4,0.5,0.7c0.3-0.1,0.5-0.3,0.8-0.5
	C11,20.8,11,20.6,11,20.3 M10.4,18.4c-0.1,0.1-0.1,0.1-0.3,0.2c-0.1,0.1-0.1,0.4,0,0.5c0.1,0.3,0,0.5-0.2,0.5c-0.2,0-0.4,0-0.5-0.3
	c-0.1-0.3-0.2-0.5-0.1-0.7c-0.3,0-0.5,0-0.6,0c-0.1,0-0.3,0-0.4-0.1C8.2,18.4,8,18.1,8.2,18c0.2-0.1,0.7-0.1,0.8-0.2
	c-0.1-0.4-0.5-0.4-0.6-0.6c-0.1-0.2-0.2-0.5-0.1-0.8c0,0-0.3,0.1-0.4,0.1c-0.3,0-0.5-0.2-0.6-0.4c0-0.2-0.2-0.5-0.3-0.6
	c0-0.1,0.2-0.2,0.3-0.2c0.2,0,0.2,0,0.4,0c0.2,0,0.3,0,0.5,0c0.2-0.1,0.2-0.1,0.4-0.2c0.1,0.2,0.1,0.3,0.1,0.6c0,0.3,0,0.7,0,0.9
	C8.7,17,8.9,17.1,9.3,17c0.4-0.1,0.4-0.2,0.4-0.5c-0.1-0.7-0.5-0.9-0.3-1.6c0.2,0.2,0.5,0.1,0.8,0c0.2,0,0.4-0.2,0.7-0.1
	c-0.2,0.3-0.1,0.4-0.1,0.7c-0.1,0.6-0.6,0.6-1,0.6c0.3,0.4,0.3,0.6,0.2,0.9c-0.1,0.4-0.2,0.3-0.2,0.6c0.2-0.1,0.8-0.3,0.9-0.2
	C10.8,17.8,10.9,18.1,10.4,18.4"/>
<path fill="#FFFFFF" d="M13.6,22.6c-0.2-0.2-0.5-0.7-0.4-0.9c0.3,0,0.6,0.5,0.9,0.8c0.3,0.3,0.8,0.4,0.9,0.8c0-0.6-0.2-1-0.6-1.3
	c-0.2-0.2-0.5-0.4-0.8-0.5c0.1,0,0.1,0,0.2,0c0.1,0,0.3,0.1,0.4,0.2c0.2,0.1,0.3,0,0.5,0.2c0,0-0.3-0.5-0.4-0.6
	c-0.1-0.1-0.4-0.3-0.5-0.3c-0.3-0.1-0.8-0.1-1-0.2c-0.3-0.1-0.3-0.2-0.6-0.4c-0.1,0.6-0.3,0.8-0.7,1.2c-0.2,0.1-0.2,0.2-0.4,0.1
	c-0.1-0.1-0.1-0.2-0.1-0.2c0-0.1,0-0.2,0-0.3c-0.3,0.2-0.5,0.4-0.8,0.5v0c0.1,0.4,0.1,0.6,0,1c-0.1,0.6,0,1.1,0.1,1.6
	c0.1,0.3,0.7,1,0.7,1.2c0.1-0.3-0.2-0.9-0.3-1.1c0-0.3-0.1-0.5-0.1-0.8c0-0.3,0.1-0.8,0.1-0.8c0.1,0.1,0.3,0.5,0.3,1
	c0,0.4,0.1,0.7,0.4,1c0.1,0.1,0.3,0.1,0.4,0.5c0.1-0.3,0.1-0.4,0-0.6c-0.1-0.4,0-0.5,0-0.9c0-0.3,0-0.3-0.1-0.7
	c-0.1-0.2,0-0.5,0.1-0.6c0.1,0,0.3,0.5,0.3,0.7c0,0.2,0,0.6,0.1,0.9c0.2,0.3,0.6,0.6,0.6,0.8c0.2-0.7,0.1-1.3-0.1-2
	c-0.1-0.3-0.2-0.6-0.2-0.9c0.3,0.1,0.5,0.9,0.6,1.1c0.1,0.2,0.1,0.2,0.2,0.4c0.2,0.2,0.3,0.3,0.5,0.4c0.4,0.2,0.5,0.4,0.7,0.8
	c0-0.2,0-0.4-0.1-0.8C14.3,23.1,14,23,13.6,22.6"/>
<path fill="#FFFFFF" d="M14.3,19c-0.2-0.5-0.6-0.4-0.9-0.6c-0.1-0.1-0.2-0.3-0.3-0.4c-0.1,0.1-0.1,0.3,0.1,0.5
	c0.2,0.2,0.4,0.3,0.6,0.4c0.2,0.2,0.2,0.5,0.6,0.7c-0.5,0.3-0.9-0.5-1.2-0.4c0.1,0.7,0.9,0.6,1.2,1.1c-0.4-0.1-0.6-0.1-1-0.1
	c-0.2,0-0.4-0.1-0.6-0.2c-0.4-0.2-0.3-0.4-0.2-0.7c0.1-0.4,0.3-0.6,0.2-1.1c0-0.1,0-0.3,0-0.4c0-0.4,0.4-1,0.1-1.4
	c0.2,0.1,0.4,0.3,0.4,0.5c0,0.4,0.1,0.8,0.5,1C14.5,18.4,14.3,19,14.3,19"/>
<path fill="#FFFFFF" d="M25.1,29c-0.4,0.1-0.9,0.2-1.3,0.3c-0.4,0.1-0.7,0.1-0.9-0.3c-0.2-0.3-0.4-0.3-0.4-0.3s0,0.2-0.3,0.2
	c-0.1,0-0.4,0-0.5,0c-0.3-0.1-0.7-0.1-1-0.1c0.2,0.1,0,0.3-0.1,0.3c-0.5,0.1-1,0.1-1.5,0.2c0.3,0.1,0.3,0.6-0.1,0.7
	c-0.3,0.1-0.7,0.1-1,0.3c0.4,0.2,0.1,0.5,0,0.6c-0.1,0.1-0.3,0.2-0.5,0.3c-0.2,0.1-0.5,0.2-0.6,0.4c0.5,0.1-0.1,0.6-0.3,0.8
	c-0.2,0.2-0.3,0.3-0.3,0.5c0.3,0,0.6,0.1,0.5,0.4c-0.2,0.3-0.5,0.8-0.6,1c-0.1,0.2-0.1,0.3-0.2,0.5c0.7-0.4,0.9-0.6,1.5-0.1
	c0.1,0.1,0.2,0.1,0.3,0.1c0.2,0,0.3-0.1,0.5-0.2c0.3-0.2,0.5-0.2,0.6,0.2c0.6-0.6,1.1-0.8,1.4-0.4c0.2-0.2,0.4-0.5,0.6-0.7
	c0.3-0.3,0.6-0.4,0.7,0.1c0.1-0.2,0.2-0.4,0.3-0.6c0.1-0.2,0.2-0.6,0.4-0.6c0.1,0,0.2-0.1,0.3,0.1c0-0.1,0-0.3,0-0.4
	c0-0.3,0-0.7,0.1-1c0.1,0.2,0.2,0.5,0.2,0.9c0,0.4,0.1,0.8-0.2,1.2c-0.1-0.3-0.2-0.6-0.3-0.5c-0.3,0.4-0.5,1-0.8,1.6
	c0-0.2-0.1-0.8-0.3-0.7c-0.3,0.1-0.6,0.7-0.9,1.1c-0.1-0.2-0.2-0.3-0.5-0.2c-0.1,0-0.3,0.1-0.4,0.2c-0.3,0.3-0.3,0.7-0.4,1
	c0,0.2-0.2,0.5-0.3,0.6c-0.1,0.1-0.2,0.1-0.2,0.2c0.1,0.1,0.3,0.2,0.4,0.3c0.4-0.2,0.6-0.4,1-0.5c0.5-0.2,1.2-0.5,1,0.1
	c0.2,0,0.4-0.2,0.5-0.3c0.3-0.3,0.5-0.7,0.9-0.8c0.1,0,0.2,0,0.2,0c0.2-0.2,0.3-0.4,0.5-0.5c-0.1,0-0.2-0.1-0.2-0.3
	c0-0.1,0.1-0.4,0.1-0.4c0.1-0.3,0.3-0.5,0.8-0.4c0-0.3,0-0.5-0.1-0.7c0-0.5,0.2-0.5,0.6-0.5c-0.1-0.3-0.1-0.6-0.2-0.9
	c0-0.1-0.1-0.3-0.1-0.4c-0.2-0.5-0.2-0.6,0.2-0.8c0.4-0.3,0.9-0.4,1.4-0.5C25.4,29.3,25.3,29.1,25.1,29"/>
<path fill="#FFFFFF" d="M40.2,24.2c0-0.1-0.2-0.4-0.1-0.5c0.1-0.1,0-0.2-0.1-0.3c0-0.1-0.1-0.2-0.2-0.3c0-0.1,0-0.2,0-0.3
	c-0.1-0.3-0.3-0.5-0.4-0.8c-0.1-0.2,0-0.5-0.1-0.6c0,0-0.2-0.2-0.3-0.2C39,21,39.1,20.9,39,20.8c-0.2-0.2-0.4-0.3-0.5-0.5
	c-0.1-0.1-0.2-0.3-0.3-0.4c-0.1,0-0.2,0-0.2-0.1c-0.3-0.4-0.7-0.3-0.8-0.1c-0.3,0.4-0.6,0.8-0.9,1.3c0,0,0.1,0,0.1,0.1
	c0,0,0,0,0-0.1c0.2-0.3,0.5-0.6,0.7-0.8c0.1-0.1,0.3-0.3,0.5-0.2c0.1,0.1,0.1,0.2,0.1,0.3c-0.1,0.3-0.4,0.5-0.6,0.8
	c0.2-0.2,0.4-0.4,0.7-0.5c0.2-0.1,0.3-0.2,0.4-0.1c0.1,0.1-0.8,0.9-1,1.1c0.2-0.1,0.9-0.7,1.1-0.7c0.2-0.1,0.2,0,0.3,0
	c0,0,0.1,0.2,0,0.2c-0.2,0.3-1.3,0.9-1.5,1.1c0.9-0.5,1.7-0.9,1.9-0.6c0.1,0.1,0,0.2-0.1,0.3c-0.2,0.1-0.9,0.5-1.1,0.6
	c0.3-0.1,1-0.4,1.2-0.4c0.2,0,0.3-0.1,0.4,0.2c0.1,0.1-0.2,0.3-0.3,0.4c-0.1,0.1-0.4,0.1-0.7,0.2c0.3,0,0.8-0.1,1.1-0.1
	c0,0,0.2-0.1,0.2,0.1c0.1,0.2-0.3,0.2-0.4,0.3c-0.3,0.1-1.4,0.3-1.4,0.4c0.4,0,0.7-0.1,1.1-0.1c0.2,0,0.8,0,0.8,0.1
	c0.1,0.1,0,0.3-0.2,0.3c-0.4,0-0.9,0.1-1.4,0.1c0.5,0,0.9,0,1.2,0c0.2,0,0.5,0,0.5,0.2c0,0.1,0,0.2-0.1,0.2c-1.3,0.1-1.4,0-2.2,0
	c0,0.1-0.1,0.1-0.1,0.3c0.3,0,0.6,0,0.9,0c0.6,0,0.9,0.1,1.5,0.1C40.1,24.7,40.2,24.4,40.2,24.2"/>
<path fill="#FFFFFF" d="M37.1,24.4c0.1-0.2,0.1-0.3,0.2-0.4c-0.1,0-0.3-0.1-0.3-0.1c0.1-0.1,0-0.2,0.2-0.4c-0.4-0.2-0.5-1-0.5-1.1
	c-0.1,0-0.4-0.3-0.4-0.5c-0.1-0.1,0-0.4,0.2-0.5c-0.2,0-0.3-0.2-0.2-0.4c0,0-0.1,0-0.1-0.1c0,0-0.1,0.1-0.1,0.1
	c-0.1,0.2-0.2,0.2-0.4,0.2c-0.2-0.1-0.5-0.1-0.4-0.2c-0.1,0-0.2,0-0.3,0c-0.2,0.1-0.8-0.1-0.6-0.2c-0.3-0.1-0.5,0-0.8,0.2
	c0,0,0,0,0,0c-0.1,0-0.1-0.1-0.1-0.1s-0.4,0.2-0.6,0.4c-0.2,0.2-0.4,0.8-0.5,0.6c-0.1,0.2-0.1,0.4-0.2,0.6c0,0.1-0.1,0.4-0.2,0.2
	c-0.1,0.1-0.1,0.3-0.1,0.5c0,0.1,0.1,0.2,0,0.3c-0.2,0.3,0,0.5,0.1,0.7c0.1,0.2,0,0.5,0.4,0.6c0.3,0.1,0.2,0.5,0.1,0.7
	c-0.3,0.3-0.6,0.4-1,0.2c0.1,0.3,0,0.4-0.1,0.5c0.1,0.2,0.2,0.4,0.3,0.6c0.5-0.2,0.9-0.5,1.3-0.9c0.2-0.2,0.4-0.1,0.6,0.1
	c0.1,0.1,0.2,0.2,0.3,0.3c0.2,0.1,0.4,0.3,0.6,0.4c0-0.3,0.9,0,1.1,0c-0.2-0.2,0.5-0.3,0.8-0.4c-0.3-0.4,0.4-0.3,0.6-0.6
	c-0.2,0-0.3-0.1-0.2-0.2c0.2-0.2,0.4-0.3,0.5-0.4c-0.2-0.1,0-0.3,0-0.4c0.1,0,0.2-0.1,0.3-0.1c0-0.1,0.1-0.1,0.1-0.2H37.1L37.1,24.4
	z"/>
<path fill="#FFFFFF" d="M30.8,35.1c-0.2,0.1-0.4,0.2-0.6,0.3c-0.3,0.1-0.6,0-0.5-0.3c0.2-0.3,0.3-0.6,0.6-0.8
	c0.2-0.2,0.5-0.4,0.8-0.5c0-0.1,0-0.2-0.1-0.3c-0.2,0-0.4,0.1-0.7,0.1c-0.3,0.1-0.3-0.1-0.3-0.3c0.1-0.5,0.3-1,0.8-1.3
	c0-0.2,0-0.4-0.1-0.5c-0.2,0.2-0.5,0.4-0.9,0.4c-0.1-0.3-0.4-0.8,0.2-0.8c-0.2-0.2-0.4-0.3-0.6-0.5c-0.1-0.2-0.2-0.5-0.3-0.7
	c-0.3-0.7,0.2-1.9,0.8-2.3c0.1-0.1,0.3-0.1,0.5-0.1c0.1,0.1,0.2,0.2,0.3,0.4c0.1-0.2,0.2-0.5,0.4-0.6c0.1-0.1,0.3-0.2,0.5-0.2
	c-0.1-0.2-0.2-0.4-0.3-0.6c-0.1,0.1-0.2,0.1-0.4,0.2c-0.4,0.1-0.7,0.2-1.1,0.4c-0.1,0-0.2,0.1-0.3,0.2c-0.6,0.4-0.8,0.4-1,0.4
	c0.4,0.4,0.1,0.8-0.2,1c-0.2,0.1-0.6,0.1-0.7-0.1c-0.1-0.1-0.2-0.1-0.3-0.3c-0.1-0.2-0.2-0.6-0.1-0.8c-0.2,0-0.3-0.1-0.5-0.1
	c0,0.1,0,0.1,0,0.2c0,0.1-0.2,0.1-0.2,0.2c-0.1,0-0.3,0-0.5,0c-0.4,0-0.6-0.2-0.4-0.7c-1.1,0.8-2.5,0.5-3.2-0.3
	c0,0.3,0.2,0.8,0.3,0.9c0.3,0.4,0.6,0.7,1,1c0.1-0.3,0.6-0.5,1-0.3c0.1,0.1,0.7,0.2,1,0.4c0.1,0,0.2,0.1,0.2,0.3
	c0,0.2-0.2,0.2-0.3,0.2c-0.1,0-0.3,0.1-0.4,0.1c0.2,0.1,0.3,0.3,0.5,0.5c0.4-0.1,0.8,0,1.2,0c0.4,0,0.5,0.1,0.6,0.3
	c0.2,0.3,0.1,0.5,0.1,0.7c0,0.1,0,0.3,0,0.3c0.3-0.4,0.5-0.4,0.7,0.1c0.1,0.3,0.3,0.5,0.4,0.8c0.1,0.4,0.2,0.6-0.2,0.9
	c-0.2,0.2-0.3,0.3-0.3,0.5c0.7-0.5,0.6,0.8,0.6,1c0,0.5-0.4,0.7-0.6,1.1c-0.1,0.1-0.1,0.2-0.2,0.4c0.4-0.3,0.4,0,0.4,0.3
	c0,0.1,0,0.1,0,0.2c0.5,0.2,1,0.4,1.5,0.3c0.2-0.4,0.5-0.7,0.9-0.9c0.2-0.1,0.4-0.2,0.6-0.2c0-0.1,0-0.3-0.1-0.4
	C31.1,35,30.9,35,30.8,35.1"/>
<path fill="#FFFFFF" d="M41,34.4c0-0.2,0.1-0.4,0.4-0.6c-0.6-0.2-1.1-0.3-1.7-0.4c-0.3,0-0.4-0.2-0.2-0.5c0.1-0.1,0.1-0.1,0.3-0.3
	c-0.5-0.1-0.9-0.1-1.3-0.1c-0.2,0-0.3,0-0.3-0.1c-0.1-0.1-0.1-0.2,0-0.3c-0.1,0-0.4,0.1-0.6,0.1c-0.5,0.1-1-0.1-1.5,0.1
	c-0.1,0.1-0.4,0.1-0.4-0.1c0,0,0-0.1,0-0.2c-0.1,0-0.2,0-0.2,0.1c-0.4,0.2-0.8,0.2-1.2,0c0,0-0.1,0-0.1,0c-0.1,0-0.3,0.1-0.5,0.1
	c-0.3,0-0.5,0-0.8,0c-0.1,0-0.3,0.1-0.4,0.2c-0.1,0.1-0.2,0.1-0.2,0.2c-0.3,0.5-0.7,0.6-1.1,0.7c0,0.1,0,0.2,0.1,0.3
	c0.1,0,0.1,0,0.2,0c0.3,0,0.7-0.1,0.8,0.4c0,0.1,0.2,0.1,0.3,0.3c0.1,0.1,0.1,0.2,0.1,0.3c0,0.1-0.1,0.1-0.2,0.2
	c-0.4,0.1-0.7,0.2-1.1,0.3c0,0.1,0,0.3,0.1,0.4c0.1,0,0.2-0.1,0.3-0.1c0.3-0.1,0.7-0.2,1-0.3c0.2,0,0.5-0.1,0.8-0.1
	c0.6,0,0.8,0.2,1.1,0.5c0.1,0.1,0.2,0.2,0.4,0.3c0-0.2,0-0.2,0.2-0.3c0.1,0,0.4,0,0.5,0.1c0.3,0.1,0.9,0.6,1.1,0.6
	c0-0.2,0.2-0.2,0.2-0.2c0.6,0,2.6,1.6,3.2,2.9c0.2-0.3,0.3-0.5-0.3-1.1c-0.4-0.4-0.6-0.7-1-1.1c-0.1-0.1-0.3-0.3-0.2-0.5
	c0.1-0.2,0.2-0.2,0.4-0.1c0.2,0,0.2,0.1,0.4,0.2c0.1-0.1,0.1-0.2,0.1-0.5c0.3,0.1,0.5,0.2,0.9,0.2c-0.1-0.2-0.1-0.2,0.1-0.3
	c0.5-0.1,0.9,0,1.4,0.2C41.9,35,41.5,34.7,41,34.4"/>
<path fill="#FFFFFF" d="M27.5,27c0.7,0,1-0.6,1.6-0.9c0.1,0,0.2-0.1,0.2-0.2c-0.7,0,0.5-0.8,0.5-1.2c-0.3,0.1-0.2-0.2-0.2-0.4
	c0.2-0.5,0.2-0.5,0.3-0.8c0-0.1,0.2-0.4,0.2-0.5C29.9,23,29.8,23,29.7,23c0,0,0.2-1.2,0.2-1.4c-0.1,0-0.4,0.1-0.4-0.1
	c0.1-0.5,0.2-0.8,0.3-1.1c-0.1,0-0.5,0-0.3-0.4c0.1-0.2,0.3-0.6,0.2-0.9c-0.5,0.2-0.2-0.4-0.1-0.6c0.1-0.1,0.2-0.2,0.4-0.4
	c-0.2,0-0.3,0-0.5,0.1c-0.3,0.1-0.4,0.2-0.6,0.3c-0.5,0.3-0.5,0.3-1-0.1c-0.4,0.5-0.6,0.9-0.9,1.4c-0.1,0.1-0.3,0-0.5-0.3
	c-0.2,0.3-0.2,0.9-0.3,1.3c-0.1,0.3-0.2,0.3-0.2,0.3c-0.1,0-0.1,0-0.2-0.1c-0.1,0.1-0.1,0.2-0.1,0.3c-0.1,0.3,0,0.5-0.1,0.8
	c0,0.2-0.1,0.7-0.4,0.7c0.2,0.2,0.3,0.5,0.4,0.8c0.1,0.4,0.1,0.5-0.2,0.6c-0.1,0.1-0.3,0.1-0.4,0c0,0.1,0.1,0.4,0.1,0.5
	c0.2,0.4,0.4,1,0.1,1.3c0.4-0.1,0.7,0.1,1,0.5c0.1,0.1,0.2,0.3,0.3,0.4c0.2,0.1,0.3,0.1,0.5,0.1C27.2,27.1,27.3,27,27.5,27"/>
<path fill="#FFFFFF" d="M49.9,27.9c0-0.1-0.5-1.2-0.5-1.6c-0.1-0.6,0-1.3,0.1-1.9c0-0.1,0.1-0.2,0-0.2c-0.6-0.6-1.1-1.2-1.8-1.8
	c-0.4-0.3-1-0.7-2.4-1.5c-0.8-0.4-1.2,0-1.7,0.6c-0.3,0.4-0.6,0.8-0.9,1.3c-0.1-0.2-0.1-0.2,0-0.4c0.1-0.2,0.3-0.5,0-0.8
	c-0.4-0.4-0.7-0.9-1-1.3C41.4,20,41,19,40.8,18.5c-0.2-0.4-0.6-0.5-1-0.6c-0.5-0.1-1.1-0.1-1.6-0.2c-0.5-0.1-0.9-0.3-1.4-0.4
	c-0.3,0-0.5,0-0.8,0c-0.3,0-0.5,0.2-0.7,0.2c-0.2,0.1-0.4,0.1-0.4,0.4c0,0.2-0.1,0.4-0.3,0.5c-0.6,0.4-1.1,0.9-1.2,1.7
	c0.6,0.1,0.5-0.2,0.8-0.5v0.6c0.9,0,1.7-0.6,1.3-1.3c0,0,0.1-0.1,0.1,0c0.3,0.1,0.6,0.1,0.9-0.1c0.1-0.1,0.4-0.1,0.5-0.1
	c0.7,0.1,1.4,0.2,2.1,0.7c0.5,0.4,1,0.9,1.2,1.5c0.4,1.1,0.8,2.2,1.2,3.3c0.1,0.2,0.2,0.4,0.6,0.3c0.3,0,0.5-0.1,0.8-0.1
	c0.2,0,0.1,0.2,0.1,0.3c-0.1,0.2-0.4,0.3-0.6,0.3c-1.1,0-2.2,0.4-3.3,0.1c-0.2,0-0.6,0-0.8,0.2c-0.4,0.4-0.8,0.8-1.2,1.1
	c0.3,0.2,0.6,0.4,0.9,0.6c0.6-0.5,1.5-0.6,2.3-0.4c0.4,0.1,1,0.2,1.4,0.3c0.6,0.2,0.9,0.3,1.5,0.5c0.4,0.1,0.7,0.4,1.1,0.6
	c0.3,0.2,0.6,0.2,0.9,0c0.4-0.3,0.9-0.5,1.4-0.8c0.3-0.2,0.5,0.1,0.3,0.2c-0.3,0.2-0.4,0.3-0.8,0.5c-0.2,0.1-0.3,0.2-0.5,0.3
	c-0.4,0.4-0.7,0.4-1.1,0.3c-0.3-0.1-0.5-0.3-0.8-0.4c-0.3,0-0.3,0.1-0.1,0.3c0.3,0.3,0.6,0.6,0.8,0.9c0.3,0.4,0.8,0.5,1.3,0.6
	c0.2,0.1,0.4,0.2,0.6,0.2c0.3,0.1,0.7,0.1,1,0.1c0.8-0.2,1.5-0.3,2.1-0.9c0.5-0.4,0.5-0.9,0.5-1.4C50,28,50,28,49.9,27.9"/>
<path fill="#FFFFFF" d="M54.3,48.6c-0.1-0.5-0.4-1.2-0.5-1.7c-0.1-0.3,0-0.4,0.2-0.5c-0.2-0.4-0.4-0.7-0.7-1c0,0,0,0.1,0,0.1
	c0,0.1-0.2,0.2-0.3,0c-0.9-1.8-2.2-2.9-3.9-4c0.3-1.1-0.2-1.8-1.2-2.1c-0.5,0-0.8,0.4-0.8,0.5c-0.2,0.4,0,1,0.2,1.3
	c0.3,0.5,0.8,0.7,1.2,0.7c0.2,0,0.5,0.2,0.7,0.3c0.9,0.5,1.7,1.2,2.4,1.9c0.4,0.4,0.6,0.8,0.9,1.2c0.1,0.1,0.2,0.4,0,0.6
	c-0.2,0.1-0.4-0.1-0.7-0.4c-0.4-0.4-0.7-0.7-1-1.1c-0.3-0.4-0.7-0.7-1.1-1.1c-0.4-0.4-1.2-0.8-1.6-1c-0.7-0.3-0.9-0.4-1.5-0.7
	c-0.1-0.1-0.3-0.2-0.2-0.3c0.1-0.6-0.3-1-0.5-1.4c-0.1-0.2-0.3-0.2-0.4-0.3c-0.3-0.2-0.2,0.2-0.4,0.3c-0.1,0.1-0.2,0.1-0.3,0.1
	c-1.3,0-2.4,0.2-3.6,0.9c-0.2,0.1-0.4,0.3-0.7,0.2c-0.2-0.1-0.3-0.4-0.4-0.6c-0.3-0.4-0.4-0.7-0.7-1.1c-0.4-0.5-0.9-1.1-1.3-1.5
	c-1.2-1-2.6-1.8-4.3-1.8c-1,0-1.9,0.2-2.8,0.5c-0.3,0.1-0.5,0.2-0.7,0.3c-0.1,0-0.3,0-0.3,0c-0.1-0.1-0.1-0.2,0-0.3c0,0,0,0,0-0.1
	c-0.5,0.1-1-0.1-1.5-0.3c0,0.2,0,0.2-0.1,0.3c0,0.1-0.3,0.3-0.4,0.2c-0.1-0.2-0.2-0.3-0.4-0.5c-0.4-0.5-0.8-0.7-1.4-1
	c-0.9-0.4-1.7-0.6-2.8-0.7c0,0-0.1,0-0.1,0c-0.2,0.2-0.3,0.3-0.5,0.5c0.6-0.1,1.2,0,1.8,0.1c0.6,0.1,1.1,0.3,1.7,0.7
	c0.3,0.3,0.6,0.5,0.8,0.9c0.2,0.3,0.1,0.4,0.1,0.5c-0.1,0.1-0.3,0.2-0.7,0c-0.5-0.2-0.7-0.3-1.2-0.4c-1.1-0.3-2.2-0.4-3.3-0.2
	c-1,0.2-2.1,0.7-2.9,1.4c-0.7,0.6-1.2,1.2-1.8,1.8c-0.1,0.1-0.3,0.3-0.5,0.3c-0.4,0-0.6-0.3-0.4-0.7c0.3-0.5,0.7-1,1.1-1.5
	c0.3-0.4,0.4-0.5,0.8-0.8c0.1-0.1,0.5-0.4,0.7-0.5c-0.1-0.1-0.3-0.2-0.4-0.3c-0.5,0.4-1,0.8-1.5,1.2c-0.5,0.5-1,1.1-1.5,1.7
	c-0.3,0.3-0.2,0.3-0.7,0.3c-0.1,0.4-0.6,1.4-0.4,1.5c0.6,0.3,1.1,0.3,1.7,0c0.2-0.1,0.5-0.1,0.7-0.2c0.2,0,0.2,0,0.3-0.2
	c0.4-0.9,0.7-1.1,1.4-1.8c0.6-0.6,1.3-1.2,2-1.5c0.5-0.2,1.3-0.4,1.8-0.4c1,0,2-0.2,2.8,0.7c0.1,0.1,0.1,0.2,0.1,0.4
	c0,0.1-0.2,0.1-0.3,0.1c-0.4,0-0.8-0.1-1.2-0.1c-0.7,0-1.4,0-2,0.1c-1,0.2-2,0.8-2.7,1.6c-0.5,0.5-0.9,0.9-1.2,1.7
	c-0.2,0.4-0.3,0.8-0.4,1.1C17.3,43,17,43,16.6,42.7c-0.9-0.7-2-1-3.2-1.1c-0.5,0-1,0-1.5,0c-0.8,0.1-1.2,0.1-2,0.4
	c-0.8,0.2-1.8,0.9-2.6,1.6c-0.5,0.5-0.8,0.8-1.2,1.3c-0.3,0.5,0,1.3,0.6,1.4c0.5,0.1,0.8-0.4,1.1-0.7c0.2-0.2,0.3-0.4,0.5-0.6
	c0.3-0.3,0.7-0.6,1.1-0.8c0.6-0.3,1-0.5,1.6-0.7c0.6-0.1,1.2-0.2,1.8-0.2c0.7,0,1.2,0.1,1.7,0.6c0.2,0.2,0.3,0.5,0.2,0.7
	c-0.1,0.2-0.5,0-0.6,0c-0.8-0.4-1.7-0.5-2.6-0.3c-0.4,0-0.7,0.2-1.1,0.3c-0.4,0.2-0.9,0.5-1.2,0.9C8.8,46.3,8.3,47,8.4,47
	c0.1,0.1,0.3-0.1,0.4-0.2c0.4-0.4,0.8-0.8,1.2-1.1c0.9-0.8,1.8-0.8,3.1-0.5c0.5,0.1,1,0.4,1.5,0.6c0.4,0.2,0.8,0,0.8-0.4
	c0-0.9,0.5-1.6,1.4-1.7c0.3,0,0.7,0.1,1,0.2c0.4,0.1,0.6,0,0.7-0.4c0.1-0.3,0-0.5,0-0.7c0-0.2,0-0.4-0.1-0.6
	c-0.1-0.6,0.3-1.2,0.8-1.8c0.4-0.5,1.1-1,1.6-1.3c1-0.6,2-0.8,3.1-0.5c0.5,0.1,1,0.3,1.5,0.4c0.7,0.2,1.2-0.1,1.4-0.7
	c0-0.1,0-0.1,0.1-0.2c0.3-0.4,0.6-0.3,1,0.1c0.4,0.5,1.2,0.5,1.6,0.1c0.3-0.3,0.5-0.8,0.8-0.9c0.7-0.4,1.4-0.7,2.1-0.8
	c1-0.2,2.3-0.2,3.2,0.3c0.6,0.3,0.9,0.4,1.6,0.9c1.1,0.9,2,2,2.4,3.4c0.2,0.6,0.1,0.7,0.1,1.2c0,0.3-0.4,0.5-0.6,0.5
	c-0.1,0-0.2-0.1-0.2-0.3c0-1-0.4-1.5-0.9-2.2c-0.3-0.4-0.7-0.9-1.2-1.4c-0.6-0.6-1.1-1-2.5-1.4c-0.6-0.2-0.9-0.2-1.5-0.1
	c-0.8,0-1.5,0.2-2.1,0.8c-0.3,0.3-0.3,0.9,0,1.1c0.2,0.2,0.6,0.3,0.9,0.1c0.3-0.2,0.4-0.5,0.3-0.8c0-0.3,0.1-0.5,0.4-0.6
	c1.1-0.3,2.2-0.1,3.1,0.5c0.7,0.5,1.4,1,1.9,1.8c0.3,0.5,0.8,0.9,0.9,1.6c0.1,0.2,0,0.5,0,0.7c-0.1,0.5,0.1,1,0.8,0.9
	c0.4-0.1,0.8-0.2,1-0.6c0.1-0.2,0.2-0.4,0.3-0.7c0.2,0.6,0.4,0.8,0.9,0.9c0,0,0.1,0.2,0.1,0.2c0.2,0.4,0.7,0.7,1.3,0.5
	c0.6-0.3,1.2-0.2,1.8-0.3c1.5-0.1,2.7,0.4,3.9,1.3c0.6,0.5,1.1,1.1,1.6,1.7c0.5,0.6,0.8,1.5,0.9,2.3c0,0.4,0.1,0.7-0.4,0.8
	c-0.4,0.2-0.5,0.6-0.4,0.9c0.1,0.3,0.3,0.7,0.7,0.7c0.3,0,0.6,0,0.9,0.1c0.7,0.1,1.3-0.2,1.5-0.9c0.1-0.3,0.2-0.4,0.5-0.3
	c0.7,0.2,0.9-0.1,1-0.7C54.5,49.2,54.4,49,54.3,48.6 M48.5,41.3c-0.3,0.1-0.6-0.2-0.7-0.3c-0.2-0.2-0.3-0.7-0.2-0.8
	c0.2-0.3,0.4-0.4,0.8-0.1C48.9,40.4,48.8,41.1,48.5,41.3 M15.9,43.4c-0.2,0.2-0.3,0.2-0.5,0.2c-0.3,0-0.5-0.1-0.8-0.2
	c-1.1-0.5-2.2-0.5-3.4-0.2c-0.7,0.2-1.4,0.4-2,0.7c-0.5,0.3-0.9,0.6-1.4,1c-0.3,0.3-0.5,0.4-0.7,0.7c-0.1,0.1-0.2,0.2-0.4,0
	c-0.1-0.1-0.1-0.1,0-0.4c0.1-0.3,0.2-0.4,0.4-0.6c0.5-0.6,0.8-1,1.5-1.5c0.6-0.4,0.9-0.6,1.5-0.8c0.5-0.2,1.4-0.3,1.9-0.3
	c0.9,0,1.9,0,2.8,0.4c0.3,0.1,0.6,0.3,0.8,0.5C15.9,43,16,43.2,15.9,43.4 M41.4,42c-0.1,0-0.5,0.1-0.5-0.1c-0.1-0.2,0.1-0.4,0.2-0.5
	c0.5-0.3,1-0.5,1.5-0.7c0.8-0.3,1.6-0.4,2.4-0.3c0.3,0,0.5,0.3,0.5,0.6c0,0.4-0.3,0.4-0.6,0.4c-0.2,0-0.4,0-0.6,0
	c-0.6,0-1.4,0-2,0.2C42,41.8,41.7,41.9,41.4,42 M52.3,50.4c-0.2,0.3-0.8,0.3-0.9-0.1c0-0.3,0-0.4-0.1-0.7c-0.1-0.9-0.2-1.7-0.7-2.5
	c-0.4-0.8-0.9-1.3-1.7-2.1c-1.4-1.4-2.9-1.8-4.8-1.9c-0.7-0.1-1.4,0-2,0c-0.2,0-0.5-0.1-0.5-0.4c0-0.1,0-0.2,0.2-0.4
	c0.4-0.2,0.6-0.3,1.2-0.3c0.4,0,0.9,0,1.3,0c1.8,0,3.3,0.7,4.3,1.4c0.8,0.5,1.7,1.7,2.3,2.4c0.7,1,1,1.6,1.3,2.8
	C52.5,49.1,52.6,49.9,52.3,50.4 M53.7,49.4c-0.1,0.1-0.2,0.3-0.3,0.3c-0.1,0-0.3-0.1-0.4-0.2c-0.2-0.5-0.2-0.9-0.4-1.4
	c0-0.3,0.1-0.5,0.3-0.6c0.3-0.1,0.6,0,0.7,0.3C53.8,48.3,54,48.8,53.7,49.4"/>
<path fill="#FFFFFF" d="M55.9,31c-0.3-0.5-0.7-1-1-1.5c-0.2-0.3-0.5-0.6-0.7-1c-0.4-0.7-0.6-0.8-0.9-1.9c-0.1-0.5-0.1-1.1,0-1.6
	c0.1-0.5,0.3-0.6,0.6-0.6c0.2,0,0.4,0.1,0.5,0.3c0.1,0.1,0.3,0.4,0.2,0.8c-0.1,0.3,0.6,0.7,0.6,1.4c0.2-1.3-0.2-2.1-0.8-2.7
	c0.1,0,0.3,0,0.4,0c0.8,0.3,0.8,1.3,0.8,2c0,0.6-0.1,1.4,0,1.7s0.1,1.1,0.9,1.6c-0.4-0.7-0.6-0.9-0.6-2c0.1-1,0-1.2,0-1.7
	c-0.1-0.7-0.3-1-0.3-1.2c-0.1-0.2-0.2-0.3-0.2-0.3c0,0,0.3,0.2,0.5,0.5c0.2,0.4,0.3,0.7,0.3,1.3c0,0.4,0,0.9,0,1.2
	c0,0.8,0.1,1.2,0.5,1.7c0.3,0.4,0.9,0.8,1.1,0.9c-0.9-1.1-1.2-1.6-1.2-2.4c0-0.6,0-1.1,0-1.7C56.4,25,56,24,55,23.6
	c-0.1-0.1-0.4-0.1-0.8-0.2c0.2-0.1,0.9-0.2,1.7,0.4c0.4,0.3,0.5,0.8,0.8,1.1c0.7,0.7,0.8,1,1.1,1.6c0,0-0.5-1.7-1.3-2.6
	c-0.5-0.5-1.2-0.7-1.2-0.7c-1.2-0.4-2.4,0.5-2.7,1.7c-0.1,0.5-0.2,1-0.1,1.4c0,0.6,0.2,1.1,0.5,1.8c0.5,1,0.8,1.4,1.4,2.2
	c0.5,0.6,0.9,1.2,1.4,1.9c0.3,0.4,0.5,0.7,0.6,1.4c0.2,1-0.4,1.2-1.1,1.1c-1.1-0.2-1.6-1-2.1-1.8c-0.5-0.7-0.9-1.5-1.3-2.3
	c-0.1-0.1-0.2-0.3-0.2-0.4c-0.1-0.1-1.2-1.7-1.9-3.1c-2,0.8-5.4,2.1-5.3,2.1c0.7,0.8,1.3,0.8,2,1.4c0.4,0.4,0.6,0.5,1,1
	c0.1,0.2,0.3,0.3,0.4,0.5c0.2,0.4,0.4,0.6,0.5,1c0,0.1,0.2,0.5,0,0.5c-0.1,0-0.3-0.3-0.3-0.4c-0.1-0.4-0.3-0.6-0.7-0.8
	c-0.4-0.2-0.9-0.3-1.4-0.5c-0.8-0.3-1.6-0.3-2.5,0c-0.3,0.1-0.6,0.4-0.6,0.5c-0.6,0.7-0.6,1.7,0.1,2.4c0.5,0.6,0.9,0.8,1.4,1.4
	c0.2,0.3,0.4,0.9,0.5,1.5c-0.4,0.1-0.8,0.2-1.1,0.2c-0.3,0-0.6,0-0.9-0.1c-0.6-0.2-1.2,0-1.6,0.4c-0.4,0.4-0.6,0.9-1,1.3
	c1,0.2,1.6,0,1.9-0.2c0.5-0.3,1-0.4,1.5-0.5c0.8-0.1,1.7-0.2,2.5-0.3c0.4-0.1,0.4-0.4,0.4-0.7c0-0.3-0.3-0.8-0.3-1.3
	c0-0.2-0.1-0.5,0-0.6c0.1-0.3,0.6-0.3,0.9-0.1c0.2,0.1,0.4,0.2,0.7,0.3c0.3,0.1,0.5,0.1,0.6-0.3c0.2-0.8,0.2-1.1,0.6-1.9
	c0.1-0.2,0.2-0.8,0.3-1c0-0.2,0.2-0.2,0.2,0c0,0.3-0.1,0.6-0.2,1c-0.1,0.3-0.3,0.6-0.4,0.9c-0.3,1-0.3,1.5-0.3,2.3
	c-0.1,0.8,0.2,1.6,0.6,2.2c0.5,0.6,1.2,1.2,2.1,1.4c0.7,0.2,1.3,0.4,1.6,1.2c0.3,0.9,0.7,1.8,0.6,2.7c0,0.2,0,0.3-0.1,0.5
	c0.3,0.3,0.5,0.6,0.7,1c0,0,0.1,0,0.1,0c0.2-0.1,0.4-0.2,0.4-0.4c0.1-0.3,0.1-0.6,0.1-0.9c-0.1-0.7-0.2-1.4-0.3-2.1
	c-0.1-0.4,0-0.8-0.1-1.2c-0.1-0.5,0-1-0.6-1.2c-0.2-0.1-0.4-0.2-0.6-0.3c-0.6-0.4-0.9-1.8-0.4-2.5c0.5-0.6,0.6-1.3,0.8-2
	c0.1-0.4,0.3-0.5,0.6-0.3c0.5,0.4,1.4,0.5,2,0.3c0.5-0.1,0.9-0.4,1.1-0.9c0.3-0.7,0.1-1.6-0.3-2.3C56.5,31.8,56.3,31.6,55.9,31"/>
<path fill="#FFFFFF" d="M56.8,25.6c0.1,0.3,0.2,0.6,0.2,1c0,0.4,0,0.9,0.1,1.2c0.2,0.7,0.8,1.4,0.8,1.4s-0.5-1-0.3-1.8
	c0.1-0.5,0-0.7-0.1-0.9C57.3,26.4,57.2,26.1,56.8,25.6"/>
<path fill="#FFFFFF" d="M40.2,28.7c-0.3,0-0.7,0-0.4-0.6c-0.7,0-1.1,0.2-1.6,0.1c-0.1,0-0.2,0-0.3-0.2c0-0.1,0-0.2,0.1-0.3
	c-0.1,0.1-0.3,0.1-0.4,0c-0.2-0.1-0.1-0.2,0-0.3c0.1-0.1,0.2-0.2,0.3-0.3c-0.3-0.2-0.6-0.4-0.9-0.6c-0.2,0.2-0.4,0.3-0.5,0.5
	c-0.2,0.2-0.5,0.4-0.8,0.5c-0.1,0-0.2,0-0.4-0.1c-0.1-0.1-0.2-0.2-0.4-0.3c-0.4,0.8-1.1,1-1.5,0.4c-0.2,0.1-0.4,0.2-0.7,0.5
	c-0.2,0.2-0.4,0.4-0.6,0.4c-0.2,0-0.2,0-0.3-0.1c-0.1,0.1-0.4,0.3-0.4,0.4c-0.2,0.3-0.4,0.6-0.2,1c0.1,0.3,0.1,0.6,0,0.9
	c-0.1,0.3-0.2,0.5-0.4,0.7c0,0.2,0,0.4,0.1,0.5c0.1-0.1,0.1-0.1,0.2-0.1c0.2-0.1,0.8-0.3,1.2-0.2c0.5,0.1,0.9,0.2,1.3,0.7
	c0.2-0.3,0.3-0.4,0.2-0.6c0.5,0.1,0.8,0.5,1,0.7c0-0.1,0.1-0.2,0.2-0.3c0.1-0.1,0.2-0.2,0.4-0.2c0.3,0,0.4,0.1,0.7,0.3
	c0.4-0.5,0.6-0.5,1.6-0.1c-0.1-0.4,0.2-0.6,0.7-0.5c0.5,0.1,0.6-0.1,1-0.5c0.1-0.1,0.4-0.2,0.6-0.3c-0.4-0.3,0.1-0.5,0.2-0.6
	c0.5-0.2,0.8-0.4,1.1-0.9c0.1-0.2,0.3-0.3,0.4-0.3C40.9,28.5,40.7,28.7,40.2,28.7"/>
<path fill="#FFFFFF" d="M49.9,24.1c0.3-0.3,1.1-0.8,1.6-0.9l-0.3-0.6c0,0.3-0.2,0.5-0.3,0.7c-0.1-0.2-0.1-0.4,0-0.6
	c-0.2,0.1-0.4,0.3-0.6,0.4c0.2,0.1,0.4,0.1,0.5,0.3c-0.2,0.1-0.7,0.3-1-0.1c-0.2-0.2-0.2-0.6,0-0.8c0.1-0.1,0.2-0.1,0.3,0
	c0.1,0.1,0,0.3-0.1,0.4c0.2,0,0.7-0.3,0.5-0.5c-0.1-0.2-0.6-0.1-0.8,0c0.1-0.2,0.2-0.7,0-0.8c-0.3-0.2-0.5,0.3-0.5,0.5
	c0.1-0.1,0.3-0.2,0.4-0.1c0.1,0.1,0.1,0.2,0,0.4c-0.2,0.2-0.6,0.2-0.9,0c-0.3-0.2-0.4-0.6-0.1-1c0.1,0.1,0.3,0.5,0.3,0.7
	c0.2-0.3,0.3-0.4,0.5-0.6c-0.2,0.1-0.5-0.1-0.7-0.2c0.2-0.1,0.4-0.2,0.7-0.2l-0.9-0.6c0.1,0.3,0,0.5-0.1,0.7
	c-0.1-0.1-0.3-0.4-0.3-0.6c-0.2,0.3-0.3,0.4-0.5,0.6c0.2-0.1,0.5,0,0.7,0.1c-0.4,0.4-0.8,0.3-1,0.2c-0.3-0.2-0.5-0.5-0.3-0.8
	c0.1-0.2,0.3-0.1,0.4-0.1c0.1,0.1,0.1,0.2,0,0.4c0.2-0.1,0.5-0.4,0.3-0.6c-0.2-0.2-0.5,0-0.7,0.2c0.1-0.2,0-0.7-0.2-0.7
	c-0.3-0.1-0.4,0.4-0.3,0.6c0-0.1,0.2-0.3,0.3-0.2c0.1,0.1,0.1,0.3,0,0.4c-0.2,0.3-0.5,0.3-0.8,0.2c-0.4-0.2-0.5-0.7-0.3-0.9
	c0.2,0.1,0.3,0.2,0.4,0.4c0-0.2,0.1-0.5,0.2-0.7c-0.2,0.1-0.4,0.2-0.6,0.1c0.1-0.2,0.3-0.4,0.6-0.5l-0.6-0.2c0,0.5-0.4,1.4-0.5,1.7
	C47.6,21.9,47.9,22,49.9,24.1"/>
<path fill="#FFFFFF" d="M47.7,19.1c-0.2,0.1-0.4,0.2-0.5,0.4c-0.1,0.2-0.2,0.7-0.3,0.9c0.2-0.1,0.6-0.5,0.7-0.7
	C47.7,19.5,47.6,19.2,47.7,19.1"/>
<path fill="#FFFFFF" d="M50.6,21.4c-0.1,0.2-0.1,0.4-0.3,0.5c-0.1,0.1-0.6,0.4-0.8,0.5c0.1-0.2,0.4-0.7,0.5-0.8
	C50.2,21.4,50.5,21.4,50.6,21.4"/>
<path fill="#FFFFFF" d="M28.4,3.3V2.3c-0.5,0.1-0.9,0.5-1,1.1H28.4L28.4,3.3z"/>
<path fill="#FFFFFF" d="M29,3.3h1c-0.1-0.5-0.5-1-1-1.1V3.3L29,3.3z"/>
<path fill="#FFFFFF" d="M27.4,3.8c0.1,0.6,0.7,1,1.3,1c0.6,0,1.2-0.4,1.3-1H27.4L27.4,3.8z"/>
<path fill="#FFFFFF" d="M28.9,0.9c0.1-0.3,0.2-0.6,0.5-0.9H28c0.3,0.3,0.4,0.6,0.5,0.9c0.1,0,0.1-0.1,0.2-0.1
	C28.8,0.9,28.8,0.9,28.9,0.9"/>
<path fill="#FFFFFF" d="M28.5,1.5c-0.1,0.3-0.1,0.7-0.4,0.9c0.5-0.2,0.8-0.2,1.3,0c-0.3-0.2-0.4-0.6-0.5-0.9c-0.1,0-0.1,0-0.2,0
	C28.6,1.5,28.6,1.5,28.5,1.5"/>
<path fill="#FFFFFF" d="M28.4,1.1c-0.3-0.1-0.7-0.3-0.9-0.5v1.4c0.2-0.3,0.6-0.5,0.9-0.5c0,0,0-0.1,0-0.2
	C28.4,1.2,28.4,1.1,28.4,1.1"/>
<path fill="#FFFFFF" d="M29,1.1c0,0,0,0.1,0,0.1c0,0.1,0,0.1,0,0.2c0.3,0.1,0.7,0.3,0.9,0.5V0.5C29.7,0.8,29.3,1,29,1.1"/>
<path fill="#FFFFFF" d="M28.7,1.6c-0.2,0-0.4-0.2-0.4-0.4c0-0.2,0.2-0.4,0.4-0.4c0.2,0,0.4,0.2,0.4,0.4C29.1,1.4,28.9,1.6,28.7,1.6"
	/>
<polygon fill="#FFFFFF" points="27.9,8.9 29.5,8.9 29.5,4.9 27.9,4.9 27.9,8.9 "/>
<path fill="#FFFFFF" d="M22,5.7c0.2-0.2,1.1-0.9,2-0.9c0.7,0,1.3,0.3,1.7,0.5c0.1,0.1,0.2,0.1,0.4,0.2c0.5,0.2,1.3,0.4,1.9,0.4
	c0.1,0,0.1,0,0.2,0h0l0-0.3h0c-0.1,0-0.1,0-0.2,0c-0.1,0-0.3,0-0.5,0l0-0.2c0.2-0.1,0.3-0.2,0.3-0.4c0-0.2-0.2-0.4-0.4-0.4
	S26.9,4.8,26.9,5c0,0.1,0.1,0.2,0.2,0.3l0,0.2c-0.3-0.1-0.6-0.1-0.8-0.3c-0.1,0-0.1-0.1-0.2-0.1L26.1,5c0.2,0,0.4-0.2,0.4-0.4
	c0-0.2-0.2-0.4-0.4-0.4c-0.2,0-0.4,0.2-0.4,0.4c0,0.1,0,0.2,0.1,0.2L25.6,5c-0.2-0.1-0.5-0.2-0.8-0.3l0.1-0.2
	c0.2-0.1,0.3-0.2,0.3-0.4c0-0.2-0.2-0.4-0.4-0.4c-0.2,0-0.4,0.2-0.4,0.4c0,0.1,0.1,0.2,0.2,0.3l-0.1,0.2c-0.1,0-0.3,0-0.4-0.1
	c-0.1,0-0.2,0-0.3,0l0-0.2c0.1-0.1,0.1-0.2,0.1-0.3c0-0.2-0.2-0.4-0.4-0.4c-0.2,0-0.4,0.2-0.4,0.4c0,0.2,0.1,0.3,0.3,0.4l0,0.1
	c-0.3,0.1-0.5,0.2-0.7,0.3l-0.1-0.2c0-0.1,0.1-0.1,0.1-0.2c0-0.2-0.2-0.4-0.4-0.4c-0.2,0-0.4,0.2-0.4,0.4c0,0.2,0.2,0.4,0.4,0.4
	c0,0,0,0,0,0l0.1,0.1c-0.2,0.1-0.4,0.3-0.5,0.4c-0.1,0-0.1,0.1-0.2,0.2l-0.1-0.1c0,0,0-0.1,0-0.1c0-0.2-0.2-0.4-0.4-0.4
	c-0.2,0-0.4,0.2-0.4,0.4c0,0.2,0.2,0.4,0.4,0.4c0.1,0,0.1,0,0.2,0L21.4,6c-0.1,0.2-0.2,0.4-0.3,0.7l-0.2,0c0-0.2-0.2-0.3-0.4-0.3
	c-0.2,0-0.4,0.2-0.4,0.4c0,0.2,0.2,0.4,0.4,0.4c0.1,0,0.2-0.1,0.3-0.1L21,7c0,0.2,0,0.5,0,0.8l-0.2,0c-0.1-0.1-0.2-0.2-0.3-0.2
	c-0.2,0-0.4,0.2-0.4,0.4c0,0.2,0.2,0.4,0.4,0.4c0.2,0,0.4-0.1,0.4-0.3l0.2,0c0.1,0.2,0.2,0.5,0.3,0.7L21.2,9c-0.1,0-0.1-0.1-0.2-0.1
	c-0.2,0-0.4,0.2-0.4,0.4c0,0.2,0.2,0.4,0.4,0.4c0.2,0,0.4-0.2,0.4-0.4v0l0.1-0.1c0.1,0.3,0.3,0.5,0.4,0.6c0,0,0,0,0,0l0,0l0,0
	c0,0,0,0.1,0,0.1l0,0l0.2-0.1l0,0l0.1,0l0,0c0,0,0,0,0-0.1c-0.1-0.3-0.2-1.3,0.2-1.6c0.3-0.3,0.5-0.4,0.9-0.4c0.1,0,0.3,0,0.4,0
	l0.2,0l0-0.1c0.2-0.4,0.5-0.8,0.9-0.8h0c0.5,0,0.9,0.2,1.5,0.6c0.4,0.2,0.7,0.3,1.2,0.3c0.1,0,0.2,0,0.3,0c0.1,0,0.1,0,0.2,0h0
	l0-0.3h0c-0.1,0-0.1,0-0.2,0c-0.1,0-0.2,0-0.3,0c-0.4,0-0.7-0.1-1-0.3c-0.7-0.4-1.2-0.6-1.7-0.6h0c-0.6,0-1,0.6-1.1,0.8
	c-0.1,0-0.3,0-0.4,0c-0.4,0-0.8,0.2-1.1,0.5c-0.3,0.3-0.4,0.9-0.4,1.3c-0.2-0.4-0.5-0.9-0.5-1.4C21.1,6.6,21.9,5.8,22,5.7"/>
<path fill="#FFFFFF" d="M37,7.7c-0.1,0-0.2,0.1-0.3,0.1l-0.2,0c0-0.3,0-0.5,0-0.8l0.2,0C36.8,7,36.9,7.1,37,7.1
	c0.2,0,0.4-0.2,0.4-0.4c0-0.2-0.2-0.4-0.4-0.4c-0.2,0-0.4,0.1-0.4,0.3l-0.2,0c-0.1-0.2-0.2-0.5-0.3-0.7l0.1-0.1c0,0,0.1,0,0.1,0
	c0.2,0,0.4-0.2,0.4-0.4c0-0.2-0.2-0.4-0.4-0.4c-0.2,0-0.4,0.2-0.4,0.4c0,0,0,0.1,0,0.1l-0.1,0.1c-0.1-0.1-0.1-0.1-0.2-0.2
	c-0.1-0.1-0.2-0.2-0.5-0.4l0.1-0.1c0,0,0,0,0,0c0.2,0,0.4-0.2,0.4-0.4c0-0.2-0.2-0.4-0.4-0.4s-0.4,0.2-0.4,0.4c0,0.1,0,0.2,0.1,0.2
	l-0.1,0.1c-0.2-0.1-0.5-0.2-0.7-0.3l0-0.1c0.2-0.1,0.3-0.2,0.3-0.4c0-0.2-0.2-0.4-0.4-0.4S33.6,3.8,33.6,4c0,0.1,0,0.2,0.1,0.3
	l0,0.2c-0.1,0-0.2,0-0.3,0c-0.1,0-0.3,0-0.4,0.1L33,4.4c0.1-0.1,0.2-0.2,0.2-0.3c0-0.2-0.2-0.4-0.4-0.4S32.3,3.8,32.3,4
	c0,0.2,0.1,0.3,0.3,0.4l0.1,0.2c-0.3,0.1-0.5,0.2-0.8,0.3l-0.1-0.2c0.1-0.1,0.1-0.2,0.1-0.3c0-0.2-0.2-0.4-0.4-0.4
	c-0.2,0-0.4,0.2-0.4,0.4c0,0.2,0.2,0.4,0.4,0.4l0.1,0.2c-0.1,0-0.2,0.1-0.2,0.1c-0.2,0.1-0.5,0.2-0.8,0.2l0-0.2
	c0.1-0.1,0.2-0.2,0.2-0.3c0-0.2-0.2-0.4-0.4-0.4c-0.2,0-0.4,0.2-0.4,0.4c0,0.2,0.1,0.4,0.3,0.4l0,0.2c-0.2,0-0.4,0-0.5,0
	c-0.1,0-0.1,0-0.2,0h0l0,0.3l0.1,0c0.1,0,0.1,0,0.2,0c0.6,0,1.4-0.2,1.9-0.4c0.1,0,0.2-0.1,0.3-0.2c0.4-0.2,1-0.5,1.7-0.5
	c1-0.1,1.8,0.7,2,0.9c0.1,0.1,0.9,0.9,0.7,2.1c-0.1,0.5-0.3,1-0.5,1.4c0-0.4,0-1-0.4-1.3c-0.3-0.3-0.7-0.5-1.1-0.5
	c-0.2,0-0.3,0-0.4,0c-0.1-0.3-0.5-0.8-1.1-0.8h0c-0.5,0-1,0.2-1.7,0.6c-0.3,0.2-0.6,0.3-1,0.3c-0.1,0-0.2,0-0.3,0
	c-0.1,0-0.2,0-0.2,0l0,0l0,0.3h0c0,0,0.1,0,0.2,0c0.1,0,0.2,0,0.3,0c0.5,0,0.8-0.1,1.2-0.3c0.6-0.4,1.1-0.6,1.5-0.6h0
	c0.4,0,0.7,0.4,0.9,0.8l0,0.1l0.2,0c0.1,0,0.3,0,0.4,0c0.4,0,0.6,0.1,0.9,0.4c0.4,0.4,0.3,1.3,0.2,1.6c0,0-0.1,0.1-0.1,0.1l0,0l0,0
	l0,0l0.2,0.1l0,0c0,0,0,0,0-0.1l0,0v0c0,0,0,0,0,0c0.1-0.1,0.2-0.3,0.4-0.6l0.2,0.1l0,0c0,0.2,0.2,0.4,0.4,0.4
	c0.2,0,0.4-0.2,0.4-0.4c0-0.2-0.2-0.4-0.4-0.4c-0.1,0-0.2,0-0.2,0.1l-0.2-0.1c0.1-0.2,0.2-0.5,0.3-0.7l0.2,0
	c0.1,0.2,0.2,0.3,0.4,0.3c0.2,0,0.4-0.2,0.4-0.4C37.4,7.9,37.2,7.7,37,7.7"/>
<path fill="#FFFFFF" d="M34.4,14.1c-0.3-0.1-0.5-0.3-0.4-0.5c0.1-0.2,0.4-0.3,0.6-0.2c0.1,0,0.2,0.1,0.2,0.1c0,0,0-0.1,0-0.1
	c0.3-1.5,0.6-2.6,1.3-3.4l-1.2-0.5c0.4,0.5,0.4,1.1,0.3,1.4c-0.4-0.2-0.7-0.5-0.8-1c-0.1,0.4-0.3,1-0.5,1.4c0.4-0.2,0.7-0.3,1.2-0.1
	c-0.2,0.5-0.7,1.2-1.7,1c-0.6-0.2-1.1-0.7-0.9-1.3c0-0.2,0.2-0.4,0.5-0.4s0.3,0.5,0.2,0.7C33.6,11,34,10,33.4,9.8
	c-0.5-0.1-1.1,0.5-1.2,1c-0.1-0.6-0.5-1.3-1-1.3c-0.7,0-0.5,1.2-0.2,1.4c0-0.4,0.3-0.7,0.5-0.7c0.2,0,0.4,0.3,0.4,0.6
	c-0.1,0.6-0.8,1-1.4,1c-0.7,0-1.3-0.5-1.4-1.5c0.4,0.1,1.1,0.3,1.4,0.7c-0.1-0.6-0.1-1,0-1.6c-0.3,0.4-0.9,0.5-1.3,0.6
	c0.1-0.4,0.4-0.9,0.9-1.2h-2.1c0.5,0.3,0.7,0.7,0.8,1.2c-0.4-0.1-1-0.2-1.3-0.6c0.1,0.6,0.1,1,0,1.6c0.3-0.3,0.9-0.6,1.3-0.7
	c-0.1,1-0.8,1.4-1.4,1.5c-0.6,0.1-1.4-0.2-1.6-0.9c-0.1-0.3,0.4-0.6,0.5-0.6c0.2,0,0.4,0.2,0.5,0.6c0.1-0.5,0.3-1.3-0.4-1.4
	c-0.5,0-0.8,0.6-0.9,1.1c-0.2-0.5-0.8-1-1.3-0.8c-0.6,0.2-0.1,1.2,0.3,1.4c-0.1-0.2-0.1-0.7,0.2-0.8c0.3,0,0.5,0.3,0.5,0.5
	c0.1,0.6-0.4,1.1-1.1,1.2c-1,0.2-1.6-0.5-1.5-1.1c0.4-0.2,0.8-0.1,1.2,0.1c-0.2-0.4-0.4-1-0.5-1.4c-0.1,0.4-0.4,0.7-0.8,1
	c-0.1-0.3-0.1-0.9,0.3-1.4L21.2,10c0.7,0.8,0.9,2.2,1.3,3.4c0,0,0,0.1,0,0.1c0.1,0,0.1-0.1,0.2-0.1c0.3-0.1,0.6,0,0.6,0.2
	c0.1,0.2-0.1,0.4-0.4,0.5c-0.1,0-0.2,0-0.3,0c0,0.1,0,0.2,0,0.4c1.7-0.8,4.2-0.9,6-0.9c0,0,3.5-0.2,6,0.9c0-0.1,0-0.3,0-0.4
	C34.6,14.2,34.5,14.2,34.4,14.1"/>
<path fill="#FFFFFF" d="M23,13.3c-0.1,0-0.2,0-0.2,0c-0.1,0-0.1,0-0.2,0.1c-0.2,0.1-0.3,0.4-0.3,0.5c0.1,0.2,0.2,0.3,0.5,0.3h0
	c0.1,0,0.2,0,0.2,0c0.2-0.1,0.3-0.1,0.4-0.2c0.1-0.1,0.1-0.3,0.1-0.4C23.4,13.4,23.2,13.3,23,13.3"/>
<path fill="#FFFFFF" d="M34.4,13.3c-0.2,0-0.4,0.1-0.5,0.3c0,0.1,0,0.3,0.1,0.4c0.1,0.1,0.2,0.2,0.4,0.2c0.1,0,0.2,0,0.3,0
	c0,0,0.1,0,0.1,0c0.2,0,0.3-0.1,0.4-0.3c0.1-0.2,0-0.4-0.2-0.5c-0.1-0.1-0.2-0.1-0.3-0.1C34.5,13.3,34.4,13.3,34.4,13.3"/>
<path fill="#FFFFFF" d="M35,13.4C35,13.4,35,13.3,35,13.4c-4.1-1.1-8.3-1.1-12.6,0c-0.1,0-0.2,0-0.2-0.2c0-0.1,0-0.2,0.1-0.3
	c4.4-1.1,8.7-1.1,12.8,0c0.1,0,0.2,0.2,0.2,0.3C35.2,13.3,35.1,13.4,35,13.4"/>
<path fill="#FFFFFF" d="M22.3,13.4c-0.1,0-0.2-0.1-0.2-0.2c0-0.1,0-0.1,0-0.2c0-0.1,0.1-0.1,0.1-0.1c2.2-0.6,4.4-0.8,6.5-0.8
	c2.1,0,4.3,0.3,6.3,0.8c0.1,0,0.2,0.2,0.2,0.3c0,0.1-0.1,0.2-0.2,0.2c0,0-0.1,0-0.1,0c-2-0.5-4.1-0.8-6.2-0.8
	C26.7,12.6,24.5,12.8,22.3,13.4C22.3,13.4,22.3,13.4,22.3,13.4"/>
<path fill="#FFFFFF" d="M24.9,8c-0.2,0.5-0.4,0.8-0.3,1.2c0,0.4,0.5,1.4,0.6,1.7c0.1-0.5,0.3-1.5,0.3-1.9C25.5,8.7,25,8.3,24.9,8"/>
<path fill="#FFFFFF" d="M32.5,8.1c0.2,0.5,0.4,0.8,0.3,1.2c-0.1,0.4-0.5,1.4-0.7,1.7C32,10.5,31.8,9.4,31.9,9
	C32,8.7,32.4,8.3,32.5,8.1"/>
<path fill="#FFFFFF" d="M22.4,11.2c0,0.2-0.2,0.4-0.5,0.4c-0.2,0-0.4-0.2-0.4-0.4c0-0.2,0.2-0.4,0.4-0.4
	C22.2,10.8,22.4,11,22.4,11.2"/>
<path fill="#FFFFFF" d="M21.9,11.7c-0.3,0-0.5-0.2-0.5-0.5c0-0.3,0.2-0.5,0.5-0.5c0.3,0,0.5,0.2,0.5,0.5
	C22.4,11.5,22.2,11.7,21.9,11.7"/>
<path fill="#FFFFFF" d="M29.2,10.2c0,0.3-0.2,0.5-0.5,0.5s-0.5-0.2-0.5-0.5c0-0.3,0.2-0.5,0.5-0.5S29.2,9.9,29.2,10.2"/>
<path fill="#FFFFFF" d="M28.7,10.7c-0.3,0-0.5-0.2-0.5-0.5c0-0.3,0.2-0.5,0.5-0.5c0.3,0,0.5,0.2,0.5,0.5
	C29.2,10.5,29,10.7,28.7,10.7 M28.7,9.8c-0.2,0-0.4,0.2-0.4,0.4s0.2,0.4,0.4,0.4s0.4-0.2,0.4-0.4S28.9,9.8,28.7,9.8"/>
<path fill="#FFFFFF" d="M35.7,11.2c0,0.2-0.2,0.4-0.4,0.4s-0.5-0.2-0.5-0.4c0-0.2,0.2-0.5,0.5-0.5S35.7,11,35.7,11.2"/>
<path fill="#FFFFFF" d="M35.2,11.7c-0.3,0-0.5-0.2-0.5-0.5s0.2-0.5,0.5-0.5s0.5,0.2,0.5,0.5S35.5,11.7,35.2,11.7"/>
<path fill="#FFFFFF" d="M28.7,13.5c-3.2,0-6.5,0.5-6.5,1.6c0,1,3.3,1.6,6.5,1.6s6.5-0.6,6.5-1.6C35.2,14,31.8,13.5,28.7,13.5
	 M34.9,15.1c0,0.6-2.6,1.3-6.3,1.3s-6.3-0.7-6.3-1.3c0-0.6,2.6-1.3,6.3-1.3S34.9,14.4,34.9,15.1"/>
<path fill="#FFFFFF" d="M33.6,15.4c-1.2-0.3-3-0.5-4.8-0.5c-1.9,0-3.6,0.2-4.9,0.5c-0.1,0-0.1,0.1-0.1,0.2c0,0.1,0.1,0.1,0.1,0.1
	c0,0,0,0,0,0c1.2-0.3,3-0.5,4.8-0.5c1.8,0,3.6,0.2,4.8,0.5c0.1,0,0.1,0,0.2-0.1C33.7,15.4,33.6,15.4,33.6,15.4"/>
<path fill="#FFFFFF" d="M8.1,9.9l0-0.4C7.9,9.6,7.8,9.7,7.8,9.9L8.1,9.9L8.1,9.9z"/>
<path fill="#FFFFFF" d="M8.3,9.8l0.3-0.1C8.6,9.6,8.4,9.5,8.2,9.5L8.3,9.8L8.3,9.8z"/>
<path fill="#FFFFFF" d="M7.8,10.1c0.1,0.2,0.3,0.3,0.5,0.3c0.2,0,0.4-0.2,0.4-0.4L7.8,10.1L7.8,10.1z"/>
<path fill="#FFFFFF" d="M8.1,9c0-0.1,0-0.2,0.1-0.3L7.8,8.8C7.9,8.9,8,9,8,9.1C8,9.1,8,9,8.1,9C8.1,9,8.1,9,8.1,9"/>
<path fill="#FFFFFF" d="M8,9.2c0,0.1,0,0.2-0.1,0.3c0.2-0.1,0.2-0.1,0.4-0.1C8.3,9.5,8.2,9.3,8.2,9.2C8.1,9.2,8.1,9.3,8,9.2
	C8.1,9.3,8.1,9.3,8,9.2"/>
<path fill="#FFFFFF" d="M8,9.1C7.9,9.1,7.7,9.1,7.7,9l0.1,0.5C7.8,9.3,7.9,9.3,8,9.1C8,9.2,8,9.2,8,9.1C8,9.1,8,9.1,8,9.1"/>
<path fill="#FFFFFF" d="M8.2,9.1C8.2,9.1,8.2,9.1,8.2,9.1C8.2,9.2,8.2,9.2,8.2,9.1c0.1,0.1,0.3,0.2,0.3,0.2L8.4,8.9
	C8.4,9,8.3,9,8.2,9.1"/>
<path fill="#FFFFFF" d="M8.1,9.3C8,9.3,8,9.2,7.9,9.2C7.9,9.1,8,9,8.1,9c0.1,0,0.1,0,0.1,0.1C8.2,9.2,8.2,9.3,8.1,9.3 M8.1,9.1
	C8,9.1,8,9.1,8,9.2C8,9.2,8,9.2,8.1,9.2c0.1,0,0.1-0.1,0.1-0.1C8.2,9.1,8.1,9,8.1,9.1"/>
<polygon fill="#FFFFFF" points="8,10.4 8.2,11.7 8.8,11.7 8.5,10.3 8,10.4 "/>
<path fill="#FFFFFF" d="M7.8,10.7C7.8,10.7,7.8,10.7,7.8,10.7c0.1,0,0.2-0.1,0.2-0.2c0-0.1-0.1-0.1-0.2-0.1c-0.1,0-0.1,0-0.1,0.1
	c0,0,0,0.1,0,0.1C7.7,10.6,7.7,10.7,7.8,10.7"/>
<path fill="#FFFFFF" d="M8.2,11.3L8.2,11.3C8.2,11.3,8.2,11.3,8.2,11.3c-0.1,0-0.2,0.1-0.3,0.1c-0.1,0-0.2,0-0.2-0.1
	c-0.2-0.1-0.4-0.1-0.6-0.1c-0.2,0-0.3,0.2-0.3,0.3c-0.2,0-0.3,0-0.5,0.2c-0.1,0.1-0.1,0.3-0.1,0.4C6.1,12,6,11.9,6,11.7
	C5.8,11.3,6.1,11,6.1,11c0.1-0.1,0.3-0.4,0.6-0.4c0,0,0.1,0,0.1,0c0.2,0,0.3,0.1,0.5,0.1v0c0,0,0.1,0,0.1,0c0.1,0,0.2,0,0.4,0
	c0.1,0,0.2,0,0.3,0l0,0l0-0.1l0,0c-0.1,0-0.2,0-0.3,0c-0.1,0-0.3,0-0.4,0c0,0,0,0-0.1,0l0,0c0,0,0.1,0,0.1-0.1c0,0,0-0.1,0-0.1
	c0-0.1-0.1-0.2-0.2-0.1c-0.1,0-0.2,0.1-0.1,0.2c0,0,0,0.1,0,0.1l0,0c-0.1,0-0.1,0-0.2-0.1v-0.1c0.1,0,0.1-0.1,0.1-0.2
	c0-0.1-0.1-0.2-0.2-0.1c-0.1,0-0.1,0-0.1,0.1c0,0,0,0.1,0,0.1c0,0,0,0.1,0.1,0.1l0,0c0,0-0.1,0-0.1,0c0,0-0.1,0-0.1,0l0,0
	c0,0,0-0.1,0-0.1c0-0.1-0.1-0.2-0.2-0.1c-0.1,0-0.2,0.1-0.1,0.2c0,0.1,0.1,0.1,0.1,0.1l0,0c-0.1,0-0.1,0.1-0.2,0.1l0,0
	c0,0,0,0,0-0.1c0-0.1-0.1-0.2-0.2-0.1c-0.1,0-0.2,0.1-0.1,0.2c0,0.1,0.1,0.1,0.2,0.1c0,0,0,0,0,0l0,0C6.1,10.9,6,10.9,6,10.9
	c0,0,0,0,0,0h0v0c0-0.1-0.1-0.2-0.2-0.1c-0.1,0-0.2,0.1-0.1,0.2c0,0.1,0.1,0.1,0.2,0.1h0c0,0,0,0,0,0l0,0c0,0.1,0,0.1-0.1,0.2h0
	c0-0.1-0.1-0.1-0.2-0.1c-0.1,0-0.1,0-0.1,0.1c0,0,0,0.1,0,0.1c0,0.1,0.1,0.1,0.2,0.1h0c0,0,0.1,0,0.1-0.1l0,0c0,0.1,0,0.1,0,0.2l0,0
	c0,0-0.1,0-0.1,0c-0.1,0-0.1,0-0.1,0.1c0,0,0,0.1,0,0.1C5.6,12,5.6,12,5.7,12h0c0.1,0,0.1-0.1,0.1-0.1l0,0C5.9,12,6,12,6,12.1l0,0
	c0,0,0,0-0.1,0c-0.1,0-0.2,0.1-0.1,0.2c0,0.1,0.1,0.2,0.2,0.2c0,0,0,0,0,0c0.1,0,0.2-0.1,0.1-0.2l0,0c0,0.1,0.1,0.1,0.1,0.1
	c0,0,0,0,0,0l0,0l0,0c0,0,0,0,0,0l0,0l0.1-0.1h0l0,0l0,0l0,0c0-0.1-0.1-0.4,0-0.6c0.1-0.2,0.3-0.2,0.4-0.2h0.1l0,0
	c0-0.1,0.1-0.3,0.2-0.3c0.2,0,0.3,0,0.6,0.1c0.1,0,0.2,0.1,0.3,0.1c0.1,0,0.2,0,0.2,0c0,0,0.1,0,0.1,0h0L8.2,11.3L8.2,11.3z"/>
<polygon fill="#FFFFFF" points="7.8,10.6 7.8,10.7 7.9,10.7 7.9,10.6 7.8,10.6 "/>
<path fill="#FFFFFF" d="M11,11.1L11,11.1c0.1,0.1,0.1,0.1,0.2,0.1c0,0,0,0,0,0c0.1,0,0.2-0.1,0.1-0.2c0-0.1-0.1-0.2-0.2-0.1
	c0,0-0.1,0-0.1,0h0c0-0.1,0-0.1,0-0.2l0,0c0,0,0.1,0,0.1,0c0,0,0,0,0,0c0.1,0,0.2-0.1,0.1-0.2c0-0.1-0.1-0.1-0.2-0.1
	c-0.1,0-0.1,0.1-0.1,0.1l0,0c0-0.1-0.1-0.1-0.1-0.2l0,0h0c0,0,0,0,0,0c0.1,0,0.2-0.1,0.1-0.2c0-0.1-0.1-0.2-0.2-0.1
	c-0.1,0-0.2,0.1-0.1,0.2c0,0,0,0,0,0l0,0c0,0,0,0,0,0c0,0-0.1-0.1-0.2-0.1l0,0c0.1,0,0.2-0.1,0.1-0.2c0-0.1-0.1-0.2-0.2-0.1
	c-0.1,0-0.2,0.1-0.1,0.2c0,0,0,0,0,0.1l0,0c-0.1,0-0.1,0-0.2-0.1v0c0.1,0,0.1-0.1,0.1-0.2c0-0.1-0.1-0.2-0.2-0.1
	c-0.1,0-0.1,0.1-0.1,0.2c0,0,0,0.1,0.1,0.1v0c0,0-0.1,0-0.1,0c0,0-0.1,0-0.1,0l0-0.1c0,0,0-0.1,0-0.1c0-0.1-0.1-0.2-0.2-0.2
	c-0.1,0-0.2,0.1-0.1,0.2C9.4,10,9.4,10,9.5,10l0,0c-0.1,0-0.1,0.1-0.2,0.1l0,0c0,0,0-0.1,0-0.1c0-0.1-0.1-0.2-0.2-0.1
	C9,10,9,10,9,10.1c0,0.1,0.1,0.1,0.2,0.1l0,0c0,0,0,0,0,0c-0.1,0-0.1,0.1-0.2,0.1l0,0h0c0,0,0-0.1,0-0.1c0-0.1-0.1-0.2-0.2-0.1
	s-0.2,0.1-0.1,0.2c0,0.1,0.1,0.1,0.1,0.1l0,0c-0.1,0-0.1,0-0.2,0h0v0.1h0c0.2,0,0.5-0.1,0.7-0.2c0,0,0.1-0.1,0.1-0.1
	c0.1-0.1,0.3-0.2,0.5-0.3c0,0,0.1,0,0.1,0c0.3,0,0.5,0.2,0.6,0.2c0,0,0.3,0.2,0.3,0.6c0,0.2,0,0.3-0.1,0.5c0-0.1-0.1-0.3-0.2-0.4
	c-0.1-0.1-0.2-0.1-0.3-0.1c-0.1,0-0.2,0-0.2,0.1c-0.1-0.1-0.2-0.2-0.4-0.2c-0.2,0-0.3,0.1-0.5,0.3c-0.2,0.1-0.3,0.2-0.4,0.2
	c0,0-0.1,0-0.1,0h0l0,0.1h0c0,0,0,0,0.1,0h0c0.1,0,0.3,0,0.5-0.2c0.2-0.2,0.3-0.2,0.5-0.3c0.1,0,0.3,0.1,0.3,0.2l0,0l0.1,0
	c0.1,0,0.1,0,0.2,0c0.1,0,0.2,0,0.2,0.1c0.1,0.1,0.2,0.4,0.2,0.5c0,0,0,0,0,0l0,0l0,0h0l0.1,0l0,0c0,0,0,0,0,0h0v0v0
	c0,0,0.1-0.1,0.1-0.2l0,0c0,0.1,0.1,0.1,0.2,0.1c0,0,0,0,0,0c0,0,0.1,0,0.1-0.1c0,0,0-0.1,0-0.1c0-0.1-0.1-0.1-0.2-0.1
	c0,0-0.1,0-0.1,0l0,0C11,11.2,11,11.1,11,11.1"/>
<path fill="#FFFFFF" d="M6.8,13.5C6.8,13.5,6.8,13.5,6.8,13.5c-0.1,0-0.1,0.1-0.1,0.1c-0.1,0.1-0.1,0.1-0.1,0.2
	c0,0.1,0.1,0.1,0.2,0.1h0c0,0,0.1,0,0.1,0c0,0,0.1-0.1,0.1-0.1c0,0,0-0.1,0-0.1C7,13.5,6.9,13.5,6.8,13.5"/>
<path fill="#FFFFFF" d="M10.6,12.9c-0.1,0-0.1,0.1-0.2,0.1c0,0.1,0,0.1,0.1,0.1c0,0,0.1,0.1,0.1,0.1c0,0,0.1,0,0.1,0c0,0,0,0,0,0
	c0.1,0,0.1-0.1,0.1-0.1c0-0.1,0-0.1-0.1-0.2C10.8,12.9,10.7,12.9,10.6,12.9C10.7,12.9,10.6,12.9,10.6,12.9"/>
<path fill="#FFFFFF" d="M6.6,13.5C6.5,13.5,6.5,13.5,6.6,13.5c-0.1-0.1-0.1-0.2,0-0.2c1.1-0.5,2.3-0.7,3.4-0.7c0.3,0,0.6,0,0.9,0.1
	c0,0,0.1,0.1,0.1,0.1c0,0,0,0.1-0.1,0.1h0c-0.3,0-0.6,0-0.9,0C8.8,12.8,7.7,13.1,6.6,13.5C6.6,13.5,6.6,13.5,6.6,13.5 M9.9,12.7
	c-1.1,0-2.3,0.2-3.4,0.7c0,0,0,0,0,0.1c0,0,0,0,0.1,0C7.7,13,8.8,12.8,9.9,12.7c0.3,0.1,0.6,0.1,0.9,0.2h0c0,0,0,0,0.1-0.1
	c0,0,0-0.1-0.1-0.1C10.5,12.7,10.2,12.7,9.9,12.7"/>
<path fill="#FFFFFF" d="M7.2,11.6c0,0.2-0.1,0.3,0,0.4c0,0.1,0.2,0.4,0.3,0.5c0-0.2,0-0.5,0-0.6C7.4,11.8,7.2,11.7,7.2,11.6"/>
<path fill="#FFFFFF" d="M9.7,11.2c0.1,0.2,0.1,0.2,0.1,0.4c0,0.1-0.1,0.5-0.2,0.6c-0.1-0.1-0.2-0.5-0.2-0.6
	C9.6,11.5,9.7,11.3,9.7,11.2"/>
<path fill="#FFFFFF" d="M8.9,14.3c-1.1,0.2-2.2,0.2-2.2-0.2c-0.1-0.3,1-0.7,2.1-0.9c1.1-0.2,2.2-0.1,2.2,0.2
	C11,13.7,9.9,14.1,8.9,14.3 M8.7,13.3c-1.3,0.2-2.1,0.6-2,0.8c0,0.2,0.9,0.3,2.2,0.1c1.3-0.2,2.1-0.6,2-0.8
	C10.9,13.2,10,13.1,8.7,13.3"/>
<path fill="#FFFFFF" d="M10.8,12.7C10.8,12.7,10.9,12.8,10.8,12.7c0.1,0.1,0,0.1,0,0.1c0,0,0,0,0,0v0c0,0,0,0,0,0h0
	C10.9,12.9,10.9,12.8,10.8,12.7C10.9,12.8,10.9,12.7,10.8,12.7C10.8,12.7,10.8,12.7,10.8,12.7L10.8,12.7
	C10.8,12.7,10.8,12.7,10.8,12.7"/>
<path fill="#FFFFFF" d="M6.6,13.5C6.6,13.5,6.5,13.5,6.6,13.5C6.5,13.5,6.5,13.4,6.6,13.5c-0.1-0.1-0.1-0.1,0-0.1c0,0,0,0,0,0
	c0,0,0,0,0,0c0,0,0,0,0,0C6.5,13.4,6.5,13.4,6.6,13.5C6.5,13.4,6.5,13.5,6.6,13.5C6.5,13.5,6.6,13.5,6.6,13.5
	C6.6,13.5,6.6,13.5,6.6,13.5C6.6,13.5,6.6,13.5,6.6,13.5C6.7,13.5,6.7,13.5,6.6,13.5C6.6,13.5,6.6,13.5,6.6,13.5"/>
<path fill="#FFFFFF" d="M10.9,12c0-0.1,0.1-0.2,0.1-0.3l-0.4-0.1c0.1,0.1,0.2,0.3,0.2,0.4c0,0,0,0,0,0c0,0-0.1,0-0.1,0
	c-0.1-0.1-0.2-0.1-0.2-0.3c0,0.1,0,0.4-0.1,0.5c0.1,0,0.2-0.1,0.3-0.1v0c0,0,0,0.1,0.1,0.1c-0.1,0.2-0.2,0.3-0.5,0.3
	c-0.2,0-0.4-0.2-0.4-0.4c0-0.1,0.1-0.2,0.1-0.2c0.1,0,0.1,0.2,0.1,0.2c0.1-0.1,0.2-0.5,0-0.5c-0.2,0-0.3,0.2-0.4,0.4
	c-0.1-0.2-0.2-0.4-0.4-0.4c-0.2,0.1-0.1,0.4,0,0.5c0-0.1,0.1-0.3,0.1-0.3c0.1,0,0.2,0.1,0.2,0.2c0,0.2-0.2,0.4-0.4,0.4
	c-0.2,0-0.4-0.1-0.5-0.4c0,0,0-0.1,0-0.1c0.1,0,0.3,0.1,0.4,0.2C9.1,12.1,9,12,9,11.8C9,11.9,8.8,12,8.7,12c0,0,0,0,0-0.1
	c0-0.1,0.1-0.3,0.2-0.4l-0.7,0.1c0.1,0.1,0.2,0.2,0.3,0.3c0,0,0,0,0,0.1c-0.1,0-0.3,0-0.4-0.1c0.1,0.2,0.1,0.3,0.1,0.5
	c0.1-0.1,0.2-0.2,0.3-0.3c0,0,0,0,0.1,0.1c0,0.3-0.2,0.4-0.4,0.5c-0.2,0.1-0.5,0-0.6-0.2c0-0.1,0.1-0.2,0.2-0.2c0.1,0,0.2,0,0.2,0.2
	c0-0.2,0-0.5-0.2-0.4c-0.2,0-0.2,0.2-0.2,0.4c-0.1-0.2-0.3-0.3-0.5-0.2c-0.2,0.1,0,0.4,0.2,0.4c0-0.1-0.1-0.2,0-0.2
	c0.1,0,0.2,0.1,0.2,0.1c0.1,0.2-0.1,0.4-0.3,0.5c-0.3,0.1-0.5,0-0.6-0.2c0,0,0-0.1,0-0.1c0,0,0,0,0,0c0.1-0.1,0.2,0,0.4,0
	c-0.1-0.1-0.2-0.3-0.2-0.4c0,0.1-0.1,0.2-0.2,0.3c0,0,0,0,0,0c0-0.1,0-0.3,0-0.5L6,12.5c0.1,0.1,0.1,0.2,0.2,0.3
	c-0.1,0-0.1,0.1-0.1,0.2C6.2,13,6.3,13,6.4,13c0,0,0,0,0,0c0.1,0.1,0.1,0.2,0.2,0.4c0.7-0.3,1.4-0.5,2.1-0.6
	c0.7-0.1,1.4-0.1,2.1-0.1c0-0.1,0-0.3,0.1-0.4c0.1,0,0.1-0.1,0.1-0.2C10.9,12.1,10.9,12,10.9,12"/>
<path fill="#FFFFFF" d="M8.7,12.9c-0.7,0.1-1.4,0.3-2,0.6c0,0,0,0,0,0c0,0,0,0,0,0c0,0,0,0,0,0c0.1,0,0.2,0,0.2,0
	c0,0.1,0,0.2-0.1,0.2c0,0-0.1,0-0.1,0c0,0,0,0.1,0,0.1c0.5-0.4,1.4-0.5,2-0.6c0,0,1.2-0.3,2,0c0,0,0-0.1,0-0.1c0,0-0.1,0-0.1,0
	c-0.1,0-0.2-0.1-0.2-0.2c0-0.1,0.1-0.1,0.2-0.1c0,0,0.1,0,0.1,0c0,0,0,0,0,0v0C10.1,12.8,9.4,12.8,8.7,12.9"/>
<path fill="#FFFFFF" d="M19.7,17.2c0.4,0.1,0.9,0.2,1.3,0.2c0.6,0,1.1,0.1,1.6,0.1c0.7-0.1,1.1,0.8,0.6,1.4c-0.3,0.4-0.8,1-1.4,0.7
	c-0.1,0-0.2-0.2-0.4-0.1c-0.3,0.3-0.6,0.2-0.8,0c-0.1-0.1-0.2-0.1-0.3-0.1c-0.5,0.2-0.7,0-1-0.3c-0.4-0.4-0.6-0.8-0.5-1.2
	C18.7,17.4,19,17.2,19.7,17.2"/>
<path fill="#FFFFFF" d="M20.5,20.7c-0.3,0.1-0.4,0.1-0.5,0.4c-0.1,0.1-0.2,0-0.4,0c-0.1,0-0.3-0.1-0.4-0.2c0-0.5,0.6-1,1.1-0.8
	c0.2,0.1,0.2,0.3,0.2,0.4C20.6,20.4,20.6,20.7,20.5,20.7"/>
<path fill="#FFFFFF" d="M18.3,18.3c-0.8,0-1-0.2-1.1-0.6c0-0.2,0-0.4,0-0.6c0.8,0,1.1,0.1,1,0.6C18.2,17.9,18.2,18,18.3,18.3"/>
<path fill="#FFFFFF" d="M21.2,21.7c-0.1,0.3-0.3,0.5-0.6,0.5c-0.2,0-0.5-0.3-0.5-0.5c0-0.3,0.2-0.6,0.6-0.5
	C21,21.2,21.2,21.3,21.2,21.7"/>
<path fill="#FFFFFF" d="M23.6,18.9c0.7,0,0.9-0.2,1-0.6c0-0.2,0-0.3,0-0.6c-0.7,0-0.8,0.1-0.8,0.6C23.8,18.8,23.7,18.8,23.6,18.9"/>
<path fill="#FFFFFF" d="M17.2,22.8c-0.7-0.2-0.9-0.1-1.1,0.3c-0.1,0.1-0.1,0.3-0.2,0.5c0.8,0.2,0.9,0.1,1-0.3
	C17,22.9,17.1,23,17.2,22.8"/>
<path fill="#FFFFFF" d="M24,23.2c0.6-0.2,0.8-0.1,1,0.2c0.1,0.1,0.1,0.3,0.2,0.5c-0.7,0.2-0.8,0.1-0.9-0.3
	C24.2,23.4,24.2,23.4,24,23.2"/>
<path fill="#FFFFFF" d="M20.7,25.2c0.5,0.5,0.5,0.7,0.3,1c-0.1,0.1-0.2,0.2-0.3,0.4c-0.5-0.5-0.5-0.6-0.2-0.9
	C20.7,25.4,20.6,25.4,20.7,25.2"/>
<path fill="#FFFFFF" d="M19.7,21.6c-0.1,0.3,0,0.4,0.1,0.6c0.1,0.1-0.1,0.2-0.1,0.3c-0.1,0.1-0.2,0.3-0.3,0.3
	c-0.4-0.2-0.7-0.9-0.4-1.2c0.1-0.2,0.3-0.2,0.4-0.1C19.5,21.5,19.7,21.6,19.7,21.6"/>
<path fill="#FFFFFF" d="M21.5,21.2c-0.1-0.3-0.2-0.4-0.4-0.5c-0.1,0-0.1-0.2,0-0.3c0-0.1,0-0.3,0.2-0.4c0.5,0,1,0.5,0.9,1
	c-0.1,0.2-0.2,0.3-0.4,0.3C21.7,21.3,21.5,21.3,21.5,21.2"/>
<path fill="#FFFFFF" d="M20.4,22.6c0.3,0.1,0.4,0.1,0.6,0c0.1,0,0.2,0.1,0.3,0.2c0.1,0.1,0.2,0.2,0.2,0.4c-0.3,0.4-1,0.5-1.3,0.1
	c-0.2-0.2-0.1-0.3,0-0.4C20.2,22.7,20.3,22.5,20.4,22.6"/>
<path fill="#FFFFFF" d="M21.5,22.3c0.2-0.2,0.2-0.3,0.2-0.5c0-0.1,0.2-0.1,0.3-0.2c0.1,0,0.3-0.1,0.4,0c0.2,0.4,0,1-0.4,1.1
	c-0.2,0.1-0.3-0.1-0.4-0.2C21.5,22.5,21.4,22.3,21.5,22.3"/>
<path fill="#FFFFFF" d="M16.3,21.3c0.2-0.3,0.4-0.6,0.5-0.9c0.2-0.4,0.4-0.8,0.5-1.2c0.1-0.5,1-0.5,1.4,0c0.3,0.4,0.6,0.9,0.2,1.3
	c-0.1,0.1-0.2,0.1-0.2,0.3c0.2,0.4,0,0.5-0.3,0.6c-0.1,0.1-0.2,0.2-0.2,0.2c0,0.4-0.2,0.6-0.5,0.7c-0.4,0.2-0.8,0.2-1.2,0
	C16.2,22.1,16.1,21.8,16.3,21.3"/>
<path fill="#FFFFFF" d="M24.4,22.9c-0.4,0-0.8,0-1.2-0.3c-0.2-0.2-0.4-0.4-0.3-0.8c0-0.1,0-0.2-0.1-0.2c-0.2-0.2-0.4-0.4-0.1-0.7
	c0.1-0.2-0.1-0.2-0.1-0.3c-0.3-0.5,0.2-0.9,0.5-1.2c0.5-0.4,1.4-0.2,1.3,0.4c0.1,0.4,0.1,0.8,0.2,1.3c0.1,0.3,0.2,0.7,0.3,1
	C25,22.6,24.9,22.8,24.4,22.9"/>
<path fill="#FFFFFF" d="M21.3,25.5c-0.2-0.3-0.3-0.6-0.2-1c0-0.2,0.1-0.5,0.5-0.6c0.1,0,0.1-0.1,0.2-0.2c0-0.3,0.1-0.4,0.5-0.4
	c0.2,0,0.2-0.1,0.2-0.2c0.2-0.4,0.8-0.2,1.1-0.1c0.5,0.2,0.7,1,0.3,1.2c-0.3,0.2-0.6,0.4-0.9,0.7c-0.2,0.2-0.5,0.4-0.7,0.6
	C21.8,25.9,21.6,25.8,21.3,25.5"/>
<path fill="#FFFFFF" d="M17.2,23.5c0.2-0.3,0.5-0.6,1-0.6c0.3-0.1,0.5-0.1,0.7,0.3c0,0.1,0.2,0.1,0.2,0.1c0.3-0.1,0.5,0,0.5,0.3
	c0.1,0.2,0.2,0.1,0.3,0.1c0.5,0.1,0.5,0.7,0.5,1.1c0,0.6-0.7,1.1-1.1,0.7c-0.4-0.3-0.7-0.5-1-0.7c-0.3-0.2-0.6-0.3-0.9-0.4
	C17,24.2,16.9,23.9,17.2,23.5"/>
<path fill="#FFFFFF" d="M54.1,16.9c0-0.4-0.5-0.8-1-0.8c-0.1,0-0.2,0-0.4,0c-0.1,0-0.2-0.1-0.2-0.3c0.3,0,0.6,0,0.8,0
	c0.3,0,0.4,0.1,0.7,0.3c-0.1-0.4-0.6-0.8-1.1-0.8c-0.1,0-0.2,0-0.3,0c-0.1,0-0.4,0-0.4-0.3c0.3-0.1,0.6-0.1,0.9-0.1
	c0.3,0,0.5,0,0.8,0.1c-0.1-0.4-0.6-0.7-1.1-0.6c-0.1,0-0.2,0-0.4,0.1c-0.1,0-0.3,0.1-0.4-0.2l0,0c0.3-0.1,0.6-0.2,0.8-0.2
	c0.3,0,0.5,0,0.8,0.1c-0.2-0.4-0.7-0.6-1.1-0.5c-0.1,0-0.2,0.1-0.4,0.1c-0.1,0-0.3,0.1-0.4-0.1c0.3-0.2,0.5-0.2,0.7-0.3
	c0.3-0.1,0.5-0.1,0.8,0c-0.2-0.4-0.8-0.5-1.2-0.3c-0.1,0-0.2,0.1-0.4,0.2c-0.1,0-0.2,0-0.3-0.1c0,0,0,0,0,0c0.2-0.1,0.4-0.3,0.6-0.3
	c0.3-0.1,0.5-0.2,0.8-0.2c-0.3-0.3-0.8-0.3-1.3-0.1c0,0-0.1,0.1-0.2,0.1c-0.1,0.1-0.3,0.1-0.4-0.1c0.4-0.4,0.9-0.5,1.2-0.5
	c0,0-0.4-0.2-0.7-0.1c0-0.1,0-0.2-0.1-0.3c0,0.3-0.4,0.5-0.6,0.7c-0.4,0.3-0.8,0.6-1.4,0.7c-0.2,0.1-0.4,0-0.4-0.1
	c-0.1-0.1,0-0.3,0.2-0.3c0.4,0,0.7-0.3,1-0.6c0.1-0.1,0.2-0.2,0.4-0.2c-1.1-0.2-1.7-0.5-2.4,0.3c-0.1-0.4,0-0.6,0.2-0.7
	c0.2-0.2,0.5-0.2,0.7-0.4c0.4-0.2,0.5-0.7,0.3-1c-0.2,0.2-0.1,0.3-0.3,0.7c-0.2,0.3-0.4,0.3-0.5,0.2c0-0.1,0.2-0.4,0.2-0.5
	C49,10.2,49,10.2,49,10c0,0,0-0.5-0.1-0.5c-0.1,0.2-0.1,0.2-0.2,0.5c-0.1,0.2-0.4,1-0.7,0.8c0.1-0.2,0.1-0.3,0.2-0.5
	c0.1-0.2,0.1-0.4,0.1-0.6c0-0.1,0-0.3-0.1-0.4c-0.1,0.1-0.3,0.4-0.3,0.5c-0.1,0.4-0.2,0.4-0.3,0.9c-1.1-0.7-2.1-1.3-3-2
	c-1-0.7-1.9-1.4-3.1-1.9c0.4,0.5,0.9,0.8,1.4,1.2c0.2,0.2,0.4,0.3,0.5,0.3c0.3,0,0.4,0.1,0.4,0.2c0.2,0.1-0.1,0.1-0.3,0.1
	c0.2,0.1,0.3,0.3,0.4,0.3c0.6,0,0.5,0.1,0.6,0.1c0.3,0.2-0.2,0.1-0.3,0.2c0.1,0.2,0.3,0.3,0.4,0.3c0.2,0,0.5,0,0.6,0.1
	c0.3,0.2-0.1,0.1-0.3,0.2c0.2,0.2,0.3,0.4,0.6,0.4c0.3,0,0.4-0.1,0.6,0.1c0.4,0.2-0.3,0.2-0.6,0.2c0.2,0.2,0.4,0.3,0.5,0.3
	c0.3,0,0.6-0.1,0.8,0.1c0.2,0.2-0.1,0.2-0.6,0.2c0.1,0.3,0.1,0.5-0.3,0.8c-0.3,0.3-0.5,0.6-0.6,0.9c-0.1,0.8-0.6,1.4-1.1,1.9
	c-0.5,0.5-0.8,0.8-0.8,1.5c0,0.2,0.1,0.5,0.2,0.6c0.2,0.1,0.5,0,0.7-0.1c0.3-0.1,0.5-0.2,0.8-0.3c0.1-0.1,0.1,0,0.1,0.1
	c-0.1,0.3-0.1,0.7-0.2,1c0,0,0,0.2,0,0.2c0,0,0.1,0,0.1,0c0.4,0.2,1-0.2,1-0.6c0.1-0.4,0.7-1.1,1.1-1.2c0.8-0.1,1.5-0.4,2-1.1
	c0.1-0.1,0.1-0.2,0.1-0.3c0-0.1,0.1-0.1,0.1,0c0,0.1,0,0.3,0,0.4c-0.1,0.6-0.5,0.8-1,1.1c-0.1,0.1-0.4,0.2-0.4,0.4
	c-0.1,0.5-0.2,0.9-0.5,1.3c-0.2,0.3-0.6,0.7-0.9,0.8c0.1,0-0.1,0.5-0.1,0.5c0.2-0.1,0.4-0.1,0.5,0.1c0-0.4,0.9-0.7,0.9-0.7
	c-0.1,0.3,0,0.9-0.1,1.1c0.2,0,0.3,0,0.4,0.3c0-0.2,0.2-0.4,0.3-0.3c0.5,0.3,0.9,0.7,1.2,1c0.1,0.1,0.1,0.3-0.2,0.3
	c0.4,0.2,1.3-0.1,1.3-0.1s0.1,0.5-0.1,0.7c0.3,0.2,0.6,0.4,0.8,0.6c0.2,0.2,0.4,0.4,0.4,0.8c0.2-0.4-0.1-0.9-0.4-1.2
	c-0.2-0.1-0.4-0.3-0.2-0.6c0.2,0.2,0.4,0.3,0.6,0.5c0.2,0.2,0.4,0.4,0.5,0.7c0.2-0.4,0-0.9-0.4-1.2c-0.2-0.1-0.4-0.3-0.3-0.6
	c0,0,0,0,0,0c0.2,0.2,0.5,0.3,0.6,0.5c0.2,0.2,0.4,0.4,0.5,0.7c0.2-0.4-0.1-0.9-0.4-1.2c-0.2-0.1-0.4-0.3-0.3-0.6
	c0.2,0.2,0.5,0.3,0.6,0.4c0.2,0.2,0.4,0.4,0.5,0.7c0.2-0.4-0.1-0.8-0.5-1.1c-0.1-0.1-0.2-0.2-0.3-0.2c0,0-0.2-0.1-0.1-0.4
	c0.2,0.2,0.5,0.3,0.6,0.4c0.2,0.2,0.4,0.4,0.5,0.7c0.2-0.4-0.1-0.9-0.5-1.2c-0.1-0.1-0.2-0.1-0.3-0.2c-0.1-0.1-0.3-0.2-0.2-0.5
	c0.3,0.1,0.5,0.2,0.7,0.4c0.2,0.2,0.5,0.3,0.6,0.6c0.1-0.4-0.2-0.8-0.7-1c-0.1-0.1-0.2-0.1-0.3-0.2c-0.1-0.1-0.2-0.2-0.2-0.4
	c0.3,0.1,0.6,0.2,0.7,0.3c0.3,0.1,0.5,0.3,0.7,0.5c0.1-0.4-0.4-0.8-0.8-0.9c-0.1,0-0.2-0.1-0.3-0.1c-0.1-0.1-0.2-0.2-0.2-0.4
	c0.3,0.1,0.6,0.1,0.8,0.2c0.3,0.1,0.4,0.2,0.7,0.4c0-0.4-0.4-0.7-0.9-0.8c-0.1,0-0.2,0-0.3-0.1c-0.1,0-0.3-0.2-0.3-0.4
	c0.3,0,0.6,0,0.8,0.1C53.6,16.7,53.8,16.8,54.1,16.9 M45.8,13.9c-0.1-0.1-0.5,0.4-0.5,0.2c0.2-0.4,0.3-0.8,0.5-1.1
	c0.1-0.1,0.2-0.2,0.4-0.3c0.1,0-0.1,0.4,0.1,0.4c0.3,0.2,0.6,0.5,0.9,0.7C46.8,14.2,46,14.1,45.8,13.9 M49,12.4
	c-0.1,0.1-0.2,0.1-0.3,0.1c-0.1-0.1,0-0.2,0-0.3c0.2-0.2,0.5-0.3,1-0.2C50.2,12.1,49.4,11.9,49,12.4"/>
<path fill="#FFFFFF" d="M50.2,11.3c0.2,0,0.4-0.1,0.4-0.2c0.1-0.1,0.1-0.4,0-0.4c0,0-0.1,0-0.2,0.1c-0.1,0.2-0.1,0.3-0.1,0.4
	C50.4,11.2,50.2,11.3,50.2,11.3"/>
<path fill="#FFFFFF" d="M51.2,11c0,0,0,0.2,0,0.3c-0.1,0.1-0.2,0.1-0.3,0.1c0.2-0.1,0.1-0.2,0.2-0.3C51,11,51.1,10.9,51.2,11"/>
<path fill="#FFFFFF" d="M49.6,11.2c0.2,0,0.4-0.1,0.5-0.3c0.1-0.2,0-0.5,0-0.6c0,0-0.1-0.1-0.2,0.1c-0.1,0.2-0.1,0.4-0.1,0.5
	C49.8,11.1,49.6,11.2,49.6,11.2"/>
<polygon fill="#FFFFFF" points="26.7,44.5 26.7,44.5 26.7,44.5 26.7,44.5 26.7,44.5 "/>
<path fill="#FFFFFF" d="M26.7,44.5C26.7,44.5,26.7,44.5,26.7,44.5C26.7,44.5,26.7,44.5,26.7,44.5S26.7,44.5,26.7,44.5"/>
<path fill="#FFFFFF" d="M21.3,56.9c0.2,0.1,0.5,0.2,0.7,0.3c0.1,0.1,0.3,0.1,0.4,0.2c1.5,0.6,3,1,4.6,1.2c1.5,0.2,3.1,0.3,4.6,0.2
	c1.4-0.1,2.6-0.5,4-0.9c0.6-0.2,1.1-0.4,1.6-0.7c0.3-0.1,0.5-0.3,0.8-0.5c0.1,0.2,0.1,0.4-0.2,0.6c-0.3,0.2-0.4,0.3-0.7,0.4
	c-0.7,0.3-1.4,0.6-2.1,0.8c-0.7,0.2-1.2,0.3-1.8,0.4c-0.7,0.1-1.2,0.2-2.1,0.2c-1.2,0.1-2.4,0-3.6-0.1c-1.1-0.1-2.2-0.4-3.3-0.7
	c-0.5-0.1-1.1-0.4-1.6-0.5c-0.4-0.2-0.6-0.3-1.1-0.5c-0.1-0.1-0.2-0.1-0.3-0.2C21.2,57.1,21.2,57,21.3,56.9"/>
<path fill="#FFFFFF" d="M39.4,58.2c-0.2,0.1-0.4,0.3-0.6,0.4c-0.9,0.5-1.8,0.9-2.7,1.2c-0.5,0.2-1,0.3-1.5,0.4
	c-1,0.3-1.5,0.4-2.9,0.5c-0.5,0.1-1.3-0.1-2.1-0.3c1.8,0,3.3-0.2,4.2-0.4c1.3-0.3,2.6-0.7,3.8-1.3c0.4-0.2,0.8-0.5,1.1-0.7
	C38.9,57.8,39.3,58,39.4,58.2"/>
<path fill="#FFFFFF" d="M21,58.9c-0.6-0.4-1-1-1-1.1c0.4,0.1,0.8,0.4,1.3,0.8c0.5,0.3,0.7,0.4,1.3,0.6c0.7,0.3,1.3,0.4,2,0.6
	c1,0.3,1,0.2,2,0.5c0.5,0.1,1.1,0.2,2.1,0.2c-1.2,0.2-2.2,0.1-3.1-0.1c-0.6-0.1-1.6-0.3-2.4-0.5C21.9,59.4,21.5,59.2,21,58.9"/>
<path fill="#FFFFFF" d="M42.2,56.6c-1.9,2.6-3.9,3.4-5.9,3.9c-1.2,0.3-2.8,0.5-3.3,0.5c1.4-0.3,2.8-0.6,3.8-1.1
	c1-0.4,1.6-0.7,2.5-1.3c0.1-0.1,0.2-0.2,0.3-0.1C40.2,58.6,41.7,57.2,42.2,56.6"/>
<path fill="#FFFFFF" d="M26.9,61.3c-0.3,0-1.2-0.3-1.3-0.5c1.2,0.3,2.4,0.3,3.5,0.3c0.2,0,0.7,0,0.9,0c0.4,0,1.1,0.2,1.4,0.3
	c-0.4,0.1-1.8,0.2-2.3,0.1C29.1,61.5,27.9,61.4,26.9,61.3"/>
<path fill="#FFFFFF" d="M37.8,56.3c-0.9,0.5-1.5,0.8-2.4,1.2c-0.1,0.1-0.3,0.1-0.5,0.1c-0.2-0.1-0.2-0.2-0.2-0.4
	c0.2-0.1,0.4-0.1,0.6-0.2c0.8-0.3,1.3-0.5,2.1-0.8c0.1,0,0.4-0.2,0.6-0.3C38,56.1,37.9,56.2,37.8,56.3"/>
<path fill="#FFFFFF" d="M37.9,55.5c-0.1,0.1-0.5,0.3-0.7,0.3c-0.6,0.3-0.7,0.3-1.3,0.6c-0.2,0.1-1.1,0.4-1,0
	c1.1-0.4,2.1-0.8,3.1-1.3C38.1,55.2,38.1,55.4,37.9,55.5"/>
<path fill="#FFFFFF" d="M40.3,52.8c0.9-0.2,2.2-0.2,3.1-0.2c0,0.3,0,0.5,0,0.7c-0.9-0.1-2.2-0.3-3.1-0.4
	C40.2,52.9,40.3,52.8,40.3,52.8"/>
<path fill="#FFFFFF" d="M42,54.4c0.6,0.1,1.1,0,0.8,0.6c0,0.1-0.2,0.4-0.2,0.5c-0.1,0.4-0.4,0.4-0.8,0.4C41.9,55.3,42,54.8,42,54.4"
	/>
<path fill="#FFFFFF" d="M37.4,54.6c0,0.2-0.3,0.3-0.8,0.5c-0.3,0.1-0.7,0.3-0.9,0.4c-0.2,0-0.4,0.1-0.5-0.1
	C36.1,55.1,36.6,54.9,37.4,54.6C37.4,54.5,37.4,54.6,37.4,54.6"/>
<path fill="#FFFFFF" d="M39,56c1.1,0.1,2,0.3,2.9,0.4c0,0.1,0,0.2-0.2,0.2c-0.5-0.1-1.2-0.1-1.6-0.2c-0.3,0-0.6-0.1-0.8-0.1
	C39.1,56.2,39,56.1,39,56"/>
<path fill="#FFFFFF" d="M39.9,53.4c0.2,0,0.4,0,0.6,0c0.7,0.1,2.1,0.2,2.8,0.3c-0.1,0.1-0.1,0.1-0.1,0.3c-1-0.1-2.3-0.3-3.3-0.5
	C39.8,53.5,39.8,53.4,39.9,53.4"/>
<path fill="#FFFFFF" d="M41.2,54.9c-0.2-0.2-0.3-0.3,0-0.6c-0.6-0.1-1-0.2-1.5-0.2c-0.4-0.1-0.6,0-0.6,0.4c0,0.3-0.1,0.6-0.1,1
	c0.2,0,0.3,0,0.4,0.1c0-0.3,0-0.6,0-0.9c0-0.2,0-0.4,0.3-0.4c0.4,0.1,0.4,0.5,0.4,0.8c0,0.1,0,0.2,0,0.3c0,0.1,0.1,0.2,0.2,0.2
	c0.3,0.1,0.5,0.1,0.8,0.1C40.7,55.3,41,55.1,41.2,54.9"/>
<path fill="#FFFFFF" d="M28.2,57.5c-0.7-0.1-1.4-0.3-2.2-0.4c0-0.3,0.7-0.2,1.2-0.1C27.7,57.2,28.2,57.3,28.2,57.5"/>
<path fill="#FFFFFF" d="M24.6,57.6c-0.6-0.1-1.3-0.4-1.8-0.6C22.8,56.6,24.7,57.2,24.6,57.6"/>
<path fill="#FFFFFF" d="M26.4,57.7c0.6,0.1,1.2,0.2,1.7,0.3c0,0.3-0.6,0.2-1,0.1C26.8,58.1,26.3,58,26.4,57.7"/>
<path fill="#FFFFFF" d="M24.4,56.4c-0.2,0.3-0.6,0.2-0.9,0.1c-0.1,0-0.4-0.1-0.4-0.3c0-0.1,0.2-0.1,0.2-0.1c0.2,0,0.3,0.1,0.5,0.2
	C24,56.4,24.2,56.4,24.4,56.4"/>
<path fill="#FFFFFF" d="M41,57.2c-0.3-0.1-0.6-0.1-0.9-0.1C40,57.1,40,57,40,56.9c0.3,0,0.8,0.1,1.1,0.2
	C41.1,57.2,41.1,57.2,41,57.2"/>
<path fill="#FFFFFF" d="M44.2,51.7h-1.7c-0.2,0-0.2-0.2-0.2-0.3c0-0.6,0-3.7,0-4h-0.2c0,0.2,0,0.5,0,0.8c0,0.2-1.2,1.1-1.7,0.8
	c-0.2-0.1-0.2-0.3-0.2-0.5c0-0.4-0.2-0.7-0.5-0.8c-0.5-0.2-1.6,0.4-1.9,0.8c-0.3,0.4-0.3,3.8-0.1,4.6c0,0-0.1,0-0.1,0
	c-0.2,0-0.3-0.3-0.5-0.6c0,0-0.9-1.2-0.9-1.3c-0.3-0.4-0.7-1-1-1.5c-0.3-0.5,0.1-0.5,0.5-0.7c0.4-0.2,0.6-0.4,1-0.4
	c0.5,0,0.4-0.2,0.2-0.2c-0.4,0-0.5-0.2-0.6-0.4c-0.2-0.5-0.7-1.4-0.9-1.8c0,0-0.2-0.3-0.3-0.6c-0.3-0.7-0.7-1.5-1-2.2
	c-0.2-0.5-0.5-0.9-0.4-1.4c0-0.2,0-0.6,0-0.8c-0.7-0.2-0.8-0.1-1.2,0.3c-0.2,0.2-0.8,0.2-0.9,0.1c0.1,0.3,0.5,0.4,0.6,0.5
	c0.5,0.2,0.7,0,1.1-0.1c0.1,0,0.3-0.1,0.3,0.1c0,0.1,0,0.2,0,0.3c0,0.8-0.3,1.5-0.5,2.2c-0.2,0.7-0.6,1.4-1,2.1
	c-0.1,0.2-0.1,0.4-0.3,0.2c-0.2-0.3-1.8-2.8-1.9-3.2c0-0.2,0.2-0.2,0.5-0.3c0.6-0.2,0.6-0.7,1.1-0.9c0.1-0.1,0.1-0.2-0.2-0.2
	c-0.5,0.1-0.8-0.4-1-0.7c-0.3-0.5-0.6-1-0.9-1.6c-0.1-0.1-0.1-0.3-0.1-0.5c0-0.2,0-0.2,0-0.5c-0.2,0.2-0.7,0.2-0.9,0.4
	c-0.3,0.3-0.3,1.2-1.1,0.5c0.1,0.1,0.2,0.6,0.8,0.6c0.3,0,0.5-0.1,0.8-0.4c0.2-0.2,0.3-0.2,0.2-0.1c0,0-0.4,1.1-0.6,1.5
	c-0.2,0.5-0.4,1-0.7,1.3c-0.1,0.1-0.1,0.2-0.3,0.3c-0.1,0-0.3,0-0.3,0.1c0,0.1,0,0,0.2,0.1c0.5,0.1,0.2,0.4-0.1,0.7
	c0,0-0.7,0.5-0.7,0.5c-0.3,0.3-0.5,0.3-0.8,0c-0.4-0.5-0.8-1.1-1.1-1.7c-0.3-0.5-0.4-1-0.4-1.7c0-0.4,0-0.6,0-1
	c-0.5,0.1-0.8,0.4-1.1,0.6c-0.3,0.3-0.4,0.7-0.9,0.8c0.3,0.3,0.8,0.1,1.3-0.3c0.2-0.1,0.4-0.2,0.4,0.2c0,0.2,0,0.3,0,0.4
	c0,0.2,0,0.3-0.1,0.4c-0.2,0.5-0.4,0.9-0.6,1.4c-0.2,0.4-0.3,0.9-0.6,1.1c-0.1,0.1-0.3,0.2-0.4,0.2c-0.4,0-0.3,0.2-0.2,0.2
	c0.4,0.1,0.7,0.2,1,0.3c0.4,0.1,0.6,0.6,0.4,0.9c0,0.1-0.1,0.1-0.1,0.2c-0.1,0.1-0.7,0.8-1.4,1.4c-0.6,0.6-1.3,1.1-1.8,1.4
	c-0.6,0.4-2.3,1.2-2.8,1.6c-0.5,0.3-1,0.7-1.4,0.7c-0.1,0-0.2-0.1-0.2-0.4c0-0.7,0.1-2.2,0-3.9c-0.4,0-0.3,0.4-0.7,0.4
	c-0.3,0-0.4,0.1-0.4,0.2c0,0.4,0,0.7,0,0.9c0.1,0,0.2-0.1,0.3-0.1c0.4-0.3,0.4-0.2,0.7-0.2c0,0.5,0,2.2,0,2.7c0,0.1,0,0.3-0.3,0.3
	h-1.4c-0.1,0-0.1,0.2,0.1,0.2c0.1,0,0.3,0,0.5,0c0.2,0,0.4,0.2,0.4,0.2c0.8,0.9,2.4,2.3,2.8,2.6c0.2,0.2,0.5,0.4,0.7,0.7
	c0.2,0.3,1,1.5,1.2,1.7h0l0,0c0.4,0.2,0.8,0.4,1.2,0.6c0.6,0.3,1.3,0.6,1.9,0.9c0.6,0.2,1.1,0.4,1.6,0.5c0.7,0.2,1.6,0.4,2.3,0.6
	c0.9,0.1,1.4,0.2,2.1,0.2c1,0,2,0,2.9-0.1c0.8-0.1,1.6-0.2,2.4-0.4c0.5-0.1,1-0.2,1.6-0.4c0.5-0.2,0.9-0.4,1.3-0.6
	c0.4-0.2,1.2-0.7,1.6-0.9c-0.1-0.2-0.4-0.2-0.6-0.1c-0.4,0.3-0.5,0.4-1.3,0.7c-0.7,0.3-1.3,0.6-2,0.8c-1,0.3-1.9,0.4-3.2,0.6
	c-1.3,0.1-2.6,0.1-3.8,0c-1.4-0.2-2.2-0.4-3.5-0.8c-0.6-0.1-1.1-0.3-1.7-0.5c-0.6-0.2-1.3-0.6-1.6-0.9c-0.5-0.4-0.7-0.9-0.6-2.1
	c0-0.3,0.1-0.5,0.3-0.4c0.1,0,0.2,0.1,0.3,0.1c0.4,0.1,0.9,0.3,1.2,0.4c1.1,0.4,2.2,0.7,3.3,0.9c0.3,0.1,0.8,0.1,1.3,0.2
	c0-0.1,0.1-0.2,0-0.3c-0.1-0.1-0.4-0.1-0.3-0.3c0-0.1,0.3-0.1,0.4-0.1c0.3,0,0.5,0,0.8,0.1c0.1,0,0,0.5,0,0.7c0.4,0,0.9,0,1.3,0
	c0.2,0,0.5,0,0.5,0.1c0,0.1,0,0.1-0.7,0.1c-0.1,0-0.1,0.1,0,0.1c0.1,0,0.3,0.1,0.4,0.1c0.2,0.2,0.2,0.4,0.2,0.7
	c0,0.5,0.3,0.4,0.6,0.5c0.8,0,1.4,0,1.9-0.1c0.2,0,0.3-0.2,0.3-0.4c-0.6,0-2,0.2-2,0.1c-0.1,0-0.1-0.1-0.1-0.2
	c0-0.1,0.1-0.1,0.4-0.1c0.4,0,0.7,0,1.1-0.1c0.3,0,0.4-0.1,0.4-0.3c-0.6,0-1.2,0-1.9,0c-0.1,0,0-0.4,0.2-0.4c1.4,0,1.5-0.2,2.2-0.2
	c0.2,0,0.5,0.1,0.5,0.4c0,0.8,0.3,0.7,0.5,0.7c0,0,0.4,0,0.4-0.5c0-0.3-0.2-0.7,0-0.9c0.2-0.2,0.6-0.3,0.9-0.5
	c0.3-0.1,0.2-0.2,0.1-0.4c-0.1-0.2,0-0.4,0.2-0.4c0.5-0.2,0.9-0.3,1.4-0.5c0.2-0.1,0.5-0.2,0.7-0.3c0.4-0.2,0.4-0.4,0.7,0.1
	c0,0,0,0.1,0.1,0.2c0.2-0.1,0.5-0.2,0.5-0.4c0.1-0.6,0.4-0.9,0.7-1.3c0.3-0.4,0.7-0.9,1.2-0.9c0.2,0,3.5,0,3.8,0
	C44.2,52,44.4,51.7,44.2,51.7 M28.9,48.2c-0.2,0-0.3,0.1-0.2-0.5c0.1-0.8,0.2-3.3,0.2-3.6c0-0.4,0.1-0.4,0.1,0.2c0,0.1,0,2.8,0,3.4
	C29.1,47.8,29.2,48.2,28.9,48.2 M27.6,47.4c-0.1-0.1-0.1-0.2,0-0.5c0.1-0.1,0.9-2.8,1-3c0.1-0.2,0.2-0.4,0.1,0.1
	c0,0.1-0.2,3.1-0.2,3.4c0,0.1,0,0.6-0.1,0.5C28.2,47.9,27.7,47.5,27.6,47.4 M28.1,48.5c-0.5,0.1-0.8,0.2-1.2,0.3
	c-0.2,0.1-0.2,0-0.1-0.2c0.2-0.3,0.2-0.5,0.4-0.9c0-0.1,0.1-0.2,0.2-0.1c0.3,0.2,0.5,0.4,0.7,0.6C28.2,48.4,28.2,48.5,28.1,48.5
	 M28.1,42.8c0.3-0.6,0.5-1.3,0.8-1.9c0.1-0.3,0.2-0.1,0.2,0c0,0.3,0,1.5,0,1.6c0,0.1-0.1,0.2-0.2,0.3c-0.2,0.1-0.4,0.2-0.7,0.2
	C28.1,43,28,42.9,28.1,42.8 M26.8,45.1c0.2-0.1,0-0.1-0.3-0.2c-0.1,0,0-0.1,0-0.1c0.1-0.1,0.9-0.8,1-0.9c0.1-0.1,0.5-0.4,0.7-0.3
	c0.2,0,0.1,0.2,0.1,0.3s-0.8,2.6-1,3.1c-0.1,0.1-0.1,0.1-0.2,0.1c-0.4-0.4-0.7-0.8-1-1.4C26,45.4,26.3,45.3,26.8,45.1 M25.5,45.8
	c0.3-0.2,0.4,0,0.5,0.2c0.4,0.4,0.7,0.9,1.1,1.3c0.1,0.1,0.1,0.2,0.1,0.3c-0.2,0.5-0.4,0.8-0.6,1.2c-0.1,0.2-0.3,0.1-0.4-0.1
	c-0.3-0.5-1-2-1-2.2c0-0.1,0-0.2,0-0.3C25.1,46.2,25.3,45.9,25.5,45.8 M26.3,49.8c0.1,0.2,0.2,0.3-0.1,0.3c-0.2,0-0.6,0-0.8,0
	c-0.2,0-0.3-0.1-0.3-0.4c0-0.1-0.3-2.2-0.4-2.7c0-0.2,0.1-0.2,0.2,0C25.2,47.7,26.1,49.5,26.3,49.8 M24,50.5c-0.1,0-0.2,0.1-0.3,0
	c-0.1,0,0-0.2,0.1-0.3c0.1-0.1,0,0,0.1-0.2c0.1-0.1,0.1,0,0.1,0.1C24,50.3,24.1,50.5,24,50.5 M23.4,50.5c-0.1,0.1-0.2,0.1-0.2,0.1
	c-0.5,0-0.8,0.1-1.1,0c-0.2,0-0.3-0.1-0.1-0.4c0-0.1,0.2-0.3,0.3-0.5c0.1-0.1,0.2-0.3,0.3-0.5c0,0,0-0.1,0.1-0.1
	c0.1,0,0.2,0,0.3,0.1c0.2,0.1,0.4,0.1,0.8,0.3c0.2,0.1,0,0.3-0.1,0.5C23.6,50.2,23.5,50.4,23.4,50.5 M24,47.4c0,0.3,0,1,0,1.2v0.5
	c0,0.1,0,0.2-0.1,0.2c-0.1,0-0.2,0-0.3-0.1c-0.2-0.1-0.4-0.1-0.6-0.2c-0.2-0.1,0-0.3,0-0.4c0.2-0.5,0.3-0.8,0.6-1.3
	c0.1-0.1,0.1-0.5,0.3-0.4C24,47.1,24,47.3,24,47.4 M23.4,45c-0.4,0-0.3-0.2-0.3-0.3c0.2-0.5,0.4-1,0.6-1.6c0-0.1,0.1-0.2,0.1,0
	c0,0.3,0,1.4,0,1.5C23.9,45,23.7,44.9,23.4,45 M18,54.6c-0.4-0.4-1.4-1.2-2-1.8c-0.1-0.1-0.6-0.6-0.6-0.8c0.1-0.2,0.3-0.1,0.7-0.1
	c0.7,0,0.2,0,0.7,0c0.6,0,0.8,0.3,0.9,0.5c0,0,0,0.1,0.1,0.1c0.2,0.2,0.3,0.5,0.5,1C18.4,53.8,19,55.5,18,54.6 M19.8,56.2
	c-0.1,0.1-0.3-0.2-0.4-0.3c-0.2-0.2-0.3-0.5-0.4-0.9c-0.2-0.7-0.4-1.6,0-1.3c0.3,0.2,0.3,0.2,0.5,0.3c0.2,0.2,0.2,0.6,0.2,0.6
	c0.1,0.5,0.1,0.7,0.1,1.2C19.9,56,19.9,56.1,19.8,56.2 M19.7,53.6c-0.3-0.1-0.6-0.3-1.1-0.8c-0.3-0.3-0.9-0.9-0.6-0.9
	c0.9,0,1.2,0,1.8,0c0.4,0,0.4,0.1,0.4,0.4c0.1,0.3,0,0.7,0,1C20.2,53.7,20,53.7,19.7,53.6 M21.1,54.1c-0.1,0-0.3-0.1-0.5-0.2
	c-0.2-0.1-0.2-0.3-0.2-0.4c-0.1-0.6-0.1-0.9-0.1-1.5c0-0.2-0.1-0.3-0.3-0.3c-0.7,0-1.2,0-2,0c-0.3,0-1.1,0-1.4,0
	c-0.1,0,0.4-0.4,0.4-0.4c0.7-0.4,2.6-1.4,3.1-1.8c0.6-0.4,1.3-1,1.9-1.5c0.5-0.5,0.9-0.9,1.1-1.1c0.2-0.3,0.3,0,0.2,0.1
	c-0.1,0.3-0.1,0.3-0.2,0.5c-0.1,0.3-0.3,0.6-0.5,0.9c-0.3,0.7-1.2,2.1-1.3,2.1c0,0.1-0.4,0-0.2,0.3c0.1,0.1,0.5,0.1,0.6,0.1
	c0.4,0.1,1,0.2,1.1,0.4c0,0.2-0.2,0.6-0.2,0.6s-0.8,1.6-1.1,2.1C21.7,54.3,21.7,54.3,21.1,54.1 M22.1,54.4c-0.2-0.1,0-0.2,0-0.3
	c0.1-0.2,0.2-0.4,0.3-0.6l0.8-1.6c0.1-0.2,0.1-0.3,0.3-0.3c0.3,0.1,0.3,0.2,0.2,0.5c-0.1,0.3-0.3,0.7-0.4,1L22.9,54
	c-0.1,0.1-0.1,0.2-0.2,0.3C22.6,54.6,22.2,54.4,22.1,54.4 M22.8,54.5c0-0.1,0.1-0.4,0.2-0.6l0,0l0.3-0.7c0-0.1,0.3-0.5,0.3-0.7
	c0-0.1,0.1-0.3,0.1-0.3c0.2-0.4,0.2,0.1,0.2,0.2c0,0-0.4,1.6-0.6,1.9c-0.1,0.1-0.1,0.4-0.2,0.4C23.1,54.6,22.9,54.6,22.8,54.5
	 M23.1,55.6c-0.3-0.1-0.3-0.4-0.1-0.6c0.3,0.1,0.6,0.2,0.9,0.3C23.7,55.6,23.5,55.8,23.1,55.6 M24.1,54.6c0,0.2,0,0.4-0.1,0.4
	c-0.1,0-0.2-0.1-0.4-0.1c-0.1-0.1-0.1-0.1-0.1-0.2c0.2-0.4,0.3-0.9,0.4-1.3c0-0.1,0.1-0.3,0.1-0.4c0.1-0.2,0.1,0.1,0.1,0.3
	C24.1,53.6,24.1,54.3,24.1,54.6 M24.2,44.4c0-0.4,0-0.9,0-1.3v-0.2c0-0.2,0-0.1,0.1,0c0.1,0.2,0.4,0.7,0.6,0.9
	c0.2,0.3,0.3,0.5,0.5,0.8c0.1,0.2,0,0.3-0.2,0.3c-0.1,0-0.1,0-0.2,0C24.3,44.9,24.3,45,24.2,44.4 M24.4,47.6c0,0,0-0.6,0-0.7
	c0-0.1,0.2-0.1,0.2,0c0,0.1,0.3,1.6,0.3,2.1c0,0.1,0,0.2-0.1,0.2c-0.1,0-0.1,0-0.2,0c-0.2,0-0.2-0.3-0.2-0.6
	C24.4,48.4,24.4,48,24.4,47.6 M24.5,49.9c0-0.3,0-0.4,0.1-0.4c0,0,0.1,0,0.2-0.1c0,0,0.1,0,0.2,0.1c0,0.1,0.1,0.3,0.1,0.4
	c0,0.2,0,0.2-0.2,0.3C24.7,50.3,24.5,50.4,24.5,49.9 M25.2,55.3c-0.1,0-0.2,0-0.2,0c-0.1,0-0.2,0-0.3-0.1c0-0.1,0-0.4,0-0.5
	c0-0.9-0.1-1.7-0.1-2.5c0-0.1,0-0.4,0-0.5c0-0.1,0.1-0.1,0.1-0.1c0.2,0,0.2,0.4,0.2,0.6c0.1,0.4,0.3,2.9,0.3,3
	C25.4,55.3,25.4,55.3,25.2,55.3 M26,55.4c-0.1,0-0.3,0-0.4-0.1c0,0,0,0,0-0.1c0-0.1,0-0.1,0-0.2c0-0.2-0.4-2.8-0.4-3.5
	c0-0.1,0.1-0.1,0.1,0c0.1,0.4,0.8,3.4,0.9,3.8C26.1,55.4,26,55.4,26,55.4 M26.6,55.5c-0.1,0-0.1,0-0.2-0.1c-0.1,0-0.1-0.1-0.1-0.2
	c-0.2-1-0.8-3.1-0.9-3.6c-0.1-0.3-0.2-0.5,0.1-0.6c0.4-0.2,0.9-0.4,1.3-0.6c0.1,0,0.2-0.1,0.2-0.2c0-0.2-0.2-0.1-0.2-0.1
	c-0.1-0.2-0.3-0.5-0.4-0.7c-0.1-0.1,0-0.1,0-0.1c0.6,0,1.2,0,1.7,0c0.3,0,0.3,0.3,0.3,0.5c-0.2,0.6-1.3,4.6-1.5,4.9
	C26.9,55,26.7,55.5,26.6,55.5 M27.6,55.3c0,0.1-0.1,0.2-0.2,0.2c-0.2,0-0.5,0-0.5-0.1c0-0.1,0-0.2,0.1-0.4c0.1-0.3,1.5-5,1.6-5.3
	c0-0.1,0.1-0.5,0.3-0.5c0.3,0,0.2,0.3,0.2,0.4c0,0.3-0.2,0.8-0.2,1.1c-0.2,1-0.5,1.9-0.7,2.8c-0.1,0.4-0.2,0.7-0.3,1.1
	C27.8,54.9,27.7,55.2,27.6,55.3 M29.1,55.4c0,0.2-0.1,0.3-0.2,0.3c0,0-0.8,0-0.9-0.1c-0.1-0.1-0.1-0.3-0.1-0.5
	c0-0.1,0.1-0.3,0.1-0.5c0.2-0.7,0.8-3.1,0.9-3.6c0-0.1,0.1-0.1,0.1,0.2c0,0.3,0,0.6,0,0.9c0,0.8,0,1.7,0,2.5
	C29.1,54.8,29.1,55.1,29.1,55.4 M33.5,53.7c0,0.4,0,0.7,0,1.1c0,0.4-0.1,0.5-0.4,0.6c-0.2,0-0.5,0.2-0.6,0.1c-0.1-0.1-0.1-0.2,0-0.4
	c0.1-0.7,0.8-4.1,0.8-4.7c0-0.1,0.1-0.3,0.1-0.2C33.5,50.7,33.5,53,33.5,53.7 M30.9,49c0.1,0,0.3,0,0.3,0c0.4,0.1,0.8,0.2,1.2,0.4
	c0.2,0.1,0.4,0.1,0.4,0.5c-0.2,0.9-0.5,1.7-0.7,2.5c0,0.1-0.1,0.3-0.1,0.5c0,0.1-0.1,0.3-0.2-0.1c-0.2-0.6-1.1-3.5-1.1-3.7
	c-0.1-0.3-0.1-0.5,0.3-0.7c0.1-0.1,0.1,0,0.2-0.1c0,0-0.1,0.3-0.2,0.4c0,0,0,0,0,0C30.7,48.9,30.8,49,30.9,49 M33.2,49.8
	c0.1-0.3,0.2-0.2,0.1,0.1c-0.1,0.4-0.9,4.8-1,5.4c-0.1,0.2-0.4,0.3-0.7,0.4c-0.1,0-0.1,0-0.1-0.2C31.9,53.9,32.7,51.3,33.2,49.8
	 M33.4,44.2c0,0.2,0.1,3,0.1,3.5c0,0.2-0.3,0.4-0.4,0.6c-0.1,0.1-0.4,0-0.4-0.2c0,0,0.7-3.8,0.7-4.1C33.4,43.9,33.4,43.9,33.4,44.2
	 M31.8,47.6c0.2-0.1,0.3-0.1,0.3-0.3c0-0.1-0.2,0-0.1-0.2l0.2-0.5c0.3-0.5,0.6-1.2,0.8-1.5C33,44.9,33,45,33,45.1
	c0,0.1-0.5,2.9-0.5,3c0,0.1-0.1,0.3-0.6,0.4c-0.2,0-0.4,0.1-0.6,0.2c-0.1,0,0-0.1,0-0.1S31.7,47.7,31.8,47.6 M29.8,44.4
	c0.1,0.1,1.2,1.9,1.8,2.8c0.1,0.2-0.1,0.3-0.2,0.3c-0.2,0.1-0.2,0.1-0.5,0.1c-0.3,0.1-0.4-0.1-0.5-0.4c-0.1-0.4-0.8-2.6-0.8-2.8
	C29.7,44.3,29.7,44.4,29.8,44.4 M29.3,42.2c0-0.4-0.1-0.8-0.1-1.1c0-0.4,0-0.5,0.1-0.4c0.4,0.6,0.7,1.1,1,1.6
	c0.1,0.3-0.1,0.2-0.2,0.3c-0.2,0-0.4,0-0.5,0C29.3,42.6,29.3,42.5,29.3,42.2 M29.5,47.9c0-0.7-0.1-1.8-0.1-2.6c0-0.9,0-0.8,0.2-0.3
	c0.2,0.5,0.5,1.9,0.7,2.3c0.1,0.2,0.2,0.5,0,0.5c-0.2,0.1-0.4,0.1-0.6,0.2C29.5,48.1,29.5,48.1,29.5,47.9 M30.8,55.7
	c-0.2,0-0.5,0-0.8,0c-0.2,0-0.2-0.2-0.2-0.4c0-0.3-0.1-2.2-0.1-2.9c0-0.6,0-1.1,0-1.7c0-0.1-0.1-0.8,0-0.8c0.1,0,0.2,0.7,0.3,0.7
	c0.2,0.6,0.3,1.3,0.5,2c0.2,0.9,0.4,1.8,0.6,2.7C31.1,55.6,31.1,55.7,30.8,55.7 M31.2,55.1c-0.2-0.6-1.4-5.3-1.4-5.7
	c0-0.1,0.1-0.3,0.4-0.4c0.2-0.1,0.3,0.2,0.3,0.3c0.3,0.9,0.6,1.8,0.9,2.8c0.1,0.5,0.3,0.9,0.4,1.4c0,0.2,0,0.2,0,0.4
	c0,0.1-0.3,1-0.3,1.1C31.3,55.1,31.2,55.2,31.2,55.1 M32.4,56.4c-0.6,0.1-0.9,0-1.1-0.4c0.7-0.1,1.3-0.3,2-0.4
	C33.3,56,33,56.3,32.4,56.4 M33.4,57.7c-0.2,0-0.2,0-0.3-0.2c0-0.2,0-0.3,0.3-0.3c0.2,0,0.2,0.1,0.2,0.3
	C33.6,57.6,33.5,57.7,33.4,57.7 M33.6,43.7c0-0.1,0-0.4,0.1-0.2c0.1,0.1,0.8,1.8,1,2.4c0.1,0.2,0.1,0.4-0.1,0.6
	c-0.3,0.3-0.5,0.6-0.7,0.8c-0.1,0.1-0.2,0.1-0.2-0.1C33.7,46.9,33.6,44.4,33.6,43.7 M33.8,48.1c0-0.1,0.1-0.3,0.2-0.5
	c0.3-0.4,0.6-0.8,1-1.2c0,0,0.1,0,0.1,0c0.2,0.5,0.4,0.9,0.6,1.4c0.1,0.3,0,0.6-0.4,0.6c-0.3,0-0.6,0-0.9,0
	C34,48.4,33.8,48.3,33.8,48.1 M34.2,54.5c-0.1,0-0.2,0-0.2-0.3c0-0.6-0.1-2.4-0.1-3c0,0,0.2,0.8,0.3,1.1c0.1,0.4,0.5,1.7,0.5,1.9
	C34.7,54.4,34.5,54.4,34.2,54.5 M35.6,53.9c-0.1,0.2-0.4,0.2-0.5,0.3c-0.2,0.1-0.3-0.1-0.4-0.7c-0.3-1-0.5-1.9-0.7-2.9
	c-0.1-0.2-0.1-0.4-0.1-0.7c0-0.2,0.1-0.2,0.2-0.1c0.1,0.2,1.4,3.4,1.5,3.6C35.6,53.7,35.7,53.8,35.6,53.9 M36.4,53.7
	c-0.4,0.1-0.5,0.2-0.6,0c-0.5-1.1-1.2-2.7-1.6-3.7c-0.2-0.5,0.1-0.5,0.2-0.4c0.3,0.6,2.3,3.4,2.4,3.5C37.1,53.4,36.7,53.6,36.4,53.7
	 M42.1,51.4c0,0.1,0,0.3-0.2,0.3h-1.3c-0.4,0-0.8,0.1-0.9,0.2c-0.4,0.2-0.7,0.4-1.3,0.7c-0.2,0.1-0.3,0.1-0.5,0.2
	c-0.1,0-0.2,0.1-0.3,0.2c0.4-0.9,1.1-1.7,1.7-1.8c0.3,0,0.6,0.3,0.8,0.2c0.4,0,0.8-0.3,1.1-0.6c0.4-0.4,0.8-0.4,0.9-0.3
	C42.1,50.7,42.1,51,42.1,51.4 M42.1,50c-0.4-0.2-1,0.2-1.5,0.6c-0.5,0.4-0.6,0.2-1.3,0c-0.7-0.3-1.6,0.8-1.6,0.8s-0.2-1.8,0.1-2.7
	c0.4-0.4,1.6-1.2,1.7-0.3c0.1,0.7,0.7,0.9,1,0.9c0.8,0.1,1.6-0.7,1.6-0.7S42.1,49.6,42.1,50"/>
</svg>
