<?xml version="1.0" encoding="utf-8"?>
<!-- Generator: Adobe Illustrator 18.1.1, SVG Export Plug-In . SVG Version: 6.00 Build 0)  -->
<!DOCTYPE svg PUBLIC "-//W3C//DTD SVG 1.1//EN" "http://www.w3.org/Graphics/SVG/1.1/DTD/svg11.dtd">
<svg version="1.1" id="Layer_1" xmlns="http://www.w3.org/2000/svg" xmlns:xlink="http://www.w3.org/1999/xlink" x="0px" y="0px"
	 viewBox="0 0 208.5 198.4" enable-background="new 0 0 208.5 198.4" xml:space="preserve">
<path fill="#FFFFFF" d="M13.3,82.2c4.6,0,8,1.2,10.5,3.5c2.4,2.3,3.7,5.8,3.7,10.6c0,2.5-0.3,4.7-0.8,6.6c-0.6,1.9-1.4,3.5-2.6,4.8
	c-1.1,1.3-2.6,2.3-4.4,3c-1.8,0.7-3.9,1-6.4,1H3.1V82.2H13.3L13.3,82.2z M13.6,108.4c0.4,0,1,0,1.7-0.1c0.7-0.1,1.4-0.2,2.1-0.5
	c0.8-0.3,1.5-0.6,2.2-1.1c0.7-0.5,1.4-1.2,2-2c0.6-0.8,1.1-1.9,1.4-3.2c0.4-1.3,0.6-2.8,0.6-4.6c0-1.8-0.2-3.3-0.5-4.7
	c-0.3-1.4-0.9-2.6-1.7-3.5c-0.8-1-1.8-1.7-3-2.2c-1.2-0.5-2.8-0.8-4.6-0.8H7.1v22.9H13.6L13.6,108.4z"/>
<path fill="#FFFFFF" d="M45.7,110.3c-1.6,1.2-3.6,1.8-6,1.8c-1.7,0-3.2-0.3-4.4-0.8c-1.3-0.6-2.3-1.3-3.2-2.3
	c-0.9-1-1.5-2.2-1.9-3.5c-0.4-1.4-0.7-2.9-0.7-4.5c0-1.6,0.3-3.1,0.8-4.5c0.5-1.3,1.2-2.5,2.1-3.5c0.9-1,2-1.8,3.2-2.3
	c1.2-0.6,2.6-0.8,4-0.8c1.9,0,3.5,0.4,4.7,1.2c1.2,0.8,2.3,1.8,3,3c0.8,1.2,1.3,2.5,1.6,4c0.3,1.4,0.4,2.8,0.3,4.1h-16
	c0,0.9,0.1,1.8,0.3,2.7c0.2,0.8,0.6,1.6,1.2,2.2c0.6,0.6,1.3,1.2,2.1,1.6c0.9,0.4,1.9,0.6,3,0.6c1.5,0,2.7-0.3,3.7-1
	c0.9-0.7,1.6-1.7,1.9-3.1h3.5C48.4,107.3,47.3,109.1,45.7,110.3L45.7,110.3z M44.9,96.6c-0.3-0.7-0.7-1.4-1.3-1.9
	c-0.5-0.5-1.2-1-1.9-1.3c-0.7-0.3-1.5-0.5-2.4-0.5c-0.9,0-1.7,0.1-2.4,0.5c-0.7,0.3-1.4,0.8-1.9,1.3c-0.5,0.5-0.9,1.2-1.2,1.9
	c-0.3,0.7-0.5,1.5-0.5,2.3h12.3C45.4,98.1,45.2,97.4,44.9,96.6L44.9,96.6z"/>
<path fill="#FFFFFF" d="M55.4,90.3v2.9h0.1c0.6-1.2,1.5-2,2.7-2.6c1.2-0.5,2.6-0.8,4.1-0.8c1.6,0,3.1,0.3,4.3,0.9
	c1.2,0.6,2.2,1.4,3,2.5c0.8,1,1.4,2.2,1.8,3.6s0.6,2.8,0.6,4.3c0,1.5-0.2,2.9-0.6,4.3s-1,2.5-1.8,3.5c-0.8,1-1.8,1.8-3,2.4
	c-1.2,0.6-2.6,0.9-4.3,0.9c-0.5,0-1.1,0-1.8-0.2c-0.7-0.1-1.3-0.3-1.9-0.5c-0.6-0.3-1.2-0.6-1.8-1c-0.6-0.4-1-1-1.4-1.6h-0.1v11
	h-3.5V90.3H55.4L55.4,90.3z M68,97.9c-0.3-1-0.7-1.8-1.2-2.5c-0.5-0.7-1.2-1.3-2.1-1.8c-0.8-0.4-1.8-0.7-3-0.7c-1.2,0-2.2,0.2-3,0.7
	c-0.8,0.5-1.5,1.1-2,1.8c-0.5,0.8-0.9,1.6-1.1,2.6c-0.2,1-0.4,1.9-0.4,2.9c0,1.1,0.1,2.1,0.4,3c0.2,1,0.6,1.8,1.2,2.6
	c0.5,0.7,1.2,1.3,2.1,1.8c0.9,0.5,1.9,0.7,3.1,0.7s2.2-0.2,3-0.7c0.8-0.5,1.5-1.1,2-1.9c0.5-0.8,0.9-1.7,1.1-2.6
	c0.2-1,0.3-2,0.3-3.1C68.4,99.8,68.3,98.9,68,97.9L68,97.9z"/>
<path fill="#FFFFFF" d="M91.7,112.1c-0.9,0-1.6-0.3-2.2-0.8c-0.5-0.5-0.8-1.3-0.8-2.5c-1,1.2-2.1,2-3.4,2.5
	c-1.3,0.5-2.7,0.8-4.2,0.8c-1,0-1.9-0.1-2.7-0.3c-0.9-0.2-1.6-0.6-2.2-1c-0.6-0.5-1.2-1.1-1.5-1.9c-0.4-0.8-0.6-1.7-0.6-2.7
	c0-1.2,0.2-2.2,0.6-3c0.4-0.8,1-1.4,1.6-1.9c0.7-0.5,1.4-0.8,2.3-1.1c0.9-0.3,1.8-0.5,2.7-0.6c1-0.2,1.9-0.3,2.8-0.4
	c0.9-0.1,1.6-0.2,2.3-0.4c0.7-0.2,1.2-0.4,1.6-0.8c0.4-0.3,0.6-0.8,0.6-1.5c0-0.8-0.1-1.4-0.4-1.9c-0.3-0.5-0.7-0.8-1.1-1.1
	c-0.5-0.2-1-0.4-1.5-0.5c-0.6-0.1-1.1-0.1-1.7-0.1c-1.5,0-2.7,0.3-3.7,0.8c-1,0.6-1.5,1.6-1.6,3.2H75c0.1-1.3,0.3-2.4,0.8-3.3
	c0.5-0.9,1.2-1.7,2-2.2c0.8-0.6,1.8-1,2.9-1.2c1.1-0.2,2.2-0.4,3.4-0.4c1,0,1.9,0.1,2.9,0.2c0.9,0.1,1.8,0.4,2.6,0.8
	c0.8,0.4,1.4,1,1.9,1.8c0.5,0.8,0.7,1.8,0.7,3v11c0,0.8,0,1.4,0.1,1.8c0.1,0.4,0.4,0.6,1,0.6c0.3,0,0.7-0.1,1.1-0.2v2.7
	C93.6,112,92.8,112.1,91.7,112.1L91.7,112.1z M86.8,101.4c-0.7,0.2-1.5,0.3-2.2,0.4c-0.8,0.1-1.6,0.2-2.4,0.3
	c-0.8,0.1-1.5,0.3-2.1,0.6c-0.6,0.3-1.1,0.7-1.6,1.2c-0.4,0.5-0.6,1.2-0.6,2.1c0,0.6,0.1,1.1,0.4,1.5c0.2,0.4,0.5,0.7,0.9,1
	c0.4,0.3,0.8,0.4,1.3,0.5c0.5,0.1,1,0.2,1.6,0.2c1.2,0,2.2-0.2,3-0.5c0.8-0.3,1.5-0.7,2-1.2c0.5-0.5,0.9-1,1.2-1.6
	c0.2-0.6,0.4-1.1,0.4-1.6v-3.6C88.1,101,87.5,101.2,86.8,101.4L86.8,101.4z"/>
<path fill="#FFFFFF" d="M99.7,90.3v4.5h0.1c0.9-1.7,1.9-3,3.1-3.8c1.2-0.8,2.8-1.2,4.7-1.1v3.7c-1.4,0-2.6,0.2-3.6,0.6
	c-1,0.4-1.8,1-2.4,1.7c-0.6,0.7-1.1,1.6-1.3,2.7c-0.3,1.1-0.4,2.3-0.4,3.7v9.5h-3.5V90.3H99.7L99.7,90.3z"/>
<path fill="#FFFFFF" d="M120,90.3v3.1h-4.3v13.3c0,0.4,0,0.7,0.1,1c0.1,0.3,0.2,0.4,0.4,0.6c0.2,0.1,0.5,0.2,0.8,0.3
	c0.4,0,0.8,0.1,1.4,0.1h1.6v3.1h-2.7c-0.9,0-1.7-0.1-2.3-0.2c-0.6-0.1-1.2-0.4-1.6-0.7c-0.4-0.3-0.7-0.8-0.9-1.4
	c-0.2-0.6-0.3-1.4-0.3-2.4V93.4h-3.6v-3.1h3.6v-6.4h3.5v6.4H120L120,90.3z"/>
<path fill="#FFFFFF" d="M126.2,90.3v3.1h0.1c1.6-2.4,3.9-3.6,6.9-3.6c1.3,0,2.5,0.3,3.6,0.8c1.1,0.5,1.8,1.5,2.3,2.8
	c0.7-1.1,1.6-2.1,2.8-2.7c1.2-0.6,2.5-0.9,3.9-0.9c1.1,0,2,0.1,2.9,0.3c0.9,0.2,1.6,0.6,2.2,1.1c0.6,0.5,1.1,1.1,1.4,1.9
	c0.3,0.8,0.5,1.7,0.5,2.8v15.7h-3.5v-14c0-0.7-0.1-1.3-0.2-1.8c-0.1-0.6-0.3-1.1-0.6-1.5c-0.3-0.4-0.7-0.8-1.3-1
	c-0.5-0.3-1.2-0.4-2.1-0.4c-1.7,0-3.1,0.5-4.1,1.5c-1,1-1.5,2.3-1.5,4v13.3h-3.5v-14c0-0.7-0.1-1.3-0.2-1.9
	c-0.1-0.6-0.3-1.1-0.6-1.5c-0.3-0.4-0.7-0.8-1.2-1c-0.5-0.2-1.2-0.4-2-0.4c-1,0-1.9,0.2-2.6,0.6c-0.7,0.4-1.3,0.9-1.8,1.5
	c-0.5,0.6-0.8,1.2-1,1.8c-0.2,0.6-0.3,1.1-0.3,1.5v13.3h-3.5V90.3H126.2L126.2,90.3z"/>
<path fill="#FFFFFF" d="M172.2,110.3c-1.6,1.2-3.6,1.8-6,1.8c-1.7,0-3.2-0.3-4.4-0.8c-1.2-0.6-2.3-1.3-3.2-2.3
	c-0.9-1-1.5-2.2-1.9-3.5c-0.4-1.4-0.7-2.9-0.7-4.5c0-1.6,0.2-3.1,0.7-4.5c0.5-1.3,1.2-2.5,2.1-3.5c0.9-1,1.9-1.8,3.2-2.3
	c1.2-0.6,2.6-0.8,4-0.8c1.9,0,3.5,0.4,4.7,1.2c1.3,0.8,2.3,1.8,3,3c0.8,1.2,1.3,2.5,1.6,4c0.3,1.4,0.4,2.8,0.4,4.1h-16
	c0,0.9,0.1,1.8,0.3,2.7c0.2,0.8,0.6,1.6,1.2,2.2c0.5,0.6,1.3,1.2,2.1,1.6c0.9,0.4,1.9,0.6,3,0.6c1.5,0,2.7-0.3,3.6-1
	c1-0.7,1.6-1.7,1.9-3.1h3.5C174.8,107.3,173.8,109.1,172.2,110.3L172.2,110.3z M171.3,96.6c-0.3-0.7-0.7-1.4-1.3-1.9
	c-0.5-0.5-1.2-1-1.9-1.3c-0.7-0.3-1.5-0.5-2.4-0.5c-0.9,0-1.7,0.1-2.5,0.5c-0.7,0.3-1.4,0.8-1.9,1.3c-0.5,0.5-0.9,1.2-1.2,1.9
	c-0.3,0.7-0.5,1.5-0.5,2.3h12.3C171.8,98.1,171.7,97.4,171.3,96.6L171.3,96.6z"/>
<path fill="#FFFFFF" d="M181.6,90.3v3.4h0.1c1.5-2.6,3.8-3.9,6.9-3.9c1.4,0,2.6,0.2,3.5,0.6c0.9,0.4,1.7,0.9,2.3,1.6
	c0.6,0.7,1,1.5,1.2,2.4c0.2,1,0.3,2,0.3,3.2v14.1h-3.5V97.2c0-1.3-0.4-2.4-1.2-3.1c-0.8-0.8-1.8-1.2-3.2-1.2c-1.1,0-2,0.2-2.8,0.5
	c-0.8,0.3-1.4,0.8-2,1.4c-0.5,0.6-0.9,1.3-1.2,2.1c-0.3,0.8-0.4,1.7-0.4,2.7v12.1h-3.5V90.3H181.6L181.6,90.3z"/>
<path fill="#FFFFFF" d="M208.5,90.3v3.1h-4.3v13.3c0,0.4,0,0.7,0.1,1c0.1,0.3,0.2,0.4,0.4,0.6c0.2,0.1,0.5,0.2,0.8,0.3
	c0.3,0,0.8,0.1,1.3,0.1h1.6v3.1h-2.7c-0.9,0-1.7-0.1-2.3-0.2c-0.6-0.1-1.2-0.4-1.6-0.7c-0.4-0.3-0.7-0.8-0.9-1.4
	c-0.2-0.6-0.3-1.4-0.3-2.4V93.4h-3.6v-3.1h3.6v-6.4h3.5v6.4H208.5L208.5,90.3z"/>
<path fill="#FFFFFF" d="M0.4,136.6v-3.1H4v-3.2c0-1.7,0.5-3.1,1.5-3.9c1-0.9,2.5-1.4,4.4-1.4c0.3,0,0.7,0,1.1,0.1
	c0.4,0.1,0.8,0.1,1.1,0.2v3.1c-0.3-0.1-0.6-0.2-1-0.2c-0.4,0-0.7-0.1-1-0.1c-0.9,0-1.5,0.2-2,0.5c-0.5,0.3-0.7,1-0.7,1.9v3h4.1v3.1
	H7.5v18.2H4v-18.2H0.4L0.4,136.6z"/>
<path fill="#FFFFFF" d="M13.3,139.8c0.4-1.4,1.1-2.6,2-3.5c0.9-1,2-1.8,3.3-2.4c1.3-0.6,2.8-0.9,4.5-0.9c1.7,0,3.2,0.3,4.5,0.9
	c1.3,0.6,2.4,1.4,3.2,2.4c0.9,1,1.5,2.2,2,3.5c0.4,1.4,0.7,2.8,0.7,4.4c0,1.6-0.2,3-0.7,4.4c-0.4,1.3-1.1,2.5-2,3.5
	c-0.9,1-2,1.8-3.2,2.3c-1.3,0.6-2.8,0.8-4.5,0.8c-1.7,0-3.2-0.3-4.5-0.8c-1.3-0.6-2.4-1.3-3.3-2.3c-0.9-1-1.6-2.2-2-3.5
	c-0.4-1.3-0.7-2.8-0.7-4.4C12.6,142.6,12.9,141.1,13.3,139.8L13.3,139.8z M16.9,147.6c0.3,1,0.8,1.8,1.4,2.5
	c0.6,0.7,1.3,1.2,2.1,1.5c0.8,0.4,1.7,0.5,2.6,0.5s1.8-0.2,2.6-0.5c0.8-0.4,1.5-0.9,2.1-1.5c0.6-0.7,1.1-1.5,1.4-2.5
	c0.3-1,0.5-2.2,0.5-3.5c0-1.3-0.2-2.4-0.5-3.4c-0.3-1-0.8-1.9-1.4-2.5c-0.6-0.7-1.3-1.2-2.1-1.6c-0.8-0.4-1.7-0.5-2.6-0.5
	s-1.8,0.2-2.6,0.5c-0.8,0.4-1.5,0.9-2.1,1.6c-0.6,0.7-1.1,1.5-1.4,2.5c-0.4,1-0.5,2.2-0.5,3.4C16.4,145.5,16.5,146.6,16.9,147.6
	L16.9,147.6z"/>
<path fill="#FFFFFF" d="M39.7,133.5v4.5h0.1c0.9-1.7,1.9-3,3.1-3.8c1.2-0.8,2.8-1.2,4.7-1.1v3.7c-1.4,0-2.6,0.2-3.6,0.6
	c-1,0.4-1.8,1-2.4,1.7c-0.6,0.8-1.1,1.6-1.3,2.7c-0.3,1.1-0.4,2.3-0.4,3.7v9.5h-3.5v-21.3H39.7L39.7,133.5z"/>
<polygon fill="#FFFFFF" points="82.8,154.8 76.1,130 76,130 69.2,154.8 65.1,154.8 57.5,125.3 61.5,125.3 67.3,149.9 67.4,149.9 
	74,125.3 78.3,125.3 84.8,149.9 84.9,149.9 90.9,125.3 94.8,125.3 86.9,154.8 82.8,154.8 "/>
<path fill="#FFFFFF" d="M94.1,139.8c0.4-1.4,1.1-2.6,2-3.5c0.9-1,2-1.8,3.3-2.4c1.3-0.6,2.8-0.9,4.5-0.9c1.7,0,3.2,0.3,4.5,0.9
	c1.3,0.6,2.4,1.4,3.2,2.4c0.9,1,1.5,2.2,2,3.5s0.7,2.8,0.7,4.4c0,1.6-0.2,3-0.7,4.4c-0.4,1.3-1.1,2.5-2,3.5c-0.9,1-2,1.8-3.2,2.3
	c-1.3,0.6-2.8,0.8-4.5,0.8c-1.7,0-3.2-0.3-4.5-0.8c-1.3-0.6-2.4-1.3-3.3-2.3c-0.9-1-1.5-2.2-2-3.5c-0.4-1.3-0.7-2.8-0.7-4.4
	C93.4,142.6,93.6,141.1,94.1,139.8L94.1,139.8z M97.7,147.6c0.3,1,0.8,1.8,1.4,2.5c0.6,0.7,1.3,1.2,2.1,1.5c0.8,0.4,1.7,0.5,2.6,0.5
	c0.9,0,1.8-0.2,2.6-0.5c0.8-0.4,1.5-0.9,2.1-1.5c0.6-0.7,1.1-1.5,1.4-2.5c0.3-1,0.5-2.2,0.5-3.5c0-1.3-0.2-2.4-0.5-3.4
	c-0.3-1-0.8-1.9-1.4-2.5c-0.6-0.7-1.3-1.2-2.1-1.6c-0.8-0.4-1.7-0.5-2.6-0.5c-0.9,0-1.8,0.2-2.6,0.5c-0.8,0.4-1.5,0.9-2.1,1.6
	c-0.6,0.7-1.1,1.5-1.4,2.5c-0.3,1-0.5,2.2-0.5,3.4C97.1,145.5,97.3,146.6,97.7,147.6L97.7,147.6z"/>
<path fill="#FFFFFF" d="M120.5,133.5v4.5h0.1c0.9-1.7,1.9-3,3.1-3.8c1.2-0.8,2.8-1.2,4.7-1.1v3.7c-1.4,0-2.6,0.2-3.6,0.6
	c-1,0.4-1.8,1-2.4,1.7c-0.6,0.8-1,1.6-1.3,2.7c-0.3,1.1-0.4,2.3-0.4,3.7v9.5h-3.5v-21.3H120.5L120.5,133.5z"/>
<polygon fill="#FFFFFF" points="133.7,125.3 133.7,142.8 143.5,133.5 148.2,133.5 139.7,141.2 148.8,154.8 144.3,154.8 137,143.7 
	133.7,146.7 133.7,154.8 130.2,154.8 130.2,125.3 133.7,125.3 "/>
<path fill="#FFFFFF" d="M173.5,154.3c-1.5,0.7-3.1,1-4.7,1c-2,0-3.6-0.3-4.8-0.9c-1.2-0.6-2.1-1.3-2.8-2.2c-0.7-0.8-1.1-1.7-1.3-2.6
	c-0.2-0.9-0.3-1.7-0.3-2.3c0-1.2,0.2-2.2,0.6-3.1c0.4-0.9,0.9-1.7,1.5-2.4c0.6-0.7,1.3-1.3,2.2-1.9c0.8-0.6,1.7-1.1,2.7-1.6
	c-0.4-0.6-0.8-1.1-1.2-1.7c-0.4-0.5-0.7-1-1.1-1.6c-0.3-0.5-0.6-1.1-0.7-1.7c-0.2-0.6-0.3-1.3-0.3-2c0-0.8,0.1-1.6,0.4-2.3
	c0.3-0.7,0.7-1.4,1.3-1.9c0.6-0.6,1.3-1,2.1-1.3c0.8-0.3,1.8-0.5,2.9-0.5c0.9,0,1.8,0.1,2.7,0.4c0.9,0.2,1.6,0.6,2.3,1.1
	c0.7,0.5,1.2,1.1,1.6,1.9c0.4,0.8,0.6,1.6,0.6,2.6c0,0.9-0.1,1.7-0.4,2.5c-0.3,0.8-0.7,1.5-1.2,2.1c-0.5,0.6-1.1,1.2-1.8,1.7
	c-0.7,0.5-1.4,1-2.1,1.4l5.3,6.5c0.6-1.5,0.9-3.1,1-4.6h3.3c-0.1,0.9-0.2,1.6-0.3,2.2c-0.1,0.6-0.2,1.2-0.4,1.7
	c-0.1,0.5-0.3,1-0.5,1.6c-0.2,0.5-0.5,1.1-0.8,1.7l5.7,6.6h-4.6l-3.1-3.7C176.3,152.5,175.1,153.6,173.5,154.3L173.5,154.3z
	 M166.5,141.8c-0.6,0.4-1.2,0.9-1.6,1.4c-0.5,0.5-0.8,1.1-1.1,1.7c-0.3,0.7-0.4,1.4-0.4,2.3c0,0.8,0.2,1.4,0.5,2
	c0.3,0.6,0.7,1.1,1.3,1.6c0.5,0.4,1.1,0.8,1.8,1c0.7,0.2,1.4,0.4,2.1,0.4c1.3,0,2.6-0.3,3.6-1c1.1-0.6,1.9-1.5,2.7-2.6l-6.8-8.1
	C167.7,141,167.1,141.4,166.5,141.8L166.5,141.8z M170.9,135.8c0.5-0.3,0.9-0.7,1.3-1.1c0.4-0.4,0.7-0.9,1-1.4
	c0.2-0.5,0.4-1.1,0.4-1.7c0-0.8-0.3-1.6-0.9-2.2c-0.6-0.6-1.4-0.9-2.5-0.9c-0.8,0-1.6,0.3-2.3,0.8c-0.7,0.5-1.1,1.3-1.1,2.4
	c0,0.4,0.1,0.9,0.3,1.3c0.2,0.4,0.4,0.9,0.7,1.3c0.3,0.4,0.6,0.8,0.9,1.3c0.3,0.4,0.7,0.8,1,1.2C170,136.4,170.4,136.1,170.9,135.8
	L170.9,135.8z"/>
<path fill="#FFFFFF" d="M16.1,168.5c3,0,5.2,0.8,6.8,2.3c1.5,1.5,2.3,3.7,2.3,6.4c0,2.8-0.8,4.9-2.3,6.4c-1.5,1.5-3.8,2.3-6.8,2.3
	h-9V198H3.1v-29.5H16.1L16.1,168.5z M14.7,182.6c2.2,0,3.9-0.4,4.9-1.4c1-0.9,1.5-2.3,1.5-4c0-1.8-0.5-3.1-1.5-4
	c-1-0.9-2.7-1.4-4.9-1.4H7.1v10.8H14.7L14.7,182.6z"/>
<path fill="#FFFFFF" d="M43.4,196.6c-1.6,1.2-3.6,1.8-6,1.8c-1.7,0-3.2-0.3-4.4-0.8c-1.3-0.5-2.3-1.3-3.2-2.3
	c-0.9-1-1.5-2.2-1.9-3.5c-0.4-1.4-0.7-2.9-0.7-4.5c0-1.6,0.2-3.1,0.7-4.5c0.5-1.3,1.2-2.5,2.1-3.5c0.9-1,1.9-1.8,3.2-2.3
	c1.2-0.5,2.6-0.8,4-0.8c1.9,0,3.5,0.4,4.7,1.2c1.2,0.8,2.2,1.8,3,3c0.8,1.2,1.3,2.5,1.6,4c0.3,1.4,0.4,2.8,0.4,4.1h-16
	c0,0.9,0.1,1.8,0.3,2.7c0.2,0.8,0.6,1.6,1.2,2.2c0.5,0.6,1.2,1.2,2.1,1.5c0.9,0.4,1.9,0.6,3,0.6c1.5,0,2.7-0.3,3.7-1
	c0.9-0.7,1.6-1.7,1.9-3.1h3.5C46,193.6,45,195.4,43.4,196.6L43.4,196.6z M42.6,182.9c-0.3-0.8-0.8-1.4-1.3-1.9
	c-0.5-0.5-1.2-1-1.9-1.3c-0.7-0.3-1.5-0.5-2.4-0.5c-0.9,0-1.7,0.2-2.5,0.5c-0.7,0.3-1.3,0.8-1.9,1.3c-0.5,0.6-0.9,1.2-1.2,1.9
	c-0.3,0.7-0.5,1.5-0.5,2.3h12.3C43.1,184.4,42.9,183.6,42.6,182.9L42.6,182.9z"/>
<path fill="#FFFFFF" d="M52.8,176.6v3.4h0.1c1.5-2.6,3.8-3.9,6.9-3.9c1.4,0,2.6,0.2,3.5,0.6c0.9,0.4,1.7,0.9,2.3,1.6
	c0.6,0.7,1,1.5,1.2,2.5c0.2,1,0.4,2,0.4,3.2v14h-3.5v-14.5c0-1.3-0.4-2.4-1.2-3.1c-0.8-0.8-1.8-1.2-3.2-1.2c-1.1,0-2,0.2-2.8,0.5
	c-0.8,0.3-1.4,0.8-2,1.4c-0.5,0.6-0.9,1.3-1.2,2.1c-0.3,0.8-0.4,1.7-0.4,2.7V198h-3.5v-21.4H52.8L52.8,176.6z"/>
<path fill="#FFFFFF" d="M74.1,193.2c0.3,0.5,0.8,1,1.3,1.3c0.5,0.3,1.1,0.5,1.8,0.7c0.7,0.1,1.4,0.2,2.1,0.2c0.6,0,1.1,0,1.7-0.1
	c0.6-0.1,1.2-0.2,1.7-0.5c0.5-0.2,0.9-0.5,1.3-1c0.3-0.4,0.5-1,0.5-1.6c0-0.9-0.3-1.6-1-2.1c-0.7-0.5-1.5-0.8-2.6-1.1
	c-1-0.3-2.2-0.5-3.4-0.8c-1.2-0.2-2.3-0.6-3.4-1c-1-0.4-1.9-1-2.6-1.8c-0.7-0.8-1-1.9-1-3.2c0-1.1,0.2-2,0.7-2.8
	c0.5-0.8,1.1-1.4,1.9-1.9s1.6-0.8,2.6-1.1c0.9-0.2,1.9-0.4,2.8-0.4c1.2,0,2.3,0.1,3.3,0.3c1,0.2,1.9,0.6,2.7,1.1
	c0.8,0.5,1.4,1.2,1.9,2.1c0.5,0.9,0.7,2,0.8,3.2h-3.5c0-0.7-0.2-1.3-0.5-1.7c-0.3-0.4-0.7-0.8-1.2-1.1c-0.5-0.3-1-0.5-1.6-0.6
	c-0.6-0.1-1.1-0.2-1.7-0.2c-0.5,0-1.1,0-1.6,0.1c-0.5,0.1-1,0.2-1.5,0.4c-0.4,0.2-0.8,0.5-1.1,0.8c-0.3,0.4-0.4,0.8-0.4,1.4
	c0,0.6,0.2,1.1,0.6,1.5c0.4,0.4,1,0.7,1.6,1c0.7,0.3,1.4,0.5,2.2,0.7c0.8,0.2,1.6,0.4,2.5,0.5c0.9,0.2,1.8,0.4,2.6,0.7
	c0.8,0.3,1.6,0.6,2.2,1.1c0.6,0.5,1.2,1,1.6,1.7c0.4,0.7,0.6,1.5,0.6,2.6c0,1.3-0.3,2.4-0.8,3.2c-0.5,0.8-1.2,1.5-2.1,2.1
	c-0.9,0.5-1.8,0.9-2.9,1.1c-1.1,0.2-2.2,0.3-3.2,0.3c-1.2,0-2.3-0.1-3.4-0.4c-1.1-0.2-2-0.6-2.8-1.2c-0.8-0.6-1.5-1.3-2-2.2
	c-0.5-0.9-0.8-2.1-0.8-3.4h3.5C73.6,192,73.8,192.7,74.1,193.2L74.1,193.2z"/>
<path fill="#FFFFFF" d="M91.2,172.8v-4.3h3.5v4.3H91.2L91.2,172.8z M94.7,176.6V198h-3.5v-21.4H94.7L94.7,176.6z"/>
<path fill="#FFFFFF" d="M98.7,182.9c0.4-1.4,1.1-2.6,2-3.6c0.9-1,2-1.8,3.3-2.4c1.3-0.6,2.8-0.9,4.5-0.9c1.7,0,3.2,0.3,4.5,0.9
	c1.3,0.6,2.4,1.4,3.3,2.4c0.9,1,1.5,2.2,2,3.6c0.4,1.4,0.7,2.8,0.7,4.4c0,1.6-0.2,3-0.7,4.4c-0.4,1.3-1.1,2.5-2,3.5
	c-0.9,1-2,1.8-3.3,2.3c-1.3,0.6-2.8,0.9-4.5,0.9c-1.7,0-3.2-0.3-4.5-0.9c-1.3-0.6-2.4-1.3-3.3-2.3c-0.9-1-1.5-2.2-2-3.5
	c-0.4-1.3-0.7-2.8-0.7-4.4C98.1,185.7,98.3,184.3,98.7,182.9L98.7,182.9z M102.3,190.8c0.3,1,0.8,1.9,1.4,2.5
	c0.6,0.7,1.3,1.2,2.1,1.6c0.8,0.4,1.7,0.5,2.6,0.5s1.8-0.2,2.6-0.5c0.8-0.3,1.5-0.9,2.1-1.6c0.6-0.7,1.1-1.5,1.4-2.5
	c0.3-1,0.5-2.1,0.5-3.4c0-1.3-0.2-2.5-0.5-3.5c-0.4-1-0.8-1.8-1.4-2.5c-0.6-0.7-1.3-1.2-2.1-1.6c-0.8-0.4-1.7-0.5-2.6-0.5
	s-1.8,0.2-2.6,0.5c-0.8,0.4-1.5,0.9-2.1,1.6c-0.6,0.7-1.1,1.5-1.4,2.5c-0.4,1-0.5,2.2-0.5,3.5C101.8,188.6,101.9,189.8,102.3,190.8
	L102.3,190.8z"/>
<path fill="#FFFFFF" d="M125.2,176.6v3.4h0.1c1.5-2.6,3.8-3.9,6.9-3.9c1.4,0,2.6,0.2,3.5,0.6c0.9,0.4,1.7,0.9,2.3,1.6
	c0.6,0.7,1,1.5,1.2,2.5c0.2,1,0.4,2,0.4,3.2v14h-3.5v-14.5c0-1.3-0.4-2.4-1.2-3.1c-0.8-0.8-1.8-1.2-3.2-1.2c-1.1,0-2,0.2-2.8,0.5
	c-0.8,0.3-1.4,0.8-2,1.4c-0.5,0.6-0.9,1.3-1.2,2.1c-0.3,0.8-0.4,1.7-0.4,2.7V198h-3.5v-21.4H125.2L125.2,176.6z"/>
<path fill="#FFFFFF" d="M146.5,193.2c0.3,0.5,0.8,1,1.3,1.3c0.5,0.3,1.2,0.5,1.8,0.7c0.7,0.1,1.4,0.2,2.1,0.2c0.6,0,1.1,0,1.7-0.1
	c0.6-0.1,1.2-0.2,1.7-0.5c0.5-0.2,0.9-0.5,1.3-1c0.3-0.4,0.5-1,0.5-1.6c0-0.9-0.3-1.6-1-2.1c-0.7-0.5-1.6-0.8-2.6-1.1
	c-1-0.3-2.2-0.5-3.4-0.8c-1.2-0.2-2.3-0.6-3.4-1c-1-0.4-1.9-1-2.6-1.8c-0.7-0.8-1-1.9-1-3.2c0-1.1,0.2-2,0.7-2.8
	c0.5-0.8,1.1-1.4,1.9-1.9c0.8-0.5,1.6-0.8,2.6-1.1c0.9-0.2,1.9-0.4,2.8-0.4c1.2,0,2.3,0.1,3.4,0.3c1,0.2,1.9,0.6,2.7,1.1
	c0.8,0.5,1.4,1.2,1.9,2.1c0.5,0.9,0.8,2,0.8,3.2h-3.5c-0.1-0.7-0.2-1.3-0.5-1.7c-0.3-0.4-0.7-0.8-1.2-1.1c-0.5-0.3-1-0.5-1.6-0.6
	c-0.6-0.1-1.1-0.2-1.7-0.2c-0.5,0-1,0-1.6,0.1c-0.5,0.1-1,0.2-1.5,0.4c-0.4,0.2-0.8,0.5-1.1,0.8c-0.3,0.4-0.4,0.8-0.4,1.4
	c0,0.6,0.2,1.1,0.6,1.5c0.4,0.4,1,0.7,1.6,1c0.7,0.3,1.4,0.5,2.2,0.7c0.8,0.2,1.6,0.4,2.5,0.5c0.9,0.2,1.7,0.4,2.6,0.7
	c0.8,0.3,1.6,0.6,2.2,1.1c0.7,0.5,1.2,1,1.6,1.7c0.4,0.7,0.6,1.5,0.6,2.6c0,1.3-0.3,2.4-0.8,3.2c-0.5,0.8-1.2,1.5-2.1,2.1
	c-0.9,0.5-1.8,0.9-2.9,1.1c-1.1,0.2-2.2,0.3-3.2,0.3c-1.2,0-2.3-0.1-3.4-0.4c-1.1-0.2-2-0.6-2.8-1.2c-0.8-0.6-1.5-1.3-2-2.2
	c-0.5-0.9-0.8-2.1-0.8-3.4h3.5C146,192,146.2,192.7,146.5,193.2L146.5,193.2z"/>
<path fill="#FFFFFF" d="M1.2,26.8C1.2,26.8,1.2,26.8,1.2,26.8C1.2,26.8,1.2,26.8,1.2,26.8"/>
<path fill="#FFFFFF" d="M38.7,24.6c1.1,1.4,1.8,3.2,1.9,5h-6V22C36.1,22.3,37.6,23.2,38.7,24.6 M40.7,29.1c-0.2-1.5-0.7-2.9-1.6-4.1
	c0.1-0.1,0.2-0.2,0.2-0.4c-0.2,0-0.3,0-0.4,0.1c-0.1-0.1-0.1-0.1-0.2-0.2c-1-1.3-2.3-2.2-3.7-2.6c0-0.2-0.2-0.3-0.3-0.3
	c-0.1,0-0.1,0.1-0.1,0.2c0,0,0,0-0.1,0c-0.1-0.1-0.2-0.1-0.3-0.1c0,0.2,0,0.3,0.1,0.4v0c-0.1,0-0.2,0.1-0.2,0.1
	c-0.1,0.1,0,0.3,0.2,0.4v3c-0.1,0-0.2,0.1-0.3,0.2c0.1,0.1,0.2,0.2,0.3,0.2v3.2c-0.2,0.1-0.3,0.2-0.2,0.4c0,0.1,0.1,0.1,0.2,0.1v0.1
	c0,0.1-0.1,0.2-0.1,0.3c0.1,0,0.2,0,0.3-0.1h0.1c0,0.1,0.1,0.2,0.1,0.2c0.1,0.1,0.3,0,0.3-0.2h2.1c0,0.1,0,0.2,0.2,0.4
	c0.1-0.1,0.2-0.3,0.2-0.4H40c0.1,0.2,0.3,0.3,0.4,0.2c0.1,0,0.1-0.1,0.1-0.2h0.1c0.1,0,0.2,0.1,0.3,0.1c0-0.1,0-0.2-0.1-0.3
	c0,0,0,0,0-0.1c0.1,0,0.2-0.1,0.2-0.1C41.1,29.3,41,29.1,40.7,29.1"/>
<path fill="#FFFFFF" d="M38.4,24.7c0,0.1-0.1,0.1,0,0.2c0,0.1,0.1,0.2,0.2,0.2c-0.1,0.1-0.2,0.2-0.2,0.3c0.2,0,0.3,0,0.4-0.1
	c0,0.2,0,0.2,0.1,0.3c0,0,0.1,0,0.2,0c0.6,1,1,2.2,1.2,3.4c-0.1,0-0.2-0.1-0.3-0.1c0,0.1,0.1,0.2,0.1,0.3h-2c0-0.1-0.1-0.2-0.1-0.2
	c-0.1,0-0.2,0-0.3,0.1c0-0.1,0-0.2-0.2-0.4c-0.1,0.1-0.2,0.2-0.2,0.4c-0.1-0.1-0.2-0.1-0.3-0.1c-0.1,0-0.1,0.1-0.1,0.2h-1.7
	c0.1-0.1,0.1-0.2,0.1-0.3c-0.1,0-0.2,0-0.3,0.1v-2.8c0.1,0,0.2-0.1,0.2-0.1c0-0.1,0-0.2-0.1-0.3c0.1,0,0.2-0.1,0.4-0.2
	c-0.1-0.1-0.2-0.2-0.4-0.2c0.1-0.1,0.1-0.2,0.1-0.3c0-0.1-0.1-0.2-0.2-0.2v-2.4c0.1,0,0.2,0.1,0.3,0.1c0-0.1,0-0.2-0.1-0.3
	C36.3,22.8,37.5,23.6,38.4,24.7 M40.5,29.4c-0.2-1.7-0.8-3.4-1.9-4.7c-0.5-0.7-1.1-1.2-1.7-1.6c-0.6-0.4-1.3-0.7-2-0.9l-0.1,0v7.4
	h5.7L40.5,29.4L40.5,29.4z"/>
<path fill="#FFFFFF" d="M39.3,28.2L39.3,28.2c0.1-0.1,0.2-0.1,0.2-0.2c-0.1,0-0.2,0-0.2,0c0.1-0.1,0.2,0,0.1-0.2
	c-0.1-0.2-0.2-0.2-0.3-0.1c-0.1,0.1-0.8,0-0.8-0.6c0,0,0,0,0,0c0.1,0.1,0.1,0.2,0.2,0.2c0.3,0.2,0.7,0.1,0.7-0.2
	c0-0.3-0.2-0.4-0.5-0.7c-0.1-0.1-0.2-0.2-0.3-0.3c-0.1-0.2,0-0.4-0.3-0.8c0-0.1,0-0.2-0.1-0.3c-0.1,0.2-0.2,0.7,0.2,1.1
	c0.3,0.3,0.9,0.6,0.9,0.9c0,0.1-0.1,0.1-0.2,0.2c-0.1,0-0.3-0.1-0.4-0.2c0,0,0,0-0.1-0.1l0,0c-0.3-0.2-0.5-0.6-0.6-0.8
	c-0.3-0.4-0.2-0.7-0.1-1c0.2-0.3-0.1-0.9-0.3-1c0,0,0-0.1,0-0.3c0,0-0.1,0-0.2,0c0-0.1-0.1-0.1-0.1-0.1c-0.1,0-0.1-0.1-0.1-0.1
	c-0.1,0.1-0.1,0.1-0.2,0.1c-0.1,0-0.1,0-0.2,0c-0.1,0.1-0.1,0.1-0.2,0.1c-0.1,0-0.1,0.1-0.1,0.2c0,0,0,0.1,0.1,0.2c0,0,0,0,0,0
	l0.1,0.1l0.1-0.1c0,0,0,0,0,0c0,0,0.2-0.1,0.2,0.1c0,0.1,0,0.1-0.1,0.1c-0.1,0-0.1,0-0.2,0c-0.1,0-0.1,0.1-0.1,0.1
	c0,0.1,0.1,0.1,0.2,0.1c0.1,0,0.4-0.1,0.4,0.1c0,0.3-0.4,0.3-0.4,0.7c-0.1-0.1-0.2-0.1-0.2-0.2c-0.1-0.1-0.1-0.2-0.3-0.3
	c-0.1-0.1-0.2-0.2-0.3-0.2c-0.1-0.1-0.1-0.1-0.1-0.3c0-0.1,0.1-0.2,0.1-0.3c0,0,0-0.1,0-0.1c0-0.1-0.1-0.1-0.2-0.1
	c0,0,0.1,0,0.1,0.1c0,0-0.1,0.1-0.1,0.1c0,0,0,0.1,0,0.1c0,0,0,0,0,0c0,0,0,0,0,0.1c0,0,0,0,0,0c0-0.1-0.1-0.2-0.1-0.2c0,0,0,0,0,0
	v0c0-0.1-0.1-0.1-0.2-0.1c0,0,0.1,0,0.1,0c0,0,0,0.1,0,0.1c0,0.1,0.1,0.1,0.1,0.1c0,0,0,0,0,0c0,0,0,0,0,0c0,0,0,0,0,0
	c-0.2-0.1-0.2,0-0.2,0.1c0,0,0,0,0,0.1c0,0-0.1,0.1,0,0.2c0,0,0-0.1,0-0.1c0,0,0,0,0,0c0,0,0,0,0,0c0,0,0,0,0.1,0c0,0,0,0,0,0
	c0,0,0,0,0,0c0,0,0,0,0,0c-0.1,0.1-0.1,0.2,0,0.2c-0.1,0.1-0.2,0-0.2-0.1c-0.1,0.2,0.1,0.3,0.2,0.3c0,0.1,0,0.2,0,0.2c0,0,0,0,0,0
	c0,0,0,0,0,0c0,0.1,0,0.1,0.1,0.1c0,0,0-0.1,0-0.1c0,0,0.1,0.1,0.1,0.1c0.1,0.1,0.2,0.5,0.6,0.7c-0.2,0.1-0.3,0.3-0.4,0.4
	c-0.1,0.1-0.2,0.2-0.3,0.1c0,0-0.1-0.1-0.1-0.1c-0.1,0-0.1,0-0.1,0c0,0,0,0-0.1,0c-0.1,0-0.2,0-0.2,0.1c0,0,0.1,0,0.1,0
	c0,0,0,0.1,0,0.1c0,0,0,0.1,0.2,0.1c0,0,0,0,0,0c0,0-0.1,0-0.1,0c-0.1,0-0.1-0.1-0.2,0c0,0,0,0-0.1,0.1c0,0,0,0,0,0
	c-0.1,0-0.1,0.2-0.1,0.2c0,0,0-0.1,0.1-0.1c0,0,0,0,0,0.1c0.1,0.1,0.1,0.1,0.2-0.1c0,0,0,0,0,0c0,0.1-0.1,0.2,0,0.2c0,0,0,0,0.1,0
	c0,0,0,0,0,0c0,0.1,0.2,0.1,0.2,0.1c0,0-0.1,0-0.1-0.1c0,0,0,0,0.1,0c0.1-0.1,0-0.2,0-0.2c0,0,0,0,0,0c0,0,0.1,0.1,0.2,0.1
	c0.1,0,0.1-0.1,0.1-0.1c0.1-0.1,0.2-0.1,0.3-0.1c0-0.1,0.1-0.2,0.2-0.2c0.1,0,0.2,0,0.2,0.1c0-0.1,0.1-0.2,0.1-0.2
	c0,0.5,0.7,0.5,0.9,0.9c-0.2-0.1-0.5-0.1-0.6-0.1c-0.2,0-0.5,0.2-0.5,0.4c0,0.2,0.1,0.5,0.3,0.6c-0.2,0-0.3,0-0.5,0c0,0,0,0,0,0
	c-0.2,0-0.2-0.3-0.4-0.2c0,0,0,0-0.1,0c-0.1,0-0.2,0.1-0.2,0.2c0,0,0.1-0.1,0.1-0.1c0,0,0,0,0,0c0,0,0,0.1,0.1,0.1c0,0,0.1,0,0.1,0
	c0,0,0,0,0,0c0,0.1-0.2,0-0.2,0.2c0,0,0,0,0,0.1c0,0.1,0,0.1,0.1,0.1c0,0-0.1,0,0-0.1c0,0,0,0,0,0c0,0,0,0,0,0c0,0,0,0,0,0
	c0,0,0,0,0,0c0,0,0,0,0,0c0,0,0,0.1,0,0.1c0,0.1,0.1,0.2,0.2,0.1c0,0-0.1,0-0.1-0.1c0,0,0,0,0,0c0,0,0,0,0-0.1c0,0,0,0,0,0
	c0,0,0,0,0.1,0s0,0,0,0c0,0,0.1,0.1,0.1,0.1c0,0,0.1,0,0.1-0.1c0,0,0.1,0,0.1,0.1c0-0.1,0-0.1,0.2,0l0.1-0.1c0,0,0.2,0.1,0.2,0
	c0.1-0.1,0-0.1,0-0.2c-0.1-0.2-0.1-0.2-0.1-0.3c-0.1-0.3,0.3-0.4,0.5-0.4c0.1,0.2,0.3,0.6,0.7,0.8c0.3,0.1,0.4-0.2,0.4-0.2
	c0,0,0,0,0,0.1c0,0.1,0,0.2,0,0.3c0,0.1-0.2,0-0.2,0c-0.1,0-0.1,0-0.1,0c-0.1,0-0.2,0.1-0.2,0.2c0,0,0.1-0.1,0.1-0.1c0,0,0,0,0,0
	c0,0.1,0.1,0.1,0.2,0.1c0,0,0,0,0,0c-0.1,0.1-0.2,0.2-0.1,0.2c0,0,0,0,0.1,0c0,0.1,0,0.1,0.1,0.1c0,0,0-0.1,0-0.1c0,0,0,0,0.1,0
	c0.1,0,0-0.1,0.1-0.2c0,0,0,0,0,0c0,0.1,0,0.2,0,0.2c0,0,0,0,0.1,0c0,0.1,0.1,0.1,0.2,0.1c0,0-0.1,0-0.1-0.1c0,0,0.1-0.1,0.1-0.1
	c0-0.2-0.1-0.2-0.1-0.2c0-0.1,0.2,0,0.2-0.2c0,0,0,0,0,0c0.1,0,0.2-0.1,0.2-0.2C39.4,28.3,39.4,28.2,39.3,28.2"/>
<polyline fill="#FFFFFF" points="36.5,24.2 36.5,24.2 36.5,24.2 "/>
<path fill="#FFFFFF" d="M31.8,32.4l-0.1,0c-0.1,0-0.3,0.1-0.3,0.2c0,0.2,0.1,0.3,0.3,0.3l0.1,0l-0.2,1.3l-1.3-1.9
	c0.6-0.2,1.1-0.5,1.3-0.5C31.8,31.9,31.9,32,31.8,32.4 M29.3,32.7c0.2-0.1,0.4-0.1,0.6-0.2l1.5,2.2c-0.1,0.3-0.1,0.6-0.1,0.9
	L29.3,32.7L29.3,32.7z M31.1,37l-2.9-4.2c0.1,0,0.2,0,0.2,0c0.1,0,0.3,0,0.4,0l2.3,3.3C31.2,36.4,31.1,36.7,31.1,37 M27.9,32.8
	l3.1,4.6C29.3,36.8,27.7,35.2,27.9,32.8 M32.5,32.5l-0.1,0l0-0.1c0-0.5-0.3-0.9-0.8-0.9c-0.5,0-1.4,0.6-2.7,0.6
	c-0.6,0-1.2-0.3-1.6-0.5l-0.2,0.4c0,0,0,0,0,0c0-0.2-0.2-0.3-0.3-0.3c-0.2,0-0.3,0.1-0.3,0.3c0,0.2,0.2,0.3,0.3,0.3
	c0.1,0,0.2-0.1,0.2-0.1l-0.2,0.4c0,0,0.1,0,0.2,0.1c-0.2,2,1.2,4.5,3.8,5.3c0.4-0.1,0.8,0,0.8,0.4c0,0.3-0.1,0.4-0.4,0.4
	c-0.2,0-0.3-0.1-0.3-0.2c0-0.2,0.3-0.1,0.3-0.2c0-0.2-0.1-0.2-0.2-0.2c-0.2,0-0.5,0.1-0.5,0.4c0,0.3,0.3,0.6,0.6,0.6
	c0.3,0,0.9-0.2,0.8-0.9c0.1,0,0.3,0,0.3-0.2l0-0.4l-0.1,0l0.1-4.6l0.1,0c0.2,0,0.3-0.1,0.3-0.2C32.8,32.6,32.7,32.5,32.5,32.5"/>
<polyline fill="#FFFFFF" points="31.5,22.7 31.5,22.7 31.5,22.7 "/>
<path fill="#FFFFFF" d="M30.8,23.3c-0.1,0-0.1-0.1-0.1-0.1c0,0,0.2,0.1,0.2,0.1C30.8,23.3,30.8,23.3,30.8,23.3 M30.7,23.4
	C30.7,23.4,30.7,23.4,30.7,23.4C30.6,23.4,30.6,23.4,30.7,23.4c-0.1,0-0.1,0-0.1,0c0,0,0,0.1,0,0.1c0,0,0,0.1,0,0.1
	c0,0-0.1,0.1-0.1,0.1c-0.1,0-0.1-0.1,0-0.1c0,0,0-0.1,0.1-0.1c0,0,0.1,0,0.1,0c0,0,0-0.1-0.1-0.1c0,0,0.1,0,0,0c0,0-0.1,0-0.1,0
	c0,0,0,0,0,0c0,0,0,0,0.1,0L30.7,23.4C30.7,23.3,30.7,23.4,30.7,23.4C30.7,23.4,30.7,23.4,30.7,23.4 M30.6,23.1c0,0-0.1,0.1-0.1,0
	c0-0.1,0-0.1,0-0.2C30.4,23,30.5,23.1,30.6,23.1 M32.2,24c0.6,0,0.9-0.2,0.9-0.4c0-0.7-1.7-0.3-1.7-0.7c0-0.1,0-0.1,0.1-0.2l0,0
	c0.9-0.1,0.9-0.7,1.5-0.8c-0.8-0.1-0.9,0.5-1.2,0.5c0.2-0.1,0.2-0.3,0.2-0.4c-0.2,0.2-0.5,0.2-0.7,0.5c0,0,0,0.1,0,0.1
	c-0.1,0.1-0.2,0.2-0.2,0.3c0,0.7,1.8,0.2,1.8,0.7c0,0.2-0.3,0.3-0.8,0.3c-0.4,0-0.6-0.3-1.3-0.1c0-0.1,0.2-0.3,0.1-0.4
	c0.1,0,0.1-0.1,0.1-0.1c0,0-0.1-0.1-0.1-0.1c0,0,0-0.1,0-0.1c0,0,0-0.1,0-0.1c0,0-0.1-0.1-0.1-0.1c-0.1,0-0.1,0-0.2,0
	c0,0-0.1,0-0.1,0c0,0-0.1,0-0.1,0c0,0-0.1,0-0.1-0.1c0,0.1,0,0.1,0,0.2c-0.1,0-0.1,0.2-0.2,0.2c0,0,0,0.1,0.1,0.1
	c-0.1,0.1-0.1,0.2-0.1,0.2c0,0,0,0.1,0,0.1C30,23.6,30,23.8,30,23.9l0,0c0,0-0.1-0.1-0.1-0.1c-0.1-0.1-0.1-0.1-0.1-0.2
	c0-0.1,0.1-0.2,0.1-0.2c0,0,0-0.1,0-0.1c0-0.1-0.1-0.1-0.1-0.1c0,0,0.1,0,0,0.1c0,0,0,0,0,0c0,0,0,0.1,0,0.1c0,0,0,0,0,0
	c0,0,0,0,0,0c0,0,0,0,0,0c0-0.1,0-0.2-0.1-0.2c0,0,0,0,0,0l0,0c0-0.1-0.1-0.1-0.2,0c0,0,0.1,0,0.1,0c0,0,0,0.1,0,0.1
	c0,0.1,0,0.1,0.1,0.1c0,0,0,0,0,0c0,0,0,0,0,0c0,0,0,0,0,0c-0.1-0.1-0.2,0-0.2,0.1c0,0,0,0,0,0.1c-0.1,0-0.1,0.1,0,0.1
	c0,0,0-0.1,0-0.1h0c0,0,0,0,0,0c0,0,0,0,0.1,0c0,0,0,0,0,0c0,0,0,0,0,0c0,0,0,0,0,0c-0.1,0.1-0.1,0.2,0,0.2c0,0,0,0,0,0
	c0,0.1-0.2,0.1-0.2,0c-0.1,0.2,0,0.3,0.2,0.2c0,0,0,0,0,0c0,0,0,0.1,0,0.1c0,0,0,0,0,0c0,0,0,0,0,0c0,0,0,0.1,0.1,0.1
	c0,0,0-0.1,0-0.1s0.1,0.1,0.2,0.2c-0.1,0.1-0.4,0.1-0.4,0.1c0,0-0.2,0-0.3,0c-0.1,0.1-0.3,0.1-0.4,0c0,0,0-0.1-0.1-0.1
	c0,0-0.1-0.1-0.1-0.1c0,0,0,0,0,0c0-0.1-0.1-0.1-0.2,0c0,0,0.1,0,0.1,0.1c0,0,0,0.1,0,0.1c0,0,0,0.1,0.1,0.1c0,0,0,0,0,0
	c0,0,0,0-0.1,0c-0.1-0.1-0.1-0.1-0.1-0.1c0,0,0,0,0,0c0,0,0,0,0,0c-0.1,0-0.2,0.1-0.1,0.2c0,0,0-0.1,0.1-0.1c0,0,0,0,0,0.1
	c0,0.1,0,0.1,0.2,0c0,0,0,0,0,0c0,0.1-0.2,0.1-0.1,0.2c0,0,0,0,0,0c0,0,0,0,0,0c0,0.1,0.1,0.2,0.1,0.2c0,0-0.1-0.1,0-0.1
	c0,0,0,0,0,0c0.1,0,0.1-0.1,0.1-0.2c0,0,0,0,0,0c0,0,0,0.1,0.1,0.1c0.1,0,0.1-0.1,0.1-0.1c0,0,0,0,0,0c0,0,0.1,0.1,0,0.1
	c0,0,0.1,0,0.1-0.1c0,0,0,0.1,0,0.2c0,0,0.1-0.1,0.2-0.2c0,0,0,0,0,0c0,0,0,0,0,0c0,0,0.1,0,0.2,0c0,0,0,0,0,0c0,0,0,0.1,0,0.1
	c0,0,0-0.1,0-0.1c0,0,0,0.1,0.1,0.2c0-0.2,0.1-0.1,0.3-0.2c0,0,0,0,0,0c0,0,0,0.1-0.1,0.1c0.1,0,0.2-0.1,0.2-0.1c0,0,0.1,0,0.1-0.1
	c0,0,0.1,0,0.2-0.1c0,0,0,0.1,0,0.1c0.2,0,0.3-0.2,0.4-0.2c0.3-0.1-0.2-0.3,0.5-0.3c0.1,0,0.2,0,0.2-0.1c-0.1,0.1-0.1,0.3,0,0.3
	c0,0,0.1,0,0.2,0.1c0,0,0,0,0,0c-0.1,0-0.1,0-0.1,0c-0.2,0.1-0.2-0.2-0.3-0.2c0,0,0,0-0.1,0c-0.1,0-0.2,0.1-0.1,0.2
	c0,0,0.1-0.1,0.1-0.1c0,0,0,0,0,0c0,0,0,0.1,0.1,0.1c0,0,0,0,0.1,0c0,0,0,0,0,0c0,0.1-0.2,0-0.2,0.1c0,0,0,0,0,0.1
	c0,0.1,0,0.1,0.1,0.1c0,0,0,0,0-0.1c0,0,0,0,0,0c0,0,0,0,0,0c0,0,0,0,0,0s0,0,0,0c0,0,0,0,0,0c0,0,0,0.1,0,0.1
	c0,0.1,0.1,0.1,0.2,0.1c0,0-0.1,0-0.1-0.1c0,0,0,0,0,0c0,0,0,0,0-0.1c0,0,0,0,0,0c0,0,0,0,0.1,0c0,0,0,0,0,0c0,0,0.1,0.1,0.1,0.1
	c0.1-0.1,0-0.1,0.1-0.2c0,0,0.1,0,0.1,0c0.1,0,0.2,0,0.2,0c0,0,0-0.2-0.1-0.3c-0.1,0,0-0.1-0.1-0.2c0.1,0,0.2,0.1,0.3,0.1
	c0.2,0,0,0,0.1-0.1c0.1-0.1,0.3,0,0.3,0c0,0,0.1,0,0,0.1c0,0.1,0,0.1,0,0.2c0,0-0.1,0-0.2,0c0,0-0.1,0-0.1,0c-0.1,0-0.1,0.1-0.1,0.1
	c0,0,0.1-0.1,0.1-0.1c0,0,0,0,0,0c0,0.1,0.1,0.1,0.2,0.1c0,0,0,0,0,0c0,0-0.1,0.1-0.1,0.1c0,0,0,0,0,0c0,0.1,0,0.1,0.1,0.1
	c0,0,0-0.1,0-0.1c0,0,0,0,0,0c0,0,0-0.1,0.1-0.2c0,0,0,0,0,0c0,0.1,0,0.1,0,0.2c0,0,0,0,0.1,0c0,0,0.1,0.1,0.1,0c0,0-0.1,0-0.1-0.1
	c0,0,0-0.1,0-0.1c0-0.1-0.1-0.1-0.1-0.2c0-0.1,0.1,0,0.1-0.2c0,0,0-0.1-0.1-0.1c0,0,0,0,0,0h0c0,0,0.1,0,0.1-0.1
	c-0.1,0-0.1-0.1-0.1-0.1c0,0,0,0,0,0c0,0,0-0.1,0-0.1c0,0-0.1,0.1-0.1,0c0,0,0-0.1-0.1-0.1C32.6,24.1,32.5,24.1,32.2,24
	C32.2,24,32.1,24,32.2,24"/>
<path fill="#FFFFFF" d="M29.4,27.1C29.4,27.1,29.4,27.1,29.4,27.1S29.4,27.1,29.4,27.1 M28.9,26C29,26,29,25.9,28.9,26
	c0.1-0.1,0.1-0.1,0.1-0.1c0,0,0-0.1-0.1-0.1c0,0,0.1,0,0-0.1c0,0-0.1,0-0.1,0c0,0,0,0,0-0.1c0,0,0,0,0.1,0l0.2,0.1c0,0,0,0,0,0.1
	c0,0,0,0.1,0,0.1c0,0,0-0.1-0.1-0.1c0,0,0,0,0,0.1c0,0-0.1,0-0.1,0c0,0,0,0.1,0,0.1c0,0,0,0.1,0,0.1c0,0-0.1,0.1-0.1,0.1
	C28.9,26.1,28.9,26,28.9,26 M29.1,25.5c0,0.1-0.1,0.1-0.1,0.1c-0.1-0.1,0-0.1-0.1-0.2C29,25.5,29.1,25.5,29.1,25.5 M29.3,25.6
	c0,0,0.2,0.1,0.2,0.1c-0.1,0-0.1,0.1-0.2,0.1C29.3,25.8,29.3,25.7,29.3,25.6 M28.4,26.1c-0.1-0.1-0.1-0.2-0.3-0.2
	C28,25.9,28,25.8,28,25.7c0-0.1,0.1-0.2,0.1-0.3c0,0,0-0.1,0-0.1c0-0.1-0.1-0.1-0.1-0.1c0,0,0,0.1,0.1,0.1c0,0,0,0.1-0.1,0.1
	c0,0,0,0.1,0,0.1c0,0,0,0,0,0c0,0,0,0,0,0c0,0,0,0,0,0c0-0.1,0-0.2-0.1-0.2c0,0,0,0-0.1,0c0,0,0,0,0,0c0-0.1-0.1-0.1-0.2-0.1
	c0,0,0.1,0,0.1,0c0,0,0,0.1,0,0.1c0,0.1,0.1,0.1,0.1,0.1c0,0,0,0,0,0c0,0,0,0,0,0c0,0,0,0,0,0c-0.1-0.1-0.2,0-0.2,0.1c0,0,0,0,0,0
	c-0.1,0-0.1,0.1,0,0.2c0,0,0-0.1,0-0.1c0,0,0,0,0,0c0,0,0,0,0,0c0,0,0,0,0.1,0c0,0,0,0,0,0c0,0,0,0,0,0c0,0,0,0,0,0
	c-0.1,0.1-0.1,0.2,0,0.2c0,0,0,0,0,0c0,0.2-0.2,0.1-0.2,0c-0.1,0.2,0.1,0.3,0.2,0.2c0,0,0,0,0,0c0,0,0,0.1,0.1,0.1c0,0,0,0,0,0
	c0,0,0,0,0,0c0,0.1,0,0.1,0.1,0.1c0,0,0-0.1,0-0.1c0,0,0.1,0.1,0.2,0.2c0.1,0.1,0.2,0.2,0.3,0.1c0,0.1,0.1,0.2,0.1,0.2
	c0,0-0.3,0-0.4,0c-0.1,0.1-0.4,0.2-0.5,0.1c0,0,0-0.1-0.1-0.1c0,0-0.1-0.1-0.1-0.1c0,0,0,0-0.1,0c0,0-0.1-0.1-0.2,0
	c0,0,0.1,0,0.1,0.1c0,0,0,0.1,0,0.1c0,0,0,0.1,0.2,0.2c0,0,0,0,0,0c0,0-0.1,0-0.1,0c-0.1,0-0.1-0.1-0.2-0.1c0,0,0,0-0.1,0
	c0,0,0,0,0,0c-0.1,0-0.2,0.1-0.1,0.2c0,0,0-0.1,0.1-0.1c0,0,0,0.1,0,0.1c0,0.1,0.1,0.2,0.2,0c0,0,0,0,0,0c0,0.1-0.2,0.2-0.1,0.2
	c0,0,0,0,0,0l0,0c0,0.1,0.1,0.2,0.2,0.2c0,0-0.1-0.1-0.1-0.2c0,0,0,0,0.1,0c0.1,0,0-0.1,0.1-0.2c0,0,0,0,0,0c0,0.1,0,0.2,0.1,0.1
	c0.1,0,0.1-0.1,0.1-0.2c0,0,0,0,0,0c0,0,0.1,0.1,0.1,0.1c0,0,0.1,0,0.1-0.1c0,0,0,0.1,0,0.2c0,0,0.1-0.1,0.2-0.2c0,0,0,0,0,0.1
	c0,0,0,0,0,0c0,0,0.1,0,0.2,0c0,0,0,0,0,0c0,0,0,0.1,0,0.1c0,0,0-0.1,0-0.1c0,0,0,0.1,0.1,0.2c0-0.3,0.2-0.2,0.3-0.3c0,0,0,0,0,0
	c0,0,0,0.1-0.1,0.1c0.2,0.1,0.5-0.2,0.5-0.3c0.1,0,0.1,0,0.2,0c0.5,0.1,0.2-0.5,1-0.3c0.1,0,0.1-0.1,0.2-0.1
	c-0.1,0.1-0.1,0.3,0.1,0.4c0.1,0,0.2,0,0.2,0.1c0,0,0,0,0,0c-0.1,0-0.1,0-0.2,0c-0.2,0.1-0.2-0.3-0.4-0.2c0,0,0,0-0.1,0
	c-0.1,0-0.2,0.1-0.2,0.2c0,0,0.1-0.1,0.1-0.1c0,0,0,0,0,0c0,0,0,0.1,0.1,0.1c0,0,0,0,0.1,0c0,0,0,0,0,0c0,0.1-0.2,0-0.2,0.2
	c0,0,0,0.1,0,0.1c0,0.1,0,0.1,0.1,0.1c0,0,0,0,0-0.1c0,0,0,0,0,0c0,0,0,0,0,0c0,0,0,0,0,0c0,0,0,0,0,0c0,0,0,0,0,0c0,0,0,0.1,0,0.1
	c0,0.1,0.1,0.1,0.2,0.1c0,0-0.1,0-0.1-0.1c0,0,0,0,0,0c0,0,0,0,0-0.1c0,0,0,0,0,0s0,0,0.1,0c0,0,0,0,0,0c0,0,0.1,0.1,0.1,0.1
	c0.1-0.1,0-0.2,0.1-0.2c0,0,0,0,0.1,0c0.1,0,0.2,0,0.3,0c0-0.1,0-0.2-0.1-0.3c-0.1,0,0-0.1-0.1-0.2c0.1,0.1,0.2,0.1,0.4,0.1
	c0.3,0,0.3,0,0.5-0.1c0.1-0.1,0.3,0,0.3,0c0,0,0.1,0,0.1,0.1c0,0.2,0,0.2,0,0.2c0,0.1-0.1,0-0.2,0c0,0-0.1,0-0.1,0
	c-0.1,0-0.1,0.1-0.1,0.2c0,0,0.1-0.1,0.1-0.1c0,0,0,0,0,0c0,0.1,0.1,0.1,0.2,0.1c0,0,0,0,0,0c-0.1,0-0.2,0.1-0.1,0.2c0,0,0,0,0.1,0
	c0,0.1,0,0.1,0.1,0.1c0,0,0-0.1,0-0.1c0,0,0,0,0,0c0.1,0,0-0.1,0.1-0.2c0,0,0,0,0,0c0,0.1,0,0.2,0,0.2c0,0,0,0,0.1,0
	c0,0.1,0.1,0.1,0.2,0.1c0,0-0.1,0-0.1-0.1c0,0,0-0.1,0.1-0.1c0-0.1-0.1-0.1-0.1-0.2s0.1,0,0.1-0.2c0,0,0-0.1-0.1-0.1c0,0,0,0,0,0v0
	c0,0,0.1,0,0.1-0.1c-0.1,0-0.1-0.1-0.1-0.1c0,0,0,0,0,0c0,0,0.1-0.1,0-0.2c0,0.1-0.1,0.1-0.2,0c0,0,0-0.1-0.1-0.1
	c-0.2,0-0.3,0-0.6-0.1c0.4,0,1-0.1,1-0.3c0-0.2-0.2-0.3-0.8-0.3c-0.6,0-1.9,0.2-1.9-0.1c0-0.2,0.3-0.1,0.6-0.1c0,0,0.1,0,0.1,0.1
	c0.8,0.2,1.7-0.2,2.1,0c-0.5-0.4-1,0-1.6-0.1c0.3,0,0.4-0.1,0.5-0.2c-0.3,0.2-0.8-0.1-1.1,0.1c0,0,0,0-0.1,0c-0.4,0-0.8,0-0.8,0.3
	c0,0.6,1.6,0.3,2.1,0.3c0.5,0,0.6,0,0.6,0.2c0,0.1-0.5,0.2-0.8,0.2c-0.4,0-1.7-0.2-2.5-0.1c0.1-0.1,0.2-0.3,0.1-0.4
	c0.1,0,0.1-0.1,0.1-0.2c-0.1,0-0.1,0-0.1-0.1c0,0,0-0.1,0-0.1c0,0,0-0.1,0-0.1c0,0-0.1-0.1-0.2-0.1c-0.1,0-0.1,0-0.2-0.1
	c0,0-0.1,0-0.1,0c0,0-0.1,0-0.1,0c0,0-0.1,0-0.1-0.1c0,0.1,0,0.1,0,0.2c-0.1,0-0.1,0.2-0.2,0.2c0,0,0,0.1,0.1,0.1
	c-0.1,0.1-0.1,0.2-0.1,0.2c0,0.1,0.1,0.1,0.1,0.1c0,0.1,0,0.2,0,0.2L28.4,26.1L28.4,26.1L28.4,26.1z"/>
<path fill="#FFFFFF" d="M28.7,28.3c-0.1,0-0.1-0.1-0.1-0.1c0,0,0.2,0.1,0.2,0.1C28.7,28.2,28.7,28.3,28.7,28.3 M28.5,28.4
	C28.5,28.4,28.5,28.3,28.5,28.4C28.5,28.3,28.5,28.4,28.5,28.4c-0.1,0-0.1,0-0.2,0c0,0,0,0.1,0,0.1c0,0,0,0,0,0.1
	c0,0-0.1,0.1-0.1,0.1c-0.1,0-0.1-0.1,0-0.2c0,0,0-0.1,0.1-0.1c0,0,0.1,0,0.1,0c0,0,0-0.1-0.1-0.1c0,0,0.1,0,0-0.1c0,0-0.1,0-0.1,0
	c0,0,0,0,0,0c0,0,0,0,0.1,0l0.2,0.1C28.5,28.3,28.6,28.3,28.5,28.4C28.6,28.4,28.6,28.4,28.5,28.4 M28.4,28c0,0.1-0.1,0.1-0.1,0
	c-0.1-0.1,0-0.1-0.1-0.2C28.3,28,28.4,28,28.4,28 M28.7,29.6C28.8,29.6,28.8,29.6,28.7,29.6L28.7,29.6c0.2,0,0.2-0.2,0.3-0.1
	c1,0.1,0.4-0.4,1.6-0.3c0.1,0,0.1,0,0.1-0.1c-0.1,0.1-0.1,0.3,0.1,0.3c0.1,0,0.2,0,0.2,0.1c0,0,0,0,0,0c-0.1,0-0.1,0-0.2,0
	c-0.2,0.1-0.2-0.3-0.4-0.2c0,0,0,0-0.1,0c-0.1,0-0.2,0.1-0.2,0.2c0,0,0.1-0.1,0.1-0.1c0,0,0,0,0,0c0,0,0,0.1,0.1,0.1c0,0,0,0,0.1,0
	c0,0,0,0,0,0c0,0.1-0.2,0-0.2,0.2c0,0,0,0,0,0.1c0,0.1,0,0.1,0.1,0.1c0,0-0.1,0-0.1-0.1c0,0,0,0,0.1,0s0,0,0,0c0,0,0,0,0,0
	c0,0,0,0,0,0c0,0,0,0,0,0c0,0,0,0.1,0,0.1c0,0.1,0.1,0.2,0.2,0.1c0,0-0.1,0-0.1,0c0,0,0,0,0,0c0,0,0,0,0-0.1c0,0,0,0,0,0
	c0,0,0,0,0.1,0c0,0,0,0,0,0c0,0.1,0.1,0.1,0.1,0.1c0.1,0,0-0.2,0.1-0.2c0,0,0.1,0,0.1,0c0.1,0,0.2,0,0.3,0c0-0.1,0-0.2-0.1-0.3
	c-0.1,0,0-0.1-0.1-0.2c0.1,0.1,0.2,0.1,0.4,0.1c0.3,0,0.3,0,0.5-0.1c0.1-0.1,0.3,0,0.3,0c0,0,0.1,0,0.1,0.1c0,0.1,0,0.1,0,0.2
	c0,0.1-0.1,0-0.2,0c-0.1,0-0.1,0-0.1,0c-0.1,0-0.1,0.1-0.1,0.2c0,0,0.1-0.1,0.1-0.1c0,0,0,0,0,0c0,0.1,0.1,0.1,0.2,0.1c0,0,0,0,0,0
	c-0.1,0-0.2,0.1-0.1,0.2c0,0,0,0,0.1,0c0,0.1,0,0.1,0.1,0.1c0,0,0-0.1,0-0.1c0,0,0.1,0,0.1,0c0.1,0,0-0.1,0.1-0.2c0,0,0,0,0,0
	c0,0.1,0,0.2,0,0.2c0,0,0,0,0,0c0,0.1,0.1,0.1,0.2,0.1c0,0-0.1,0-0.1-0.1c0,0,0-0.1,0-0.1c0-0.1-0.1-0.1-0.1-0.2
	c0-0.1,0.1,0,0.1-0.2c0,0,0-0.1-0.1-0.1c0,0,0,0,0,0v0c0,0,0.1,0,0.1,0c-0.1,0-0.1-0.1-0.1-0.1c0,0,0,0,0,0c0,0,0.1-0.1,0-0.2
	c0,0.1-0.1,0.1-0.2,0c0,0,0-0.1-0.1-0.1c-0.2,0-0.3,0-0.7,0c0.3,0,1-0.1,1-0.3c0-0.2-0.2-0.3-0.8-0.3c-0.6,0-2.4,0.2-2.4-0.1
	c0-0.2,0.6-0.1,1.1-0.1c0,0,0.1,0.1,0.1,0.1c0.8,0.2,1.6-0.3,2.1-0.1c-0.4-0.4-1,0-1.6-0.1c0.3,0,0.7-0.1,0.7-0.2
	c-0.3,0.2-1-0.1-1.3,0.1c0,0,0,0-0.1,0c-0.6,0-1.2-0.1-1.2,0.3c0,0.6,2.1,0.2,2.6,0.2c0.5,0,0.6,0.1,0.6,0.2c0,0.1-0.5,0.2-0.8,0.2
	c-0.5,0-2.4-0.2-3.2,0c0.1-0.1,0.2-0.3,0.2-0.4c0.1,0,0.1-0.1,0.1-0.2c0,0-0.1,0-0.1-0.1c0,0,0-0.1,0-0.1c0,0,0-0.1,0-0.1
	c0,0-0.1-0.1-0.2-0.1c-0.1,0-0.2,0-0.2-0.1c0,0-0.1,0-0.1,0c0,0-0.1,0-0.1,0c0,0-0.1-0.1-0.1-0.1c0,0.1-0.1,0.1,0,0.2
	c-0.1,0-0.2,0.2-0.2,0.2c0,0,0,0.1,0.1,0.1c0,0.1-0.1,0.2-0.1,0.2c0,0,0,0.1,0.1,0.1c0,0,0,0.1,0,0.2l-0.1,0c0,0-0.1,0-0.1,0
	c0,0-0.1,0-0.1,0c-0.1,0-0.2-0.2-0.3-0.2c-0.1-0.1-0.1-0.1-0.1-0.2c0-0.1,0-0.2,0-0.3c0,0,0-0.1,0-0.1c0-0.1-0.1-0.1-0.2-0.1
	c0,0,0.1,0,0.1,0.1c0,0,0,0,0,0c0,0,0,0.1,0,0.1c0,0,0,0,0,0c0,0,0,0,0,0c0,0,0,0,0,0c0-0.1-0.1-0.2-0.1-0.2c0,0,0,0,0,0v0
	c0-0.1-0.1-0.1-0.2,0c0,0,0.1,0,0.1,0c0,0,0,0.1,0,0.1c0,0.1,0.1,0.1,0.1,0.1c0,0,0,0,0,0c0,0,0,0,0,0c0,0,0,0,0,0
	c-0.1-0.1-0.2,0-0.2,0.1c0,0,0,0,0,0.1c0,0-0.1,0.1,0,0.2c0,0,0-0.1,0-0.1c0,0,0,0,0,0c0,0,0,0,0,0c0,0,0,0,0.1,0c0,0,0,0,0,0
	c0,0,0,0,0,0c0,0,0,0,0,0c-0.1,0.1-0.1,0.2,0.1,0.2c0,0,0,0,0,0c0,0.2-0.2,0.1-0.2,0c-0.1,0.2,0.1,0.3,0.2,0.2c0,0,0,0,0,0
	c0,0,0,0.1,0.1,0.1c0,0,0,0,0,0c0,0,0,0,0,0c0,0,0,0.1,0.1,0.1c0,0,0-0.1,0-0.1c0,0,0.2,0.2,0.4,0.4c0,0,0.1,0,0.1-0.1
	c0,0,0,0,0.1,0.1c0,0.1,0.1,0.2,0.1,0.2c0,0-0.4,0-0.5,0c-0.1,0.1-0.4,0.2-0.5,0c0,0,0-0.1,0-0.1c0,0-0.1-0.1-0.1-0.1c0,0,0,0-0.1,0
	c0-0.1-0.1-0.1-0.2,0c0,0,0.1,0,0.1,0.1c0,0,0,0,0,0c0,0,0,0.1,0.2,0.2c0,0,0,0,0,0c0,0-0.1,0-0.1,0c-0.1-0.1-0.1-0.1-0.2-0.1
	c0,0,0,0-0.1,0c0,0,0,0,0,0c-0.1,0-0.2,0.1-0.1,0.2c0,0,0-0.1,0.1-0.1c0,0,0,0,0,0.1c0,0.1,0.1,0.2,0.2,0c0,0,0,0,0,0
	c0,0.1-0.2,0.2-0.1,0.2c0,0,0,0,0,0c0,0,0,0,0,0c0,0.1,0.1,0.2,0.1,0.2c0,0-0.1-0.1,0-0.2c0,0,0,0,0,0c0.1,0,0-0.1,0.1-0.2
	c0,0,0,0,0,0c0,0,0,0.1,0.1,0.1c0.1,0,0.1-0.1,0.1-0.1c0,0,0,0,0,0c0,0,0.1,0.1,0.1,0.1c0,0,0.1,0,0.1-0.1c0,0,0,0.1-0.1,0.2
	c0,0,0.1-0.1,0.2-0.2c0,0,0,0,0,0.1c0,0,0,0,0,0c0,0,0.1,0,0.2,0c0,0,0,0,0,0c0,0,0,0.1,0,0.1c0,0,0-0.1,0-0.1c0,0,0,0.1,0.1,0.2
	c0-0.3,0.3-0.1,0.5-0.2c0,0,0,0,0,0c0,0,0,0.1-0.1,0.1c0,0,0.1,0,0.2-0.1C28.6,29.8,28.8,29.7,28.7,29.6"/>
<path fill="#FFFFFF" d="M35.8,32.1C35.9,32.1,35.9,32,35.8,32.1C35.9,32,36,32,36,32c0,0,0-0.1-0.1-0.1c0,0,0.1,0,0,0
	c0,0-0.1,0-0.1,0c0,0,0,0,0-0.1c0,0,0,0,0,0l0.2,0.1c0,0,0,0,0,0.1c0,0,0,0.1,0,0.1c0,0,0-0.1-0.1-0.1c0,0,0,0,0,0.1
	c-0.1,0-0.1,0-0.1,0c0,0,0,0.1,0,0.1c0,0,0,0.1,0,0.1c0,0-0.1,0.1-0.1,0.1C35.8,32.2,35.8,32.2,35.8,32.1 M36.1,31.6
	c0,0.1-0.1,0.1-0.1,0c-0.1-0.1,0-0.1-0.1-0.2C35.9,31.6,36,31.6,36.1,31.6 M36.2,31.7c0,0,0.2,0.1,0.2,0.1c-0.1,0-0.1,0.1-0.1,0.1
	C36.2,31.9,36.2,31.8,36.2,31.7 M40.5,32.8C40.5,32.8,40.5,32.8,40.5,32.8c0-0.1,0.1-0.1,0.1-0.2c0,0.1-0.2,0.1-0.2,0
	c0,0,0-0.1-0.1,0c-0.2,0-0.3,0-0.7-0.1c0,0,0,0,0,0c0.4,0,1-0.1,1-0.3c0-0.2-0.2-0.3-0.8-0.3s-2.4,0.2-2.4-0.1
	c0-0.2,0.6-0.1,1.1-0.1c0,0,0.1,0.1,0.1,0.1c0.8,0.2,1.6-0.4,2.1-0.2c-0.6-0.2-1,0.2-1.6,0c0.3,0,0.7-0.1,0.7-0.2
	c-0.3,0.2-1-0.1-1.3,0.1c0,0,0,0,0,0c-0.6,0-1.2-0.1-1.2,0.3c0,0.6,2.1,0.2,2.6,0.2c0.5,0,0.6,0.1,0.6,0.2c0,0.1-0.5,0.2-0.8,0.2
	c-0.5,0-2.4-0.3-3.2,0c0-0.1,0.2-0.3,0.1-0.4c0.1,0,0.1-0.1,0.1-0.2c0-0.1-0.1-0.1-0.2-0.1c0,0,0-0.1,0-0.1c0,0,0-0.1,0-0.1
	c0,0-0.1-0.1-0.2-0.1c-0.1,0-0.1,0-0.2,0c0,0-0.1,0-0.1,0c0,0-0.1,0-0.1,0c0,0-0.1,0-0.1-0.1c0,0.1-0.1,0.1,0,0.2
	c-0.1,0-0.1,0.2-0.2,0.2c0,0.1,0,0.1,0.1,0.1c-0.1,0.1-0.1,0.2-0.2,0.2c0,0.1,0.1,0.1,0.1,0.1c0,0.1,0,0.1,0,0.2l-0.1,0
	c0,0-0.1,0-0.1,0c0,0-0.1,0-0.1,0c-0.1,0-0.2-0.2-0.3-0.3c-0.1-0.1-0.1-0.1-0.1-0.2c0-0.1,0.1-0.2,0.1-0.3c0,0,0-0.1,0-0.1
	c0-0.1-0.1-0.1-0.1-0.1c0,0,0.1,0,0.1,0.1c0,0,0,0.1,0,0.1c0,0,0,0.1,0,0.1c0,0,0,0,0,0c0,0,0,0,0,0s0,0,0,0c0-0.1-0.1-0.2-0.1-0.2
	c0,0,0,0-0.1,0c0,0,0,0,0,0c0-0.1-0.1-0.1-0.2-0.1c0,0,0.1,0,0.1,0c0,0,0,0.1,0,0.1c0,0.1,0.1,0.1,0.1,0.1c0,0,0,0,0,0c0,0,0,0,0,0
	c0,0,0,0,0,0c-0.1-0.1-0.2,0-0.2,0.1c0,0,0,0,0,0.1c0,0-0.1,0.1,0,0.2c0,0,0-0.1,0-0.1c0,0,0,0,0,0c0,0,0,0,0,0c0,0,0,0,0.1,0
	c0,0,0,0,0,0c0,0,0,0,0,0c0,0,0,0,0,0c-0.1,0.1-0.1,0.2,0,0.2c0,0,0,0,0,0c0,0.2-0.2,0.1-0.2,0c-0.1,0.2,0.1,0.3,0.2,0.2
	c0,0,0,0,0,0c0,0,0,0.1,0.1,0.1c0,0,0,0,0,0c0,0,0,0,0,0c0,0,0,0.1,0.1,0.1c0,0,0-0.1,0-0.1c0,0,0.1,0.2,0.4,0.4
	c0,0,0.1-0.1,0.2-0.1c0,0,0,0.1,0.1,0.1l0,0c0,0.1,0.1,0.2,0.1,0.2c0,0-0.3,0-0.3,0c-0.1,0.1-0.4,0.2-0.5,0c0,0,0-0.1-0.1-0.1
	c0,0-0.1-0.1-0.1-0.1c0,0,0,0-0.1,0c-0.1-0.1-0.2-0.1-0.2,0c0,0,0.1,0,0.1,0.1c0,0,0,0.1,0,0.1c0,0,0,0.1,0.2,0.2c0,0,0,0,0,0
	c0,0-0.1,0-0.1,0C34.5,33,34.5,33,34.4,33c0,0,0,0-0.1,0c0,0,0,0,0,0c-0.1,0-0.2,0.1-0.1,0.2c0,0,0-0.1,0.1-0.1c0,0,0,0.1,0,0.1
	c0,0.1,0.1,0.2,0.2,0c0,0,0,0,0,0c0,0.1-0.2,0.1-0.1,0.2c0,0,0,0,0,0c0,0,0,0,0,0c0,0.1,0.1,0.2,0.1,0.2c0,0-0.1-0.1-0.1-0.2
	c0,0,0,0,0,0c0.1,0,0.1-0.1,0.1-0.2c0,0,0,0,0,0c0,0,0,0.1,0.1,0.1c0.1,0,0.1-0.1,0.1-0.1c0,0,0,0,0,0c0,0,0.1,0.1,0.1,0.1
	c0,0,0.1,0,0.1-0.1c0,0.1,0,0.1,0,0.2c0,0,0.1-0.1,0.2-0.2c0,0,0,0.1,0,0.1c0,0,0,0,0,0c0,0,0.1,0,0.2,0c0,0,0,0,0,0
	c0,0,0,0.1,0,0.1c0,0,0-0.1,0-0.1c0,0,0,0.1,0.1,0.2c0-0.3,0.2-0.2,0.3-0.3c0,0,0,0,0,0c0,0,0,0.1-0.1,0.1c0.1,0.1,0.3-0.1,0.3-0.2
	c0,0,0.1,0,0.2-0.1c0.2,0,0.1-0.1,0.2-0.1c1,0.1,0.4-0.4,1.5-0.3c0.1,0,0.1-0.1,0.1-0.1c-0.1,0.1-0.1,0.3,0.1,0.4
	c0.1,0,0.2,0,0.2,0.1c0,0,0,0,0,0c-0.1,0-0.1,0-0.2,0.1c-0.2,0.1-0.2-0.3-0.4-0.2c0,0,0,0-0.1,0c-0.1,0-0.2,0.1-0.1,0.2
	c0,0,0.1-0.1,0.1-0.1c0,0,0,0,0,0c0,0,0,0.1,0.1,0.1c0,0,0.1,0,0.1,0c0,0,0,0,0,0c0,0.1-0.2,0-0.2,0.2c0,0,0,0,0,0.1
	c0,0.1,0,0.1,0.2,0.1c0,0-0.1,0-0.1-0.1c0,0,0,0,0.1,0c0,0,0,0,0,0c0,0,0,0,0,0c0,0,0,0,0,0c0,0,0,0,0,0c0,0,0,0.1,0,0.1
	c0,0.1,0.1,0.2,0.2,0.1c0,0-0.1,0-0.1,0c0,0,0.1,0,0.1,0c0,0,0,0,0-0.1c0,0,0,0,0,0c0,0,0,0,0,0c0,0,0,0,0,0c0,0.1,0.1,0.1,0.2,0.1
	c0.1,0,0-0.2,0.1-0.2c0,0,0.1,0,0.1,0c0.1,0,0.2,0,0.3,0c0-0.1,0-0.2-0.1-0.3c-0.1,0,0-0.1-0.1-0.2c0.1,0,0.2,0.1,0.4,0.1
	c0.3,0,0.4,0,0.5-0.1c0.1-0.1,0.3,0,0.3,0c0,0,0.1,0,0,0.1c0,0.1,0,0.2,0,0.2c0,0-0.1,0-0.2,0c-0.1,0-0.1,0-0.1,0
	c-0.1,0-0.1,0.1-0.1,0.2c0,0,0.1-0.1,0.1-0.1v0c0,0.1,0.1,0.1,0.2,0.1c0,0,0,0,0,0c-0.1,0-0.2,0.1-0.1,0.2c0,0,0,0,0.1,0
	c0,0.1,0,0.1,0.1,0.1c0,0,0,0,0-0.1h0.1c0.1,0,0-0.1,0.1-0.2c0,0,0,0,0,0c0,0.1,0,0.2,0,0.2c0,0,0,0,0.1,0c0,0,0.1,0.1,0.2,0
	c0,0-0.1,0-0.1-0.1c0,0,0.1,0,0.1-0.1c0-0.1-0.1-0.1-0.1-0.2c0-0.1,0.1,0,0.1-0.2c0,0,0-0.1-0.1-0.1c0,0,0,0,0,0h0c0,0,0.1,0,0.1,0
	C40.4,33,40.5,32.9,40.5,32.8"/>
<path fill="#FFFFFF" d="M35.8,34.5C35.8,34.4,35.8,34.4,35.8,34.5c0.1-0.1,0.1-0.1,0.1-0.1c0,0,0-0.1-0.1-0.1c0,0,0.1,0,0-0.1
	c0,0-0.1,0-0.1,0c0,0,0,0,0,0c0,0,0,0,0,0l0.2,0.1c0,0,0,0,0,0.1c0,0,0,0,0,0.1c0,0,0,0,0-0.1c0,0,0,0,0,0.1c-0.1,0-0.1,0-0.1,0
	c0,0,0,0.1,0,0.1c0,0,0,0.1,0,0.1c0,0-0.1,0.1-0.1,0.1C35.8,34.6,35.8,34.5,35.8,34.5 M36,34c0,0.1-0.1,0.1-0.1,0.1
	c0-0.1,0-0.1-0.1-0.2C35.9,34,36,34,36,34 M36.1,34.1c0,0,0.1,0.1,0.2,0.1c-0.1,0-0.1,0.1-0.1,0.1C36.2,34.2,36.1,34.2,36.1,34.1
	 M37.8,34.1c0,0,0.1,0.1,0.1,0.1c0.7,0.2,1.6-0.3,2-0.2c-0.6-0.2-0.9,0.1-1.5,0c0.3,0,0.7-0.1,0.7-0.2c-0.2,0.2-1-0.1-1.2,0.1
	c0,0,0,0,0,0c-0.3,0-0.7,0-0.7,0.3c0,0.6,1.5,0.2,2,0.2c0.4,0,0.4,0,0.4,0.1c0,0.1-0.5,0.2-0.8,0.2c-0.4,0-1.6-0.2-2.4-0.1
	c0.1-0.1,0.2-0.3,0.1-0.4c0.1,0,0.1-0.1,0.1-0.1c0,0-0.1,0-0.1-0.1c0,0,0-0.1,0-0.1c0,0,0-0.1,0-0.1c0,0-0.1-0.1-0.2-0.1
	c-0.1,0-0.1,0-0.2-0.1c0,0-0.1,0-0.1,0c0,0-0.1,0-0.1,0c0,0-0.1,0-0.1-0.1c0,0.1,0,0.1,0,0.2c-0.1,0-0.1,0.2-0.2,0.2
	c0,0,0,0.1,0.1,0.1c-0.1,0.1-0.1,0.2-0.1,0.2c0,0,0,0.1,0.1,0.1c0,0.1,0,0.1,0,0.2l-0.1,0c0,0,0,0,0,0c-0.1,0-0.1,0-0.3-0.1
	c-0.1-0.1-0.1-0.1-0.1-0.2c0-0.1,0.1-0.2,0-0.3c0,0,0-0.1,0-0.1c0-0.1-0.1-0.1-0.2-0.1c0,0,0.1,0,0.1,0.1c0,0,0,0,0,0.1
	c0,0,0,0.1,0,0.1c0,0,0,0,0,0c0,0,0,0,0,0.1c0,0,0,0,0,0c0-0.1-0.1-0.2-0.1-0.2c0,0,0,0,0,0c0,0,0,0,0,0c0-0.1-0.1-0.1-0.2,0
	c0,0,0.1,0,0.1,0c0,0,0,0.1,0,0.1c0,0.1,0.1,0.1,0.1,0.1c0,0,0,0,0,0c0,0,0,0,0,0c0,0,0,0,0,0c-0.1-0.1-0.2,0-0.2,0.1c0,0,0,0,0,0.1
	c-0.1,0-0.1,0.1,0,0.2c0,0,0-0.1,0-0.1c0,0,0,0,0,0c0,0,0,0,0,0c0,0,0,0,0.1,0c0,0,0,0,0,0c0,0,0,0,0,0c0,0,0,0,0,0
	c-0.1,0.1-0.1,0.2,0,0.2c0,0,0,0,0,0c0,0.2-0.2,0.1-0.2,0c-0.1,0.2,0.1,0.3,0.2,0.2c0,0,0,0,0,0c0,0,0,0.1,0.1,0.1c0,0,0,0,0,0
	c0,0,0,0,0,0c0,0,0,0.1,0.1,0.1c0,0,0-0.1,0-0.1s0-0.1,0.2,0c0,0,0,0.1,0.1,0.1l0.1,0c0,0.1,0,0.3,0,0.3c0,0-0.2,0-0.3,0
	c-0.1,0.1-0.4,0.2-0.4,0c0,0,0-0.1-0.1-0.1c0,0-0.1-0.1-0.1-0.1c0,0,0,0-0.1,0c0-0.1-0.1-0.1-0.2,0c0,0,0.1,0,0.1,0.1
	c0,0,0,0.1,0,0.1c0,0,0,0.1,0.2,0.2c0,0,0,0,0,0c0,0-0.1,0-0.1,0c-0.1-0.1-0.1-0.1-0.1-0.1c0,0,0,0-0.1,0c0,0,0,0,0,0
	c-0.1,0-0.2,0.1-0.1,0.2c0,0,0-0.1,0.1-0.1c0,0,0,0,0,0.1c0,0.1,0.1,0.2,0.2,0c0,0,0,0,0,0c0,0.1-0.2,0.2-0.1,0.2c0,0,0,0,0,0l0,0
	c0,0.1,0.1,0.2,0.2,0.2c0,0-0.1-0.1-0.1-0.1c0,0,0.1,0,0.1,0c0.1,0,0-0.1,0.1-0.2c0,0,0,0,0,0c0,0,0,0.1,0.1,0.1
	c0.1,0,0.1-0.1,0.1-0.1c0,0,0,0,0,0c0,0,0.1,0.1,0,0.1c0,0,0.1,0,0.1-0.1c0,0,0,0.1,0,0.2c0,0,0.1-0.1,0.2-0.2c0,0,0,0,0,0.1
	c0,0,0,0,0,0c0,0,0.1,0,0.2,0c0,0,0,0,0,0c0,0.1,0,0.1,0,0.1c0,0,0-0.1,0-0.1s0,0.1,0,0.2c0-0.2,0.2-0.2,0.4-0.3c0,0,0,0,0,0
	c0,0,0,0.1-0.1,0.1c0.2,0.1,0.3-0.1,0.4-0.3c0,0,0,0,0,0c0,0,0,0,0,0.1c0.2,0,0.1-0.1,0.2-0.1c0.5,0,0.1-0.4,0.9-0.3
	c0,0,0.1,0,0.2-0.1c-0.1,0.1-0.1,0.3,0.1,0.3c0,0,0.1,0.1,0.2,0.1c0,0,0,0,0,0c-0.1,0-0.1,0-0.2,0c-0.2,0.1-0.2-0.2-0.4-0.2
	c0,0,0,0,0,0c-0.1,0-0.2,0.1-0.1,0.2c0,0,0.1-0.1,0.1-0.1c0,0,0,0,0,0c0,0,0,0.1,0.1,0.1c0,0,0,0,0.1,0c0,0,0,0,0,0
	c0,0.1-0.2,0-0.2,0.2c0,0,0,0,0,0c0,0.1,0,0.1,0.1,0.1c0,0-0.1,0-0.1-0.1c0,0,0,0,0,0c0,0,0,0,0,0c0,0,0,0,0,0c0,0,0,0,0,0
	c0,0,0,0,0,0c0,0,0,0,0,0.1c0,0.1,0.1,0.1,0.2,0.1c0,0-0.1,0-0.1-0.1c0,0,0.1,0,0.1,0c0,0,0,0,0-0.1c0,0,0,0,0,0s0,0,0.1,0
	c0,0,0,0,0,0c0,0,0.1,0.1,0.1,0.1c0.1,0,0-0.1,0.1-0.2c0,0,0.1,0,0.1,0c0.1,0,0.2,0,0.3,0c0-0.1,0-0.2-0.1-0.3c-0.1,0,0-0.1,0-0.2
	c0.1,0.1,0.2,0.1,0.3,0.1c0.3,0,0.4,0,0.5-0.1c0.2-0.1,0.3,0,0.3,0c0,0,0.1,0,0,0.1c-0.1,0.1,0,0.2-0.1,0.2c0,0.1-0.1,0-0.2,0
	c0,0-0.1,0-0.1,0c-0.1,0-0.2,0.1-0.2,0.2c0,0,0.1-0.1,0.1-0.1c0,0,0,0,0,0c0,0.1,0.1,0.1,0.2,0.1c0,0,0,0,0,0
	c-0.1,0-0.2,0.1-0.1,0.2c0,0,0,0,0,0c0,0,0,0.1,0.1,0.1c0,0,0,0,0-0.1c0,0,0,0,0,0c0.1,0,0.1-0.1,0.1-0.2c0,0,0,0,0,0
	c0,0.1-0.1,0.1,0,0.2c0,0,0,0,0,0c0,0.1,0.1,0.1,0.1,0.1c0,0-0.1,0-0.1-0.1c0,0,0.1-0.1,0.1-0.1c0.1-0.1,0-0.1,0-0.2
	c0-0.1,0.1,0,0.2-0.2c0,0,0-0.1,0-0.1c0,0,0,0,0,0l0,0c0,0,0.1,0,0.1,0c-0.1,0,0-0.1,0-0.1c0,0,0,0,0,0c0,0,0.1-0.1,0.1-0.2
	c0,0.1-0.2,0.1-0.2,0c0,0,0-0.1-0.1-0.1c-0.2,0-0.4,0-0.7-0.1c0,0,0,0,0,0c0.3,0,1,0,1-0.3c0-0.1-0.1-0.3-0.6-0.3
	c-0.6,0-1.8,0.2-1.8-0.1C37.3,34,37.6,34.1,37.8,34.1"/>
<path fill="#FFFFFF" d="M36,36.6c-0.1,0-0.1-0.1-0.1-0.1c0,0,0.2,0.1,0.2,0.1C36,36.6,36.1,36.6,36,36.6 M35.9,36.8
	C35.9,36.8,35.9,36.7,35.9,36.8C35.8,36.7,35.8,36.7,35.9,36.8c-0.1,0-0.1,0-0.2,0c0,0,0,0.1,0,0.1c0,0,0,0,0,0.1
	c0,0-0.1,0.1-0.1,0.1c-0.1,0-0.1-0.1,0-0.1c0,0,0-0.1,0-0.1c0,0,0.1,0,0.1,0c0,0,0-0.1-0.1-0.1c0,0,0.1,0,0-0.1c0,0-0.1,0-0.1,0
	c0,0,0,0,0,0c0,0,0,0,0.1,0l0.2,0.1C35.9,36.7,35.9,36.7,35.9,36.8C35.9,36.7,35.9,36.8,35.9,36.8 M35.8,36.4c0,0.1-0.1,0.1-0.1,0
	c0-0.1,0-0.1,0-0.1C35.7,36.4,35.8,36.4,35.8,36.4 M37.3,36.4c0,0,0.1,0.1,0.1,0.1c0.7,0.2,1.5-0.3,2-0.2c-0.6-0.2-0.9,0.1-1.5,0
	c0.3,0,0.7-0.1,0.7-0.2c-0.2,0.2-0.9-0.1-1.2,0.1c0,0,0,0-0.1,0.1c-0.2,0-0.4,0.2-0.4,0.3c0,0.2,0.3,0.3,0.8,0.2
	c0.5,0,1.1-0.1,1.1,0c0,0.1-0.4,0.2-0.8,0.2c-0.4,0-1-0.2-1.8,0v0c0-0.1,0.2-0.3,0.1-0.4c0.1,0,0.1-0.1,0.1-0.1c0,0-0.1-0.1-0.1-0.1
	c0,0,0-0.1,0-0.1c0,0,0-0.1,0-0.1c0,0-0.1-0.1-0.2-0.1c-0.1,0-0.1,0-0.2-0.1c0,0-0.1,0-0.1,0c0,0-0.1,0-0.1,0c0,0-0.1-0.1-0.1-0.1
	c0,0.1,0,0.1,0,0.2c-0.1,0-0.1,0.2-0.2,0.1c0,0,0,0.1,0.1,0.1c-0.1,0.1-0.1,0.2-0.1,0.2c0,0,0.1,0.1,0.1,0.1c0,0.2-0.1,0.3,0,0.5
	c-0.1-0.1-0.3-0.4-0.4-0.5c-0.1-0.1-0.1-0.1-0.1-0.2c0-0.1,0-0.2,0-0.3c0,0,0-0.1,0-0.1c0-0.1-0.1-0.1-0.1-0.1c0,0,0,0,0.1,0.1
	c0,0,0,0.1,0,0.1c0,0,0,0.1,0,0.1c0,0,0,0,0,0c0,0,0,0,0,0.1c0,0,0,0,0,0c0-0.1-0.1-0.2-0.1-0.2c0,0,0,0,0,0c0,0,0,0,0,0
	c0-0.1-0.1-0.1-0.2,0c0,0,0.1,0,0.1,0c0,0,0,0.1,0,0.1c0,0.1,0,0.1,0.1,0.1c0,0,0,0,0,0c0,0,0,0,0,0c0,0,0,0,0,0
	c-0.1-0.1-0.2,0-0.2,0.1c0,0,0,0,0,0c0,0-0.1,0.1,0,0.1c0,0,0-0.1,0-0.1c0,0,0,0,0,0c0,0,0,0,0,0c0,0,0,0,0.1,0c0,0,0,0,0,0
	c0,0,0,0,0,0c0,0,0,0,0,0c-0.1,0.1-0.1,0.2,0,0.2c0,0,0,0,0,0c0,0.2-0.2,0.1-0.2,0c-0.1,0.2,0.1,0.3,0.2,0.2c0,0,0,0,0,0
	c0,0,0,0.1,0.1,0.1c0,0,0,0,0,0c0,0,0,0,0,0c0,0,0,0.1,0.1,0.1c0,0,0-0.1,0-0.1c0,0,0,0.2,0.2,0.4c0,0.1,0.1,0.2,0.3,0.2
	c0,0.1,0.1,0.2,0.1,0.2c0,0-0.3,0-0.4,0c0,0-0.1,0-0.2,0.1l0,0c-0.1,0-0.2,0-0.2,0c0,0,0-0.1-0.1-0.1c0,0-0.1-0.1-0.1-0.1
	c0,0,0,0-0.1,0c0,0-0.1,0-0.2,0c0,0,0.1,0,0.1,0.1c0,0,0,0,0,0c0,0,0,0.1,0.2,0.2c0,0,0,0,0,0c0,0-0.1,0-0.1,0
	c-0.1-0.1-0.1-0.1-0.1-0.1c0,0,0,0-0.1,0c0,0,0,0,0,0c-0.1,0-0.2,0.1-0.1,0.2c0,0,0-0.1,0.1-0.1c0,0,0,0,0,0c0,0.1,0.1,0.2,0.2,0
	c0,0,0,0,0,0c0,0.1-0.1,0.1-0.1,0.2c0,0,0,0,0,0c0,0,0,0,0,0c0,0.1,0.1,0.2,0.1,0.2c0,0-0.1-0.1,0-0.1c0,0,0,0,0,0
	c0.1,0,0-0.1,0.1-0.2c0,0,0,0,0,0c0,0,0,0.1,0.1,0.1c0.1,0,0.1-0.1,0.1-0.1c0,0,0,0,0,0c0,0,0.1,0.1,0,0.1c0,0,0,0,0.1-0.1
	c0,0,0,0.1,0,0.2c0,0,0.1-0.1,0.2-0.2c0,0,0,0,0,0.1c0,0,0,0,0,0c0,0,0.1,0,0.2,0c0,0,0,0,0,0c0,0,0,0.1,0,0.1c0,0,0,0,0,0
	s0,0.1,0,0.1c0-0.2,0.2-0.1,0.3-0.2c0,0,0,0,0,0c0,0,0,0.1-0.1,0.1c0.1,0,0.2-0.1,0.2-0.2c0,0,0.1-0.1,0.1-0.4c0,0,0,0,0.1,0
	c0.2,0,0.3-0.2,0.5-0.2c-0.1,0.1-0.1,0.2-0.1,0.3c0,0.1,0.1,0.2,0.2,0.3c0,0,0,0,0,0c-0.1,0-0.1,0-0.1,0c-0.2,0.1-0.2-0.2-0.3-0.2
	c0,0,0,0-0.1,0c-0.1,0-0.2,0.1-0.1,0.2c0,0,0.1-0.1,0.1-0.1c0,0,0,0,0,0c0,0,0,0.1,0.1,0.1c0,0,0,0,0.1,0c0,0,0,0,0,0
	c0,0.1-0.2,0-0.2,0.2c0,0,0,0,0,0.1c0,0,0,0.1,0.1,0.1c0,0-0.1,0,0-0.1c0,0,0,0,0,0c0,0,0,0,0,0c0,0,0,0,0,0c0,0,0,0,0,0
	c0,0,0,0,0,0c0,0,0,0.1,0,0.1c0,0.1,0.1,0.1,0.2,0.1c0,0-0.1,0-0.1,0c0,0,0,0,0,0c0,0,0,0,0-0.1c0,0,0,0,0,0s0,0,0,0c0,0,0,0,0,0
	c0,0,0.1,0.1,0.1,0.1c0.1,0,0-0.1,0.1-0.2c0,0,0,0,0.1,0c0.1,0,0.2,0,0.2,0c0,0,0-0.2-0.1-0.3c-0.1,0,0.1-0.4-0.2-0.6
	c0.1,0,0.5,0.1,0.6,0c0.1,0,0.3,0.1,0.3,0.1c0,0,0,0,0,0.1c-0.1,0.1-0.1,0.1-0.1,0.1h0c0,0-0.1-0.1-0.1-0.1c0,0-0.1,0-0.1,0
	c-0.1,0-0.1,0-0.2,0.1c0,0,0.1,0,0.1,0c0,0,0,0,0,0c0,0,0,0,0,0.1l0,0l0,0c0,0,0,0,0,0c0,0,0,0,0,0c-0.1,0-0.2,0-0.1,0.1
	c0,0,0,0,0,0c0,0-0.1,0.1,0,0.1c0,0,0-0.1,0.1-0.1c0,0,0,0,0,0c0,0,0.1-0.1,0.2,0c0,0,0,0,0,0c-0.1,0-0.1,0.1-0.1,0.1c0,0,0,0,0,0
	c0,0,0,0.1,0.1,0.1c0,0,0-0.1,0-0.1c0,0,0.1,0,0.1,0c0.1-0.1,0-0.1,0.1-0.2c0.1,0,0.1,0.1,0.2,0c0,0,0-0.1,0-0.1c0,0,0,0,0,0l0,0
	c0,0,0,0.1,0.1,0c-0.1-0.1,0-0.1,0-0.1c0,0,0,0,0,0c0,0,0.1,0,0.1-0.1c-0.1,0-0.2-0.1-0.1-0.1c0.1-0.1,0.1-0.1,0.1-0.2
	c-0.1-0.1-0.3-0.1-0.3-0.3c0.1,0,0.2,0,0.2,0c0.6,0,1-0.2,1-0.4c0-0.2-0.2-0.2-0.6-0.2c-0.6,0-1.3,0.1-1.3-0.1
	C37,36.6,37.1,36.5,37.3,36.4"/>
<path fill="#FFFFFF" d="M17.3,10.4c-0.6,0.5-1.3,0-1.6-0.5c0.8-0.3,1.7-0.7,2.3-1.1C17.4,9.6,17.7,10,17.3,10.4 M17.2,16.3
	c-0.7,0.3-1.3-0.3-1.4-0.8c-0.1-0.4-0.2-0.8-0.1-1c0.3-0.3,0.4-0.6,0.2-1c-0.2-0.5-0.7-0.2-1.2-0.1c0.2-0.4,0.2-0.8-0.1-0.7
	c-0.4,0.1-0.4,0.7-0.6,0.6c-0.2-0.1-0.1-0.4-0.1-0.6c0-0.3,0.2-0.4,0.4-0.5l2.1-0.8c0.3-0.1,0.5-0.2,0.6,0c0.1,0.1,0.5,0.3,0.4,0.5
	c-0.1,0.2-0.5-0.2-0.8,0c-0.3,0.2,0,0.4,0.4,0.6c-0.4,0.3-0.9,0.4-0.8,0.9c0.1,0.4,0.4,0.5,0.8,0.5c0.2,0,0.4,0.3,0.6,0.8
	C17.9,15.2,17.9,16,17.2,16.3 M13.2,12c-0.6,0.1-0.6-0.5-1.6-0.8c0.7-0.1,1.6-0.5,2.4-0.8C14.1,11.1,13.9,11.9,13.2,12 M24,29.4
	c-0.1-0.6,0-1.2-0.7-2.1c-0.7-0.8-3-3.4-3.7-4.3c0.2,0,0.4,0,0.8,0.5c0.3,0.3,1,0.9,1.5,1.4c0.6-1.6,1.5-3.2,2.6-4.4
	c0.2-0.2,0.4-0.5,0.6-0.7c-0.5,0.1-1,0.3-1.5,0.7c0-0.7-0.2-1.4-0.7-1.9c0.2-1,0-2.2-2.2-3.7c1.1,0.3,1.8,1.3,2.7,0.5
	c-0.8,0-0.8-1.8-3.6-3.2c1.1,0,1.9,1.7,3.2,0.8c-1.2-0.2-1.6-2.3-3.7-2.9c0.7,0.1,1.5,0.5,2.1-0.4c-0.7,0.2-1.2-0.5-2-0.6
	c0.3-0.9,0.2-1.5-0.1-2.2c-0.5,0-1.1,0.2-1.5,0.6C17.8,7,17.3,7,16.8,7c0,0.2,0.1,0.5-0.1,0.6c-0.4,0.1-1.6,0.4-2.6,0.8
	c-1,0.4-2.1,1.1-2.4,1.3c-0.2,0.1-0.4-0.2-0.5-0.3c-0.3,0.3-0.7,0.7-0.4,1.1c-0.6,0.1-1.1,0.2-1.6,0.6c0,0.6,0.5,1.3,1.3,1.6
	c-1.3,1.3-0.1,2.5-1.3,3.7c1.6,0.1,1.3-2.2,2.2-2.5c-0.1,1.6-1,1.9-1,3.6c0,0.9,0.5,1.9,0,2.6c1.4-0.4,1-3.4,1.9-4.3
	c0.1,0.5,0.1,1-0.1,1.6c-0.5,1.4,0,3.4-0.7,4c1.2-0.1,1.5-1.9,2.3-2.8c-0.9,2.3-1.8,6.3-3.1,8.1c-2.3,3.2-3.7,7.2-5.9,7.2
	c-0.9,0-1.7-0.6-1.7-1.8c0-3.7,6.2-6.2,6.2-10.1c0-1.7-1.4-2.4-2.3-2.4c-0.6,0-1.3,0.3-1.9,0.8c-0.3-0.1-0.5-0.2-0.7-0.2
	c-2.2,0-1.6,4-3.5,4c0.8,0.4,2.1-0.4,2.8-1.5c-0.3,2.6-4,1.9-3.7,5c0.5-2.4,6.4-2.1,6.4-5.8c0-0.4-0.2-0.8-0.5-1
	c0.4-0.3,0.8-0.4,1.2-0.4c0.7,0,1.3,0.5,1.3,1.6c0,3.3-6.2,6.1-6.2,10.1c0,0.7,0.2,1.2,0.5,1.7c-0.4,0.2-0.9,0.1-1.2-0.3
	c0,1,1.4,1.7,2.3,1.2c0.2,0.1,0.4,0.1,0.6,0.1c-0.3,0.8-1.2,1-1.7,1c1.5,1.2,4.1-0.4,4-1.7c1.2-1,2-2.7,2.8-3.8
	c0,0.2-0.1,0.5-0.1,0.8c-0.9,1.6-1.7,3.1-1.9,5.2c-0.2,1.8-1.1,3.4-2.3,3.4c-0.3,0-0.7-0.4-0.9-0.2c-0.4,0.3,0,0.7,0,1
	c0,0.5-1,1-1,2.6c0,0.7,0.4,1.6,0.2,2c0.4-0.2,0.9-0.9,1.1-1.8c0.4,2.1-0.9,2,0.1,3.8c0.1-0.6,0.7-0.9,1.1-0.6
	c0.4,0.3,0.2,0.4-0.1,0.7c-0.3,0.3-0.5,1.7,0.7,1.6c-0.2-0.2-0.2-0.5,0.4-0.7c0.9-0.2,1.1,0.2,2,0.2c0.6,0,0.7-0.8,1.2-0.8
	c0.4,0,0.4,0.4,0.3,0.6c0.7-0.2,0.8-0.6,0.8-1c0-0.4-0.3-0.7-0.1-0.8c0.2-0.2,1.1,0,0.8,0.7c0.4-0.1,0.7-0.4,0.7-0.9
	c0-0.5-0.6-0.8-1.2-0.8c-0.1-0.3-0.6-0.5-1-0.5c-1,0-0.9,0.8-1.6,0.8c-1.1,0-2.2-1.5-2.2-3.9c0-1.3,1.4-1.7,2.4-2.1
	c1-0.4,2.7-1.5,3.8-3.3c0.8-1.4,0.8-2.9,0.7-4.7c1.4,0.8,1.6,2,1.6,2.8c0,1.1-0.6,1.5-1,1.8c-0.4,0.2-0.5,0.1-0.6,0.3
	c-0.1,0.3,0.1,0.4,0.3,0.5c0.5,0.3,0.4,0.8,0.6,1.3c0.1,0.5,0.6,1.4,1.4,2c0.1-0.3,0.1-0.9,0-1.6c1.1,0.5,0.2,2.7,2.3,2.7
	c-0.4-0.2-0.3-0.8-0.1-0.9c0.2-0.1,0.5,0.1,0.9,0.7c0.4,0.6,0.3,0.5,1.3,0.5s0.5-0.4,1.1-0.4c0.5,0,0.5,0.6,0.2,1.1
	c0.9-0.3,1.2-0.9,0.9-1.6c0.8-0.4,1.2,0.2,1.3,0.6c0.8-0.8,0-1.7-0.6-1.8c0-0.3-0.2-0.6-0.6-0.6c-0.3,0-0.6,0-1,0
	c-0.4,0-0.6,0.6-1,0.6c-1.3,0-3.9-2.4-3.9-3.5c0-1,2.5-1.7,2.5-3.3c0-2.1-2.1-2.8-3.8-4.2c0.6-0.7,2.4-0.9,3.4-0.3
	c0.1-0.6,0.5-0.4,0.6-1.5c0.4,0.9-0.1,1.6,0.2,2c0.3-0.4,1-0.4,1-1.5c0.2,0.7-0.3,1.7,0.2,2.2c0.1-0.6,0.4-0.7,0.6-0.7
	c0.2,0,0.4,0.2,0.4,0.5c0,0.8-1,0.6-1,1.6c0,0.4,0.5,0.5,0.5,0.8s-0.4,0.7-0.9,0.3c0.2,0.4,0.5,0.7,0.9,0.7c0.5,0,0.9-0.4,1.1-0.8
	c0.2,0.6,0.1,1.3-0.4,1.4c0.4,0.2,1.5,0,1.4-1.4c0.6,0.1,0.9,0.5,0.6,1.3c0.5-0.1,0.9-0.4,0.9-0.9c0-0.4-0.4-0.7-0.3-1.3
	C24.8,30.5,24.1,30.1,24,29.4"/>
<path fill="#FFFFFF" d="M10.2,7c0-0.2-0.2-0.4-0.4-0.4C9.6,6.6,9.4,6.8,9.4,7c0,0.2,0.2,0.4,0.4,0.4C10,7.4,10.2,7.2,10.2,7"/>
<path fill="#FFFFFF" d="M10.1,5.9c0-0.2-0.2-0.4-0.4-0.4c-0.2,0-0.4,0.2-0.4,0.4c0,0.2,0.2,0.4,0.4,0.4C9.9,6.3,10.1,6.1,10.1,5.9"
	/>
<path fill="#FFFFFF" d="M10.3,5.4c0.2,0,0.4-0.2,0.4-0.4c0-0.2-0.2-0.4-0.4-0.4c-0.2,0-0.4,0.2-0.4,0.4C9.9,5.2,10.1,5.4,10.3,5.4"
	/>
<path fill="#FFFFFF" d="M11.4,5.3c0.2,0,0.4-0.2,0.4-0.4c0-0.2-0.2-0.4-0.4-0.4c-0.2,0-0.4,0.2-0.4,0.4C11,5.2,11.2,5.3,11.4,5.3"/>
<path fill="#FFFFFF" d="M16,4.6c0.2,0.2,0.4,0.2,0.6,0c0.2-0.2,0.2-0.4,0-0.6c-0.2-0.2-0.4-0.2-0.6,0C15.8,4.2,15.8,4.4,16,4.6"/>
<path fill="#FFFFFF" d="M15.9,3.7c0.2-0.2,0.2-0.4,0-0.6c-0.2-0.2-0.4-0.2-0.6,0c-0.2,0.2-0.2,0.4,0,0.6C15.5,3.9,15.7,3.9,15.9,3.7
	"/>
<path fill="#FFFFFF" d="M14.8,3.5C15,3.4,15,3.1,14.8,3c-0.2-0.2-0.4-0.2-0.6,0c-0.1,0.2-0.1,0.4,0,0.6C14.4,3.7,14.7,3.7,14.8,3.5"
	/>
<path fill="#FFFFFF" d="M13.9,4.2c0.2-0.2,0.2-0.4,0-0.6c-0.2-0.2-0.4-0.2-0.6,0c-0.2,0.2-0.2,0.4,0,0.6C13.5,4.4,13.7,4.4,13.9,4.2
	"/>
<path fill="#FFFFFF" d="M11.3,3.7l0.3,0.7l0.4-0.5c0,0,0,0,0.1,0c0,0.2,0,0.7,0,0.9c0,0.3,0.2,0.5,0.5,0.5c0.3,0,0.5-0.2,0.5-0.5
	c0-0.2-0.1-0.4-0.3-0.5c-0.2-0.2-0.4-0.4-0.6-0.5c0,0,0,0,0-0.1l0.7,0.1L12.8,3l-0.5,0.4c0,0,0,0,0,0l0-0.8L11.5,3L12,3.6
	c0,0,0,0,0,0.1L11.3,3.7L11.3,3.7z"/>
<path fill="#FFFFFF" d="M16,4.9c0.1,0.3,0.2,0.4,0.2,0.6c-0.1,0-0.3-0.2-0.4-0.4l0.1,1c0.1-0.2,0.2-0.3,0.3-0.4
	c0,0.6-0.3,0.9-0.5,0.9c-0.2,0.1-0.5-0.1-0.5-0.3c-0.1-0.3,0.2-0.4,0.4-0.2c0-0.6-0.4-0.6-0.6-0.3c0.2-0.5,0.1-0.9-0.3-1.2
	c-0.3,0.5-0.2,0.9,0.2,1.3c-0.4-0.2-0.7,0.1-0.4,0.6C14.6,6,15,6.1,15,6.4c0.1,0.3-0.2,0.6-0.6,0.7c-0.6,0.2-0.8-0.2-0.9-0.5
	c0.1-0.1,0.4-0.1,0.8,0.2L14,5.8c-0.1,0.3-0.3,0.5-0.6,0.6c0-0.3,0.2-0.8,0.2-0.8L12.5,6c0,0,0.5,0.3,0.7,0.5
	c-0.2,0.1-0.5,0.1-0.8,0l0.4,0.9c0.1-0.4,0.3-0.6,0.4-0.7c0.1,0.3,0.2,0.7-0.3,1c-0.4,0.2-0.8,0.1-0.9-0.1c-0.2-0.3,0-0.6,0.3-0.3
	c-0.1-0.5-0.5-0.5-0.6-0.1c0-0.6-0.1-0.9-0.7-1.1c-0.2,0.6,0,0.9,0.6,1.1c-0.3,0-0.6,0.3-0.2,0.7c0-0.3,0.3-0.4,0.5-0.2
	C12,7.9,12,8.1,11.8,8.3c-0.2,0.1-0.5,0.1-1-0.3c0.1-0.1,0.3,0,0.5,0l-0.6-0.8c0,0.3,0,0.5,0,0.6c-0.1-0.2-0.2-0.3-0.2-0.6L10,7.7
	c0.4,0.3,0.9,0.7,1.5,1.5c0.6-0.4,1.8-1,2.5-1.2c0.7-0.3,1.9-0.7,2.6-0.9c-0.2-1-0.1-1.7,0-2.2L16,4.9L16,4.9z"/>
<path fill="#FFFFFF" d="M64.7,41c0-0.7,0.6-1.3,1.3-1.3c0.7,0,1.3,0.6,1.3,1.3c0,0.7-0.6,1.3-1.3,1.3C65.3,42.4,64.7,41.8,64.7,41
	 M64.2,41c0,1,0.8,1.8,1.7,1.8s1.7-0.8,1.7-1.8c0-1-0.8-1.8-1.7-1.8S64.2,40.1,64.2,41"/>
<path fill="#FFFFFF" d="M58.5,44.2c-0.5-0.1-0.8-0.5-0.8-0.8c0-0.2,0.1-0.3,0.2-0.4c0.2-0.1,0.5-0.2,0.8-0.1
	c0.4,0.1,0.8,0.4,0.8,0.8c0,0,0,0.1,0,0.1C59.5,44.1,59,44.3,58.5,44.2 M57.7,42.7c-0.2,0.2-0.4,0.4-0.4,0.7c-0.1,0.3,0,0.6,0.3,0.9
	c0.2,0.2,0.5,0.4,0.9,0.5c0.4,0.1,0.7,0,1-0.1c0.3-0.2,0.5-0.4,0.6-0.7l0,0c0.1-0.6-0.4-1.2-1.1-1.4C58.4,42.4,58,42.5,57.7,42.7"/>
<path fill="#FFFFFF" d="M48,18.9c0-0.2,0.1-0.5,0.4-0.7C48.6,18,48.8,18,49,18c0.1,0,0.2,0.1,0.3,0.2c0.1,0.1,0.1,0.3,0.1,0.4
	c0,0.2-0.2,0.4-0.4,0.6c-0.3,0.3-0.8,0.3-1,0C48,19.1,48,19,48,18.9 M48.1,17.8c-0.5,0.4-0.7,1.1-0.4,1.6c0.4,0.5,1.1,0.5,1.6,0.1
	c0.3-0.2,0.5-0.6,0.5-0.9c0-0.3,0-0.5-0.2-0.7c-0.1-0.2-0.4-0.3-0.6-0.3C48.8,17.5,48.4,17.6,48.1,17.8"/>
<path fill="#FFFFFF" d="M56.3,41.7L56.3,41.7c-0.2,0-0.3-0.1-0.4-0.2c-0.2-0.2-0.3-0.5-0.3-0.8c0-0.3,0.1-0.6,0.3-0.7
	c0.1-0.1,0.2-0.2,0.4-0.2c0.4,0,0.7,0.4,0.7,0.9c0,0.3-0.1,0.6-0.3,0.8C56.7,41.6,56.5,41.7,56.3,41.7 M55.7,39.7
	c-0.3,0.2-0.4,0.6-0.4,1.1v0c0,0.4,0.1,0.8,0.4,1c0.2,0.2,0.5,0.3,0.7,0.3c0.3,0,0.5-0.1,0.7-0.3c0.3-0.3,0.4-0.6,0.4-1.1
	c0-0.4-0.1-0.7-0.3-1c-0.2-0.3-0.5-0.4-0.8-0.4C56.1,39.4,55.9,39.5,55.7,39.7"/>
<path fill="#FFFFFF" d="M47.5,27.1c-0.5-0.2-0.7-0.7-0.5-1c0.1-0.2,0.2-0.2,0.3-0.3c0.2-0.1,0.5-0.1,0.8,0.1
	c0.3,0.1,0.5,0.3,0.5,0.6c0,0.1,0.1,0.3,0,0.4c-0.1,0.2-0.2,0.2-0.3,0.3C48,27.3,47.7,27.3,47.5,27.1 M47.1,25.4
	c-0.3,0.1-0.5,0.3-0.6,0.5c-0.3,0.6,0.1,1.3,0.7,1.6c0.4,0.2,0.8,0.2,1.1,0.1c0.3-0.1,0.5-0.3,0.6-0.5c0.1-0.2,0.1-0.5,0-0.8
	c-0.1-0.4-0.4-0.7-0.8-0.8C47.9,25.3,47.5,25.3,47.1,25.4"/>
<path fill="#FFFFFF" d="M59.8,33.5c-0.3,0.4-0.8,0.5-1.1,0.3c-0.3-0.2-0.3-0.7-0.1-1.2c0.3-0.4,0.8-0.6,1.1-0.3
	C60,32.6,60.1,33.1,59.8,33.5 M57.7,36.8c-0.3,0.4-0.8,0.5-1.1,0.3c-0.3-0.2-0.3-0.7-0.1-1.2s0.8-0.6,1.1-0.3
	C58,35.8,58,36.4,57.7,36.8 M50.6,18.8L50.6,18.8c0.2-0.8,0.7-2.3,0.7-2.3l0-0.1l1,0.4l-0.1,0.1c-0.2,0.1-0.4,0.2-0.7,0.5
	c0.2,0.1,0.4,0,0.6-0.1l0.1-0.1l-0.4,1.1l-0.1-0.1c-0.1-0.1-0.2-0.4-0.4-0.4c0,0.1,0,0.1,0,0.2c0,0.4,0.3,0.6,0.5,0.7
	c0.5,0.2,0.8,0.3,0.9,0.1c0,0,0-0.1,0-0.1c0-0.1,0-0.1-0.1-0.2c-0.1-0.1-0.2-0.2-0.5-0.1l-0.1,0l0-0.1c0-0.3,0.1-0.4,0.1-0.5
	c0.1-0.1,0.2-0.2,0.4-0.2c0.2,0,0.3,0.1,0.4,0.3c0.1-0.6,0.4-1,0.9-1.2l0,0l0,0.1c0.1,0.2,0.1,0.4,0.1,0.5c0,0.3-0.1,0.7-0.4,1
	c0.2,0,0.4,0,0.5,0.2c0.1,0.1,0.1,0.3,0.1,0.4c0,0.1-0.1,0.3-0.4,0.4l-0.1,0l0-0.1c0-0.2-0.2-0.3-0.3-0.3c-0.1,0-0.3,0-0.3,0.2
	c-0.1,0.2,0.1,0.5,0.5,0.7c0.6,0.3,0.9,0,1.1-0.3c-0.2,0-0.4,0-0.6,0.2l-0.2,0.1l0.7-1.3l0,0.2c0,0.1,0.1,0.3,0.3,0.5
	c0-0.1,0.1-0.3,0.1-0.5c0-0.1,0-0.2-0.1-0.4L55,17.9l1.4,0.8l-0.2,0c-0.2,0-0.5,0.2-0.7,0.4c0.3,0.1,0.5,0,0.5,0l0.1-0.1l-0.8,1.3
	v-0.2v0c0-0.3-0.1-0.5-0.2-0.6c-0.1,0.1-0.1,0.3-0.1,0.4c0,0.2,0.1,0.5,0.4,0.7c0.4,0.3,0.7,0.3,0.9,0.1c0.1-0.1,0.1-0.3,0-0.4
	c-0.1-0.1-0.3-0.2-0.4-0.1l-0.1,0v-0.1c0-0.3,0.1-0.5,0.2-0.5c0.1-0.1,0.2-0.1,0.4-0.1c0.2,0,0.4,0.2,0.4,0.4c0.2-0.6,0.5-0.9,1.1-1
	l0.1,0l0,0c0,0.1,0,0.2,0,0.3c0,0.4-0.2,0.8-0.6,1.1c0.2,0,0.3,0.1,0.4,0.2c0,0.1,0.1,0.2,0.1,0.3c0,0.1,0,0.1,0,0.2
	c0,0.1-0.1,0.3-0.4,0.4l-0.1,0v-0.1c0-0.2-0.2-0.3-0.3-0.4c-0.1,0-0.2,0-0.3,0.1c-0.1,0.2,0.1,0.4,0.5,0.7c0.3,0.2,0.6,0.4,1,0
	c-0.1-0.1-0.4-0.2-0.6-0.2h-0.1l0.7-0.9l0,0.2c0,0,0,0,0,0c0,0.2,0.1,0.4,0.2,0.5c0.1-0.2,0.1-0.5,0.1-0.6c0-0.1,0-0.1,0-0.2l0-0.1
	l0.8,0.7l0,0c0,0-1.1,1.2-1.6,1.8l0,0L50.6,18.8L50.6,18.8z M59.2,28.6c0-0.1,0-0.3,0.2-0.4l0,0c0.1-0.1,0.3-0.2,0.4-0.2
	c0.2,0,0.5,0.1,0.7,0.4c0.2,0.2,0.3,0.5,0.3,0.7c0,0.1,0,0.3-0.2,0.4l0,0c-0.1,0.1-0.3,0.2-0.4,0.1c-0.2,0-0.5-0.1-0.7-0.4
	C59.3,29.1,59.2,28.8,59.2,28.6 M62.3,43.2c0.1-0.2,0.2-0.5,0.5-0.6c0.2-0.2,0.5-0.2,0.8-0.2c0.1,0,0.3,0.1,0.4,0.2l0,0
	C64,42.7,64,42.9,64,43c0,0.2-0.2,0.5-0.5,0.6c-0.4,0.3-0.9,0.3-1.1-0.1C62.3,43.4,62.3,43.3,62.3,43.2 M47.5,21.2
	c0,0.2-0.1,0.5-0.3,0.6c-0.1,0.1-0.2,0.1-0.3,0.1c-0.3,0-0.5-0.4-0.5-0.8c0,0,0,0,0-0.1c0-0.3,0.1-0.5,0.3-0.6
	c0.1-0.1,0.2-0.1,0.3-0.1c0.1,0,0.2,0.1,0.3,0.2C47.4,20.7,47.5,20.9,47.5,21.2 M52.1,11.6c0.2-0.5,0-1.2,0.8-1.2
	c0.4,0,0.8,0.4,1.3,0.6C53.4,11.1,52.7,11.3,52.1,11.6 M65.5,23.6c0.6,1.6,1.7,2.1,2.6,1.7c-1.9-0.2-0.4-3.6-2.8-3.6
	c-0.1,0-0.3,0-0.4,0c-0.4-0.5-0.9-0.6-1.6-0.6c-1,0-2.9,1-2.9,3.2c0,4.6,5.2,5,5.2,9c0,1.2-0.9,1.9-1.9,1.9c-0.9,0-1.6-1-2.3-2.6
	c-0.4-0.7-1.1-1.8-1.9-2.8c0.2,0.2,0.5,0.3,0.8,0.3c0.3,0,0.5-0.1,0.7-0.3c0.2-0.2,0.3-0.4,0.3-0.7c0,0,0,0,0,0c0-0.4-0.2-0.7-0.4-1
	c-0.3-0.3-0.7-0.5-1-0.5c-0.3,0-0.5,0.1-0.7,0.3c-0.2,0.2-0.3,0.4-0.3,0.7c0,0,0,0,0,0c0,0.1,0,0.3,0.1,0.5c-1.1-1.5-2.2-3-2.2-3.8
	c0-0.7,0.5-1.3,1.1-2.1c0,0,0.2,0.1,0.2,0.1l0.2-0.2c0.2-0.2,0.6-0.7,1.5-1.7l0.1-0.1h0l0.2-0.2l-0.6-0.5c0.1-0.3,0.3-0.7,0.4-1.1
	c0.2,0.7,0.5,1.2,1.1,1c-0.3-0.8,0.3-1.8-0.1-3.6c0.4,0.7,1,1.1,1.5,1c-1.1-1.1,0.4-2.5-1.2-4.8c0.5,0.2,0.8,0.1,1-0.2
	c-1.4-0.2-0.8-2-3.2-2.6c0.6-0.1,1-0.5,0.9-0.8c-0.6,0.5-1.2-0.9-3.3-0.8c-0.1-0.8-0.8-1.6-1.7-2c0.1,0.6,0,1.2-0.1,1.6l-6.8-6.8
	c-0.2-0.2-0.3-0.2-0.4-0.2c-0.1,0.1-0.1,0.2,0.1,0.3l5.9,7.4c-0.4,0.2-0.9,0.3-1.3,0.5c-0.3,0.1-0.5,0.4-0.5,0.8
	c-1.1,0.6-2,1.2-2.5,1.7c-0.4,0.3-0.6,0.4-0.3,1.2c0.1,0.3-0.3,1,0.6,0.5c0.6-0.3,1.8-1.1,2-0.6c0.1,0.2-0.5,0.5-1,0.7
	c-0.4,0.2-0.9,0.5-0.8,0.7c0.1,0.2,0.4,0,0.4,0.2c0,0.2,0.2,0.4,0.3,0.4s0.4-0.4,0.5-0.2c0.1,0.1-0.1,0.9-0.2,1.1
	c0.7-0.1,1.1-0.7,1.1-1.2c0-0.5,0.1-0.6,0.2-0.7c0.1-0.1,0.2,0.5,0.1,0.9c0.3-0.1,0.7-0.5,0.7-1.4c0.2-0.1,0.4-0.3,0.5-0.3
	c0.2,0,0.7,0.6,1.3,0.6c1.2,0,1.8-1,1.9-1.4c0-0.4,0-0.7-0.2-1c0.4,0.3,0.5,0.9,0.5,1.3c0,1.7-2.9,2.5-4.1,3.6
	c-0.1,0-0.1,0.1-0.1,0.1l-1.4-0.5l-0.1,0.3c0,0,0,0.1-0.1,0.3c-0.1,0.5-0.4,1.5-0.6,2l-0.1,0.2l0.1,0.1c-0.8,1.1-1.5,2.3-1.6,3.6
	c-0.3-0.3-0.6-0.6-1-0.9c0-0.1,0.1-0.2,0.1-0.4c0-0.4-0.1-0.7-0.3-1c-0.2-0.2-0.4-0.3-0.6-0.3c-0.2,0-0.5,0.1-0.7,0.2
	c0,0-0.1,0.1-0.1,0.1c-0.1,0-0.1-0.1-0.2-0.1c-0.4-0.4-1-0.8-1.3-1.2c-0.1-0.2-0.3-0.2-0.6-0.2c-0.1,0-0.4,0-0.6,0
	c-0.2,0-0.3,0.2-0.5,0.4c-0.1,0.1-0.6,0.4-1,0.8c0.2,0.2,0.4,0.4,0.6,0.6c0.1,0.1,0.1,0.1,0.2,0.2c0.2-0.2,0.3-0.3,0.4-0.4
	c0.2-0.1,0.3-0.2,0.5-0.2c0.2,0,0.4,0.1,0.6,0.4c0.1,0.2,1.2,1.7,2.1,2.7c-0.1,0-0.2,0.1-0.3,0.1c-0.4,0.2-1.3,0.1-1.7,0.1
	c-0.4,0-0.5-0.1-0.7,0.3c-0.1,0.2-0.2,0.3-0.4,0.5c-0.1,0.2-0.2,0.3,0,0.8c0.4,0.7,1.4,2.5,1.7,3.3c0.3,0.8,0.7,1,1.3,1.2
	c0.6,0.3,1.7,0.9,1.9,1l0-0.6c-0.2-0.2-0.8-0.4-1-0.5s-0.3-0.2,0-0.2c0.3,0,1,0.3,1.6,0.5c-0.2-0.6-0.7-1.3-1.1-1.7
	c-0.5-0.1-0.9-0.1-1.1,0c0,0.1-0.1,0.3-0.3,0.3c-0.2,0-0.3-0.2-0.2-0.3c0.1-0.2,0.3-0.3,0.3-0.6c-0.1-0.4-0.5-0.4-0.8-0.4
	c-0.4-0.6-0.8-1.4-1-1.7c-0.2-0.3-0.1-0.5,0.1-0.6c0.3-0.3,1,0.1,2.4,0.2c0.5,0,1.1,0.1,1.7,0.1c0.2,1.6,0.8,3.2,3.1,3.8
	c1.1,0.3,2.2,1.1,2.6,2.2c-4.5-0.1-5.2,1.7-5.2,3.3c0,1.9,1.6,1.8,1.6,3.2c0,1.2-3.8,1.7-4.9,1.9c-1,0.1-1.5,0.4-2,0.8
	c-0.5,0.5-0.9,0.9-1.8,1.8c0,0,0.4,0.1,0.7,0.1l0.6-0.8c0.2-0.3,0.3-0.5,0.4-0.5c0.1,0,0,0.2-0.1,0.5l-0.5,0.9
	c2.2,0.1,2.4-0.7,2.4-1c0-0.3-0.5-0.6-0.2-0.8c0.3-0.2,0.6-0.1,0.8,0.2c0.3,0.3,0.3,0.6,1,0.3c0,0,4.8-2,5.4-2.3
	c0.6-0.2,0.4-0.5,0.1-0.8c-0.4-0.3-0.4-0.8-0.4-1.3c0-1.5,0.9-1.9,2.4-1.9c0,0.3-0.1,0.5-0.1,0.7c0,2.3,3.4,4.6,4.4,4.6
	c0.4,0,1-0.3,1,1.1c0,1,0.2,1.7,0,2.9c-0.2,1.2-0.5,1.4-1.2,1.9c-0.7,0.5-1.4,2.1-1.7,2.4c0.3,0.2,0.6,0.2,0.9-0.5
	c0.2-0.6,0.5-1.1,0.7-1.2c-0.3,0.7-0.5,1.7-0.6,2c0.9,0.1,2.3-0.7,2.3-1.3s-0.5-0.6-0.5-1c0-0.2,0.2-0.4,0.5-0.4
	c0.4,0,0.6,0.3,0.6,0.4c0.4-0.2,0.6-0.6,0.6-1.5c0-0.3,0-0.7,0-1.1c0,0.1,0,0.1,0.1,0.2c0.2,0.3,0.5,0.4,0.8,0.4
	c0.3,0,0.7-0.1,1-0.3c0.3-0.2,0.6-0.6,0.6-0.9c0-0.1,0-0.2,0-0.2c0-0.2-0.1-0.4-0.2-0.5c-0.1-0.2-0.4-0.4-0.6-0.4
	c-0.4-0.1-0.8,0-1.1,0.2c-0.3,0.2-0.6,0.5-0.6,0.9c-0.1-1.3-0.2-2.4-0.1-2.9c0.1-0.7,0.1-1-0.1-1.1c-0.2-0.1-0.5,0.3-0.8,0.3
	c-0.3,0-1.3-1-1.3-1.9c0-1,1.1-2.3,1-3.7c0-0.4,0.2-0.6,0.4-0.3c0.2,0.5,0.5,1.1,1,1.6c-0.3,1.7,1.6,3.4,3.1,2.1
	c-0.8,0.1-1.3-0.6-1.6-1.3c0.1,0,0.3,0,0.4,0c0.1,0,0.2,0,0.2,0c0.5,0.7,2.2,0.6,2.7-1.1c-0.3,0.4-0.9,0.6-1.4,0.6
	c0.6-0.5,1-1.3,1-2.2c0-4.4-5.2-4.9-5.2-8.8c0-1.5,1.3-2.4,2.1-2.4c0.3,0,0.6,0.1,0.8,0.3c-0.3,0.3-0.5,0.9-0.5,1.5
	c0.1,3.1,5.2,3,5.2,4.5C69.3,26,65.6,26.7,65.5,23.6"/>
<path fill="#FFFFFF" d="M36.1,49.4c-0.1-0.2-0.3-0.4-0.5-0.4c-0.7,0-0.5,1.9-1.3,1.9c-0.4,0-0.6-0.2-0.6-0.5c0-0.3,0.2-0.4,0.2-0.6
	c0-0.2-0.2-0.3-0.4-0.3c-0.2,0-0.4,0.1-0.4,0.3c0,0.2,0.2,0.3,0.2,0.6c0,0.3-0.2,0.5-0.6,0.5c-0.9,0-0.6-1.9-1.3-1.9
	c-0.2,0-0.4,0.1-0.5,0.4c-0.1-0.3-0.2-0.6-0.2-0.8c0-0.4,0.3-0.8,0.8-0.8c1,0,0.7,1.3,1.2,1.3c0.2,0,0.4-0.1,0.4-0.3
	c0-0.4-0.7-0.7-0.7-1.3c0-0.5,0.5-1,1-1.4c0.5,0.4,1,0.9,1,1.4c0,0.5-0.7,0.9-0.7,1.3c0,0.2,0.2,0.3,0.4,0.3c0.5,0,0.2-1.3,1.2-1.3
	c0.6,0,0.8,0.5,0.8,0.8C36.3,48.9,36.2,49.2,36.1,49.4 M33.6,52.2c-0.3,0-0.5-0.2-0.5-0.5c0-0.3,0.2-0.5,0.5-0.5
	c0.3,0,0.5,0.2,0.5,0.5C34,51.9,33.8,52.2,33.6,52.2 M35.5,47.5c-0.1,0-0.2,0-0.4,0.1v-2.1c-0.9,0-2-0.2-3.1-0.5v2.6
	c-0.1,0-0.2-0.1-0.4-0.1c-0.8,0-1.2,0.6-1.2,1.2c0,0.5,0.3,1.1,0.6,1.4c0.1-0.3,0.3-0.6,0.5-0.6c0.4,0,0.2,1.9,1.3,1.9
	c0,0.1-0.1,0.2-0.1,0.3c0,0.5,0.4,0.8,0.8,0.8c0.5,0,0.8-0.4,0.8-0.8c0-0.1,0-0.2-0.1-0.3c1.1,0,0.9-1.9,1.3-1.9
	c0.2,0,0.3,0.3,0.5,0.6c0.3-0.3,0.6-0.8,0.6-1.4C36.7,48.1,36.2,47.5,35.5,47.5"/>
<path fill="#FFFFFF" d="M29.4,9.4c-0.3,0.6-0.6,1-0.6,1.5c0,0.5,0.6,0.8,0.8,1.3c0.2-0.6,0.6-1,0.5-1.4C30.1,10.3,29.5,9.7,29.4,9.4
	"/>
<path fill="#FFFFFF" d="M37.7,9.4c0.3,0.6,0.6,1,0.6,1.5c0,0.5-0.5,0.8-0.8,1.3c-0.2-0.6-0.6-1-0.5-1.4C37,10.3,37.6,9.7,37.7,9.4"
	/>
<path fill="#FFFFFF" d="M24.6,9c0.3,0,0.6-0.2,0.6-0.6c0-0.3-0.2-0.6-0.6-0.6c-0.3,0-0.6,0.2-0.6,0.6C24,8.8,24.3,9,24.6,9"/>
<path fill="#FFFFFF" d="M25,9.8c0-0.3-0.3-0.6-0.6-0.6c-0.3,0-0.6,0.3-0.6,0.6c0,0.3,0.3,0.6,0.6,0.6C24.7,10.4,25,10.2,25,9.8"/>
<path fill="#FFFFFF" d="M25.3,11.2c0-0.3-0.2-0.6-0.6-0.6c-0.3,0-0.6,0.3-0.6,0.6c0,0.3,0.2,0.6,0.6,0.6
	C25,11.8,25.3,11.5,25.3,11.2"/>
<path fill="#FFFFFF" d="M27.7,6.3c0.3,0,0.6-0.3,0.6-0.6c0-0.3-0.2-0.6-0.6-0.6c-0.3,0-0.6,0.3-0.6,0.6C27.2,6.1,27.4,6.3,27.7,6.3"
	/>
<path fill="#FFFFFF" d="M26.3,6.8c0.3,0,0.6-0.3,0.6-0.6c0-0.3-0.2-0.6-0.6-0.6s-0.6,0.2-0.6,0.6C25.8,6.5,26,6.8,26.3,6.8"/>
<path fill="#FFFFFF" d="M25.2,7.7c0.3,0,0.6-0.2,0.6-0.6c0-0.3-0.2-0.6-0.6-0.6s-0.6,0.3-0.6,0.6C24.7,7.5,24.9,7.7,25.2,7.7"/>
<path fill="#FFFFFF" d="M29.2,6.5c0.3,0,0.6-0.3,0.6-0.6c0-0.3-0.3-0.6-0.6-0.6c-0.3,0-0.6,0.3-0.6,0.6C28.6,6.2,28.9,6.5,29.2,6.5"
	/>
<path fill="#FFFFFF" d="M30.6,6.9c0.3,0,0.6-0.3,0.6-0.6c0-0.3-0.2-0.6-0.6-0.6C30.3,5.7,30,6,30,6.3C30,6.6,30.3,6.9,30.6,6.9"/>
<path fill="#FFFFFF" d="M31.9,7.5c0.3,0,0.6-0.3,0.6-0.6c0-0.3-0.2-0.6-0.6-0.6c-0.3,0-0.6,0.2-0.6,0.6C31.3,7.2,31.6,7.5,31.9,7.5"
	/>
<path fill="#FFFFFF" d="M41.9,8.5c0,0.3,0.3,0.6,0.6,0.6C42.8,9,43,8.8,43,8.5c0-0.3-0.3-0.6-0.6-0.6C42.2,7.9,41.9,8.1,41.9,8.5"/>
<path fill="#FFFFFF" d="M42.7,9.3c-0.3,0-0.6,0.3-0.6,0.6c0,0.3,0.2,0.6,0.6,0.6c0.3,0,0.6-0.2,0.6-0.6C43.2,9.5,43,9.3,42.7,9.3"/>
<path fill="#FFFFFF" d="M42.4,10.7c-0.3,0-0.6,0.3-0.6,0.6c0,0.3,0.2,0.6,0.6,0.6c0.3,0,0.6-0.3,0.6-0.6
	C43,10.9,42.7,10.7,42.4,10.7"/>
<path fill="#FFFFFF" d="M39.4,6.3c0.3,0,0.6-0.3,0.6-0.6c0-0.3-0.3-0.6-0.6-0.6c-0.3,0-0.6,0.3-0.6,0.6C38.8,6.1,39.1,6.3,39.4,6.3"
	/>
<path fill="#FFFFFF" d="M40.8,6.8c0.3,0,0.6-0.3,0.6-0.6c0-0.3-0.2-0.6-0.6-0.6s-0.6,0.2-0.6,0.6C40.2,6.5,40.5,6.8,40.8,6.8"/>
<path fill="#FFFFFF" d="M41.9,7.7c0.3,0,0.6-0.2,0.6-0.6c0-0.3-0.2-0.6-0.6-0.6c-0.3,0-0.6,0.3-0.6,0.6C41.3,7.5,41.6,7.7,41.9,7.7"
	/>
<path fill="#FFFFFF" d="M37.9,6.5c0.3,0,0.6-0.3,0.6-0.6c0-0.3-0.2-0.6-0.6-0.6c-0.3,0-0.6,0.3-0.6,0.6C37.3,6.2,37.6,6.5,37.9,6.5"
	/>
<path fill="#FFFFFF" d="M36.5,6.9c0.3,0,0.6-0.3,0.6-0.6c0-0.3-0.2-0.6-0.6-0.6c-0.3,0-0.6,0.3-0.6,0.6C35.9,6.6,36.2,6.9,36.5,6.9"
	/>
<path fill="#FFFFFF" d="M34.6,6.9c0,0.3,0.2,0.6,0.6,0.6c0.3,0,0.6-0.3,0.6-0.6c0-0.3-0.2-0.6-0.6-0.6C34.9,6.4,34.6,6.6,34.6,6.9"
	/>
<path fill="#FFFFFF" d="M32.6,10h0.6V7.6c-0.2,0-0.4-0.1-0.6-0.2V10L32.6,10z"/>
<path fill="#FFFFFF" d="M34.5,7.4c-0.2,0.1-0.4,0.2-0.6,0.2V10h0.6V7.4L34.5,7.4z"/>
<path fill="#FFFFFF" d="M33.2,4.7V3.2c-0.7,0.2-1.3,0.7-1.4,1.4H33.2L33.2,4.7z"/>
<path fill="#FFFFFF" d="M33.9,4.7h1.4c-0.1-0.7-0.7-1.3-1.4-1.4V4.7L33.9,4.7z"/>
<path fill="#FFFFFF" d="M31.8,5.4c0.2,0.8,0.9,1.4,1.7,1.4s1.6-0.6,1.7-1.4H31.8L31.8,5.4z"/>
<path fill="#FFFFFF" d="M34.5,3c-0.4-0.3-0.7-0.8-0.8-1.3c0.5,0.1,1,0.4,1.3,0.8v-2c-0.3,0.4-0.8,0.7-1.3,0.8
	c0.1-0.5,0.3-0.9,0.7-1.4h-1.9c0.4,0.5,0.7,0.9,0.7,1.4c-0.5-0.1-1-0.4-1.3-0.8v2c0.3-0.4,0.8-0.7,1.3-0.8C33.3,2.2,33,2.7,32.6,3
	H34.5L34.5,3z"/>
<path fill="#FFFFFF" d="M34.6,43.9c-0.4,0-0.7-0.3-0.7-0.7c0-0.4,0.3-0.7,0.7-0.7c0.4,0,0.7,0.3,0.7,0.7
	C35.3,43.6,34.9,43.9,34.6,43.9 M31.2,42.9c-0.4,0-0.8-0.3-0.8-0.8c0-0.4,0.3-0.8,0.8-0.8c0.4,0,0.8,0.3,0.8,0.8
	C32,42.5,31.7,42.9,31.2,42.9 M30.1,39.5l-0.2-0.1c-0.3-0.3-0.6-0.3-0.9,0c-0.1,0.1-0.3,0.3-0.4,0.4L28.4,40l0.1,0.1
	c0.4,0.3,0.4,0.6,0.3,0.8c0,0.1-0.1,0.1-0.2,0.1c-0.2,0.1-0.4,0-0.7-0.2l-0.1-0.1l-0.1,0.1c0,0,0,0.1-0.1,0.1c0,0-0.1,0.1-0.1,0.2
	c-0.1,0.3-0.2,0.5-0.2,0.7c0,0,0,0.1,0,0.1c0.1,0.2,0.2,0.3,0.4,0.4l0.1,0c0.2,0.1,0.4,0.2,0.6,0.3c-0.3,0.2-0.6,0.2-1,0
	c-0.5-0.2-0.8-0.8-0.8-1.1c0-0.4,0.2-1,0.5-1.5l0.1-0.1L27.1,40c-0.1-0.2-0.2-0.3-0.2-0.5c0.2,0,0.4,0.1,0.5,0.1l0.1,0l0.1-0.1
	c0.2-0.2,1-1,1.6-1c0.3,0,0.6,0.2,0.9,0.4c0.2,0.2,0.3,0.4,0.3,0.7C30.3,39.6,30.2,39.6,30.1,39.5 M25.3,39.6L24.9,39
	c0,0,0.7-0.5,0.8-0.5c-0.1-0.1-0.4-0.5-0.4-0.6c-0.1,0.1-0.8,0.5-0.8,0.5L24,37.7l2.1-1.5l0.4,0.6c0,0-0.7,0.5-0.8,0.5
	c0.1,0.1,0.4,0.6,0.4,0.6c0.1-0.1,0.8-0.5,0.8-0.5l0.4,0.6L25.3,39.6L25.3,39.6z M23.2,35.8c-0.1-0.4-0.1-0.8,0-1.1
	c0.1-0.3,0.4-0.6,0.7-0.7c0.3-0.1,0.7-0.1,1,0c0.3,0.2,0.6,0.4,0.7,0.8c0.1,0.2,0.1,0.4,0.1,0.5c0,0.2,0,0.4-0.1,0.5
	c-0.1,0.3-0.4,0.6-0.7,0.7s-0.7,0.1-1,0C23.6,36.5,23.3,36.2,23.2,35.8 M36.6,42.2c-1.8-0.5-3.9-1.2-5.8-2.1l0,0
	c0.1-0.4-0.1-0.9-0.4-1.2c-0.3-0.3-0.7-0.6-1.1-0.6c-0.2,0-0.4,0-0.5,0.1c-0.3-0.3-0.5-0.5-0.8-0.9c-0.7-0.9-1.3-1.9-1.7-3.1
	c-0.2-0.7-0.4-1.3-0.5-2c-0.1,0.6-0.8,1.3-1.9,1.3c0-0.1,0-0.3-0.1-0.3C23.3,33.7,23,34,22,33.7c0.2,0.8,0.4,1.6,0.6,2.3
	c0.6,1.6,1.5,3.1,2.5,4.3c0.4,0.4,0.7,0.8,1.1,1.1c0,0.1,0,0.2,0,0.2c0,0.4,0.4,1.1,1,1.4c0.5,0.2,1,0.2,1.4-0.2
	c0.9,0.5,2,0.9,3.1,1.2c1.3,0.4,2.6,0.6,3.6,0.6c0.9,0,2-0.4,3.1-1.1c0.5-0.3,0.9-0.6,1.2-0.9c0,0,0.1-0.1,0.1-0.1
	C39,42.7,37.7,42.4,36.6,42.2"/>
<path fill="#FFFFFF" d="M25,35.4L25,35.4c0-0.1,0-0.2-0.1-0.3c-0.1-0.3-0.4-0.5-0.8-0.3c-0.3,0.1-0.4,0.5-0.3,0.8
	c0.1,0.2,0.2,0.3,0.3,0.4c0.1,0.1,0.3,0.1,0.5,0C24.9,35.8,25,35.6,25,35.4"/>
<path fill="#FFFFFF" d="M25.4,23.9c-0.3-0.2-0.6-0.1-0.8,0.3c-0.1,0.1-0.1,0.3-0.1,0.4c0,0.1,0.1,0.2,0.3,0.3c0.1,0.1,0.3,0.1,0.4,0
	c0.1,0,0.3-0.2,0.3-0.3c0-0.1,0.1-0.2,0.1-0.3C25.7,24.2,25.6,24,25.4,23.9"/>
<polygon fill="#FFFFFF" points="40.9,22.5 40.6,22.6 40.7,22.8 40.9,22.5 "/>
<path fill="#FFFFFF" d="M44.2,27.9L44,27.4l0,0c-0.1,0.1-0.1,0.1-0.1,0.2c0,0-0.1,0.1-0.1,0.1c0,0,0.1,0,0.2,0.1
	C44,27.8,44.1,27.8,44.2,27.9"/>
<path fill="#FFFFFF" d="M44,31.2c0.1,0,0.1,0,0.1-0.1c0,0,0-0.1,0-0.2c-0.1,0-0.2,0-0.2,0v0.1C43.9,31.1,43.9,31.2,44,31.2
	C43.9,31.2,43.9,31.2,44,31.2"/>
<path fill="#FFFFFF" d="M30.9,18.9c-0.1-0.1-0.3-0.1-0.4,0c-0.2,0.1-0.3,0.2-0.4,0.3c-0.1,0.2,0,0.4,0,0.5c0,0.1,0.2,0.5,0.8,0.3
	c0.1-0.1,0.3-0.2,0.3-0.3c0-0.1,0.1-0.2,0.1-0.2c0-0.1,0-0.1,0-0.2C31.2,19.1,31.1,19,30.9,18.9"/>
<path fill="#FFFFFF" d="M44.8,31.1c0,0.3-0.1,0.5-0.3,0.7C44.4,31.9,44.2,32,44,32c-0.2,0-0.4-0.1-0.6-0.2c-0.2-0.2-0.2-0.4-0.2-0.7
	v-0.1c-0.1,0-0.9,0-0.9,0l0-0.8l2.6,0.1L44.8,31.1L44.8,31.1z M44.4,34.2l-0.7-0.1l0.2-0.9l-0.2,0L43.5,34l-0.7-0.1L43,33l-0.2,0
	l-0.2,0.9l-0.7-0.1l0.3-1.7l2.5,0.5L44.4,34.2L44.4,34.2z M44,35.5l-1.6,0.6l1.2,0.5l-0.3,0.7l-2.4-1l0.2-0.6l1.6-0.6l-1.2-0.5
	l0.3-0.7l2.4,1L44,35.5L44,35.5z M42.5,38.7c-0.1,0.2-0.4,0.4-0.6,0.5l0,0l-0.7-0.5c0.8-0.3,0.8-0.5,0.8-0.5c0,0-0.2,0-0.3,0.1
	c-0.3,0.1-0.7,0.3-1.1,0.1c-0.2-0.1-0.3-0.3-0.3-0.5c0-0.2,0-0.4,0.1-0.6c0.1-0.2,0.4-0.4,0.7-0.5l0.7,0.5l-0.1,0
	c-0.4,0.1-0.6,0.3-0.7,0.4c0,0,0,0.1,0,0.1c0,0,0,0,0,0c0.1,0.1,0.3,0,0.4-0.1c0.3-0.1,0.6-0.3,1-0.1c0.2,0.1,0.3,0.3,0.3,0.5
	c0,0.1,0,0.1,0,0.2C42.7,38.3,42.6,38.5,42.5,38.7 M40.4,41l-0.5-0.5l0.6-0.7l-0.1-0.1l-0.6,0.6l-0.5-0.5l0.6-0.6l-0.2-0.1L39,39.7
	l-0.5-0.5l1.2-1.2l1.8,1.8L40.4,41L40.4,41z M33.9,30.5v-9.4c1,0,1.9,0.3,2.8,0.7c1,0.5,1.8,1.2,2.6,2c0.7,0.9,1.3,1.9,1.7,3.1
	c0.4,1.1,0.6,2.3,0.6,3.5H33.9L33.9,30.5z M33.6,20.5c-0.5,0-1.1-0.3-1.1-1.1l0-1.6l0.8,0v1.5c0,0.2,0,0.2,0.1,0.3
	c0.1,0.1,0.2,0.1,0.3,0.1c0.1,0,0.3-0.1,0.3-0.1c0,0,0.1-0.1,0.1-0.3l0-1.5l0.8,0v1.6c0,0.3-0.1,0.6-0.3,0.8
	C34.2,20.4,33.9,20.5,33.6,20.5 M25.5,30.5c0-1.2,0.2-2.4,0.6-3.5c0.4-1.2,1-2.2,1.7-3.1c0.7-0.9,1.6-1.6,2.6-2c1-0.5,2-0.7,3-0.8
	v9.4H25.5L25.5,30.5z M25.5,25.7c-0.3,0.1-0.6,0.1-1-0.1c-0.3-0.2-0.5-0.4-0.6-0.8c-0.1-0.3-0.1-0.7,0.1-1c0.2-0.3,0.5-0.6,0.8-0.7
	s0.7-0.1,1,0.1c0.3,0.2,0.5,0.4,0.6,0.8c0,0.1,0.1,0.2,0.1,0.4c0,0.2-0.1,0.4-0.2,0.7C26.1,25.4,25.8,25.6,25.5,25.7 M25.5,21.6
	l2,1.6L27,23.8l-1.9-1.6L25.5,21.6L25.5,21.6z M27.4,19.8l0.5,0.5l-0.5,0.5c0.1,0.1,1.2,1.3,1.2,1.3L28,22.6l-1.2-1.3l-0.5,0.5
	l-0.5-0.5L27.4,19.8L27.4,19.8z M32.4,20.1l-0.3,0.7c-0.6,0.1-1.2,0-1.3-0.1c-0.6,0.1-1.2-0.3-1.4-0.9c-0.1-0.3-0.1-0.7,0-1
	c0.2-0.3,0.5-0.6,0.8-0.8c0.7-0.3,1.5,0.1,1.7,0.8c0.1,0.1,0.1,0.3,0.1,0.5c0,0.2-0.1,0.5-0.2,0.7C32,20.1,32.2,20.2,32.4,20.1
	 M36.2,18.1l-0.5,2.6L35,20.6l0.5-2.6L36.2,18.1L36.2,18.1z M27.2,17.5c0-1.5,4.2-1.7,6.4-1.7h0l0,0c2.1,0,6.4,0.1,6.4,1.7
	c0,0.4-0.3,0.8-0.9,1.1c-1.1-0.7-2.9-1.5-5.5-1.5c-2.6,0-4.5,0.8-5.5,1.5C27.4,18.3,27.2,17.9,27.2,17.5 M39.9,19.8l0.5,0.4
	l-1.6,2.1l-0.6-0.4l0.8-1.1L38.2,21l-0.1-0.8l-0.7,1.1l-0.7-0.4l1.5-2.2l0.5,0.3l0.2,1.1L39.9,19.8L39.9,19.8z M41.7,21.5l0.3,0.4
	l-1.4,2.7l-0.5-0.7l0.2-0.5l-0.5-0.6L39.5,23l-0.6-0.6L41.7,21.5L41.7,21.5z M45.4,29.7c-0.2-0.2-0.5-0.5-0.7-0.9
	c-0.3-0.1-1-0.4-1.4-0.5c0,0-0.1-0.1-0.2-0.1l-1.1,0.3l-0.2-0.7l1.1-0.3c0,0,0.1-0.1,0.1-0.1c0.2-0.2,0.4-0.6,0.6-0.7
	c-0.3-0.5-0.5-0.9-0.7-1.2c-0.2-0.3-0.2-0.5-0.2-0.8l-1,0.5c0,0.1,0.4,0.9,0.4,0.9l-0.7,0.3l-0.8-1.6l2.3-1.1l0.1,0.2
	c0.1-0.1,0.1-0.2,0.2-0.3c0.1-0.1,0.2-0.2,0.2-0.3c-0.4-0.8-1-1.5-1.6-2.2c-0.7-0.8-1.5-1.5-2.4-2.1c0.5-0.3,0.9-0.8,0.9-1.5
	c0-0.4-0.2-0.8-0.5-1.1c0.5-1.6,1.4-3.5,2.1-4.4l-1.6-0.7c0.4,0.6,0.4,1.4,0.4,1.8c-0.4-0.3-0.8-0.7-0.9-1.2
	c-0.1,0.5-0.3,1.3-0.6,1.7c0.5-0.2,0.8-0.3,1.3-0.1c-0.3,0.4-1,0.9-2,0.7c-0.6-0.1-1.1-0.4-1.1-0.9c0-0.3,0.2-0.6,0.6-0.5
	c0.4,0,0.4,0.6,0.3,0.8c0.4-0.3,0.9-1.6,0.2-1.8c-0.6-0.2-1.1,0.6-1.3,1.2c-0.1-0.7-0.4-1.4-1-1.4c-0.7,0.1-0.5,1.4-0.2,1.8
	c0-0.5,0.3-0.7,0.5-0.7c0.2,0,0.5,0.1,0.4,0.6c-0.1,0.4-0.7,0.7-1.4,0.7c-0.7,0-1.9-0.2-2-1.5c0.4,0.1,1.1,0.4,1.4,0.9
	c-0.1-0.8-0.1-1.4,0-2.2c-0.4,0.5-1,0.8-1.4,0.8c0.1-0.6,0.6-1.2,1.1-1.5h-2.9c0.6,0.4,1,0.9,1.2,1.5c-0.4-0.1-1-0.3-1.4-0.8
	c0.1,0.8,0.1,1.4,0,2.2c0.3-0.4,1-0.8,1.4-0.9c-0.1,1.3-1.3,1.5-2,1.5c-0.7,0-1.3-0.3-1.4-0.7c0-0.4,0.2-0.6,0.4-0.6
	c0.2,0,0.5,0.2,0.5,0.7c0.3-0.4,0.5-1.7-0.2-1.8c-0.6,0-0.9,0.7-1,1.4c-0.2-0.6-0.7-1.4-1.3-1.2c-0.7,0.2-0.2,1.5,0.2,1.8
	c-0.1-0.2-0.1-0.8,0.2-0.8c0.4,0,0.5,0.3,0.6,0.5c0,0.5-0.5,0.8-1.1,0.9c-1,0.2-1.7-0.3-2-0.7c0.5-0.2,0.8-0.1,1.3,0.1
	c-0.2-0.5-0.5-1.3-0.6-1.7c-0.1,0.5-0.5,0.9-0.9,1.2c-0.1-0.4-0.1-1.2,0.4-1.8L24.9,12c0.8,0.8,1.7,2.8,2.2,4.4
	c-0.3,0.3-0.5,0.6-0.5,1c0,0.8,0.5,1.2,0.9,1.5c-0.9,0.6-1.7,1.3-2.4,2.1c-1.1,1.2-1.9,2.7-2.5,4.3c0,0.1-0.1,0.2-0.1,0.2
	c0.2,0.2,0.4,0.4,0.5,0.6c0,0,0-0.1,0-0.1c0.1-0.2,0.3-0.5,0.5-0.6l0.8,0.3c-0.3,0.2-0.7,0.6-0.7,0.7c0,0,0.2-0.1,0.3-0.2
	c0.2-0.2,0.6-0.5,1.1-0.3c0.2,0.1,0.4,0.2,0.4,0.4c0.1,0.2,0.1,0.4,0,0.6c-0.1,0.2-0.3,0.5-0.6,0.7l-0.7-0.3
	c0.3-0.2,0.6-0.5,0.6-0.6c0-0.1,0-0.1,0-0.1c-0.1,0-0.2,0.1-0.4,0.2c-0.1,0.1-0.3,0.3-0.5,0.3c0.3,0.5,0.6,0.9,0.6,1.3
	c0,0.7,0.2,1,0.6,1.5c0.6,0.7,0,0.7,0.5,1.6c0-0.2,0-0.5,0-0.8h7.9v8.8c-0.3,0-0.7,0-0.9,0.4c0.9,0.4,1.8,0.7,2.7,1
	c0.1-0.6,0.2-0.9,0.5-1.2c0,0-1.2-0.1-1.8-0.2v-8.8h7.7c0,1.2-0.2,2.4-0.6,3.5c-0.4,1.2-1,2.2-1.7,3.1c-0.7,0.9-1.6,1.6-2.6,2.1
	c-0.2,0.1-0.4,0.5-0.5,0.8c-0.1,0.3-0.2,0.5-0.2,0.9c0.4,0.1,0.4,0.2,0.8,0.3c2.7,0.7,3.4,0.5,3.6,0.4l0,0c0.6-0.5,1.2-1,1.7-1.6
	c1.1-1.3,1.9-2.7,2.5-4.3c0.6-1.7,0.9-3.5,0.9-5.3C45.4,30.4,45.4,30,45.4,29.7"/>
<path fill="#FFFFFF" d="M13.1,49.4c0,0-0.1,0.1-0.2,0.1c0.1,0.1,0.6,1,0.7,1.1c0,0,0.2-0.1,0.2-0.1c0.6-0.3,0.5-0.7,0.4-0.9
	C13.8,49,13.4,49.2,13.1,49.4"/>
<path fill="#FFFFFF" d="M48.4,46C48.4,46,48.4,45.9,48.4,46c0.1-0.1,0.1-0.1,0.1-0.2c0-0.1,0-0.1-0.1-0.2c0,0-0.2-0.1-0.2-0.1
	S48,45.7,48,45.8c0.1,0,0.2,0.1,0.2,0.1C48.2,46,48.3,46,48.4,46"/>
<path fill="#FFFFFF" d="M45,45.6c0.5,0.1,0.8,0,1-0.5c0.2-0.4,0-0.7-0.6-0.8l0,0c0,0,0,0-0.2,0c-0.1,0.1-0.4,1.2-0.4,1.3
	C44.9,45.6,45,45.6,45,45.6"/>
<path fill="#FFFFFF" d="M50.1,48.5c0.2,0.1,0.4,0.1,0.5,0.1c0.2-0.1,0.3-0.2,0.4-0.3c0.1-0.2,0.1-0.3,0.1-0.5
	c-0.1-0.2-0.2-0.3-0.3-0.4c-0.2-0.1-0.4-0.1-0.6-0.1c-0.2,0.1-0.3,0.1-0.4,0.3c-0.1,0.2-0.1,0.3-0.1,0.5
	C49.8,48.2,49.9,48.4,50.1,48.5"/>
<path fill="#FFFFFF" d="M37.3,54.4c-0.1-0.1-0.3-0.2-0.5-0.2c-0.2,0-0.4,0.1-0.6,0.2C36.1,54.6,36,54.8,36,55c0,0.2,0.1,0.4,0.2,0.5
	c0.2,0.1,0.3,0.2,0.5,0.2c0.2,0,0.4-0.1,0.5-0.2c0.1-0.2,0.2-0.3,0.2-0.5C37.5,54.7,37.4,54.6,37.3,54.4"/>
<path fill="#FFFFFF" d="M44.9,49.3c0,0.7-0.6,1.4-1.7,1.9c0.3-1.5-3.2-1.9-3.2-3c0-0.9,1.4-1.4,2.4-1.6
	C43.1,47.5,44.9,48.2,44.9,49.3 M41.3,55.5l-0.6,0.2c0,0-1-1-1.2-1.3c0,0.3-0.1,1.6-0.1,1.6l-0.8,0.2l0.2-3.1l0.6-0.1l1.2,1.3
	c0-0.3,0.1-1.6,0.1-1.6l0.8-0.2L41.3,55.5L41.3,55.5z M37.9,56c-0.3,0.3-0.7,0.4-1.2,0.5c-0.4,0-0.8-0.1-1.1-0.4
	c-0.3-0.3-0.5-0.6-0.5-1.1c0-0.4,0.2-0.8,0.5-1.1c0.3-0.3,0.7-0.5,1.1-0.5c0.5,0,0.8,0.1,1.2,0.4c0.3,0.3,0.5,0.6,0.5,1.1
	S38.2,55.7,37.9,56 M34.9,56.6l-0.8,0V55c-0.2,0.2-0.7,0.8-0.7,0.8s-0.5-0.6-0.7-0.8v1.6l-0.8,0v-3l0.7,0c0,0,0.7,0.9,0.8,1
	c0.1-0.1,0.8-1,0.8-1l0.7,0V56.6L34.9,56.6z M30.3,54.2c-0.2,0-0.6-0.1-0.9-0.1v2.2l-0.8-0.1V54c-0.2,0-0.6-0.1-0.8-0.1v-0.8
	c0.7,0.1,1.7,0.3,2.5,0.4V54.2L30.3,54.2z M25.8,55.5l-0.1-3c0.4,0.1,1.4,0.4,1.9,0.5l0,0.8c-0.2-0.1-0.7-0.2-1.1-0.3
	c0,0,0,0.2,0,0.3c0.1,0,1,0.3,1,0.3l0,0.8c0,0-0.8-0.2-1-0.2c0,0,0,0.2,0,0.3c0.3,0.1,0.7,0.2,1.1,0.3l0,0.8
	C27,55.9,26.2,55.7,25.8,55.5 M24,51.3c-1.1-0.6-1.7-1.3-1.7-1.9c0-1.1,1.8-1.8,2.4-2.7c1,0.2,2.4,0.7,2.4,1.6
	C27.1,49.3,23.7,49.8,24,51.3 M21.1,46.9c-0.8,0.4-1.4,0-1.6-0.6l-0.7-1.6l0.7-0.4c0,0,0.7,1.6,0.7,1.6c0.2,0.3,0.3,0.4,0.6,0.3
	c0.4-0.2,0.4-0.3,0.2-0.6l-0.7-1.6l0.8-0.3l0.7,1.6C22,45.9,22,46.5,21.1,46.9 M17.9,48.8l-1.5-2.4l1.6-1l0.4,0.7l-0.9,0.6
	c0,0.1,0.1,0.1,0.1,0.2l0.9-0.6l0.4,0.7L18,47.4c0,0.1,0.1,0.2,0.2,0.2l0.9-0.6l0.4,0.7L17.9,48.8L17.9,48.8z M16.3,49.8l-1.5-2.4
	l0.7-0.4l1.5,2.4L16.3,49.8L16.3,49.8z M14.1,51.1l-0.8,0.5l-1.4-2.4l0.9-0.5c0.3-0.2,0.6-0.3,0.8-0.3c0.3,0,0.5,0.1,0.7,0.2
	c0.2,0.1,0.4,0.3,0.5,0.5C15.1,49.8,15.1,50.6,14.1,51.1 M44.7,43.3l1.1,0.3c0.7,0.2,1.3,0.8,0.9,1.8c-0.4,1.1-1.2,1.2-2,1l-1-0.2
	L44.7,43.3L44.7,43.3z M48.8,45L48.8,45c0.1,0.1,0.3,0.2,0.4,0.4c0.2,0.2,0.1,0.5,0,0.8c-0.1,0.2-0.3,0.3-0.4,0.4
	c-0.1,0-0.1,0-0.2,0c0,0.1,0,0.3,0,0.4c0,0.6,0.1,1.3,0.1,1.3c-0.1-0.1-0.8-0.5-0.9-0.6l-0.1-0.8c0-0.3,0-0.4-0.1-0.5
	c-0.1,0.1-0.5,0.9-0.5,0.9L46.4,47l1.4-2.5C48,44.6,48.6,44.9,48.8,45 M50.1,46.4c0.4-0.1,0.8,0,1.1,0.2c0.4,0.2,0.6,0.5,0.7,0.9
	c0,0.1,0.1,0.2,0.1,0.4c0,0.2-0.1,0.5-0.2,0.7c-0.2,0.4-0.5,0.6-0.9,0.7c-0.4,0.1-0.8,0-1.2-0.2c-0.4-0.2-0.6-0.5-0.7-0.9
	c-0.1-0.4-0.1-0.8,0.2-1.1C49.4,46.8,49.7,46.5,50.1,46.4 M53.5,48.1L52,50.6l-0.7-0.4l1.5-2.5L53.5,48.1L53.5,48.1z M56.1,49.6
	l-0.4,0.7c-0.2-0.1-0.6-0.3-0.9-0.4c-0.2,0.4-0.9,1.5-1.1,1.7l-0.7-0.3c0,0,0.8-1.3,1.1-1.8c-0.2-0.1-0.6-0.3-0.7-0.4l0.4-0.7
	C54.4,48.7,55.6,49.3,56.1,49.6 M55.5,52.3c1.5,0,2.8-1.9,4.6-2.7C55.5,51,49,43,44.6,43c-1.2,0-2.7,0.5-3.4,2.2
	c-0.7,1.8-1.6,2.4-1.6,3.2c0,0.7,0.6,1.3,1.7,1.8c0.7,0.4,1.4,0.6,1.4,1.2c-2,0.9-5.3,1.6-9.2,1.6c-3.9,0-7.2-0.6-9.2-1.6
	c0-0.7,0.7-0.9,1.4-1.2c1.1-0.6,1.7-1.1,1.7-1.8c0-0.8-0.8-1.4-1.6-3.2c-0.7-1.7-2.1-2.2-3.4-2.2c-4.4,0-10.8,8-15.5,6.7
	c1.8,0.8,3.2,2.7,4.6,2.7c3.8,0,8.1-5.8,12.3-5.8c0,0,0.1,0,0.2,0c-1,1.2-2.3,1.4-2.3,2.7c0,0.9,0.7,1.4,1.2,2.5
	c0.3,0.7,0.4,1.2,0.6,2.2c0.2,0.9,0.8,3.2,9.9,3.2c9.1,0,9.7-2.3,9.9-3.2c0.3-1,0.3-1.5,0.6-2.2c0.5-1.1,1.2-1.7,1.2-2.5
	c0-1.2-1.3-1.5-2.3-2.7c0.1,0,0.1,0,0.2,0C47.3,46.6,51.7,52.3,55.5,52.3"/>
</svg>
