<?xml version="1.0" encoding="utf-8"?>
<!-- Generator: Adobe Illustrator 18.1.1, SVG Export Plug-In . SVG Version: 6.00 Build 0)  -->
<!DOCTYPE svg PUBLIC "-//W3C//DTD SVG 1.1//EN" "http://www.w3.org/Graphics/SVG/1.1/DTD/svg11.dtd">
<svg version="1.1" id="Layer_1" xmlns="http://www.w3.org/2000/svg" xmlns:xlink="http://www.w3.org/1999/xlink" x="0px" y="0px"
   viewBox="0 0 365 191.6" enable-background="new 0 0 365 191.6" xml:space="preserve">
<rect x="14.2" y="92.2" fill="#85994B" width="336.7" height="85.3"/>
<g>
  <path fill="#231F20" d="M22.1,65.1c0.9,1.1,2,2.1,3.4,3.1c1.3,1,2.8,1.9,4.4,2.7c1.6,0.8,3.3,1.5,5.2,1.9c1.9,0.5,3.9,0.7,6.1,0.7
    c4.1,0,7.2-0.8,9.3-2.5c2.2-1.7,3.2-3.8,3.2-6.2c0-2.5-0.9-4.5-2.8-5.8c-1.9-1.3-4.9-2.4-9-3.1l-2.2-0.4c-3-0.5-5.9-1.2-8.8-2.1
    c-2.9-0.9-5.6-2.1-8-3.7c-2.4-1.6-4.3-3.7-5.8-6.2c-1.5-2.5-2.2-5.7-2.2-9.6c0-2.2,0.5-4.6,1.5-7c1-2.5,2.6-4.7,4.7-6.8
    c2.2-2.1,4.9-3.7,8.4-5.1c3.4-1.3,7.5-2,12.4-2c5.7,0,10.8,0.9,15.3,2.8c4.5,1.9,8.1,4.4,10.9,7.5l-9.5,8.9c-1.9-2.1-4.4-3.8-7.5-5
    c-3-1.2-6.2-1.8-9.4-1.8c-3.7,0-6.6,0.7-8.7,2.1c-2.1,1.4-3.1,3.3-3.1,5.5c0,1.5,0.3,2.7,1,3.7c0.7,1,1.6,1.8,2.8,2.4
    c1.2,0.6,2.7,1.2,4.4,1.6c1.7,0.4,3.6,0.9,5.7,1.3l1.1,0.2c2.8,0.5,5.6,1.2,8.5,2c2.8,0.8,5.3,2,7.6,3.6c2.3,1.6,4.1,3.6,5.6,6.1
    c1.4,2.5,2.1,5.7,2.1,9.7c0,3.6-0.7,6.7-2.2,9.4c-1.5,2.7-3.4,5.1-5.9,7c-2.4,1.9-5.3,3.4-8.5,4.3c-3.2,1-6.5,1.5-10,1.5
    c-3.5,0-6.7-0.3-9.7-0.9c-3-0.6-5.7-1.4-8.1-2.5c-2.4-1.1-4.6-2.3-6.5-3.7c-1.9-1.4-3.6-2.8-5-4.3L22.1,65.1z"/>
  <path fill="#231F20" d="M78.3,14.2h28.3c3.7,0,7,0.6,9.9,1.8c2.9,1.2,5.4,2.9,7.5,4.9c2,2.1,3.6,4.6,4.7,7.4c1.1,2.9,1.7,6,1.7,9.3
    c0,3.4-0.6,6.5-1.8,9.3c-1.2,2.9-2.9,5.3-5.1,7.4c-2.2,2.1-4.8,3.7-7.9,4.9c-3.1,1.2-6.4,1.8-10.1,1.8H92.6V85H78.3V14.2z
     M115.6,37.5c0-1.7-0.3-3.2-0.9-4.5c-0.6-1.3-1.5-2.4-2.6-3.3c-1.1-0.9-2.5-1.6-4.1-2.1c-1.6-0.5-3.4-0.7-5.3-0.7H92.6v21.7h10.1
    c2,0,3.8-0.2,5.3-0.7c1.6-0.5,2.9-1.2,4.1-2.1c1.1-0.9,2-2,2.6-3.3c0.6-1.3,0.9-2.8,0.9-4.5V37.5z"/>
  <path fill="#231F20" d="M136.8,14.2h27.4c4.2,0,7.9,0.6,11.2,1.8c3.2,1.2,5.9,2.9,8.1,4.9c2.2,2,3.8,4.4,4.9,7
    c1.1,2.7,1.7,5.4,1.7,8.3c0,2.3-0.4,4.6-1.1,6.6c-0.7,2.1-1.7,4-2.9,5.7c-1.2,1.7-2.7,3.2-4.4,4.4c-1.7,1.2-3.5,2.2-5.4,2.9
    L191.9,85h-16.5l-12.8-25.5h-11.4V85h-14.3V14.2z M175.2,36.8c0-1.4-0.3-2.7-0.8-4c-0.5-1.2-1.3-2.3-2.3-3.2
    c-1-0.9-2.3-1.6-3.9-2.1c-1.5-0.5-3.3-0.7-5.4-0.7h-11.7v20h11.7c2,0,3.8-0.3,5.4-0.8c1.5-0.5,2.8-1.2,3.9-2.1c1-0.9,1.8-2,2.3-3.2
    C174.9,39.5,175.2,38.2,175.2,36.8z"/>
  <path fill="#231F20" d="M200.2,14.2h14.3V85h-14.3V14.2z"/>
  <path fill="#231F20" d="M241.9,30.8V85h-14.3V14.2h20.2l28.4,47.6V14.2h14.3V85h-15.8L241.9,30.8z"/>
  <path fill="#231F20" d="M296.9,14.2h54v13.3H331V85h-14.3V27.5h-19.8V14.2z"/>
</g>
<g>
  <path fill="#FFFFFF" d="M160.3,99.4v58h14.6v13h-44v-13h14.7v-34h-14.7v-13h5c2.1,0,3.9-0.2,5.2-0.6c1.3-0.4,2.4-1,3.1-1.8
    c0.7-0.8,1.2-1.8,1.5-3c0.3-1.2,0.4-2.7,0.4-4.5v-1.2H160.3z"/>
  <path fill="#FFFFFF" d="M181.5,138.1l4-38.8H231v13h-33.5l-1.4,13.2c0.8-0.7,1.7-1.3,2.8-1.8c1.1-0.5,2.2-1,3.4-1.3
    c1.2-0.4,2.5-0.6,3.7-0.8c1.3-0.2,2.5-0.3,3.8-0.3c3.6,0,6.9,0.6,9.9,1.7c3,1.2,5.7,2.8,7.9,4.9c2.2,2.1,3.9,4.7,5.2,7.6
    c1.3,3,1.9,6.3,1.9,9.9c0,3.9-0.7,7.5-2.2,10.7c-1.4,3.2-3.4,5.9-5.9,8.2c-2.5,2.3-5.5,4-8.9,5.2c-3.4,1.2-7.1,1.9-11,1.9
    c-3.2,0-6.2-0.4-9.1-1.2c-2.9-0.8-5.6-2-8-3.6c-2.4-1.6-4.5-3.5-6.3-5.7c-1.8-2.3-3.1-4.9-3.9-7.8l13.7-4.5c1,3.1,2.6,5.5,4.8,7.2
    c2.2,1.7,5.1,2.6,8.7,2.6c2.1,0,4-0.4,5.7-1.1c1.6-0.7,3-1.7,4.1-2.8c1.1-1.2,1.9-2.5,2.5-4c0.6-1.5,0.9-3,0.9-4.6
    c0-1.6-0.3-3.1-0.9-4.5c-0.6-1.5-1.5-2.8-2.6-3.9c-1.1-1.1-2.5-2.1-4.2-2.7c-1.6-0.7-3.5-1-5.6-1c-1.3,0-2.5,0.2-3.7,0.5
    c-1.2,0.3-2.2,0.8-3.2,1.3c-1,0.5-1.8,1.2-2.5,1.9c-0.7,0.7-1.2,1.4-1.6,2.1L181.5,138.1z"/>
</g>
</svg>
